M48
; DRILL file {KiCad (5.1.10)-1} date 11/19/21 23:26:07
; FORMAT={-:-/ absolute / inch / decimal}
; #@! TF.CreationDate,2021-11-19T23:26:07+01:00
; #@! TF.GenerationSoftware,Kicad,Pcbnew,(5.1.10)-1
; #@! TF.FileFunction,NonPlated,1,2,NPTH
FMAT,2
INCH
T1C0.0689
T2C0.0827
T3C0.1181
T4C0.1570
%
G90
G05
T1
X7.25Y-4.35
X7.65Y-4.35
X8.0Y-3.6
X8.0Y-4.35
X8.4Y-3.6
X8.4Y-4.35
X8.75Y-4.35
X9.15Y-4.35
T2
X7.127Y-3.547
X9.451Y-4.677
T3
X7.3Y-4.25
X7.55Y-4.15
X8.05Y-3.5
X8.05Y-4.25
X8.3Y-3.4
X8.3Y-4.15
X8.8Y-4.25
X9.05Y-4.15
T4
X7.45Y-4.35
X8.2Y-3.6
X8.2Y-4.35
X8.95Y-4.35
T0
M30
