%TF.GenerationSoftware,KiCad,Pcbnew,(5.1.10)-1*%
%TF.CreationDate,2021-11-19T23:24:49+01:00*%
%TF.ProjectId,Labbe,4c616262-652e-46b6-9963-61645f706362,rev?*%
%TF.SameCoordinates,Original*%
%TF.FileFunction,Legend,Bot*%
%TF.FilePolarity,Positive*%
%FSLAX46Y46*%
G04 Gerber Fmt 4.6, Leading zero omitted, Abs format (unit mm)*
G04 Created by KiCad (PCBNEW (5.1.10)-1) date 2021-11-19 23:24:49*
%MOMM*%
%LPD*%
G01*
G04 APERTURE LIST*
%ADD10C,0.120000*%
%ADD11C,0.200000*%
%ADD12C,0.150000*%
G04 APERTURE END LIST*
D10*
%TO.C,C4*%
X195606948Y-118073500D02*
X196129452Y-118073500D01*
X195606948Y-119543500D02*
X196129452Y-119543500D01*
%TO.C,C5*%
X214804448Y-118086200D02*
X215326952Y-118086200D01*
X214804448Y-119556200D02*
X215326952Y-119556200D01*
%TO.C,C6*%
X215003748Y-100531600D02*
X215526252Y-100531600D01*
X215003748Y-99061600D02*
X215526252Y-99061600D01*
%TO.C,C7*%
X233516448Y-118035400D02*
X234038952Y-118035400D01*
X233516448Y-119505400D02*
X234038952Y-119505400D01*
D11*
%TO.C,D1*%
X179965500Y-112584900D02*
X182365500Y-112584900D01*
X179965500Y-112409900D02*
X182365500Y-112409900D01*
X179965500Y-112234900D02*
X182365500Y-112234900D01*
X182365500Y-111834900D02*
X179965500Y-111834900D01*
X179965500Y-112059900D02*
X182365500Y-112059900D01*
X179965500Y-111934900D02*
X182365500Y-111934900D01*
X179965500Y-111859900D02*
X179965500Y-117659900D01*
X179965500Y-117659900D02*
X182365500Y-117659900D01*
X182365500Y-117659900D02*
X182365500Y-111859900D01*
%TO.C,D2*%
X201428200Y-98710400D02*
X201428200Y-92910400D01*
X199028200Y-98710400D02*
X201428200Y-98710400D01*
X199028200Y-92910400D02*
X199028200Y-98710400D01*
X199028200Y-92985400D02*
X201428200Y-92985400D01*
X199028200Y-93110400D02*
X201428200Y-93110400D01*
X201428200Y-92885400D02*
X199028200Y-92885400D01*
X199028200Y-93285400D02*
X201428200Y-93285400D01*
X199028200Y-93460400D02*
X201428200Y-93460400D01*
X199028200Y-93635400D02*
X201428200Y-93635400D01*
%TO.C,D3*%
X199218700Y-112533200D02*
X201618700Y-112533200D01*
X199218700Y-112358200D02*
X201618700Y-112358200D01*
X199218700Y-112183200D02*
X201618700Y-112183200D01*
X201618700Y-111783200D02*
X199218700Y-111783200D01*
X199218700Y-112008200D02*
X201618700Y-112008200D01*
X199218700Y-111883200D02*
X201618700Y-111883200D01*
X199218700Y-111808200D02*
X199218700Y-117608200D01*
X199218700Y-117608200D02*
X201618700Y-117608200D01*
X201618700Y-117608200D02*
X201618700Y-111808200D01*
%TO.C,D4*%
X220668700Y-117722300D02*
X220668700Y-111922300D01*
X218268700Y-117722300D02*
X220668700Y-117722300D01*
X218268700Y-111922300D02*
X218268700Y-117722300D01*
X218268700Y-111997300D02*
X220668700Y-111997300D01*
X218268700Y-112122300D02*
X220668700Y-112122300D01*
X220668700Y-111897300D02*
X218268700Y-111897300D01*
X218268700Y-112297300D02*
X220668700Y-112297300D01*
X218268700Y-112472300D02*
X220668700Y-112472300D01*
X218268700Y-112647300D02*
X220668700Y-112647300D01*
%TO.C,C4*%
D12*
X196034866Y-120845642D02*
X196082485Y-120893261D01*
X196225342Y-120940880D01*
X196320580Y-120940880D01*
X196463438Y-120893261D01*
X196558676Y-120798023D01*
X196606295Y-120702785D01*
X196653914Y-120512309D01*
X196653914Y-120369452D01*
X196606295Y-120178976D01*
X196558676Y-120083738D01*
X196463438Y-119988500D01*
X196320580Y-119940880D01*
X196225342Y-119940880D01*
X196082485Y-119988500D01*
X196034866Y-120036119D01*
X195177723Y-120274214D02*
X195177723Y-120940880D01*
X195415819Y-119893261D02*
X195653914Y-120607547D01*
X195034866Y-120607547D01*
%TO.C,C5*%
X215232366Y-120858342D02*
X215279985Y-120905961D01*
X215422842Y-120953580D01*
X215518080Y-120953580D01*
X215660938Y-120905961D01*
X215756176Y-120810723D01*
X215803795Y-120715485D01*
X215851414Y-120525009D01*
X215851414Y-120382152D01*
X215803795Y-120191676D01*
X215756176Y-120096438D01*
X215660938Y-120001200D01*
X215518080Y-119953580D01*
X215422842Y-119953580D01*
X215279985Y-120001200D01*
X215232366Y-120048819D01*
X214327604Y-119953580D02*
X214803795Y-119953580D01*
X214851414Y-120429771D01*
X214803795Y-120382152D01*
X214708557Y-120334533D01*
X214470461Y-120334533D01*
X214375223Y-120382152D01*
X214327604Y-120429771D01*
X214279985Y-120525009D01*
X214279985Y-120763104D01*
X214327604Y-120858342D01*
X214375223Y-120905961D01*
X214470461Y-120953580D01*
X214708557Y-120953580D01*
X214803795Y-120905961D01*
X214851414Y-120858342D01*
%TO.C,C6*%
X215431666Y-101833742D02*
X215479285Y-101881361D01*
X215622142Y-101928980D01*
X215717380Y-101928980D01*
X215860238Y-101881361D01*
X215955476Y-101786123D01*
X216003095Y-101690885D01*
X216050714Y-101500409D01*
X216050714Y-101357552D01*
X216003095Y-101167076D01*
X215955476Y-101071838D01*
X215860238Y-100976600D01*
X215717380Y-100928980D01*
X215622142Y-100928980D01*
X215479285Y-100976600D01*
X215431666Y-101024219D01*
X214574523Y-100928980D02*
X214765000Y-100928980D01*
X214860238Y-100976600D01*
X214907857Y-101024219D01*
X215003095Y-101167076D01*
X215050714Y-101357552D01*
X215050714Y-101738504D01*
X215003095Y-101833742D01*
X214955476Y-101881361D01*
X214860238Y-101928980D01*
X214669761Y-101928980D01*
X214574523Y-101881361D01*
X214526904Y-101833742D01*
X214479285Y-101738504D01*
X214479285Y-101500409D01*
X214526904Y-101405171D01*
X214574523Y-101357552D01*
X214669761Y-101309933D01*
X214860238Y-101309933D01*
X214955476Y-101357552D01*
X215003095Y-101405171D01*
X215050714Y-101500409D01*
%TO.C,C7*%
X233944366Y-120807542D02*
X233991985Y-120855161D01*
X234134842Y-120902780D01*
X234230080Y-120902780D01*
X234372938Y-120855161D01*
X234468176Y-120759923D01*
X234515795Y-120664685D01*
X234563414Y-120474209D01*
X234563414Y-120331352D01*
X234515795Y-120140876D01*
X234468176Y-120045638D01*
X234372938Y-119950400D01*
X234230080Y-119902780D01*
X234134842Y-119902780D01*
X233991985Y-119950400D01*
X233944366Y-119998019D01*
X233611033Y-119902780D02*
X232944366Y-119902780D01*
X233372938Y-120902780D01*
%TO.C,D1*%
X183452404Y-114269423D02*
X182652404Y-114269423D01*
X182652404Y-114459900D01*
X182690500Y-114574185D01*
X182766690Y-114650376D01*
X182842880Y-114688471D01*
X182995261Y-114726566D01*
X183109547Y-114726566D01*
X183261928Y-114688471D01*
X183338119Y-114650376D01*
X183414309Y-114574185D01*
X183452404Y-114459900D01*
X183452404Y-114269423D01*
X183452404Y-115488471D02*
X183452404Y-115031328D01*
X183452404Y-115259900D02*
X182652404Y-115259900D01*
X182766690Y-115183709D01*
X182842880Y-115107519D01*
X182880976Y-115031328D01*
%TO.C,D2*%
X202515104Y-95319923D02*
X201715104Y-95319923D01*
X201715104Y-95510400D01*
X201753200Y-95624685D01*
X201829390Y-95700876D01*
X201905580Y-95738971D01*
X202057961Y-95777066D01*
X202172247Y-95777066D01*
X202324628Y-95738971D01*
X202400819Y-95700876D01*
X202477009Y-95624685D01*
X202515104Y-95510400D01*
X202515104Y-95319923D01*
X201791295Y-96081828D02*
X201753200Y-96119923D01*
X201715104Y-96196114D01*
X201715104Y-96386590D01*
X201753200Y-96462780D01*
X201791295Y-96500876D01*
X201867485Y-96538971D01*
X201943676Y-96538971D01*
X202057961Y-96500876D01*
X202515104Y-96043733D01*
X202515104Y-96538971D01*
%TO.C,D3*%
X202705604Y-114217723D02*
X201905604Y-114217723D01*
X201905604Y-114408200D01*
X201943700Y-114522485D01*
X202019890Y-114598676D01*
X202096080Y-114636771D01*
X202248461Y-114674866D01*
X202362747Y-114674866D01*
X202515128Y-114636771D01*
X202591319Y-114598676D01*
X202667509Y-114522485D01*
X202705604Y-114408200D01*
X202705604Y-114217723D01*
X201905604Y-114941533D02*
X201905604Y-115436771D01*
X202210366Y-115170104D01*
X202210366Y-115284390D01*
X202248461Y-115360580D01*
X202286557Y-115398676D01*
X202362747Y-115436771D01*
X202553223Y-115436771D01*
X202629414Y-115398676D01*
X202667509Y-115360580D01*
X202705604Y-115284390D01*
X202705604Y-115055819D01*
X202667509Y-114979628D01*
X202629414Y-114941533D01*
%TO.C,D4*%
X221755604Y-114331823D02*
X220955604Y-114331823D01*
X220955604Y-114522300D01*
X220993700Y-114636585D01*
X221069890Y-114712776D01*
X221146080Y-114750871D01*
X221298461Y-114788966D01*
X221412747Y-114788966D01*
X221565128Y-114750871D01*
X221641319Y-114712776D01*
X221717509Y-114636585D01*
X221755604Y-114522300D01*
X221755604Y-114331823D01*
X221222271Y-115474680D02*
X221755604Y-115474680D01*
X220917509Y-115284204D02*
X221488938Y-115093728D01*
X221488938Y-115588966D01*
%TO.C,U1*%
X196913333Y-116292380D02*
X196580000Y-117292380D01*
X196246666Y-116292380D01*
X195913333Y-117292380D02*
X195913333Y-116292380D01*
X195675238Y-116292380D01*
X195532380Y-116340000D01*
X195437142Y-116435238D01*
X195389523Y-116530476D01*
X195341904Y-116720952D01*
X195341904Y-116863809D01*
X195389523Y-117054285D01*
X195437142Y-117149523D01*
X195532380Y-117244761D01*
X195675238Y-117292380D01*
X195913333Y-117292380D01*
X194913333Y-117292380D02*
X194913333Y-116292380D01*
X194675238Y-116292380D01*
X194532380Y-116340000D01*
X194437142Y-116435238D01*
X194389523Y-116530476D01*
X194341904Y-116720952D01*
X194341904Y-116863809D01*
X194389523Y-117054285D01*
X194437142Y-117149523D01*
X194532380Y-117244761D01*
X194675238Y-117292380D01*
X194913333Y-117292380D01*
X197270476Y-113482380D02*
X197270476Y-112482380D01*
X197032380Y-112482380D01*
X196889523Y-112530000D01*
X196794285Y-112625238D01*
X196746666Y-112720476D01*
X196699047Y-112910952D01*
X196699047Y-113053809D01*
X196746666Y-113244285D01*
X196794285Y-113339523D01*
X196889523Y-113434761D01*
X197032380Y-113482380D01*
X197270476Y-113482380D01*
X196080000Y-112482380D02*
X195889523Y-112482380D01*
X195794285Y-112530000D01*
X195699047Y-112625238D01*
X195651428Y-112815714D01*
X195651428Y-113149047D01*
X195699047Y-113339523D01*
X195794285Y-113434761D01*
X195889523Y-113482380D01*
X196080000Y-113482380D01*
X196175238Y-113434761D01*
X196270476Y-113339523D01*
X196318095Y-113149047D01*
X196318095Y-112815714D01*
X196270476Y-112625238D01*
X196175238Y-112530000D01*
X196080000Y-112482380D01*
X195222857Y-112482380D02*
X195222857Y-113291904D01*
X195175238Y-113387142D01*
X195127619Y-113434761D01*
X195032380Y-113482380D01*
X194841904Y-113482380D01*
X194746666Y-113434761D01*
X194699047Y-113387142D01*
X194651428Y-113291904D01*
X194651428Y-112482380D01*
X194318095Y-112482380D02*
X193746666Y-112482380D01*
X194032380Y-113482380D02*
X194032380Y-112482380D01*
X183903809Y-117292380D02*
X183903809Y-116292380D01*
X183665714Y-116292380D01*
X183522857Y-116340000D01*
X183427619Y-116435238D01*
X183380000Y-116530476D01*
X183332380Y-116720952D01*
X183332380Y-116863809D01*
X183380000Y-117054285D01*
X183427619Y-117149523D01*
X183522857Y-117244761D01*
X183665714Y-117292380D01*
X183903809Y-117292380D01*
X182903809Y-117292380D02*
X182903809Y-116292380D01*
X182427619Y-117292380D02*
X182427619Y-116292380D01*
X181856190Y-117292380D01*
X181856190Y-116292380D01*
X184165714Y-112482380D02*
X183832380Y-113482380D01*
X183499047Y-112482380D01*
X183213333Y-113434761D02*
X183070476Y-113482380D01*
X182832380Y-113482380D01*
X182737142Y-113434761D01*
X182689523Y-113387142D01*
X182641904Y-113291904D01*
X182641904Y-113196666D01*
X182689523Y-113101428D01*
X182737142Y-113053809D01*
X182832380Y-113006190D01*
X183022857Y-112958571D01*
X183118095Y-112910952D01*
X183165714Y-112863333D01*
X183213333Y-112768095D01*
X183213333Y-112672857D01*
X183165714Y-112577619D01*
X183118095Y-112530000D01*
X183022857Y-112482380D01*
X182784761Y-112482380D01*
X182641904Y-112530000D01*
X182260952Y-113434761D02*
X182118095Y-113482380D01*
X181880000Y-113482380D01*
X181784761Y-113434761D01*
X181737142Y-113387142D01*
X181689523Y-113291904D01*
X181689523Y-113196666D01*
X181737142Y-113101428D01*
X181784761Y-113053809D01*
X181880000Y-113006190D01*
X182070476Y-112958571D01*
X182165714Y-112910952D01*
X182213333Y-112863333D01*
X182260952Y-112768095D01*
X182260952Y-112672857D01*
X182213333Y-112577619D01*
X182165714Y-112530000D01*
X182070476Y-112482380D01*
X181832380Y-112482380D01*
X181689523Y-112530000D01*
%TO.C,U2*%
X215963333Y-97242380D02*
X215630000Y-98242380D01*
X215296666Y-97242380D01*
X214963333Y-98242380D02*
X214963333Y-97242380D01*
X214725238Y-97242380D01*
X214582380Y-97290000D01*
X214487142Y-97385238D01*
X214439523Y-97480476D01*
X214391904Y-97670952D01*
X214391904Y-97813809D01*
X214439523Y-98004285D01*
X214487142Y-98099523D01*
X214582380Y-98194761D01*
X214725238Y-98242380D01*
X214963333Y-98242380D01*
X213963333Y-98242380D02*
X213963333Y-97242380D01*
X213725238Y-97242380D01*
X213582380Y-97290000D01*
X213487142Y-97385238D01*
X213439523Y-97480476D01*
X213391904Y-97670952D01*
X213391904Y-97813809D01*
X213439523Y-98004285D01*
X213487142Y-98099523D01*
X213582380Y-98194761D01*
X213725238Y-98242380D01*
X213963333Y-98242380D01*
X216320476Y-94432380D02*
X216320476Y-93432380D01*
X216082380Y-93432380D01*
X215939523Y-93480000D01*
X215844285Y-93575238D01*
X215796666Y-93670476D01*
X215749047Y-93860952D01*
X215749047Y-94003809D01*
X215796666Y-94194285D01*
X215844285Y-94289523D01*
X215939523Y-94384761D01*
X216082380Y-94432380D01*
X216320476Y-94432380D01*
X215130000Y-93432380D02*
X214939523Y-93432380D01*
X214844285Y-93480000D01*
X214749047Y-93575238D01*
X214701428Y-93765714D01*
X214701428Y-94099047D01*
X214749047Y-94289523D01*
X214844285Y-94384761D01*
X214939523Y-94432380D01*
X215130000Y-94432380D01*
X215225238Y-94384761D01*
X215320476Y-94289523D01*
X215368095Y-94099047D01*
X215368095Y-93765714D01*
X215320476Y-93575238D01*
X215225238Y-93480000D01*
X215130000Y-93432380D01*
X214272857Y-93432380D02*
X214272857Y-94241904D01*
X214225238Y-94337142D01*
X214177619Y-94384761D01*
X214082380Y-94432380D01*
X213891904Y-94432380D01*
X213796666Y-94384761D01*
X213749047Y-94337142D01*
X213701428Y-94241904D01*
X213701428Y-93432380D01*
X213368095Y-93432380D02*
X212796666Y-93432380D01*
X213082380Y-94432380D02*
X213082380Y-93432380D01*
X202953809Y-98242380D02*
X202953809Y-97242380D01*
X202715714Y-97242380D01*
X202572857Y-97290000D01*
X202477619Y-97385238D01*
X202430000Y-97480476D01*
X202382380Y-97670952D01*
X202382380Y-97813809D01*
X202430000Y-98004285D01*
X202477619Y-98099523D01*
X202572857Y-98194761D01*
X202715714Y-98242380D01*
X202953809Y-98242380D01*
X201953809Y-98242380D02*
X201953809Y-97242380D01*
X201477619Y-98242380D02*
X201477619Y-97242380D01*
X200906190Y-98242380D01*
X200906190Y-97242380D01*
X203215714Y-93432380D02*
X202882380Y-94432380D01*
X202549047Y-93432380D01*
X202263333Y-94384761D02*
X202120476Y-94432380D01*
X201882380Y-94432380D01*
X201787142Y-94384761D01*
X201739523Y-94337142D01*
X201691904Y-94241904D01*
X201691904Y-94146666D01*
X201739523Y-94051428D01*
X201787142Y-94003809D01*
X201882380Y-93956190D01*
X202072857Y-93908571D01*
X202168095Y-93860952D01*
X202215714Y-93813333D01*
X202263333Y-93718095D01*
X202263333Y-93622857D01*
X202215714Y-93527619D01*
X202168095Y-93480000D01*
X202072857Y-93432380D01*
X201834761Y-93432380D01*
X201691904Y-93480000D01*
X201310952Y-94384761D02*
X201168095Y-94432380D01*
X200930000Y-94432380D01*
X200834761Y-94384761D01*
X200787142Y-94337142D01*
X200739523Y-94241904D01*
X200739523Y-94146666D01*
X200787142Y-94051428D01*
X200834761Y-94003809D01*
X200930000Y-93956190D01*
X201120476Y-93908571D01*
X201215714Y-93860952D01*
X201263333Y-93813333D01*
X201310952Y-93718095D01*
X201310952Y-93622857D01*
X201263333Y-93527619D01*
X201215714Y-93480000D01*
X201120476Y-93432380D01*
X200882380Y-93432380D01*
X200739523Y-93480000D01*
%TO.C,U3*%
X203215714Y-112482380D02*
X202882380Y-113482380D01*
X202549047Y-112482380D01*
X202263333Y-113434761D02*
X202120476Y-113482380D01*
X201882380Y-113482380D01*
X201787142Y-113434761D01*
X201739523Y-113387142D01*
X201691904Y-113291904D01*
X201691904Y-113196666D01*
X201739523Y-113101428D01*
X201787142Y-113053809D01*
X201882380Y-113006190D01*
X202072857Y-112958571D01*
X202168095Y-112910952D01*
X202215714Y-112863333D01*
X202263333Y-112768095D01*
X202263333Y-112672857D01*
X202215714Y-112577619D01*
X202168095Y-112530000D01*
X202072857Y-112482380D01*
X201834761Y-112482380D01*
X201691904Y-112530000D01*
X201310952Y-113434761D02*
X201168095Y-113482380D01*
X200930000Y-113482380D01*
X200834761Y-113434761D01*
X200787142Y-113387142D01*
X200739523Y-113291904D01*
X200739523Y-113196666D01*
X200787142Y-113101428D01*
X200834761Y-113053809D01*
X200930000Y-113006190D01*
X201120476Y-112958571D01*
X201215714Y-112910952D01*
X201263333Y-112863333D01*
X201310952Y-112768095D01*
X201310952Y-112672857D01*
X201263333Y-112577619D01*
X201215714Y-112530000D01*
X201120476Y-112482380D01*
X200882380Y-112482380D01*
X200739523Y-112530000D01*
X202953809Y-117292380D02*
X202953809Y-116292380D01*
X202715714Y-116292380D01*
X202572857Y-116340000D01*
X202477619Y-116435238D01*
X202430000Y-116530476D01*
X202382380Y-116720952D01*
X202382380Y-116863809D01*
X202430000Y-117054285D01*
X202477619Y-117149523D01*
X202572857Y-117244761D01*
X202715714Y-117292380D01*
X202953809Y-117292380D01*
X201953809Y-117292380D02*
X201953809Y-116292380D01*
X201477619Y-117292380D02*
X201477619Y-116292380D01*
X200906190Y-117292380D01*
X200906190Y-116292380D01*
X216320476Y-113482380D02*
X216320476Y-112482380D01*
X216082380Y-112482380D01*
X215939523Y-112530000D01*
X215844285Y-112625238D01*
X215796666Y-112720476D01*
X215749047Y-112910952D01*
X215749047Y-113053809D01*
X215796666Y-113244285D01*
X215844285Y-113339523D01*
X215939523Y-113434761D01*
X216082380Y-113482380D01*
X216320476Y-113482380D01*
X215130000Y-112482380D02*
X214939523Y-112482380D01*
X214844285Y-112530000D01*
X214749047Y-112625238D01*
X214701428Y-112815714D01*
X214701428Y-113149047D01*
X214749047Y-113339523D01*
X214844285Y-113434761D01*
X214939523Y-113482380D01*
X215130000Y-113482380D01*
X215225238Y-113434761D01*
X215320476Y-113339523D01*
X215368095Y-113149047D01*
X215368095Y-112815714D01*
X215320476Y-112625238D01*
X215225238Y-112530000D01*
X215130000Y-112482380D01*
X214272857Y-112482380D02*
X214272857Y-113291904D01*
X214225238Y-113387142D01*
X214177619Y-113434761D01*
X214082380Y-113482380D01*
X213891904Y-113482380D01*
X213796666Y-113434761D01*
X213749047Y-113387142D01*
X213701428Y-113291904D01*
X213701428Y-112482380D01*
X213368095Y-112482380D02*
X212796666Y-112482380D01*
X213082380Y-113482380D02*
X213082380Y-112482380D01*
X215963333Y-116292380D02*
X215630000Y-117292380D01*
X215296666Y-116292380D01*
X214963333Y-117292380D02*
X214963333Y-116292380D01*
X214725238Y-116292380D01*
X214582380Y-116340000D01*
X214487142Y-116435238D01*
X214439523Y-116530476D01*
X214391904Y-116720952D01*
X214391904Y-116863809D01*
X214439523Y-117054285D01*
X214487142Y-117149523D01*
X214582380Y-117244761D01*
X214725238Y-117292380D01*
X214963333Y-117292380D01*
X213963333Y-117292380D02*
X213963333Y-116292380D01*
X213725238Y-116292380D01*
X213582380Y-116340000D01*
X213487142Y-116435238D01*
X213439523Y-116530476D01*
X213391904Y-116720952D01*
X213391904Y-116863809D01*
X213439523Y-117054285D01*
X213487142Y-117149523D01*
X213582380Y-117244761D01*
X213725238Y-117292380D01*
X213963333Y-117292380D01*
%TO.C,U5*%
X222265714Y-112482380D02*
X221932380Y-113482380D01*
X221599047Y-112482380D01*
X221313333Y-113434761D02*
X221170476Y-113482380D01*
X220932380Y-113482380D01*
X220837142Y-113434761D01*
X220789523Y-113387142D01*
X220741904Y-113291904D01*
X220741904Y-113196666D01*
X220789523Y-113101428D01*
X220837142Y-113053809D01*
X220932380Y-113006190D01*
X221122857Y-112958571D01*
X221218095Y-112910952D01*
X221265714Y-112863333D01*
X221313333Y-112768095D01*
X221313333Y-112672857D01*
X221265714Y-112577619D01*
X221218095Y-112530000D01*
X221122857Y-112482380D01*
X220884761Y-112482380D01*
X220741904Y-112530000D01*
X220360952Y-113434761D02*
X220218095Y-113482380D01*
X219980000Y-113482380D01*
X219884761Y-113434761D01*
X219837142Y-113387142D01*
X219789523Y-113291904D01*
X219789523Y-113196666D01*
X219837142Y-113101428D01*
X219884761Y-113053809D01*
X219980000Y-113006190D01*
X220170476Y-112958571D01*
X220265714Y-112910952D01*
X220313333Y-112863333D01*
X220360952Y-112768095D01*
X220360952Y-112672857D01*
X220313333Y-112577619D01*
X220265714Y-112530000D01*
X220170476Y-112482380D01*
X219932380Y-112482380D01*
X219789523Y-112530000D01*
X222003809Y-117292380D02*
X222003809Y-116292380D01*
X221765714Y-116292380D01*
X221622857Y-116340000D01*
X221527619Y-116435238D01*
X221480000Y-116530476D01*
X221432380Y-116720952D01*
X221432380Y-116863809D01*
X221480000Y-117054285D01*
X221527619Y-117149523D01*
X221622857Y-117244761D01*
X221765714Y-117292380D01*
X222003809Y-117292380D01*
X221003809Y-117292380D02*
X221003809Y-116292380D01*
X220527619Y-117292380D02*
X220527619Y-116292380D01*
X219956190Y-117292380D01*
X219956190Y-116292380D01*
X235370476Y-113482380D02*
X235370476Y-112482380D01*
X235132380Y-112482380D01*
X234989523Y-112530000D01*
X234894285Y-112625238D01*
X234846666Y-112720476D01*
X234799047Y-112910952D01*
X234799047Y-113053809D01*
X234846666Y-113244285D01*
X234894285Y-113339523D01*
X234989523Y-113434761D01*
X235132380Y-113482380D01*
X235370476Y-113482380D01*
X234180000Y-112482380D02*
X233989523Y-112482380D01*
X233894285Y-112530000D01*
X233799047Y-112625238D01*
X233751428Y-112815714D01*
X233751428Y-113149047D01*
X233799047Y-113339523D01*
X233894285Y-113434761D01*
X233989523Y-113482380D01*
X234180000Y-113482380D01*
X234275238Y-113434761D01*
X234370476Y-113339523D01*
X234418095Y-113149047D01*
X234418095Y-112815714D01*
X234370476Y-112625238D01*
X234275238Y-112530000D01*
X234180000Y-112482380D01*
X233322857Y-112482380D02*
X233322857Y-113291904D01*
X233275238Y-113387142D01*
X233227619Y-113434761D01*
X233132380Y-113482380D01*
X232941904Y-113482380D01*
X232846666Y-113434761D01*
X232799047Y-113387142D01*
X232751428Y-113291904D01*
X232751428Y-112482380D01*
X232418095Y-112482380D02*
X231846666Y-112482380D01*
X232132380Y-113482380D02*
X232132380Y-112482380D01*
X235013333Y-116292380D02*
X234680000Y-117292380D01*
X234346666Y-116292380D01*
X234013333Y-117292380D02*
X234013333Y-116292380D01*
X233775238Y-116292380D01*
X233632380Y-116340000D01*
X233537142Y-116435238D01*
X233489523Y-116530476D01*
X233441904Y-116720952D01*
X233441904Y-116863809D01*
X233489523Y-117054285D01*
X233537142Y-117149523D01*
X233632380Y-117244761D01*
X233775238Y-117292380D01*
X234013333Y-117292380D01*
X233013333Y-117292380D02*
X233013333Y-116292380D01*
X232775238Y-116292380D01*
X232632380Y-116340000D01*
X232537142Y-116435238D01*
X232489523Y-116530476D01*
X232441904Y-116720952D01*
X232441904Y-116863809D01*
X232489523Y-117054285D01*
X232537142Y-117149523D01*
X232632380Y-117244761D01*
X232775238Y-117292380D01*
X233013333Y-117292380D01*
%TD*%
M02*
