%TF.GenerationSoftware,KiCad,Pcbnew,(5.1.10)-1*%
%TF.CreationDate,2021-11-19T23:24:49+01:00*%
%TF.ProjectId,Labbe,4c616262-652e-46b6-9963-61645f706362,rev?*%
%TF.SameCoordinates,Original*%
%TF.FileFunction,Copper,L2,Bot*%
%TF.FilePolarity,Positive*%
%FSLAX46Y46*%
G04 Gerber Fmt 4.6, Leading zero omitted, Abs format (unit mm)*
G04 Created by KiCad (PCBNEW (5.1.10)-1) date 2021-11-19 23:24:49*
%MOMM*%
%LPD*%
G01*
G04 APERTURE LIST*
%TA.AperFunction,NonConductor*%
%ADD10C,0.300000*%
%TD*%
%TA.AperFunction,SMDPad,CuDef*%
%ADD11R,1.200000X1.200000*%
%TD*%
%TA.AperFunction,ComponentPad*%
%ADD12R,1.600000X1.600000*%
%TD*%
%TA.AperFunction,ComponentPad*%
%ADD13C,1.600000*%
%TD*%
%TA.AperFunction,SMDPad,CuDef*%
%ADD14R,0.500000X2.500000*%
%TD*%
%TA.AperFunction,ComponentPad*%
%ADD15C,0.700000*%
%TD*%
%TA.AperFunction,ComponentPad*%
%ADD16O,0.900000X2.400000*%
%TD*%
%TA.AperFunction,ComponentPad*%
%ADD17O,0.900000X1.700000*%
%TD*%
%TA.AperFunction,SMDPad,CuDef*%
%ADD18R,1.500000X1.500000*%
%TD*%
%TA.AperFunction,SMDPad,CuDef*%
%ADD19R,2.550000X2.500000*%
%TD*%
%TA.AperFunction,ViaPad*%
%ADD20C,0.800000*%
%TD*%
%TA.AperFunction,Conductor*%
%ADD21C,0.250000*%
%TD*%
%TA.AperFunction,Conductor*%
%ADD22C,0.254000*%
%TD*%
%TA.AperFunction,Conductor*%
%ADD23C,0.100000*%
%TD*%
G04 APERTURE END LIST*
D10*
X192333285Y-94369171D02*
X193047571Y-94369171D01*
X193047571Y-92869171D01*
X191190428Y-94369171D02*
X191190428Y-93583457D01*
X191261857Y-93440600D01*
X191404714Y-93369171D01*
X191690428Y-93369171D01*
X191833285Y-93440600D01*
X191190428Y-94297742D02*
X191333285Y-94369171D01*
X191690428Y-94369171D01*
X191833285Y-94297742D01*
X191904714Y-94154885D01*
X191904714Y-94012028D01*
X191833285Y-93869171D01*
X191690428Y-93797742D01*
X191333285Y-93797742D01*
X191190428Y-93726314D01*
X190476142Y-94369171D02*
X190476142Y-92869171D01*
X190476142Y-93440600D02*
X190333285Y-93369171D01*
X190047571Y-93369171D01*
X189904714Y-93440600D01*
X189833285Y-93512028D01*
X189761857Y-93654885D01*
X189761857Y-94083457D01*
X189833285Y-94226314D01*
X189904714Y-94297742D01*
X190047571Y-94369171D01*
X190333285Y-94369171D01*
X190476142Y-94297742D01*
X189119000Y-94369171D02*
X189119000Y-92869171D01*
X189119000Y-93440600D02*
X188976142Y-93369171D01*
X188690428Y-93369171D01*
X188547571Y-93440600D01*
X188476142Y-93512028D01*
X188404714Y-93654885D01*
X188404714Y-94083457D01*
X188476142Y-94226314D01*
X188547571Y-94297742D01*
X188690428Y-94369171D01*
X188976142Y-94369171D01*
X189119000Y-94297742D01*
X187190428Y-94297742D02*
X187333285Y-94369171D01*
X187619000Y-94369171D01*
X187761857Y-94297742D01*
X187833285Y-94154885D01*
X187833285Y-93583457D01*
X187761857Y-93440600D01*
X187619000Y-93369171D01*
X187333285Y-93369171D01*
X187190428Y-93440600D01*
X187119000Y-93583457D01*
X187119000Y-93726314D01*
X187833285Y-93869171D01*
X192404714Y-95419171D02*
X191904714Y-96919171D01*
X191404714Y-95419171D01*
X190119000Y-96919171D02*
X190976142Y-96919171D01*
X190547571Y-96919171D02*
X190547571Y-95419171D01*
X190690428Y-95633457D01*
X190833285Y-95776314D01*
X190976142Y-95847742D01*
X189476142Y-96776314D02*
X189404714Y-96847742D01*
X189476142Y-96919171D01*
X189547571Y-96847742D01*
X189476142Y-96776314D01*
X189476142Y-96919171D01*
X188476142Y-95419171D02*
X188333285Y-95419171D01*
X188190428Y-95490600D01*
X188119000Y-95562028D01*
X188047571Y-95704885D01*
X187976142Y-95990600D01*
X187976142Y-96347742D01*
X188047571Y-96633457D01*
X188119000Y-96776314D01*
X188190428Y-96847742D01*
X188333285Y-96919171D01*
X188476142Y-96919171D01*
X188619000Y-96847742D01*
X188690428Y-96776314D01*
X188761857Y-96633457D01*
X188833285Y-96347742D01*
X188833285Y-95990600D01*
X188761857Y-95704885D01*
X188690428Y-95562028D01*
X188619000Y-95490600D01*
X188476142Y-95419171D01*
X192154714Y-99469171D02*
X192654714Y-98754885D01*
X193011857Y-99469171D02*
X193011857Y-97969171D01*
X192440428Y-97969171D01*
X192297571Y-98040600D01*
X192226142Y-98112028D01*
X192154714Y-98254885D01*
X192154714Y-98469171D01*
X192226142Y-98612028D01*
X192297571Y-98683457D01*
X192440428Y-98754885D01*
X193011857Y-98754885D01*
X190940428Y-99397742D02*
X191083285Y-99469171D01*
X191369000Y-99469171D01*
X191511857Y-99397742D01*
X191583285Y-99254885D01*
X191583285Y-98683457D01*
X191511857Y-98540600D01*
X191369000Y-98469171D01*
X191083285Y-98469171D01*
X190940428Y-98540600D01*
X190869000Y-98683457D01*
X190869000Y-98826314D01*
X191583285Y-98969171D01*
X190369000Y-98469171D02*
X190011857Y-99469171D01*
X189654714Y-98469171D01*
X187654714Y-97969171D02*
X187511857Y-97969171D01*
X187369000Y-98040600D01*
X187297571Y-98112028D01*
X187226142Y-98254885D01*
X187154714Y-98540600D01*
X187154714Y-98897742D01*
X187226142Y-99183457D01*
X187297571Y-99326314D01*
X187369000Y-99397742D01*
X187511857Y-99469171D01*
X187654714Y-99469171D01*
X187797571Y-99397742D01*
X187869000Y-99326314D01*
X187940428Y-99183457D01*
X188011857Y-98897742D01*
X188011857Y-98540600D01*
X187940428Y-98254885D01*
X187869000Y-98112028D01*
X187797571Y-98040600D01*
X187654714Y-97969171D01*
%TO.P,C4,2*%
%TO.N,GND*%
%TA.AperFunction,SMDPad,CuDef*%
G36*
G01*
X196318200Y-119283500D02*
X196318200Y-118333500D01*
G75*
G02*
X196568200Y-118083500I250000J0D01*
G01*
X197243200Y-118083500D01*
G75*
G02*
X197493200Y-118333500I0J-250000D01*
G01*
X197493200Y-119283500D01*
G75*
G02*
X197243200Y-119533500I-250000J0D01*
G01*
X196568200Y-119533500D01*
G75*
G02*
X196318200Y-119283500I0J250000D01*
G01*
G37*
%TD.AperFunction*%
%TO.P,C4,1*%
%TO.N,VCC*%
%TA.AperFunction,SMDPad,CuDef*%
G36*
G01*
X194243200Y-119283500D02*
X194243200Y-118333500D01*
G75*
G02*
X194493200Y-118083500I250000J0D01*
G01*
X195168200Y-118083500D01*
G75*
G02*
X195418200Y-118333500I0J-250000D01*
G01*
X195418200Y-119283500D01*
G75*
G02*
X195168200Y-119533500I-250000J0D01*
G01*
X194493200Y-119533500D01*
G75*
G02*
X194243200Y-119283500I0J250000D01*
G01*
G37*
%TD.AperFunction*%
%TD*%
%TO.P,C5,2*%
%TO.N,GND*%
%TA.AperFunction,SMDPad,CuDef*%
G36*
G01*
X215515700Y-119296200D02*
X215515700Y-118346200D01*
G75*
G02*
X215765700Y-118096200I250000J0D01*
G01*
X216440700Y-118096200D01*
G75*
G02*
X216690700Y-118346200I0J-250000D01*
G01*
X216690700Y-119296200D01*
G75*
G02*
X216440700Y-119546200I-250000J0D01*
G01*
X215765700Y-119546200D01*
G75*
G02*
X215515700Y-119296200I0J250000D01*
G01*
G37*
%TD.AperFunction*%
%TO.P,C5,1*%
%TO.N,VCC*%
%TA.AperFunction,SMDPad,CuDef*%
G36*
G01*
X213440700Y-119296200D02*
X213440700Y-118346200D01*
G75*
G02*
X213690700Y-118096200I250000J0D01*
G01*
X214365700Y-118096200D01*
G75*
G02*
X214615700Y-118346200I0J-250000D01*
G01*
X214615700Y-119296200D01*
G75*
G02*
X214365700Y-119546200I-250000J0D01*
G01*
X213690700Y-119546200D01*
G75*
G02*
X213440700Y-119296200I0J250000D01*
G01*
G37*
%TD.AperFunction*%
%TD*%
%TO.P,C6,1*%
%TO.N,VCC*%
%TA.AperFunction,SMDPad,CuDef*%
G36*
G01*
X213640000Y-100271600D02*
X213640000Y-99321600D01*
G75*
G02*
X213890000Y-99071600I250000J0D01*
G01*
X214565000Y-99071600D01*
G75*
G02*
X214815000Y-99321600I0J-250000D01*
G01*
X214815000Y-100271600D01*
G75*
G02*
X214565000Y-100521600I-250000J0D01*
G01*
X213890000Y-100521600D01*
G75*
G02*
X213640000Y-100271600I0J250000D01*
G01*
G37*
%TD.AperFunction*%
%TO.P,C6,2*%
%TO.N,GND*%
%TA.AperFunction,SMDPad,CuDef*%
G36*
G01*
X215715000Y-100271600D02*
X215715000Y-99321600D01*
G75*
G02*
X215965000Y-99071600I250000J0D01*
G01*
X216640000Y-99071600D01*
G75*
G02*
X216890000Y-99321600I0J-250000D01*
G01*
X216890000Y-100271600D01*
G75*
G02*
X216640000Y-100521600I-250000J0D01*
G01*
X215965000Y-100521600D01*
G75*
G02*
X215715000Y-100271600I0J250000D01*
G01*
G37*
%TD.AperFunction*%
%TD*%
%TO.P,C7,2*%
%TO.N,GND*%
%TA.AperFunction,SMDPad,CuDef*%
G36*
G01*
X234227700Y-119245400D02*
X234227700Y-118295400D01*
G75*
G02*
X234477700Y-118045400I250000J0D01*
G01*
X235152700Y-118045400D01*
G75*
G02*
X235402700Y-118295400I0J-250000D01*
G01*
X235402700Y-119245400D01*
G75*
G02*
X235152700Y-119495400I-250000J0D01*
G01*
X234477700Y-119495400D01*
G75*
G02*
X234227700Y-119245400I0J250000D01*
G01*
G37*
%TD.AperFunction*%
%TO.P,C7,1*%
%TO.N,VCC*%
%TA.AperFunction,SMDPad,CuDef*%
G36*
G01*
X232152700Y-119245400D02*
X232152700Y-118295400D01*
G75*
G02*
X232402700Y-118045400I250000J0D01*
G01*
X233077700Y-118045400D01*
G75*
G02*
X233327700Y-118295400I0J-250000D01*
G01*
X233327700Y-119245400D01*
G75*
G02*
X233077700Y-119495400I-250000J0D01*
G01*
X232402700Y-119495400D01*
G75*
G02*
X232152700Y-119245400I0J250000D01*
G01*
G37*
%TD.AperFunction*%
%TD*%
D11*
%TO.P,D1,2*%
%TO.N,/Row1*%
X181165500Y-116434900D03*
%TO.P,D1,1*%
%TO.N,Net-(D1-Pad1)*%
X181165500Y-113284900D03*
D12*
X181165500Y-110959900D03*
D13*
%TO.P,D1,2*%
%TO.N,/Row1*%
X181165500Y-118759900D03*
D14*
%TO.P,D1,1*%
%TO.N,Net-(D1-Pad1)*%
X181165500Y-112159900D03*
%TO.P,D1,2*%
%TO.N,/Row1*%
X181165500Y-117559900D03*
%TD*%
%TO.P,D2,2*%
%TO.N,/Row0*%
X200228200Y-98610400D03*
%TO.P,D2,1*%
%TO.N,Net-(D2-Pad1)*%
X200228200Y-93210400D03*
D13*
%TO.P,D2,2*%
%TO.N,/Row0*%
X200228200Y-99810400D03*
D12*
%TO.P,D2,1*%
%TO.N,Net-(D2-Pad1)*%
X200228200Y-92010400D03*
D11*
X200228200Y-94335400D03*
%TO.P,D2,2*%
%TO.N,/Row0*%
X200228200Y-97485400D03*
%TD*%
%TO.P,D3,2*%
%TO.N,/Row1*%
X200418700Y-116383200D03*
%TO.P,D3,1*%
%TO.N,Net-(D3-Pad1)*%
X200418700Y-113233200D03*
D12*
X200418700Y-110908200D03*
D13*
%TO.P,D3,2*%
%TO.N,/Row1*%
X200418700Y-118708200D03*
D14*
%TO.P,D3,1*%
%TO.N,Net-(D3-Pad1)*%
X200418700Y-112108200D03*
%TO.P,D3,2*%
%TO.N,/Row1*%
X200418700Y-117508200D03*
%TD*%
%TO.P,D4,2*%
%TO.N,/Row1*%
X219468700Y-117622300D03*
%TO.P,D4,1*%
%TO.N,Net-(D4-Pad1)*%
X219468700Y-112222300D03*
D13*
%TO.P,D4,2*%
%TO.N,/Row1*%
X219468700Y-118822300D03*
D12*
%TO.P,D4,1*%
%TO.N,Net-(D4-Pad1)*%
X219468700Y-111022300D03*
D11*
X219468700Y-113347300D03*
%TO.P,D4,2*%
%TO.N,/Row1*%
X219468700Y-116497300D03*
%TD*%
D15*
%TO.P,J1,A1*%
%TO.N,GND*%
X193395600Y-87350600D03*
%TO.P,J1,A4*%
%TO.N,VCC*%
X192545600Y-87350600D03*
%TO.P,J1,A5*%
%TO.N,Net-(J1-PadA5)*%
X191695600Y-87350600D03*
%TO.P,J1,A6*%
%TO.N,Net-(J1-PadA6)*%
X190845600Y-87350600D03*
%TO.P,J1,A7*%
%TO.N,Net-(J1-PadA7)*%
X189995600Y-87350600D03*
%TO.P,J1,A8*%
%TO.N,Net-(J1-PadA8)*%
X189145600Y-87350600D03*
%TO.P,J1,A9*%
%TO.N,VCC*%
X188295600Y-87350600D03*
%TO.P,J1,A12*%
%TO.N,GND*%
X187445600Y-87350600D03*
%TO.P,J1,B9*%
%TO.N,VCC*%
X192545600Y-86000600D03*
%TO.P,J1,B7*%
%TO.N,Net-(J1-PadA7)*%
X190845600Y-86000600D03*
%TO.P,J1,B8*%
%TO.N,Net-(J1-PadB8)*%
X191695600Y-86000600D03*
%TO.P,J1,B12*%
%TO.N,GND*%
X193395600Y-86000600D03*
%TO.P,J1,B5*%
%TO.N,Net-(J1-PadB5)*%
X189145600Y-86000600D03*
%TO.P,J1,B4*%
%TO.N,VCC*%
X188295600Y-86000600D03*
%TO.P,J1,B1*%
%TO.N,GND*%
X187445600Y-86000600D03*
%TO.P,J1,B6*%
%TO.N,Net-(J1-PadA6)*%
X189995600Y-86000600D03*
D16*
%TO.P,J1,S1*%
%TO.N,GND*%
X194745600Y-86370600D03*
X186095600Y-86370600D03*
D17*
X194745600Y-82990600D03*
X186095600Y-82990600D03*
%TD*%
D18*
%TO.P,U1,3*%
%TO.N,GND*%
X185928000Y-113592000D03*
%TO.P,U1,5*%
%TO.N,Net-(U1-Pad5)*%
X192532000Y-113592000D03*
%TO.P,U1,4*%
%TO.N,Net-(U1-Pad4)*%
X185928000Y-117021000D03*
%TO.P,U1,6*%
%TO.N,VCC*%
X192532000Y-117021000D03*
D19*
%TO.P,U1,2*%
%TO.N,/Col0*%
X195072000Y-105410000D03*
%TO.P,U1,1*%
%TO.N,Net-(D1-Pad1)*%
X182145000Y-107950000D03*
%TD*%
D18*
%TO.P,U2,3*%
%TO.N,GND*%
X204978000Y-94542000D03*
%TO.P,U2,5*%
%TO.N,Net-(U1-Pad4)*%
X211582000Y-94542000D03*
%TO.P,U2,4*%
%TO.N,Net-(R6-Pad1)*%
X204978000Y-97971000D03*
%TO.P,U2,6*%
%TO.N,VCC*%
X211582000Y-97971000D03*
D19*
%TO.P,U2,2*%
%TO.N,/Col1*%
X214122000Y-86360000D03*
%TO.P,U2,1*%
%TO.N,Net-(D2-Pad1)*%
X201195000Y-88900000D03*
%TD*%
%TO.P,U3,1*%
%TO.N,Net-(D3-Pad1)*%
X201195000Y-107950000D03*
%TO.P,U3,2*%
%TO.N,/Col1*%
X214122000Y-105410000D03*
D18*
%TO.P,U3,6*%
%TO.N,VCC*%
X211582000Y-117021000D03*
%TO.P,U3,4*%
%TO.N,Net-(U1-Pad5)*%
X204978000Y-117021000D03*
%TO.P,U3,5*%
%TO.N,Net-(U3-Pad5)*%
X211582000Y-113592000D03*
%TO.P,U3,3*%
%TO.N,GND*%
X204978000Y-113592000D03*
%TD*%
D19*
%TO.P,U5,1*%
%TO.N,Net-(D4-Pad1)*%
X220245000Y-107950000D03*
%TO.P,U5,2*%
%TO.N,/Col2*%
X233172000Y-105410000D03*
D18*
%TO.P,U5,6*%
%TO.N,VCC*%
X230632000Y-117021000D03*
%TO.P,U5,4*%
%TO.N,Net-(U3-Pad5)*%
X224028000Y-117021000D03*
%TO.P,U5,5*%
%TO.N,Net-(U5-Pad5)*%
X230632000Y-113592000D03*
%TO.P,U5,3*%
%TO.N,GND*%
X224028000Y-113592000D03*
%TD*%
D20*
%TO.N,GND*%
X220980000Y-116840000D03*
X217373200Y-117729000D03*
X234941953Y-117593953D03*
X219009297Y-80757097D03*
X219760800Y-83718400D03*
X238023400Y-75793600D03*
X233231228Y-79241402D03*
X203581000Y-103759000D03*
X205257400Y-101129000D03*
%TO.N,VCC*%
X217093800Y-90766900D03*
X218651247Y-98153647D03*
X219689253Y-99166253D03*
X194565893Y-115266707D03*
X195122800Y-117348000D03*
%TO.N,/Row1*%
X226745800Y-90016400D03*
X219925900Y-89547700D03*
X217906600Y-116128800D03*
%TO.N,/Row0*%
X225330313Y-90384823D03*
X217015903Y-88228597D03*
%TO.N,Net-(J1-PadA6)*%
X199923400Y-120370601D03*
X239064800Y-101015800D03*
%TO.N,/D-*%
X239458500Y-86385400D03*
X239166400Y-92951300D03*
%TO.N,/D+*%
X239598200Y-85382100D03*
X238912400Y-97840800D03*
%TO.N,Net-(R5-Pad1)*%
X235432600Y-82066400D03*
X235407200Y-93014800D03*
%TO.N,/RGB*%
X223977200Y-81280000D03*
X224002600Y-76631800D03*
%TO.N,Net-(R6-Pad1)*%
X212598000Y-82118200D03*
X207518000Y-83947000D03*
X204825600Y-96291400D03*
%TO.N,/Col0*%
X225688155Y-93249618D03*
%TO.N,Net-(U1-Pad4)*%
X202488800Y-101129000D03*
X197942200Y-113487200D03*
X194008253Y-117471947D03*
X186872147Y-118450000D03*
%TO.N,Net-(U1-Pad5)*%
X203200000Y-116840000D03*
X194310000Y-114300000D03*
%TO.N,/Col1*%
X225767900Y-92252800D03*
X215620600Y-91097100D03*
X215620600Y-103403400D03*
%TO.N,Net-(U3-Pad5)*%
X219176600Y-120370600D03*
X212852000Y-114909600D03*
%TO.N,/Col2*%
X225824148Y-91254381D03*
X221348300Y-91287600D03*
X232740200Y-102717600D03*
%TD*%
D21*
%TO.N,GND*%
X224028000Y-113792000D02*
X220980000Y-116840000D01*
X224028000Y-113592000D02*
X224028000Y-113792000D01*
X217195400Y-117729000D02*
X216103200Y-118821200D01*
X217373200Y-117729000D02*
X217195400Y-117729000D01*
X234815200Y-117720706D02*
X234941953Y-117593953D01*
X234815200Y-118770400D02*
X234815200Y-117720706D01*
X219009297Y-82966897D02*
X219760800Y-83718400D01*
X219009297Y-80757097D02*
X219009297Y-82966897D01*
X234575598Y-79241402D02*
X233231228Y-79241402D01*
X238023400Y-75793600D02*
X234575598Y-79241402D01*
X216302500Y-100521600D02*
X215528900Y-101295200D01*
X216302500Y-99796600D02*
X216302500Y-100521600D01*
X215528900Y-101295200D02*
X205257400Y-101295200D01*
X205257400Y-101295200D02*
X203352400Y-99390200D01*
X203352400Y-96167600D02*
X204978000Y-94542000D01*
X203352400Y-99390200D02*
X203352400Y-96167600D01*
X204978000Y-113592000D02*
X202638000Y-113592000D01*
X202638000Y-113592000D02*
X201498200Y-114731800D01*
X200132298Y-114731800D02*
X198856600Y-113456102D01*
X201498200Y-114731800D02*
X200132298Y-114731800D01*
X198856600Y-113456102D02*
X198856600Y-106197400D01*
X201295000Y-103759000D02*
X203581000Y-103759000D01*
X198856600Y-106197400D02*
X201295000Y-103759000D01*
%TO.N,VCC*%
X194319500Y-118808500D02*
X192532000Y-117021000D01*
X194830700Y-118808500D02*
X194319500Y-118808500D01*
X213382200Y-118821200D02*
X211582000Y-117021000D01*
X214028200Y-118821200D02*
X213382200Y-118821200D01*
X232381400Y-118770400D02*
X230632000Y-117021000D01*
X232740200Y-118770400D02*
X232381400Y-118770400D01*
X213407600Y-99796600D02*
X211582000Y-97971000D01*
X214227500Y-99796600D02*
X213407600Y-99796600D01*
X214227500Y-93633200D02*
X217093800Y-90766900D01*
X214227500Y-99796600D02*
X214227500Y-93633200D01*
X217093800Y-96596200D02*
X218651247Y-98153647D01*
X217093800Y-90766900D02*
X217093800Y-96596200D01*
X219689253Y-99166253D02*
X222351600Y-101828600D01*
X222351600Y-101828600D02*
X233603800Y-101828600D01*
X233603800Y-101828600D02*
X235585000Y-103809800D01*
X235585000Y-115925600D02*
X232740200Y-118770400D01*
X235585000Y-103809800D02*
X235585000Y-115925600D01*
X216753411Y-102678399D02*
X198921201Y-102678399D01*
X217603210Y-101828600D02*
X216753411Y-102678399D01*
X198921201Y-102678399D02*
X197104000Y-104495600D01*
X197104000Y-112728600D02*
X194565893Y-115266707D01*
X197104000Y-104495600D02*
X197104000Y-112728600D01*
X195122800Y-117348000D02*
X195554600Y-117779800D01*
X195554600Y-118084600D02*
X194830700Y-118808500D01*
X195554600Y-117779800D02*
X195554600Y-118084600D01*
X214028200Y-118821200D02*
X217347800Y-115501600D01*
X217347800Y-115501600D02*
X217347800Y-103098600D01*
X217347800Y-103098600D02*
X218617800Y-101828600D01*
X218617800Y-101828600D02*
X217603210Y-101828600D01*
X222351600Y-101828600D02*
X218617800Y-101828600D01*
X188295600Y-86000600D02*
X188295600Y-87350600D01*
X188295600Y-87845574D02*
X189858026Y-89408000D01*
X188295600Y-87350600D02*
X188295600Y-87845574D01*
X192545600Y-87845574D02*
X192545600Y-87350600D01*
X190983174Y-89408000D02*
X192545600Y-87845574D01*
X189858026Y-89408000D02*
X190983174Y-89408000D01*
%TO.N,/Row1*%
X219468700Y-118822300D02*
X217996600Y-120294400D01*
X202004900Y-120294400D02*
X200418700Y-118708200D01*
X217996600Y-120294400D02*
X202004900Y-120294400D01*
X200418700Y-118708200D02*
X198692800Y-120434100D01*
X182839700Y-120434100D02*
X181165500Y-118759900D01*
X198692800Y-120434100D02*
X182839700Y-120434100D01*
X226389222Y-89659822D02*
X220004278Y-89659822D01*
X226745800Y-90016400D02*
X226389222Y-89659822D01*
X219925900Y-89581444D02*
X219925900Y-89547700D01*
X220004278Y-89659822D02*
X219925900Y-89581444D01*
X217906600Y-116128800D02*
X217906600Y-116509800D01*
X217906600Y-116509800D02*
X218211400Y-116814600D01*
X219151400Y-116814600D02*
X219468700Y-116497300D01*
X218211400Y-116814600D02*
X219151400Y-116814600D01*
%TO.N,Net-(D1-Pad1)*%
X182145000Y-109980400D02*
X181165500Y-110959900D01*
X182145000Y-107950000D02*
X182145000Y-109980400D01*
%TO.N,/Row0*%
X219172129Y-90384823D02*
X217015903Y-88228597D01*
X225330313Y-90384823D02*
X219172129Y-90384823D01*
%TO.N,Net-(D2-Pad1)*%
X201195000Y-91043600D02*
X200228200Y-92010400D01*
X201195000Y-88900000D02*
X201195000Y-91043600D01*
%TO.N,Net-(D3-Pad1)*%
X201195000Y-110131900D02*
X200418700Y-110908200D01*
X201195000Y-107950000D02*
X201195000Y-110131900D01*
%TO.N,Net-(D4-Pad1)*%
X220245000Y-110246000D02*
X219468700Y-111022300D01*
X220245000Y-107950000D02*
X220245000Y-110246000D01*
%TO.N,Net-(J1-PadA6)*%
X190670601Y-87175601D02*
X190845600Y-87350600D01*
X190670601Y-87026599D02*
X190670601Y-87175601D01*
X189995600Y-86351598D02*
X190670601Y-87026599D01*
X189995600Y-86000600D02*
X189995600Y-86351598D01*
X199923400Y-120370601D02*
X200329801Y-119964200D01*
X200329801Y-119964200D02*
X200837800Y-119964200D01*
X200837800Y-119964200D02*
X202412600Y-121539000D01*
X202412600Y-121539000D02*
X220497400Y-121539000D01*
X220497400Y-121539000D02*
X221767400Y-120269000D01*
X221767400Y-120269000D02*
X236245400Y-120269000D01*
X236245400Y-120269000D02*
X236956600Y-119557800D01*
X236956600Y-103124000D02*
X239064800Y-101015800D01*
X236956600Y-119557800D02*
X236956600Y-103124000D01*
%TO.N,/D-*%
X239458500Y-86385400D02*
X239458500Y-92659200D01*
X239458500Y-92659200D02*
X239166400Y-92951300D01*
%TO.N,/D+*%
X240183501Y-85967401D02*
X240183501Y-96531599D01*
X239598200Y-85382100D02*
X240183501Y-85967401D01*
X240183501Y-96531599D02*
X238937800Y-97777300D01*
X238937800Y-97815400D02*
X238912400Y-97840800D01*
X238937800Y-97777300D02*
X238937800Y-97815400D01*
%TO.N,Net-(R5-Pad1)*%
X235432600Y-92989400D02*
X235407200Y-93014800D01*
X235432600Y-82066400D02*
X235432600Y-92989400D01*
%TO.N,/RGB*%
X223977200Y-76657200D02*
X224002600Y-76631800D01*
X223977200Y-81280000D02*
X223977200Y-76657200D01*
%TO.N,Net-(R6-Pad1)*%
X210769200Y-83947000D02*
X207518000Y-83947000D01*
X212598000Y-82118200D02*
X210769200Y-83947000D01*
X204825600Y-97818600D02*
X204978000Y-97971000D01*
X204825600Y-96291400D02*
X204825600Y-97818600D01*
%TO.N,/Col0*%
X198628000Y-101854000D02*
X195072000Y-105410000D01*
X216941400Y-101854000D02*
X198628000Y-101854000D01*
X217678000Y-101117400D02*
X216941400Y-101854000D01*
X217678000Y-100152200D02*
X217678000Y-101117400D01*
X224580582Y-93249618D02*
X217678000Y-100152200D01*
X225688155Y-93249618D02*
X224580582Y-93249618D01*
%TO.N,Net-(U1-Pad4)*%
X211582000Y-94542000D02*
X211582000Y-90627200D01*
X211582000Y-90627200D02*
X210007200Y-89052400D01*
X207235626Y-89052400D02*
X204546200Y-91741826D01*
X210007200Y-89052400D02*
X207235626Y-89052400D01*
X204546200Y-91741826D02*
X204546200Y-92710000D01*
X202488800Y-94767400D02*
X202488800Y-101129000D01*
X204546200Y-92710000D02*
X202488800Y-94767400D01*
X194008253Y-117421147D02*
X194008253Y-117471947D01*
X197942200Y-113487200D02*
X194008253Y-117421147D01*
X185928000Y-117532486D02*
X185928000Y-117021000D01*
X186845514Y-118450000D02*
X185928000Y-117532486D01*
X186872147Y-118450000D02*
X186845514Y-118450000D01*
%TO.N,Net-(U1-Pad5)*%
X203381000Y-117021000D02*
X203200000Y-116840000D01*
X204978000Y-117021000D02*
X203381000Y-117021000D01*
X193240000Y-114300000D02*
X192532000Y-113592000D01*
X194310000Y-114300000D02*
X193240000Y-114300000D01*
%TO.N,/Col1*%
X220014800Y-92252800D02*
X214122000Y-86360000D01*
X225767900Y-92252800D02*
X220014800Y-92252800D01*
X214122000Y-89598500D02*
X215620600Y-91097100D01*
X214122000Y-86360000D02*
X214122000Y-89598500D01*
X215620600Y-103403400D02*
X215620600Y-103936800D01*
X214147400Y-105410000D02*
X214122000Y-105410000D01*
X215620600Y-103936800D02*
X214147400Y-105410000D01*
%TO.N,Net-(U3-Pad5)*%
X220678400Y-120370600D02*
X219176600Y-120370600D01*
X224028000Y-117021000D02*
X220678400Y-120370600D01*
X212852000Y-114862000D02*
X211582000Y-113592000D01*
X212852000Y-114909600D02*
X212852000Y-114862000D01*
%TO.N,/Col2*%
X225824148Y-91254381D02*
X221810381Y-91254381D01*
X221381519Y-91254381D02*
X221348300Y-91287600D01*
X221810381Y-91254381D02*
X221381519Y-91254381D01*
X232740200Y-102717600D02*
X233438700Y-102717600D01*
X233438700Y-102717600D02*
X234035600Y-103314500D01*
X234035600Y-104546400D02*
X233172000Y-105410000D01*
X234035600Y-103314500D02*
X234035600Y-104546400D01*
%TD*%
D22*
%TO.N,GND*%
X241910000Y-121260000D02*
X221851202Y-121260000D01*
X222082202Y-121029000D01*
X236208078Y-121029000D01*
X236245400Y-121032676D01*
X236282722Y-121029000D01*
X236282733Y-121029000D01*
X236394386Y-121018003D01*
X236537647Y-120974546D01*
X236669676Y-120903974D01*
X236785401Y-120809001D01*
X236809203Y-120779998D01*
X237467604Y-120121598D01*
X237496601Y-120097801D01*
X237591574Y-119982076D01*
X237662146Y-119850047D01*
X237705603Y-119706786D01*
X237716600Y-119595133D01*
X237716600Y-119595125D01*
X237720276Y-119557800D01*
X237716600Y-119520475D01*
X237716600Y-118629842D01*
X238370400Y-118629842D01*
X238370400Y-118961758D01*
X238435154Y-119287296D01*
X238562172Y-119593947D01*
X238746575Y-119869925D01*
X238981275Y-120104625D01*
X239257253Y-120289028D01*
X239563904Y-120416046D01*
X239889442Y-120480800D01*
X240221358Y-120480800D01*
X240546896Y-120416046D01*
X240853547Y-120289028D01*
X241129525Y-120104625D01*
X241364225Y-119869925D01*
X241548628Y-119593947D01*
X241675646Y-119287296D01*
X241740400Y-118961758D01*
X241740400Y-118629842D01*
X241675646Y-118304304D01*
X241548628Y-117997653D01*
X241364225Y-117721675D01*
X241129525Y-117486975D01*
X240853547Y-117302572D01*
X240546896Y-117175554D01*
X240221358Y-117110800D01*
X239889442Y-117110800D01*
X239563904Y-117175554D01*
X239257253Y-117302572D01*
X238981275Y-117486975D01*
X238746575Y-117721675D01*
X238562172Y-117997653D01*
X238435154Y-118304304D01*
X238370400Y-118629842D01*
X237716600Y-118629842D01*
X237716600Y-103438801D01*
X239104602Y-102050800D01*
X239166739Y-102050800D01*
X239366698Y-102011026D01*
X239555056Y-101933005D01*
X239724574Y-101819737D01*
X239868737Y-101675574D01*
X239982005Y-101506056D01*
X240060026Y-101317698D01*
X240099800Y-101117739D01*
X240099800Y-100913861D01*
X240060026Y-100713902D01*
X239982005Y-100525544D01*
X239868737Y-100356026D01*
X239724574Y-100211863D01*
X239555056Y-100098595D01*
X239366698Y-100020574D01*
X239166739Y-99980800D01*
X238962861Y-99980800D01*
X238762902Y-100020574D01*
X238574544Y-100098595D01*
X238405026Y-100211863D01*
X238260863Y-100356026D01*
X238147595Y-100525544D01*
X238069574Y-100713902D01*
X238029800Y-100913861D01*
X238029800Y-100975998D01*
X236445598Y-102560201D01*
X236416600Y-102583999D01*
X236392802Y-102612997D01*
X236392801Y-102612998D01*
X236321626Y-102699724D01*
X236251054Y-102831754D01*
X236233318Y-102890224D01*
X236208924Y-102970645D01*
X236207598Y-102975015D01*
X236192924Y-103124000D01*
X236196601Y-103161333D01*
X236196601Y-103357043D01*
X236148799Y-103298797D01*
X236125001Y-103269799D01*
X236096004Y-103246002D01*
X234167604Y-101317603D01*
X234143801Y-101288599D01*
X234028076Y-101193626D01*
X233896047Y-101123054D01*
X233752786Y-101079597D01*
X233641133Y-101068600D01*
X233641122Y-101068600D01*
X233603800Y-101064924D01*
X233566478Y-101068600D01*
X222666402Y-101068600D01*
X220724253Y-99126452D01*
X220724253Y-99064314D01*
X220684479Y-98864355D01*
X220606458Y-98675997D01*
X220493190Y-98506479D01*
X220445856Y-98459145D01*
X221166140Y-97738861D01*
X237877400Y-97738861D01*
X237877400Y-97942739D01*
X237917174Y-98142698D01*
X237995195Y-98331056D01*
X238108463Y-98500574D01*
X238252626Y-98644737D01*
X238422144Y-98758005D01*
X238610502Y-98836026D01*
X238810461Y-98875800D01*
X239014339Y-98875800D01*
X239214298Y-98836026D01*
X239402656Y-98758005D01*
X239572174Y-98644737D01*
X239716337Y-98500574D01*
X239829605Y-98331056D01*
X239907626Y-98142698D01*
X239947400Y-97942739D01*
X239947400Y-97842501D01*
X240694504Y-97095398D01*
X240723502Y-97071600D01*
X240818475Y-96955875D01*
X240889047Y-96823846D01*
X240932504Y-96680585D01*
X240943501Y-96568932D01*
X240943501Y-96568923D01*
X240947177Y-96531600D01*
X240943501Y-96494277D01*
X240943501Y-86004734D01*
X240947178Y-85967401D01*
X240932504Y-85818415D01*
X240889047Y-85675154D01*
X240818475Y-85543125D01*
X240747300Y-85456398D01*
X240723502Y-85427400D01*
X240694505Y-85403603D01*
X240633200Y-85342298D01*
X240633200Y-85280161D01*
X240593426Y-85080202D01*
X240515405Y-84891844D01*
X240402137Y-84722326D01*
X240257974Y-84578163D01*
X240088456Y-84464895D01*
X239900098Y-84386874D01*
X239700139Y-84347100D01*
X239496261Y-84347100D01*
X239296302Y-84386874D01*
X239107944Y-84464895D01*
X238938426Y-84578163D01*
X238794263Y-84722326D01*
X238680995Y-84891844D01*
X238602974Y-85080202D01*
X238563200Y-85280161D01*
X238563200Y-85484039D01*
X238602974Y-85683998D01*
X238633361Y-85757358D01*
X238541295Y-85895144D01*
X238463274Y-86083502D01*
X238423500Y-86283461D01*
X238423500Y-86487339D01*
X238463274Y-86687298D01*
X238541295Y-86875656D01*
X238654563Y-87045174D01*
X238698500Y-87089111D01*
X238698501Y-92024834D01*
X238676144Y-92034095D01*
X238506626Y-92147363D01*
X238362463Y-92291526D01*
X238249195Y-92461044D01*
X238171174Y-92649402D01*
X238131400Y-92849361D01*
X238131400Y-93053239D01*
X238171174Y-93253198D01*
X238249195Y-93441556D01*
X238362463Y-93611074D01*
X238506626Y-93755237D01*
X238676144Y-93868505D01*
X238864502Y-93946526D01*
X239064461Y-93986300D01*
X239268339Y-93986300D01*
X239423502Y-93955436D01*
X239423502Y-96216796D01*
X238834499Y-96805800D01*
X238810461Y-96805800D01*
X238610502Y-96845574D01*
X238422144Y-96923595D01*
X238252626Y-97036863D01*
X238108463Y-97181026D01*
X237995195Y-97350544D01*
X237917174Y-97538902D01*
X237877400Y-97738861D01*
X221166140Y-97738861D01*
X224895384Y-94009618D01*
X224984444Y-94009618D01*
X225028381Y-94053555D01*
X225197899Y-94166823D01*
X225386257Y-94244844D01*
X225586216Y-94284618D01*
X225790094Y-94284618D01*
X225990053Y-94244844D01*
X226178411Y-94166823D01*
X226347929Y-94053555D01*
X226492092Y-93909392D01*
X226605360Y-93739874D01*
X226683381Y-93551516D01*
X226723155Y-93351557D01*
X226723155Y-93147679D01*
X226683381Y-92947720D01*
X226668942Y-92912861D01*
X234372200Y-92912861D01*
X234372200Y-93116739D01*
X234411974Y-93316698D01*
X234489995Y-93505056D01*
X234603263Y-93674574D01*
X234747426Y-93818737D01*
X234916944Y-93932005D01*
X235105302Y-94010026D01*
X235305261Y-94049800D01*
X235509139Y-94049800D01*
X235709098Y-94010026D01*
X235897456Y-93932005D01*
X236066974Y-93818737D01*
X236211137Y-93674574D01*
X236324405Y-93505056D01*
X236402426Y-93316698D01*
X236442200Y-93116739D01*
X236442200Y-92912861D01*
X236402426Y-92712902D01*
X236324405Y-92524544D01*
X236211137Y-92355026D01*
X236192600Y-92336489D01*
X236192600Y-82770111D01*
X236236537Y-82726174D01*
X236349805Y-82556656D01*
X236427826Y-82368298D01*
X236467600Y-82168339D01*
X236467600Y-81964461D01*
X236427826Y-81764502D01*
X236349805Y-81576144D01*
X236236537Y-81406626D01*
X236092374Y-81262463D01*
X235922856Y-81149195D01*
X235734498Y-81071174D01*
X235534539Y-81031400D01*
X235330661Y-81031400D01*
X235130702Y-81071174D01*
X234942344Y-81149195D01*
X234772826Y-81262463D01*
X234628663Y-81406626D01*
X234515395Y-81576144D01*
X234437374Y-81764502D01*
X234397600Y-81964461D01*
X234397600Y-82168339D01*
X234437374Y-82368298D01*
X234515395Y-82556656D01*
X234628663Y-82726174D01*
X234672600Y-82770111D01*
X234672601Y-92285688D01*
X234603263Y-92355026D01*
X234489995Y-92524544D01*
X234411974Y-92712902D01*
X234372200Y-92912861D01*
X226668942Y-92912861D01*
X226631708Y-92822971D01*
X226685105Y-92743056D01*
X226763126Y-92554698D01*
X226802900Y-92354739D01*
X226802900Y-92150861D01*
X226763126Y-91950902D01*
X226702051Y-91803456D01*
X226741353Y-91744637D01*
X226819374Y-91556279D01*
X226859148Y-91356320D01*
X226859148Y-91152442D01*
X226839050Y-91051400D01*
X226847739Y-91051400D01*
X227047698Y-91011626D01*
X227236056Y-90933605D01*
X227405574Y-90820337D01*
X227549737Y-90676174D01*
X227663005Y-90506656D01*
X227741026Y-90318298D01*
X227780800Y-90118339D01*
X227780800Y-89914461D01*
X227741026Y-89714502D01*
X227663005Y-89526144D01*
X227549737Y-89356626D01*
X227405574Y-89212463D01*
X227236056Y-89099195D01*
X227047698Y-89021174D01*
X226847739Y-88981400D01*
X226732214Y-88981400D01*
X226681469Y-88954276D01*
X226538208Y-88910819D01*
X226426555Y-88899822D01*
X226426544Y-88899822D01*
X226389222Y-88896146D01*
X226351900Y-88899822D01*
X220737786Y-88899822D01*
X220729837Y-88887926D01*
X220585674Y-88743763D01*
X220416156Y-88630495D01*
X220227798Y-88552474D01*
X220027839Y-88512700D01*
X219823961Y-88512700D01*
X219624002Y-88552474D01*
X219435644Y-88630495D01*
X219266126Y-88743763D01*
X219121963Y-88887926D01*
X219008695Y-89057444D01*
X218982585Y-89120478D01*
X218050903Y-88188796D01*
X218050903Y-88126658D01*
X218011129Y-87926699D01*
X217933108Y-87738341D01*
X217819840Y-87568823D01*
X217675677Y-87424660D01*
X217506159Y-87311392D01*
X217317801Y-87233371D01*
X217117842Y-87193597D01*
X216913964Y-87193597D01*
X216714005Y-87233371D01*
X216525647Y-87311392D01*
X216356129Y-87424660D01*
X216308795Y-87471994D01*
X216035072Y-87198271D01*
X216035072Y-85110000D01*
X216022812Y-84985518D01*
X215986502Y-84865820D01*
X215927537Y-84755506D01*
X215848185Y-84658815D01*
X215751494Y-84579463D01*
X215641180Y-84520498D01*
X215521482Y-84484188D01*
X215397000Y-84471928D01*
X212847000Y-84471928D01*
X212722518Y-84484188D01*
X212602820Y-84520498D01*
X212492506Y-84579463D01*
X212395815Y-84658815D01*
X212316463Y-84755506D01*
X212288035Y-84808689D01*
X212180983Y-84701637D01*
X211831302Y-84467988D01*
X211471887Y-84319114D01*
X212637802Y-83153200D01*
X212699939Y-83153200D01*
X212899898Y-83113426D01*
X213088256Y-83035405D01*
X213257774Y-82922137D01*
X213401937Y-82777974D01*
X213515205Y-82608456D01*
X213593226Y-82420098D01*
X213633000Y-82220139D01*
X213633000Y-82016261D01*
X213593226Y-81816302D01*
X213515205Y-81627944D01*
X213401937Y-81458426D01*
X213257774Y-81314263D01*
X213088256Y-81200995D01*
X213049986Y-81185143D01*
X213056182Y-81178061D01*
X222942200Y-81178061D01*
X222942200Y-81381939D01*
X222981974Y-81581898D01*
X223059995Y-81770256D01*
X223173263Y-81939774D01*
X223317426Y-82083937D01*
X223486944Y-82197205D01*
X223675302Y-82275226D01*
X223875261Y-82315000D01*
X224079139Y-82315000D01*
X224279098Y-82275226D01*
X224467456Y-82197205D01*
X224636974Y-82083937D01*
X224781137Y-81939774D01*
X224894405Y-81770256D01*
X224972426Y-81581898D01*
X225012200Y-81381939D01*
X225012200Y-81178061D01*
X224972426Y-80978102D01*
X224894405Y-80789744D01*
X224781137Y-80620226D01*
X224737200Y-80576289D01*
X224737200Y-77360911D01*
X224806537Y-77291574D01*
X224919805Y-77122056D01*
X224997826Y-76933698D01*
X225037600Y-76733739D01*
X225037600Y-76529861D01*
X224997826Y-76329902D01*
X224919805Y-76141544D01*
X224806537Y-75972026D01*
X224662374Y-75827863D01*
X224492856Y-75714595D01*
X224304498Y-75636574D01*
X224104539Y-75596800D01*
X223900661Y-75596800D01*
X223700702Y-75636574D01*
X223512344Y-75714595D01*
X223342826Y-75827863D01*
X223198663Y-75972026D01*
X223085395Y-76141544D01*
X223007374Y-76329902D01*
X222967600Y-76529861D01*
X222967600Y-76733739D01*
X223007374Y-76933698D01*
X223085395Y-77122056D01*
X223198663Y-77291574D01*
X223217201Y-77310112D01*
X223217200Y-80576289D01*
X223173263Y-80620226D01*
X223059995Y-80789744D01*
X222981974Y-80978102D01*
X222942200Y-81178061D01*
X213056182Y-81178061D01*
X221279487Y-71780000D01*
X241910001Y-71780000D01*
X241910000Y-121260000D01*
%TA.AperFunction,Conductor*%
D23*
G36*
X241910000Y-121260000D02*
G01*
X221851202Y-121260000D01*
X222082202Y-121029000D01*
X236208078Y-121029000D01*
X236245400Y-121032676D01*
X236282722Y-121029000D01*
X236282733Y-121029000D01*
X236394386Y-121018003D01*
X236537647Y-120974546D01*
X236669676Y-120903974D01*
X236785401Y-120809001D01*
X236809203Y-120779998D01*
X237467604Y-120121598D01*
X237496601Y-120097801D01*
X237591574Y-119982076D01*
X237662146Y-119850047D01*
X237705603Y-119706786D01*
X237716600Y-119595133D01*
X237716600Y-119595125D01*
X237720276Y-119557800D01*
X237716600Y-119520475D01*
X237716600Y-118629842D01*
X238370400Y-118629842D01*
X238370400Y-118961758D01*
X238435154Y-119287296D01*
X238562172Y-119593947D01*
X238746575Y-119869925D01*
X238981275Y-120104625D01*
X239257253Y-120289028D01*
X239563904Y-120416046D01*
X239889442Y-120480800D01*
X240221358Y-120480800D01*
X240546896Y-120416046D01*
X240853547Y-120289028D01*
X241129525Y-120104625D01*
X241364225Y-119869925D01*
X241548628Y-119593947D01*
X241675646Y-119287296D01*
X241740400Y-118961758D01*
X241740400Y-118629842D01*
X241675646Y-118304304D01*
X241548628Y-117997653D01*
X241364225Y-117721675D01*
X241129525Y-117486975D01*
X240853547Y-117302572D01*
X240546896Y-117175554D01*
X240221358Y-117110800D01*
X239889442Y-117110800D01*
X239563904Y-117175554D01*
X239257253Y-117302572D01*
X238981275Y-117486975D01*
X238746575Y-117721675D01*
X238562172Y-117997653D01*
X238435154Y-118304304D01*
X238370400Y-118629842D01*
X237716600Y-118629842D01*
X237716600Y-103438801D01*
X239104602Y-102050800D01*
X239166739Y-102050800D01*
X239366698Y-102011026D01*
X239555056Y-101933005D01*
X239724574Y-101819737D01*
X239868737Y-101675574D01*
X239982005Y-101506056D01*
X240060026Y-101317698D01*
X240099800Y-101117739D01*
X240099800Y-100913861D01*
X240060026Y-100713902D01*
X239982005Y-100525544D01*
X239868737Y-100356026D01*
X239724574Y-100211863D01*
X239555056Y-100098595D01*
X239366698Y-100020574D01*
X239166739Y-99980800D01*
X238962861Y-99980800D01*
X238762902Y-100020574D01*
X238574544Y-100098595D01*
X238405026Y-100211863D01*
X238260863Y-100356026D01*
X238147595Y-100525544D01*
X238069574Y-100713902D01*
X238029800Y-100913861D01*
X238029800Y-100975998D01*
X236445598Y-102560201D01*
X236416600Y-102583999D01*
X236392802Y-102612997D01*
X236392801Y-102612998D01*
X236321626Y-102699724D01*
X236251054Y-102831754D01*
X236233318Y-102890224D01*
X236208924Y-102970645D01*
X236207598Y-102975015D01*
X236192924Y-103124000D01*
X236196601Y-103161333D01*
X236196601Y-103357043D01*
X236148799Y-103298797D01*
X236125001Y-103269799D01*
X236096004Y-103246002D01*
X234167604Y-101317603D01*
X234143801Y-101288599D01*
X234028076Y-101193626D01*
X233896047Y-101123054D01*
X233752786Y-101079597D01*
X233641133Y-101068600D01*
X233641122Y-101068600D01*
X233603800Y-101064924D01*
X233566478Y-101068600D01*
X222666402Y-101068600D01*
X220724253Y-99126452D01*
X220724253Y-99064314D01*
X220684479Y-98864355D01*
X220606458Y-98675997D01*
X220493190Y-98506479D01*
X220445856Y-98459145D01*
X221166140Y-97738861D01*
X237877400Y-97738861D01*
X237877400Y-97942739D01*
X237917174Y-98142698D01*
X237995195Y-98331056D01*
X238108463Y-98500574D01*
X238252626Y-98644737D01*
X238422144Y-98758005D01*
X238610502Y-98836026D01*
X238810461Y-98875800D01*
X239014339Y-98875800D01*
X239214298Y-98836026D01*
X239402656Y-98758005D01*
X239572174Y-98644737D01*
X239716337Y-98500574D01*
X239829605Y-98331056D01*
X239907626Y-98142698D01*
X239947400Y-97942739D01*
X239947400Y-97842501D01*
X240694504Y-97095398D01*
X240723502Y-97071600D01*
X240818475Y-96955875D01*
X240889047Y-96823846D01*
X240932504Y-96680585D01*
X240943501Y-96568932D01*
X240943501Y-96568923D01*
X240947177Y-96531600D01*
X240943501Y-96494277D01*
X240943501Y-86004734D01*
X240947178Y-85967401D01*
X240932504Y-85818415D01*
X240889047Y-85675154D01*
X240818475Y-85543125D01*
X240747300Y-85456398D01*
X240723502Y-85427400D01*
X240694505Y-85403603D01*
X240633200Y-85342298D01*
X240633200Y-85280161D01*
X240593426Y-85080202D01*
X240515405Y-84891844D01*
X240402137Y-84722326D01*
X240257974Y-84578163D01*
X240088456Y-84464895D01*
X239900098Y-84386874D01*
X239700139Y-84347100D01*
X239496261Y-84347100D01*
X239296302Y-84386874D01*
X239107944Y-84464895D01*
X238938426Y-84578163D01*
X238794263Y-84722326D01*
X238680995Y-84891844D01*
X238602974Y-85080202D01*
X238563200Y-85280161D01*
X238563200Y-85484039D01*
X238602974Y-85683998D01*
X238633361Y-85757358D01*
X238541295Y-85895144D01*
X238463274Y-86083502D01*
X238423500Y-86283461D01*
X238423500Y-86487339D01*
X238463274Y-86687298D01*
X238541295Y-86875656D01*
X238654563Y-87045174D01*
X238698500Y-87089111D01*
X238698501Y-92024834D01*
X238676144Y-92034095D01*
X238506626Y-92147363D01*
X238362463Y-92291526D01*
X238249195Y-92461044D01*
X238171174Y-92649402D01*
X238131400Y-92849361D01*
X238131400Y-93053239D01*
X238171174Y-93253198D01*
X238249195Y-93441556D01*
X238362463Y-93611074D01*
X238506626Y-93755237D01*
X238676144Y-93868505D01*
X238864502Y-93946526D01*
X239064461Y-93986300D01*
X239268339Y-93986300D01*
X239423502Y-93955436D01*
X239423502Y-96216796D01*
X238834499Y-96805800D01*
X238810461Y-96805800D01*
X238610502Y-96845574D01*
X238422144Y-96923595D01*
X238252626Y-97036863D01*
X238108463Y-97181026D01*
X237995195Y-97350544D01*
X237917174Y-97538902D01*
X237877400Y-97738861D01*
X221166140Y-97738861D01*
X224895384Y-94009618D01*
X224984444Y-94009618D01*
X225028381Y-94053555D01*
X225197899Y-94166823D01*
X225386257Y-94244844D01*
X225586216Y-94284618D01*
X225790094Y-94284618D01*
X225990053Y-94244844D01*
X226178411Y-94166823D01*
X226347929Y-94053555D01*
X226492092Y-93909392D01*
X226605360Y-93739874D01*
X226683381Y-93551516D01*
X226723155Y-93351557D01*
X226723155Y-93147679D01*
X226683381Y-92947720D01*
X226668942Y-92912861D01*
X234372200Y-92912861D01*
X234372200Y-93116739D01*
X234411974Y-93316698D01*
X234489995Y-93505056D01*
X234603263Y-93674574D01*
X234747426Y-93818737D01*
X234916944Y-93932005D01*
X235105302Y-94010026D01*
X235305261Y-94049800D01*
X235509139Y-94049800D01*
X235709098Y-94010026D01*
X235897456Y-93932005D01*
X236066974Y-93818737D01*
X236211137Y-93674574D01*
X236324405Y-93505056D01*
X236402426Y-93316698D01*
X236442200Y-93116739D01*
X236442200Y-92912861D01*
X236402426Y-92712902D01*
X236324405Y-92524544D01*
X236211137Y-92355026D01*
X236192600Y-92336489D01*
X236192600Y-82770111D01*
X236236537Y-82726174D01*
X236349805Y-82556656D01*
X236427826Y-82368298D01*
X236467600Y-82168339D01*
X236467600Y-81964461D01*
X236427826Y-81764502D01*
X236349805Y-81576144D01*
X236236537Y-81406626D01*
X236092374Y-81262463D01*
X235922856Y-81149195D01*
X235734498Y-81071174D01*
X235534539Y-81031400D01*
X235330661Y-81031400D01*
X235130702Y-81071174D01*
X234942344Y-81149195D01*
X234772826Y-81262463D01*
X234628663Y-81406626D01*
X234515395Y-81576144D01*
X234437374Y-81764502D01*
X234397600Y-81964461D01*
X234397600Y-82168339D01*
X234437374Y-82368298D01*
X234515395Y-82556656D01*
X234628663Y-82726174D01*
X234672600Y-82770111D01*
X234672601Y-92285688D01*
X234603263Y-92355026D01*
X234489995Y-92524544D01*
X234411974Y-92712902D01*
X234372200Y-92912861D01*
X226668942Y-92912861D01*
X226631708Y-92822971D01*
X226685105Y-92743056D01*
X226763126Y-92554698D01*
X226802900Y-92354739D01*
X226802900Y-92150861D01*
X226763126Y-91950902D01*
X226702051Y-91803456D01*
X226741353Y-91744637D01*
X226819374Y-91556279D01*
X226859148Y-91356320D01*
X226859148Y-91152442D01*
X226839050Y-91051400D01*
X226847739Y-91051400D01*
X227047698Y-91011626D01*
X227236056Y-90933605D01*
X227405574Y-90820337D01*
X227549737Y-90676174D01*
X227663005Y-90506656D01*
X227741026Y-90318298D01*
X227780800Y-90118339D01*
X227780800Y-89914461D01*
X227741026Y-89714502D01*
X227663005Y-89526144D01*
X227549737Y-89356626D01*
X227405574Y-89212463D01*
X227236056Y-89099195D01*
X227047698Y-89021174D01*
X226847739Y-88981400D01*
X226732214Y-88981400D01*
X226681469Y-88954276D01*
X226538208Y-88910819D01*
X226426555Y-88899822D01*
X226426544Y-88899822D01*
X226389222Y-88896146D01*
X226351900Y-88899822D01*
X220737786Y-88899822D01*
X220729837Y-88887926D01*
X220585674Y-88743763D01*
X220416156Y-88630495D01*
X220227798Y-88552474D01*
X220027839Y-88512700D01*
X219823961Y-88512700D01*
X219624002Y-88552474D01*
X219435644Y-88630495D01*
X219266126Y-88743763D01*
X219121963Y-88887926D01*
X219008695Y-89057444D01*
X218982585Y-89120478D01*
X218050903Y-88188796D01*
X218050903Y-88126658D01*
X218011129Y-87926699D01*
X217933108Y-87738341D01*
X217819840Y-87568823D01*
X217675677Y-87424660D01*
X217506159Y-87311392D01*
X217317801Y-87233371D01*
X217117842Y-87193597D01*
X216913964Y-87193597D01*
X216714005Y-87233371D01*
X216525647Y-87311392D01*
X216356129Y-87424660D01*
X216308795Y-87471994D01*
X216035072Y-87198271D01*
X216035072Y-85110000D01*
X216022812Y-84985518D01*
X215986502Y-84865820D01*
X215927537Y-84755506D01*
X215848185Y-84658815D01*
X215751494Y-84579463D01*
X215641180Y-84520498D01*
X215521482Y-84484188D01*
X215397000Y-84471928D01*
X212847000Y-84471928D01*
X212722518Y-84484188D01*
X212602820Y-84520498D01*
X212492506Y-84579463D01*
X212395815Y-84658815D01*
X212316463Y-84755506D01*
X212288035Y-84808689D01*
X212180983Y-84701637D01*
X211831302Y-84467988D01*
X211471887Y-84319114D01*
X212637802Y-83153200D01*
X212699939Y-83153200D01*
X212899898Y-83113426D01*
X213088256Y-83035405D01*
X213257774Y-82922137D01*
X213401937Y-82777974D01*
X213515205Y-82608456D01*
X213593226Y-82420098D01*
X213633000Y-82220139D01*
X213633000Y-82016261D01*
X213593226Y-81816302D01*
X213515205Y-81627944D01*
X213401937Y-81458426D01*
X213257774Y-81314263D01*
X213088256Y-81200995D01*
X213049986Y-81185143D01*
X213056182Y-81178061D01*
X222942200Y-81178061D01*
X222942200Y-81381939D01*
X222981974Y-81581898D01*
X223059995Y-81770256D01*
X223173263Y-81939774D01*
X223317426Y-82083937D01*
X223486944Y-82197205D01*
X223675302Y-82275226D01*
X223875261Y-82315000D01*
X224079139Y-82315000D01*
X224279098Y-82275226D01*
X224467456Y-82197205D01*
X224636974Y-82083937D01*
X224781137Y-81939774D01*
X224894405Y-81770256D01*
X224972426Y-81581898D01*
X225012200Y-81381939D01*
X225012200Y-81178061D01*
X224972426Y-80978102D01*
X224894405Y-80789744D01*
X224781137Y-80620226D01*
X224737200Y-80576289D01*
X224737200Y-77360911D01*
X224806537Y-77291574D01*
X224919805Y-77122056D01*
X224997826Y-76933698D01*
X225037600Y-76733739D01*
X225037600Y-76529861D01*
X224997826Y-76329902D01*
X224919805Y-76141544D01*
X224806537Y-75972026D01*
X224662374Y-75827863D01*
X224492856Y-75714595D01*
X224304498Y-75636574D01*
X224104539Y-75596800D01*
X223900661Y-75596800D01*
X223700702Y-75636574D01*
X223512344Y-75714595D01*
X223342826Y-75827863D01*
X223198663Y-75972026D01*
X223085395Y-76141544D01*
X223007374Y-76329902D01*
X222967600Y-76529861D01*
X222967600Y-76733739D01*
X223007374Y-76933698D01*
X223085395Y-77122056D01*
X223198663Y-77291574D01*
X223217201Y-77310112D01*
X223217200Y-80576289D01*
X223173263Y-80620226D01*
X223059995Y-80789744D01*
X222981974Y-80978102D01*
X222942200Y-81178061D01*
X213056182Y-81178061D01*
X221279487Y-71780000D01*
X241910001Y-71780000D01*
X241910000Y-121260000D01*
G37*
%TD.AperFunction*%
D22*
X185141791Y-82058055D02*
X185056224Y-82254367D01*
X185010600Y-82463600D01*
X185010600Y-82863600D01*
X185968600Y-82863600D01*
X185968600Y-82843600D01*
X186222600Y-82843600D01*
X186222600Y-82863600D01*
X187180600Y-82863600D01*
X187180600Y-82463600D01*
X187134976Y-82254367D01*
X187049409Y-82058055D01*
X186967355Y-81940000D01*
X193873845Y-81940000D01*
X193791791Y-82058055D01*
X193706224Y-82254367D01*
X193660600Y-82463600D01*
X193660600Y-82863600D01*
X194618600Y-82863600D01*
X194618600Y-82843600D01*
X194872600Y-82843600D01*
X194872600Y-82863600D01*
X195830600Y-82863600D01*
X195830600Y-82463600D01*
X195784976Y-82254367D01*
X195699409Y-82058055D01*
X195617355Y-81940000D01*
X211578169Y-81940000D01*
X211563000Y-82016261D01*
X211563000Y-82078398D01*
X210454399Y-83187000D01*
X208221711Y-83187000D01*
X208177774Y-83143063D01*
X208008256Y-83029795D01*
X207819898Y-82951774D01*
X207619939Y-82912000D01*
X207416061Y-82912000D01*
X207216102Y-82951774D01*
X207027744Y-83029795D01*
X206858226Y-83143063D01*
X206714063Y-83287226D01*
X206600795Y-83456744D01*
X206522774Y-83645102D01*
X206483000Y-83845061D01*
X206483000Y-84048939D01*
X206522774Y-84248898D01*
X206600795Y-84437256D01*
X206714063Y-84606774D01*
X206858226Y-84750937D01*
X207027744Y-84864205D01*
X207216102Y-84942226D01*
X207416061Y-84982000D01*
X207619939Y-84982000D01*
X207819898Y-84942226D01*
X208008256Y-84864205D01*
X208177774Y-84750937D01*
X208221711Y-84707000D01*
X209453654Y-84707000D01*
X209161637Y-84999017D01*
X208927988Y-85348698D01*
X208767047Y-85737244D01*
X208685000Y-86149721D01*
X208685000Y-86570279D01*
X208767047Y-86982756D01*
X208927988Y-87371302D01*
X209161637Y-87720983D01*
X209459017Y-88018363D01*
X209808698Y-88252012D01*
X209906203Y-88292400D01*
X207272951Y-88292400D01*
X207235626Y-88288724D01*
X207198301Y-88292400D01*
X207198293Y-88292400D01*
X207086640Y-88303397D01*
X206943379Y-88346854D01*
X206811350Y-88417426D01*
X206695625Y-88512399D01*
X206671827Y-88541397D01*
X206591479Y-88621745D01*
X206522953Y-88277244D01*
X206362012Y-87888698D01*
X206128363Y-87539017D01*
X205830983Y-87241637D01*
X205481302Y-87007988D01*
X205092756Y-86847047D01*
X204680279Y-86765000D01*
X204259721Y-86765000D01*
X203847244Y-86847047D01*
X203458698Y-87007988D01*
X203109017Y-87241637D01*
X203019560Y-87331094D01*
X203000537Y-87295506D01*
X202921185Y-87198815D01*
X202824494Y-87119463D01*
X202714180Y-87060498D01*
X202594482Y-87024188D01*
X202470000Y-87011928D01*
X199920000Y-87011928D01*
X199795518Y-87024188D01*
X199675820Y-87060498D01*
X199565506Y-87119463D01*
X199468815Y-87198815D01*
X199389463Y-87295506D01*
X199330498Y-87405820D01*
X199294188Y-87525518D01*
X199281928Y-87650000D01*
X199281928Y-90150000D01*
X199294188Y-90274482D01*
X199330498Y-90394180D01*
X199389463Y-90504494D01*
X199445133Y-90572328D01*
X199428200Y-90572328D01*
X199303718Y-90584588D01*
X199184020Y-90620898D01*
X199073706Y-90679863D01*
X198977015Y-90759215D01*
X198897663Y-90855906D01*
X198838698Y-90966220D01*
X198802388Y-91085918D01*
X198790128Y-91210400D01*
X198790128Y-92810400D01*
X198802388Y-92934882D01*
X198838698Y-93054580D01*
X198897663Y-93164894D01*
X198977015Y-93261585D01*
X199073706Y-93340937D01*
X199113158Y-93362025D01*
X199097663Y-93380906D01*
X199038698Y-93491220D01*
X199002388Y-93610918D01*
X198990128Y-93735400D01*
X198990128Y-94935400D01*
X199002388Y-95059882D01*
X199038698Y-95179580D01*
X199097663Y-95289894D01*
X199177015Y-95386585D01*
X199273706Y-95465937D01*
X199384020Y-95524902D01*
X199503718Y-95561212D01*
X199628200Y-95573472D01*
X200828200Y-95573472D01*
X200952682Y-95561212D01*
X201072380Y-95524902D01*
X201182694Y-95465937D01*
X201279385Y-95386585D01*
X201358737Y-95289894D01*
X201417702Y-95179580D01*
X201454012Y-95059882D01*
X201466272Y-94935400D01*
X201466272Y-93735400D01*
X201454012Y-93610918D01*
X201417702Y-93491220D01*
X201358737Y-93380906D01*
X201343242Y-93362025D01*
X201382694Y-93340937D01*
X201479385Y-93261585D01*
X201558737Y-93164894D01*
X201617702Y-93054580D01*
X201654012Y-92934882D01*
X201666272Y-92810400D01*
X201666272Y-91647130D01*
X201695754Y-91617648D01*
X201748029Y-91880451D01*
X201861856Y-92155253D01*
X202027107Y-92402569D01*
X202237431Y-92612893D01*
X202484747Y-92778144D01*
X202759549Y-92891971D01*
X203051278Y-92950000D01*
X203231398Y-92950000D01*
X201977803Y-94203596D01*
X201948799Y-94227399D01*
X201901841Y-94284618D01*
X201853826Y-94343124D01*
X201831335Y-94385202D01*
X201783254Y-94475154D01*
X201739797Y-94618415D01*
X201728800Y-94730068D01*
X201728800Y-94730078D01*
X201725124Y-94767400D01*
X201728800Y-94804723D01*
X201728801Y-100425288D01*
X201684863Y-100469226D01*
X201571595Y-100638744D01*
X201493574Y-100827102D01*
X201453800Y-101027061D01*
X201453800Y-101094000D01*
X200879150Y-101094000D01*
X200907927Y-101082080D01*
X201142959Y-100925037D01*
X201342837Y-100725159D01*
X201499880Y-100490127D01*
X201608053Y-100228974D01*
X201663200Y-99951735D01*
X201663200Y-99669065D01*
X201608053Y-99391826D01*
X201499880Y-99130673D01*
X201342837Y-98895641D01*
X201142959Y-98695763D01*
X201116272Y-98677931D01*
X201116272Y-98651441D01*
X201182694Y-98615937D01*
X201279385Y-98536585D01*
X201358737Y-98439894D01*
X201417702Y-98329580D01*
X201454012Y-98209882D01*
X201466272Y-98085400D01*
X201466272Y-96885400D01*
X201454012Y-96760918D01*
X201417702Y-96641220D01*
X201358737Y-96530906D01*
X201279385Y-96434215D01*
X201182694Y-96354863D01*
X201072380Y-96295898D01*
X200952682Y-96259588D01*
X200828200Y-96247328D01*
X199628200Y-96247328D01*
X199503718Y-96259588D01*
X199384020Y-96295898D01*
X199273706Y-96354863D01*
X199177015Y-96434215D01*
X199097663Y-96530906D01*
X199038698Y-96641220D01*
X199002388Y-96760918D01*
X198990128Y-96885400D01*
X198990128Y-98085400D01*
X199002388Y-98209882D01*
X199038698Y-98329580D01*
X199097663Y-98439894D01*
X199177015Y-98536585D01*
X199273706Y-98615937D01*
X199340128Y-98651441D01*
X199340128Y-98677931D01*
X199313441Y-98695763D01*
X199113563Y-98895641D01*
X198956520Y-99130673D01*
X198848347Y-99391826D01*
X198793200Y-99669065D01*
X198793200Y-99951735D01*
X198848347Y-100228974D01*
X198956520Y-100490127D01*
X199113563Y-100725159D01*
X199313441Y-100925037D01*
X199548473Y-101082080D01*
X199577250Y-101094000D01*
X198665322Y-101094000D01*
X198627999Y-101090324D01*
X198590676Y-101094000D01*
X198590667Y-101094000D01*
X198479014Y-101104997D01*
X198335753Y-101148454D01*
X198203724Y-101219026D01*
X198203722Y-101219027D01*
X198203723Y-101219027D01*
X198116996Y-101290201D01*
X198116992Y-101290205D01*
X198087999Y-101313999D01*
X198064205Y-101342992D01*
X195885270Y-103521928D01*
X193797000Y-103521928D01*
X193672518Y-103534188D01*
X193552820Y-103570498D01*
X193442506Y-103629463D01*
X193345815Y-103708815D01*
X193266463Y-103805506D01*
X193238035Y-103858689D01*
X193130983Y-103751637D01*
X192781302Y-103517988D01*
X192392756Y-103357047D01*
X191980279Y-103275000D01*
X191559721Y-103275000D01*
X191147244Y-103357047D01*
X190758698Y-103517988D01*
X190409017Y-103751637D01*
X190111637Y-104049017D01*
X189877988Y-104398698D01*
X189717047Y-104787244D01*
X189635000Y-105199721D01*
X189635000Y-105620279D01*
X189717047Y-106032756D01*
X189877988Y-106421302D01*
X190111637Y-106770983D01*
X190409017Y-107068363D01*
X190758698Y-107302012D01*
X191147244Y-107462953D01*
X191559721Y-107545000D01*
X191980279Y-107545000D01*
X192392756Y-107462953D01*
X192781302Y-107302012D01*
X193130983Y-107068363D01*
X193238035Y-106961311D01*
X193266463Y-107014494D01*
X193345815Y-107111185D01*
X193442506Y-107190537D01*
X193552820Y-107249502D01*
X193672518Y-107285812D01*
X193797000Y-107298072D01*
X196344000Y-107298072D01*
X196344001Y-112413797D01*
X195115393Y-113642405D01*
X195113937Y-113640226D01*
X194969774Y-113496063D01*
X194800256Y-113382795D01*
X194611898Y-113304774D01*
X194411939Y-113265000D01*
X194208061Y-113265000D01*
X194008102Y-113304774D01*
X193920072Y-113341237D01*
X193920072Y-112842000D01*
X193907812Y-112717518D01*
X193871502Y-112597820D01*
X193812537Y-112487506D01*
X193733185Y-112390815D01*
X193636494Y-112311463D01*
X193526180Y-112252498D01*
X193406482Y-112216188D01*
X193282000Y-112203928D01*
X192107877Y-112203928D01*
X191997252Y-112144798D01*
X191866244Y-112105057D01*
X191764135Y-112095000D01*
X191764134Y-112095000D01*
X191730000Y-112091638D01*
X191695865Y-112095000D01*
X191319324Y-112095000D01*
X191559701Y-111735251D01*
X191757873Y-111256822D01*
X191858900Y-110748924D01*
X191858900Y-110341278D01*
X192800000Y-110341278D01*
X192800000Y-110638722D01*
X192858029Y-110930451D01*
X192971856Y-111205253D01*
X193137107Y-111452569D01*
X193347431Y-111662893D01*
X193594747Y-111828144D01*
X193869549Y-111941971D01*
X194161278Y-112000000D01*
X194458722Y-112000000D01*
X194750451Y-111941971D01*
X195025253Y-111828144D01*
X195272569Y-111662893D01*
X195482893Y-111452569D01*
X195648144Y-111205253D01*
X195761971Y-110930451D01*
X195820000Y-110638722D01*
X195820000Y-110341278D01*
X195761971Y-110049549D01*
X195648144Y-109774747D01*
X195482893Y-109527431D01*
X195272569Y-109317107D01*
X195025253Y-109151856D01*
X194750451Y-109038029D01*
X194458722Y-108980000D01*
X194161278Y-108980000D01*
X193869549Y-109038029D01*
X193594747Y-109151856D01*
X193347431Y-109317107D01*
X193137107Y-109527431D01*
X192971856Y-109774747D01*
X192858029Y-110049549D01*
X192800000Y-110341278D01*
X191858900Y-110341278D01*
X191858900Y-110231076D01*
X191757873Y-109723178D01*
X191559701Y-109244749D01*
X191272000Y-108814174D01*
X190905826Y-108448000D01*
X190475251Y-108160299D01*
X189996822Y-107962127D01*
X189488924Y-107861100D01*
X188971076Y-107861100D01*
X188463178Y-107962127D01*
X187984749Y-108160299D01*
X187554174Y-108448000D01*
X187483763Y-108518411D01*
X187555000Y-108160279D01*
X187555000Y-107739721D01*
X187472953Y-107327244D01*
X187312012Y-106938698D01*
X187078363Y-106589017D01*
X186780983Y-106291637D01*
X186431302Y-106057988D01*
X186042756Y-105897047D01*
X185630279Y-105815000D01*
X185209721Y-105815000D01*
X184797244Y-105897047D01*
X184408698Y-106057988D01*
X184059017Y-106291637D01*
X183969560Y-106381094D01*
X183950537Y-106345506D01*
X183871185Y-106248815D01*
X183774494Y-106169463D01*
X183664180Y-106110498D01*
X183544482Y-106074188D01*
X183420000Y-106061928D01*
X180870000Y-106061928D01*
X180745518Y-106074188D01*
X180625820Y-106110498D01*
X180515506Y-106169463D01*
X180418815Y-106248815D01*
X180339463Y-106345506D01*
X180280498Y-106455820D01*
X180244188Y-106575518D01*
X180231928Y-106700000D01*
X180231928Y-109200000D01*
X180244188Y-109324482D01*
X180280498Y-109444180D01*
X180324178Y-109525898D01*
X180241018Y-109534088D01*
X180121320Y-109570398D01*
X180011006Y-109629363D01*
X179914315Y-109708715D01*
X179834963Y-109805406D01*
X179775998Y-109915720D01*
X179739688Y-110035418D01*
X179727428Y-110159900D01*
X179727428Y-111759900D01*
X179739688Y-111884382D01*
X179775998Y-112004080D01*
X179834963Y-112114394D01*
X179914315Y-112211085D01*
X180011006Y-112290437D01*
X180050458Y-112311525D01*
X180034963Y-112330406D01*
X179975998Y-112440720D01*
X179939688Y-112560418D01*
X179927428Y-112684900D01*
X179927428Y-113884900D01*
X179939688Y-114009382D01*
X179975998Y-114129080D01*
X180034963Y-114239394D01*
X180114315Y-114336085D01*
X180211006Y-114415437D01*
X180321320Y-114474402D01*
X180441018Y-114510712D01*
X180565500Y-114522972D01*
X181765500Y-114522972D01*
X181889982Y-114510712D01*
X182009680Y-114474402D01*
X182119994Y-114415437D01*
X182209477Y-114342000D01*
X184539928Y-114342000D01*
X184552188Y-114466482D01*
X184588498Y-114586180D01*
X184647463Y-114696494D01*
X184726815Y-114793185D01*
X184823506Y-114872537D01*
X184933820Y-114931502D01*
X185053518Y-114967812D01*
X185178000Y-114980072D01*
X185642250Y-114977000D01*
X185801000Y-114818250D01*
X185801000Y-113719000D01*
X184701750Y-113719000D01*
X184543000Y-113877750D01*
X184539928Y-114342000D01*
X182209477Y-114342000D01*
X182216685Y-114336085D01*
X182296037Y-114239394D01*
X182355002Y-114129080D01*
X182391312Y-114009382D01*
X182403572Y-113884900D01*
X182403572Y-112842000D01*
X184539928Y-112842000D01*
X184543000Y-113306250D01*
X184701750Y-113465000D01*
X185801000Y-113465000D01*
X185801000Y-112365750D01*
X185642250Y-112207000D01*
X185178000Y-112203928D01*
X185053518Y-112216188D01*
X184933820Y-112252498D01*
X184823506Y-112311463D01*
X184726815Y-112390815D01*
X184647463Y-112487506D01*
X184588498Y-112597820D01*
X184552188Y-112717518D01*
X184539928Y-112842000D01*
X182403572Y-112842000D01*
X182403572Y-112684900D01*
X182391312Y-112560418D01*
X182355002Y-112440720D01*
X182296037Y-112330406D01*
X182280542Y-112311525D01*
X182319994Y-112290437D01*
X182416685Y-112211085D01*
X182496037Y-112114394D01*
X182555002Y-112004080D01*
X182591312Y-111884382D01*
X182603572Y-111759900D01*
X182603572Y-110596630D01*
X182640000Y-110560202D01*
X182640000Y-110638722D01*
X182698029Y-110930451D01*
X182811856Y-111205253D01*
X182977107Y-111452569D01*
X183187431Y-111662893D01*
X183434747Y-111828144D01*
X183709549Y-111941971D01*
X184001278Y-112000000D01*
X184298722Y-112000000D01*
X184590451Y-111941971D01*
X184865253Y-111828144D01*
X185112569Y-111662893D01*
X185322893Y-111452569D01*
X185488144Y-111205253D01*
X185601971Y-110930451D01*
X185660000Y-110638722D01*
X185660000Y-110341278D01*
X185609023Y-110085000D01*
X185630279Y-110085000D01*
X186042756Y-110002953D01*
X186431302Y-109842012D01*
X186737708Y-109637279D01*
X186702127Y-109723178D01*
X186601100Y-110231076D01*
X186601100Y-110748924D01*
X186702127Y-111256822D01*
X186900299Y-111735251D01*
X187140676Y-112095000D01*
X186764135Y-112095000D01*
X186730000Y-112091638D01*
X186695866Y-112095000D01*
X186695865Y-112095000D01*
X186593756Y-112105057D01*
X186462748Y-112144798D01*
X186348038Y-112206111D01*
X186213750Y-112207000D01*
X186055000Y-112365750D01*
X186055000Y-112620978D01*
X186045057Y-112653756D01*
X186031638Y-112790000D01*
X186035001Y-112824145D01*
X186035000Y-115632928D01*
X185178000Y-115632928D01*
X185053518Y-115645188D01*
X184933820Y-115681498D01*
X184823506Y-115740463D01*
X184726815Y-115819815D01*
X184647463Y-115916506D01*
X184588498Y-116026820D01*
X184552188Y-116146518D01*
X184539928Y-116271000D01*
X184539928Y-117771000D01*
X184552188Y-117895482D01*
X184588498Y-118015180D01*
X184647463Y-118125494D01*
X184726815Y-118222185D01*
X184823506Y-118301537D01*
X184933820Y-118360502D01*
X185053518Y-118396812D01*
X185178000Y-118409072D01*
X185729785Y-118409072D01*
X185837147Y-118516434D01*
X185837147Y-118551939D01*
X185876921Y-118751898D01*
X185954942Y-118940256D01*
X186068210Y-119109774D01*
X186212373Y-119253937D01*
X186381891Y-119367205D01*
X186570249Y-119445226D01*
X186770208Y-119485000D01*
X186974086Y-119485000D01*
X187174045Y-119445226D01*
X187362403Y-119367205D01*
X187531921Y-119253937D01*
X187676084Y-119109774D01*
X187789352Y-118940256D01*
X187867373Y-118751898D01*
X187907147Y-118551939D01*
X187907147Y-118485000D01*
X191695866Y-118485000D01*
X191730000Y-118488362D01*
X191767689Y-118484650D01*
X191866244Y-118474943D01*
X191997252Y-118435202D01*
X192046138Y-118409072D01*
X192845271Y-118409072D01*
X193605128Y-119168930D01*
X193605128Y-119283500D01*
X193622192Y-119456754D01*
X193672728Y-119623350D01*
X193699855Y-119674100D01*
X183154502Y-119674100D01*
X182564188Y-119083786D01*
X182600500Y-118901235D01*
X182600500Y-118618565D01*
X182545353Y-118341326D01*
X182437180Y-118080173D01*
X182280137Y-117845141D01*
X182080259Y-117645263D01*
X182053572Y-117627431D01*
X182053572Y-117600941D01*
X182119994Y-117565437D01*
X182216685Y-117486085D01*
X182296037Y-117389394D01*
X182355002Y-117279080D01*
X182391312Y-117159382D01*
X182403572Y-117034900D01*
X182403572Y-115834900D01*
X182391312Y-115710418D01*
X182355002Y-115590720D01*
X182296037Y-115480406D01*
X182216685Y-115383715D01*
X182119994Y-115304363D01*
X182009680Y-115245398D01*
X181889982Y-115209088D01*
X181765500Y-115196828D01*
X180565500Y-115196828D01*
X180441018Y-115209088D01*
X180321320Y-115245398D01*
X180211006Y-115304363D01*
X180114315Y-115383715D01*
X180034963Y-115480406D01*
X179975998Y-115590720D01*
X179939688Y-115710418D01*
X179927428Y-115834900D01*
X179927428Y-117034900D01*
X179939688Y-117159382D01*
X179975998Y-117279080D01*
X180034963Y-117389394D01*
X180114315Y-117486085D01*
X180211006Y-117565437D01*
X180277428Y-117600941D01*
X180277428Y-117627431D01*
X180250741Y-117645263D01*
X180050863Y-117845141D01*
X179893820Y-118080173D01*
X179785647Y-118341326D01*
X179730500Y-118618565D01*
X179730500Y-118901235D01*
X179785647Y-119178474D01*
X179893820Y-119439627D01*
X180050863Y-119674659D01*
X180250741Y-119874537D01*
X180485773Y-120031580D01*
X180746926Y-120139753D01*
X181024165Y-120194900D01*
X181306835Y-120194900D01*
X181489386Y-120158588D01*
X182275901Y-120945103D01*
X182299699Y-120974101D01*
X182415424Y-121069074D01*
X182547453Y-121139646D01*
X182690714Y-121183103D01*
X182802367Y-121194100D01*
X182802376Y-121194100D01*
X182839699Y-121197776D01*
X182877022Y-121194100D01*
X198655478Y-121194100D01*
X198692800Y-121197776D01*
X198730122Y-121194100D01*
X198730133Y-121194100D01*
X198841786Y-121183103D01*
X198985047Y-121139646D01*
X199117076Y-121069074D01*
X199139642Y-121050554D01*
X199263626Y-121174538D01*
X199391529Y-121260000D01*
X178460000Y-121260000D01*
X178460000Y-91900600D01*
X186048286Y-91900600D01*
X186048286Y-100820600D01*
X194189715Y-100820600D01*
X194189715Y-91900600D01*
X186048286Y-91900600D01*
X178460000Y-91900600D01*
X178460000Y-89927842D01*
X179340800Y-89927842D01*
X179340800Y-90259758D01*
X179405554Y-90585296D01*
X179532572Y-90891947D01*
X179716975Y-91167925D01*
X179951675Y-91402625D01*
X180227653Y-91587028D01*
X180534304Y-91714046D01*
X180859842Y-91778800D01*
X181191758Y-91778800D01*
X181517296Y-91714046D01*
X181823947Y-91587028D01*
X182099925Y-91402625D01*
X182334625Y-91167925D01*
X182519028Y-90891947D01*
X182646046Y-90585296D01*
X182710800Y-90259758D01*
X182710800Y-89927842D01*
X182646046Y-89602304D01*
X182519028Y-89295653D01*
X182334625Y-89019675D01*
X182099925Y-88784975D01*
X181823947Y-88600572D01*
X181517296Y-88473554D01*
X181191758Y-88408800D01*
X180859842Y-88408800D01*
X180534304Y-88473554D01*
X180227653Y-88600572D01*
X179951675Y-88784975D01*
X179716975Y-89019675D01*
X179532572Y-89295653D01*
X179405554Y-89602304D01*
X179340800Y-89927842D01*
X178460000Y-89927842D01*
X178460000Y-86497600D01*
X185010600Y-86497600D01*
X185010600Y-87247600D01*
X185056224Y-87456833D01*
X185141791Y-87653145D01*
X185264013Y-87828991D01*
X185418192Y-87977614D01*
X185598403Y-88093302D01*
X185801599Y-88165008D01*
X185968600Y-88038102D01*
X185968600Y-86497600D01*
X185010600Y-86497600D01*
X178460000Y-86497600D01*
X178460000Y-85493600D01*
X185010600Y-85493600D01*
X185010600Y-86243600D01*
X185968600Y-86243600D01*
X185968600Y-84703098D01*
X186222600Y-84703098D01*
X186222600Y-86243600D01*
X186489137Y-86243600D01*
X186495968Y-86279589D01*
X186568643Y-86459493D01*
X186576833Y-86474816D01*
X186775080Y-86491512D01*
X186768992Y-86497600D01*
X186222600Y-86497600D01*
X186222600Y-88038102D01*
X186389601Y-88165008D01*
X186592797Y-88093302D01*
X186773008Y-87977614D01*
X186927187Y-87828991D01*
X187049409Y-87653145D01*
X187115825Y-87500770D01*
X187265995Y-87350600D01*
X187251853Y-87336458D01*
X187310600Y-87277710D01*
X187310600Y-87447614D01*
X187346701Y-87629104D01*
X186954688Y-88021117D01*
X186971384Y-88219367D01*
X187149984Y-88295189D01*
X187339944Y-88334710D01*
X187533964Y-88336413D01*
X187690820Y-88306641D01*
X187755600Y-88385575D01*
X187784598Y-88409373D01*
X189294227Y-89919003D01*
X189318025Y-89948001D01*
X189347023Y-89971799D01*
X189433749Y-90042974D01*
X189553768Y-90107126D01*
X189565779Y-90113546D01*
X189709040Y-90157003D01*
X189820693Y-90168000D01*
X189820702Y-90168000D01*
X189858025Y-90171676D01*
X189895348Y-90168000D01*
X190945852Y-90168000D01*
X190983174Y-90171676D01*
X191020496Y-90168000D01*
X191020507Y-90168000D01*
X191132160Y-90157003D01*
X191275421Y-90113546D01*
X191407450Y-90042974D01*
X191523175Y-89948001D01*
X191546978Y-89918997D01*
X193056604Y-88409372D01*
X193085601Y-88385575D01*
X193111932Y-88353491D01*
X193151059Y-88305815D01*
X193289944Y-88334710D01*
X193483964Y-88336413D01*
X193674589Y-88300232D01*
X193854493Y-88227557D01*
X193869816Y-88219367D01*
X193886512Y-88021117D01*
X193494499Y-87629104D01*
X193530600Y-87447614D01*
X193530600Y-87277710D01*
X193589348Y-87336458D01*
X193575205Y-87350600D01*
X193725375Y-87500770D01*
X193791791Y-87653145D01*
X193914013Y-87828991D01*
X194068192Y-87977614D01*
X194248403Y-88093302D01*
X194451599Y-88165008D01*
X194618600Y-88038102D01*
X194618600Y-86497600D01*
X194872600Y-86497600D01*
X194872600Y-88038102D01*
X195039601Y-88165008D01*
X195242797Y-88093302D01*
X195423008Y-87977614D01*
X195577187Y-87828991D01*
X195699409Y-87653145D01*
X195784976Y-87456833D01*
X195830600Y-87247600D01*
X195830600Y-86497600D01*
X194872600Y-86497600D01*
X194618600Y-86497600D01*
X194072208Y-86497600D01*
X194066120Y-86491512D01*
X194264367Y-86474816D01*
X194340189Y-86296216D01*
X194351136Y-86243600D01*
X194618600Y-86243600D01*
X194618600Y-84703098D01*
X194872600Y-84703098D01*
X194872600Y-86243600D01*
X195830600Y-86243600D01*
X195830600Y-85493600D01*
X195784976Y-85284367D01*
X195699409Y-85088055D01*
X195577187Y-84912209D01*
X195423008Y-84763586D01*
X195242797Y-84647898D01*
X195039601Y-84576192D01*
X194872600Y-84703098D01*
X194618600Y-84703098D01*
X194451599Y-84576192D01*
X194248403Y-84647898D01*
X194068192Y-84763586D01*
X193914013Y-84912209D01*
X193791791Y-85088055D01*
X193787872Y-85097045D01*
X193691216Y-85056011D01*
X193501256Y-85016490D01*
X193307236Y-85014787D01*
X193116611Y-85050968D01*
X192969949Y-85110215D01*
X192832914Y-85053453D01*
X192642614Y-85015600D01*
X192448586Y-85015600D01*
X192258286Y-85053453D01*
X192120600Y-85110484D01*
X191982914Y-85053453D01*
X191792614Y-85015600D01*
X191598586Y-85015600D01*
X191408286Y-85053453D01*
X191270600Y-85110484D01*
X191132914Y-85053453D01*
X190942614Y-85015600D01*
X190748586Y-85015600D01*
X190558286Y-85053453D01*
X190420600Y-85110484D01*
X190282914Y-85053453D01*
X190092614Y-85015600D01*
X189898586Y-85015600D01*
X189708286Y-85053453D01*
X189570600Y-85110484D01*
X189432914Y-85053453D01*
X189242614Y-85015600D01*
X189048586Y-85015600D01*
X188858286Y-85053453D01*
X188720600Y-85110484D01*
X188582914Y-85053453D01*
X188392614Y-85015600D01*
X188198586Y-85015600D01*
X188008286Y-85053453D01*
X187870058Y-85110709D01*
X187741216Y-85056011D01*
X187551256Y-85016490D01*
X187357236Y-85014787D01*
X187166611Y-85050968D01*
X187053211Y-85096778D01*
X187049409Y-85088055D01*
X186927187Y-84912209D01*
X186773008Y-84763586D01*
X186592797Y-84647898D01*
X186389601Y-84576192D01*
X186222600Y-84703098D01*
X185968600Y-84703098D01*
X185801599Y-84576192D01*
X185598403Y-84647898D01*
X185418192Y-84763586D01*
X185264013Y-84912209D01*
X185141791Y-85088055D01*
X185056224Y-85284367D01*
X185010600Y-85493600D01*
X178460000Y-85493600D01*
X178460000Y-83117600D01*
X185010600Y-83117600D01*
X185010600Y-83517600D01*
X185056224Y-83726833D01*
X185141791Y-83923145D01*
X185264013Y-84098991D01*
X185418192Y-84247614D01*
X185598403Y-84363302D01*
X185801599Y-84435008D01*
X185968600Y-84308102D01*
X185968600Y-83117600D01*
X186222600Y-83117600D01*
X186222600Y-84308102D01*
X186389601Y-84435008D01*
X186592797Y-84363302D01*
X186773008Y-84247614D01*
X186927187Y-84098991D01*
X187049409Y-83923145D01*
X187134976Y-83726833D01*
X187180600Y-83517600D01*
X187180600Y-83117600D01*
X193660600Y-83117600D01*
X193660600Y-83517600D01*
X193706224Y-83726833D01*
X193791791Y-83923145D01*
X193914013Y-84098991D01*
X194068192Y-84247614D01*
X194248403Y-84363302D01*
X194451599Y-84435008D01*
X194618600Y-84308102D01*
X194618600Y-83117600D01*
X194872600Y-83117600D01*
X194872600Y-84308102D01*
X195039601Y-84435008D01*
X195242797Y-84363302D01*
X195423008Y-84247614D01*
X195577187Y-84098991D01*
X195699409Y-83923145D01*
X195784976Y-83726833D01*
X195830600Y-83517600D01*
X195830600Y-83117600D01*
X194872600Y-83117600D01*
X194618600Y-83117600D01*
X193660600Y-83117600D01*
X187180600Y-83117600D01*
X186222600Y-83117600D01*
X185968600Y-83117600D01*
X185010600Y-83117600D01*
X178460000Y-83117600D01*
X178460000Y-81940000D01*
X185223845Y-81940000D01*
X185141791Y-82058055D01*
%TA.AperFunction,Conductor*%
D23*
G36*
X185141791Y-82058055D02*
G01*
X185056224Y-82254367D01*
X185010600Y-82463600D01*
X185010600Y-82863600D01*
X185968600Y-82863600D01*
X185968600Y-82843600D01*
X186222600Y-82843600D01*
X186222600Y-82863600D01*
X187180600Y-82863600D01*
X187180600Y-82463600D01*
X187134976Y-82254367D01*
X187049409Y-82058055D01*
X186967355Y-81940000D01*
X193873845Y-81940000D01*
X193791791Y-82058055D01*
X193706224Y-82254367D01*
X193660600Y-82463600D01*
X193660600Y-82863600D01*
X194618600Y-82863600D01*
X194618600Y-82843600D01*
X194872600Y-82843600D01*
X194872600Y-82863600D01*
X195830600Y-82863600D01*
X195830600Y-82463600D01*
X195784976Y-82254367D01*
X195699409Y-82058055D01*
X195617355Y-81940000D01*
X211578169Y-81940000D01*
X211563000Y-82016261D01*
X211563000Y-82078398D01*
X210454399Y-83187000D01*
X208221711Y-83187000D01*
X208177774Y-83143063D01*
X208008256Y-83029795D01*
X207819898Y-82951774D01*
X207619939Y-82912000D01*
X207416061Y-82912000D01*
X207216102Y-82951774D01*
X207027744Y-83029795D01*
X206858226Y-83143063D01*
X206714063Y-83287226D01*
X206600795Y-83456744D01*
X206522774Y-83645102D01*
X206483000Y-83845061D01*
X206483000Y-84048939D01*
X206522774Y-84248898D01*
X206600795Y-84437256D01*
X206714063Y-84606774D01*
X206858226Y-84750937D01*
X207027744Y-84864205D01*
X207216102Y-84942226D01*
X207416061Y-84982000D01*
X207619939Y-84982000D01*
X207819898Y-84942226D01*
X208008256Y-84864205D01*
X208177774Y-84750937D01*
X208221711Y-84707000D01*
X209453654Y-84707000D01*
X209161637Y-84999017D01*
X208927988Y-85348698D01*
X208767047Y-85737244D01*
X208685000Y-86149721D01*
X208685000Y-86570279D01*
X208767047Y-86982756D01*
X208927988Y-87371302D01*
X209161637Y-87720983D01*
X209459017Y-88018363D01*
X209808698Y-88252012D01*
X209906203Y-88292400D01*
X207272951Y-88292400D01*
X207235626Y-88288724D01*
X207198301Y-88292400D01*
X207198293Y-88292400D01*
X207086640Y-88303397D01*
X206943379Y-88346854D01*
X206811350Y-88417426D01*
X206695625Y-88512399D01*
X206671827Y-88541397D01*
X206591479Y-88621745D01*
X206522953Y-88277244D01*
X206362012Y-87888698D01*
X206128363Y-87539017D01*
X205830983Y-87241637D01*
X205481302Y-87007988D01*
X205092756Y-86847047D01*
X204680279Y-86765000D01*
X204259721Y-86765000D01*
X203847244Y-86847047D01*
X203458698Y-87007988D01*
X203109017Y-87241637D01*
X203019560Y-87331094D01*
X203000537Y-87295506D01*
X202921185Y-87198815D01*
X202824494Y-87119463D01*
X202714180Y-87060498D01*
X202594482Y-87024188D01*
X202470000Y-87011928D01*
X199920000Y-87011928D01*
X199795518Y-87024188D01*
X199675820Y-87060498D01*
X199565506Y-87119463D01*
X199468815Y-87198815D01*
X199389463Y-87295506D01*
X199330498Y-87405820D01*
X199294188Y-87525518D01*
X199281928Y-87650000D01*
X199281928Y-90150000D01*
X199294188Y-90274482D01*
X199330498Y-90394180D01*
X199389463Y-90504494D01*
X199445133Y-90572328D01*
X199428200Y-90572328D01*
X199303718Y-90584588D01*
X199184020Y-90620898D01*
X199073706Y-90679863D01*
X198977015Y-90759215D01*
X198897663Y-90855906D01*
X198838698Y-90966220D01*
X198802388Y-91085918D01*
X198790128Y-91210400D01*
X198790128Y-92810400D01*
X198802388Y-92934882D01*
X198838698Y-93054580D01*
X198897663Y-93164894D01*
X198977015Y-93261585D01*
X199073706Y-93340937D01*
X199113158Y-93362025D01*
X199097663Y-93380906D01*
X199038698Y-93491220D01*
X199002388Y-93610918D01*
X198990128Y-93735400D01*
X198990128Y-94935400D01*
X199002388Y-95059882D01*
X199038698Y-95179580D01*
X199097663Y-95289894D01*
X199177015Y-95386585D01*
X199273706Y-95465937D01*
X199384020Y-95524902D01*
X199503718Y-95561212D01*
X199628200Y-95573472D01*
X200828200Y-95573472D01*
X200952682Y-95561212D01*
X201072380Y-95524902D01*
X201182694Y-95465937D01*
X201279385Y-95386585D01*
X201358737Y-95289894D01*
X201417702Y-95179580D01*
X201454012Y-95059882D01*
X201466272Y-94935400D01*
X201466272Y-93735400D01*
X201454012Y-93610918D01*
X201417702Y-93491220D01*
X201358737Y-93380906D01*
X201343242Y-93362025D01*
X201382694Y-93340937D01*
X201479385Y-93261585D01*
X201558737Y-93164894D01*
X201617702Y-93054580D01*
X201654012Y-92934882D01*
X201666272Y-92810400D01*
X201666272Y-91647130D01*
X201695754Y-91617648D01*
X201748029Y-91880451D01*
X201861856Y-92155253D01*
X202027107Y-92402569D01*
X202237431Y-92612893D01*
X202484747Y-92778144D01*
X202759549Y-92891971D01*
X203051278Y-92950000D01*
X203231398Y-92950000D01*
X201977803Y-94203596D01*
X201948799Y-94227399D01*
X201901841Y-94284618D01*
X201853826Y-94343124D01*
X201831335Y-94385202D01*
X201783254Y-94475154D01*
X201739797Y-94618415D01*
X201728800Y-94730068D01*
X201728800Y-94730078D01*
X201725124Y-94767400D01*
X201728800Y-94804723D01*
X201728801Y-100425288D01*
X201684863Y-100469226D01*
X201571595Y-100638744D01*
X201493574Y-100827102D01*
X201453800Y-101027061D01*
X201453800Y-101094000D01*
X200879150Y-101094000D01*
X200907927Y-101082080D01*
X201142959Y-100925037D01*
X201342837Y-100725159D01*
X201499880Y-100490127D01*
X201608053Y-100228974D01*
X201663200Y-99951735D01*
X201663200Y-99669065D01*
X201608053Y-99391826D01*
X201499880Y-99130673D01*
X201342837Y-98895641D01*
X201142959Y-98695763D01*
X201116272Y-98677931D01*
X201116272Y-98651441D01*
X201182694Y-98615937D01*
X201279385Y-98536585D01*
X201358737Y-98439894D01*
X201417702Y-98329580D01*
X201454012Y-98209882D01*
X201466272Y-98085400D01*
X201466272Y-96885400D01*
X201454012Y-96760918D01*
X201417702Y-96641220D01*
X201358737Y-96530906D01*
X201279385Y-96434215D01*
X201182694Y-96354863D01*
X201072380Y-96295898D01*
X200952682Y-96259588D01*
X200828200Y-96247328D01*
X199628200Y-96247328D01*
X199503718Y-96259588D01*
X199384020Y-96295898D01*
X199273706Y-96354863D01*
X199177015Y-96434215D01*
X199097663Y-96530906D01*
X199038698Y-96641220D01*
X199002388Y-96760918D01*
X198990128Y-96885400D01*
X198990128Y-98085400D01*
X199002388Y-98209882D01*
X199038698Y-98329580D01*
X199097663Y-98439894D01*
X199177015Y-98536585D01*
X199273706Y-98615937D01*
X199340128Y-98651441D01*
X199340128Y-98677931D01*
X199313441Y-98695763D01*
X199113563Y-98895641D01*
X198956520Y-99130673D01*
X198848347Y-99391826D01*
X198793200Y-99669065D01*
X198793200Y-99951735D01*
X198848347Y-100228974D01*
X198956520Y-100490127D01*
X199113563Y-100725159D01*
X199313441Y-100925037D01*
X199548473Y-101082080D01*
X199577250Y-101094000D01*
X198665322Y-101094000D01*
X198627999Y-101090324D01*
X198590676Y-101094000D01*
X198590667Y-101094000D01*
X198479014Y-101104997D01*
X198335753Y-101148454D01*
X198203724Y-101219026D01*
X198203722Y-101219027D01*
X198203723Y-101219027D01*
X198116996Y-101290201D01*
X198116992Y-101290205D01*
X198087999Y-101313999D01*
X198064205Y-101342992D01*
X195885270Y-103521928D01*
X193797000Y-103521928D01*
X193672518Y-103534188D01*
X193552820Y-103570498D01*
X193442506Y-103629463D01*
X193345815Y-103708815D01*
X193266463Y-103805506D01*
X193238035Y-103858689D01*
X193130983Y-103751637D01*
X192781302Y-103517988D01*
X192392756Y-103357047D01*
X191980279Y-103275000D01*
X191559721Y-103275000D01*
X191147244Y-103357047D01*
X190758698Y-103517988D01*
X190409017Y-103751637D01*
X190111637Y-104049017D01*
X189877988Y-104398698D01*
X189717047Y-104787244D01*
X189635000Y-105199721D01*
X189635000Y-105620279D01*
X189717047Y-106032756D01*
X189877988Y-106421302D01*
X190111637Y-106770983D01*
X190409017Y-107068363D01*
X190758698Y-107302012D01*
X191147244Y-107462953D01*
X191559721Y-107545000D01*
X191980279Y-107545000D01*
X192392756Y-107462953D01*
X192781302Y-107302012D01*
X193130983Y-107068363D01*
X193238035Y-106961311D01*
X193266463Y-107014494D01*
X193345815Y-107111185D01*
X193442506Y-107190537D01*
X193552820Y-107249502D01*
X193672518Y-107285812D01*
X193797000Y-107298072D01*
X196344000Y-107298072D01*
X196344001Y-112413797D01*
X195115393Y-113642405D01*
X195113937Y-113640226D01*
X194969774Y-113496063D01*
X194800256Y-113382795D01*
X194611898Y-113304774D01*
X194411939Y-113265000D01*
X194208061Y-113265000D01*
X194008102Y-113304774D01*
X193920072Y-113341237D01*
X193920072Y-112842000D01*
X193907812Y-112717518D01*
X193871502Y-112597820D01*
X193812537Y-112487506D01*
X193733185Y-112390815D01*
X193636494Y-112311463D01*
X193526180Y-112252498D01*
X193406482Y-112216188D01*
X193282000Y-112203928D01*
X192107877Y-112203928D01*
X191997252Y-112144798D01*
X191866244Y-112105057D01*
X191764135Y-112095000D01*
X191764134Y-112095000D01*
X191730000Y-112091638D01*
X191695865Y-112095000D01*
X191319324Y-112095000D01*
X191559701Y-111735251D01*
X191757873Y-111256822D01*
X191858900Y-110748924D01*
X191858900Y-110341278D01*
X192800000Y-110341278D01*
X192800000Y-110638722D01*
X192858029Y-110930451D01*
X192971856Y-111205253D01*
X193137107Y-111452569D01*
X193347431Y-111662893D01*
X193594747Y-111828144D01*
X193869549Y-111941971D01*
X194161278Y-112000000D01*
X194458722Y-112000000D01*
X194750451Y-111941971D01*
X195025253Y-111828144D01*
X195272569Y-111662893D01*
X195482893Y-111452569D01*
X195648144Y-111205253D01*
X195761971Y-110930451D01*
X195820000Y-110638722D01*
X195820000Y-110341278D01*
X195761971Y-110049549D01*
X195648144Y-109774747D01*
X195482893Y-109527431D01*
X195272569Y-109317107D01*
X195025253Y-109151856D01*
X194750451Y-109038029D01*
X194458722Y-108980000D01*
X194161278Y-108980000D01*
X193869549Y-109038029D01*
X193594747Y-109151856D01*
X193347431Y-109317107D01*
X193137107Y-109527431D01*
X192971856Y-109774747D01*
X192858029Y-110049549D01*
X192800000Y-110341278D01*
X191858900Y-110341278D01*
X191858900Y-110231076D01*
X191757873Y-109723178D01*
X191559701Y-109244749D01*
X191272000Y-108814174D01*
X190905826Y-108448000D01*
X190475251Y-108160299D01*
X189996822Y-107962127D01*
X189488924Y-107861100D01*
X188971076Y-107861100D01*
X188463178Y-107962127D01*
X187984749Y-108160299D01*
X187554174Y-108448000D01*
X187483763Y-108518411D01*
X187555000Y-108160279D01*
X187555000Y-107739721D01*
X187472953Y-107327244D01*
X187312012Y-106938698D01*
X187078363Y-106589017D01*
X186780983Y-106291637D01*
X186431302Y-106057988D01*
X186042756Y-105897047D01*
X185630279Y-105815000D01*
X185209721Y-105815000D01*
X184797244Y-105897047D01*
X184408698Y-106057988D01*
X184059017Y-106291637D01*
X183969560Y-106381094D01*
X183950537Y-106345506D01*
X183871185Y-106248815D01*
X183774494Y-106169463D01*
X183664180Y-106110498D01*
X183544482Y-106074188D01*
X183420000Y-106061928D01*
X180870000Y-106061928D01*
X180745518Y-106074188D01*
X180625820Y-106110498D01*
X180515506Y-106169463D01*
X180418815Y-106248815D01*
X180339463Y-106345506D01*
X180280498Y-106455820D01*
X180244188Y-106575518D01*
X180231928Y-106700000D01*
X180231928Y-109200000D01*
X180244188Y-109324482D01*
X180280498Y-109444180D01*
X180324178Y-109525898D01*
X180241018Y-109534088D01*
X180121320Y-109570398D01*
X180011006Y-109629363D01*
X179914315Y-109708715D01*
X179834963Y-109805406D01*
X179775998Y-109915720D01*
X179739688Y-110035418D01*
X179727428Y-110159900D01*
X179727428Y-111759900D01*
X179739688Y-111884382D01*
X179775998Y-112004080D01*
X179834963Y-112114394D01*
X179914315Y-112211085D01*
X180011006Y-112290437D01*
X180050458Y-112311525D01*
X180034963Y-112330406D01*
X179975998Y-112440720D01*
X179939688Y-112560418D01*
X179927428Y-112684900D01*
X179927428Y-113884900D01*
X179939688Y-114009382D01*
X179975998Y-114129080D01*
X180034963Y-114239394D01*
X180114315Y-114336085D01*
X180211006Y-114415437D01*
X180321320Y-114474402D01*
X180441018Y-114510712D01*
X180565500Y-114522972D01*
X181765500Y-114522972D01*
X181889982Y-114510712D01*
X182009680Y-114474402D01*
X182119994Y-114415437D01*
X182209477Y-114342000D01*
X184539928Y-114342000D01*
X184552188Y-114466482D01*
X184588498Y-114586180D01*
X184647463Y-114696494D01*
X184726815Y-114793185D01*
X184823506Y-114872537D01*
X184933820Y-114931502D01*
X185053518Y-114967812D01*
X185178000Y-114980072D01*
X185642250Y-114977000D01*
X185801000Y-114818250D01*
X185801000Y-113719000D01*
X184701750Y-113719000D01*
X184543000Y-113877750D01*
X184539928Y-114342000D01*
X182209477Y-114342000D01*
X182216685Y-114336085D01*
X182296037Y-114239394D01*
X182355002Y-114129080D01*
X182391312Y-114009382D01*
X182403572Y-113884900D01*
X182403572Y-112842000D01*
X184539928Y-112842000D01*
X184543000Y-113306250D01*
X184701750Y-113465000D01*
X185801000Y-113465000D01*
X185801000Y-112365750D01*
X185642250Y-112207000D01*
X185178000Y-112203928D01*
X185053518Y-112216188D01*
X184933820Y-112252498D01*
X184823506Y-112311463D01*
X184726815Y-112390815D01*
X184647463Y-112487506D01*
X184588498Y-112597820D01*
X184552188Y-112717518D01*
X184539928Y-112842000D01*
X182403572Y-112842000D01*
X182403572Y-112684900D01*
X182391312Y-112560418D01*
X182355002Y-112440720D01*
X182296037Y-112330406D01*
X182280542Y-112311525D01*
X182319994Y-112290437D01*
X182416685Y-112211085D01*
X182496037Y-112114394D01*
X182555002Y-112004080D01*
X182591312Y-111884382D01*
X182603572Y-111759900D01*
X182603572Y-110596630D01*
X182640000Y-110560202D01*
X182640000Y-110638722D01*
X182698029Y-110930451D01*
X182811856Y-111205253D01*
X182977107Y-111452569D01*
X183187431Y-111662893D01*
X183434747Y-111828144D01*
X183709549Y-111941971D01*
X184001278Y-112000000D01*
X184298722Y-112000000D01*
X184590451Y-111941971D01*
X184865253Y-111828144D01*
X185112569Y-111662893D01*
X185322893Y-111452569D01*
X185488144Y-111205253D01*
X185601971Y-110930451D01*
X185660000Y-110638722D01*
X185660000Y-110341278D01*
X185609023Y-110085000D01*
X185630279Y-110085000D01*
X186042756Y-110002953D01*
X186431302Y-109842012D01*
X186737708Y-109637279D01*
X186702127Y-109723178D01*
X186601100Y-110231076D01*
X186601100Y-110748924D01*
X186702127Y-111256822D01*
X186900299Y-111735251D01*
X187140676Y-112095000D01*
X186764135Y-112095000D01*
X186730000Y-112091638D01*
X186695866Y-112095000D01*
X186695865Y-112095000D01*
X186593756Y-112105057D01*
X186462748Y-112144798D01*
X186348038Y-112206111D01*
X186213750Y-112207000D01*
X186055000Y-112365750D01*
X186055000Y-112620978D01*
X186045057Y-112653756D01*
X186031638Y-112790000D01*
X186035001Y-112824145D01*
X186035000Y-115632928D01*
X185178000Y-115632928D01*
X185053518Y-115645188D01*
X184933820Y-115681498D01*
X184823506Y-115740463D01*
X184726815Y-115819815D01*
X184647463Y-115916506D01*
X184588498Y-116026820D01*
X184552188Y-116146518D01*
X184539928Y-116271000D01*
X184539928Y-117771000D01*
X184552188Y-117895482D01*
X184588498Y-118015180D01*
X184647463Y-118125494D01*
X184726815Y-118222185D01*
X184823506Y-118301537D01*
X184933820Y-118360502D01*
X185053518Y-118396812D01*
X185178000Y-118409072D01*
X185729785Y-118409072D01*
X185837147Y-118516434D01*
X185837147Y-118551939D01*
X185876921Y-118751898D01*
X185954942Y-118940256D01*
X186068210Y-119109774D01*
X186212373Y-119253937D01*
X186381891Y-119367205D01*
X186570249Y-119445226D01*
X186770208Y-119485000D01*
X186974086Y-119485000D01*
X187174045Y-119445226D01*
X187362403Y-119367205D01*
X187531921Y-119253937D01*
X187676084Y-119109774D01*
X187789352Y-118940256D01*
X187867373Y-118751898D01*
X187907147Y-118551939D01*
X187907147Y-118485000D01*
X191695866Y-118485000D01*
X191730000Y-118488362D01*
X191767689Y-118484650D01*
X191866244Y-118474943D01*
X191997252Y-118435202D01*
X192046138Y-118409072D01*
X192845271Y-118409072D01*
X193605128Y-119168930D01*
X193605128Y-119283500D01*
X193622192Y-119456754D01*
X193672728Y-119623350D01*
X193699855Y-119674100D01*
X183154502Y-119674100D01*
X182564188Y-119083786D01*
X182600500Y-118901235D01*
X182600500Y-118618565D01*
X182545353Y-118341326D01*
X182437180Y-118080173D01*
X182280137Y-117845141D01*
X182080259Y-117645263D01*
X182053572Y-117627431D01*
X182053572Y-117600941D01*
X182119994Y-117565437D01*
X182216685Y-117486085D01*
X182296037Y-117389394D01*
X182355002Y-117279080D01*
X182391312Y-117159382D01*
X182403572Y-117034900D01*
X182403572Y-115834900D01*
X182391312Y-115710418D01*
X182355002Y-115590720D01*
X182296037Y-115480406D01*
X182216685Y-115383715D01*
X182119994Y-115304363D01*
X182009680Y-115245398D01*
X181889982Y-115209088D01*
X181765500Y-115196828D01*
X180565500Y-115196828D01*
X180441018Y-115209088D01*
X180321320Y-115245398D01*
X180211006Y-115304363D01*
X180114315Y-115383715D01*
X180034963Y-115480406D01*
X179975998Y-115590720D01*
X179939688Y-115710418D01*
X179927428Y-115834900D01*
X179927428Y-117034900D01*
X179939688Y-117159382D01*
X179975998Y-117279080D01*
X180034963Y-117389394D01*
X180114315Y-117486085D01*
X180211006Y-117565437D01*
X180277428Y-117600941D01*
X180277428Y-117627431D01*
X180250741Y-117645263D01*
X180050863Y-117845141D01*
X179893820Y-118080173D01*
X179785647Y-118341326D01*
X179730500Y-118618565D01*
X179730500Y-118901235D01*
X179785647Y-119178474D01*
X179893820Y-119439627D01*
X180050863Y-119674659D01*
X180250741Y-119874537D01*
X180485773Y-120031580D01*
X180746926Y-120139753D01*
X181024165Y-120194900D01*
X181306835Y-120194900D01*
X181489386Y-120158588D01*
X182275901Y-120945103D01*
X182299699Y-120974101D01*
X182415424Y-121069074D01*
X182547453Y-121139646D01*
X182690714Y-121183103D01*
X182802367Y-121194100D01*
X182802376Y-121194100D01*
X182839699Y-121197776D01*
X182877022Y-121194100D01*
X198655478Y-121194100D01*
X198692800Y-121197776D01*
X198730122Y-121194100D01*
X198730133Y-121194100D01*
X198841786Y-121183103D01*
X198985047Y-121139646D01*
X199117076Y-121069074D01*
X199139642Y-121050554D01*
X199263626Y-121174538D01*
X199391529Y-121260000D01*
X178460000Y-121260000D01*
X178460000Y-91900600D01*
X186048286Y-91900600D01*
X186048286Y-100820600D01*
X194189715Y-100820600D01*
X194189715Y-91900600D01*
X186048286Y-91900600D01*
X178460000Y-91900600D01*
X178460000Y-89927842D01*
X179340800Y-89927842D01*
X179340800Y-90259758D01*
X179405554Y-90585296D01*
X179532572Y-90891947D01*
X179716975Y-91167925D01*
X179951675Y-91402625D01*
X180227653Y-91587028D01*
X180534304Y-91714046D01*
X180859842Y-91778800D01*
X181191758Y-91778800D01*
X181517296Y-91714046D01*
X181823947Y-91587028D01*
X182099925Y-91402625D01*
X182334625Y-91167925D01*
X182519028Y-90891947D01*
X182646046Y-90585296D01*
X182710800Y-90259758D01*
X182710800Y-89927842D01*
X182646046Y-89602304D01*
X182519028Y-89295653D01*
X182334625Y-89019675D01*
X182099925Y-88784975D01*
X181823947Y-88600572D01*
X181517296Y-88473554D01*
X181191758Y-88408800D01*
X180859842Y-88408800D01*
X180534304Y-88473554D01*
X180227653Y-88600572D01*
X179951675Y-88784975D01*
X179716975Y-89019675D01*
X179532572Y-89295653D01*
X179405554Y-89602304D01*
X179340800Y-89927842D01*
X178460000Y-89927842D01*
X178460000Y-86497600D01*
X185010600Y-86497600D01*
X185010600Y-87247600D01*
X185056224Y-87456833D01*
X185141791Y-87653145D01*
X185264013Y-87828991D01*
X185418192Y-87977614D01*
X185598403Y-88093302D01*
X185801599Y-88165008D01*
X185968600Y-88038102D01*
X185968600Y-86497600D01*
X185010600Y-86497600D01*
X178460000Y-86497600D01*
X178460000Y-85493600D01*
X185010600Y-85493600D01*
X185010600Y-86243600D01*
X185968600Y-86243600D01*
X185968600Y-84703098D01*
X186222600Y-84703098D01*
X186222600Y-86243600D01*
X186489137Y-86243600D01*
X186495968Y-86279589D01*
X186568643Y-86459493D01*
X186576833Y-86474816D01*
X186775080Y-86491512D01*
X186768992Y-86497600D01*
X186222600Y-86497600D01*
X186222600Y-88038102D01*
X186389601Y-88165008D01*
X186592797Y-88093302D01*
X186773008Y-87977614D01*
X186927187Y-87828991D01*
X187049409Y-87653145D01*
X187115825Y-87500770D01*
X187265995Y-87350600D01*
X187251853Y-87336458D01*
X187310600Y-87277710D01*
X187310600Y-87447614D01*
X187346701Y-87629104D01*
X186954688Y-88021117D01*
X186971384Y-88219367D01*
X187149984Y-88295189D01*
X187339944Y-88334710D01*
X187533964Y-88336413D01*
X187690820Y-88306641D01*
X187755600Y-88385575D01*
X187784598Y-88409373D01*
X189294227Y-89919003D01*
X189318025Y-89948001D01*
X189347023Y-89971799D01*
X189433749Y-90042974D01*
X189553768Y-90107126D01*
X189565779Y-90113546D01*
X189709040Y-90157003D01*
X189820693Y-90168000D01*
X189820702Y-90168000D01*
X189858025Y-90171676D01*
X189895348Y-90168000D01*
X190945852Y-90168000D01*
X190983174Y-90171676D01*
X191020496Y-90168000D01*
X191020507Y-90168000D01*
X191132160Y-90157003D01*
X191275421Y-90113546D01*
X191407450Y-90042974D01*
X191523175Y-89948001D01*
X191546978Y-89918997D01*
X193056604Y-88409372D01*
X193085601Y-88385575D01*
X193111932Y-88353491D01*
X193151059Y-88305815D01*
X193289944Y-88334710D01*
X193483964Y-88336413D01*
X193674589Y-88300232D01*
X193854493Y-88227557D01*
X193869816Y-88219367D01*
X193886512Y-88021117D01*
X193494499Y-87629104D01*
X193530600Y-87447614D01*
X193530600Y-87277710D01*
X193589348Y-87336458D01*
X193575205Y-87350600D01*
X193725375Y-87500770D01*
X193791791Y-87653145D01*
X193914013Y-87828991D01*
X194068192Y-87977614D01*
X194248403Y-88093302D01*
X194451599Y-88165008D01*
X194618600Y-88038102D01*
X194618600Y-86497600D01*
X194872600Y-86497600D01*
X194872600Y-88038102D01*
X195039601Y-88165008D01*
X195242797Y-88093302D01*
X195423008Y-87977614D01*
X195577187Y-87828991D01*
X195699409Y-87653145D01*
X195784976Y-87456833D01*
X195830600Y-87247600D01*
X195830600Y-86497600D01*
X194872600Y-86497600D01*
X194618600Y-86497600D01*
X194072208Y-86497600D01*
X194066120Y-86491512D01*
X194264367Y-86474816D01*
X194340189Y-86296216D01*
X194351136Y-86243600D01*
X194618600Y-86243600D01*
X194618600Y-84703098D01*
X194872600Y-84703098D01*
X194872600Y-86243600D01*
X195830600Y-86243600D01*
X195830600Y-85493600D01*
X195784976Y-85284367D01*
X195699409Y-85088055D01*
X195577187Y-84912209D01*
X195423008Y-84763586D01*
X195242797Y-84647898D01*
X195039601Y-84576192D01*
X194872600Y-84703098D01*
X194618600Y-84703098D01*
X194451599Y-84576192D01*
X194248403Y-84647898D01*
X194068192Y-84763586D01*
X193914013Y-84912209D01*
X193791791Y-85088055D01*
X193787872Y-85097045D01*
X193691216Y-85056011D01*
X193501256Y-85016490D01*
X193307236Y-85014787D01*
X193116611Y-85050968D01*
X192969949Y-85110215D01*
X192832914Y-85053453D01*
X192642614Y-85015600D01*
X192448586Y-85015600D01*
X192258286Y-85053453D01*
X192120600Y-85110484D01*
X191982914Y-85053453D01*
X191792614Y-85015600D01*
X191598586Y-85015600D01*
X191408286Y-85053453D01*
X191270600Y-85110484D01*
X191132914Y-85053453D01*
X190942614Y-85015600D01*
X190748586Y-85015600D01*
X190558286Y-85053453D01*
X190420600Y-85110484D01*
X190282914Y-85053453D01*
X190092614Y-85015600D01*
X189898586Y-85015600D01*
X189708286Y-85053453D01*
X189570600Y-85110484D01*
X189432914Y-85053453D01*
X189242614Y-85015600D01*
X189048586Y-85015600D01*
X188858286Y-85053453D01*
X188720600Y-85110484D01*
X188582914Y-85053453D01*
X188392614Y-85015600D01*
X188198586Y-85015600D01*
X188008286Y-85053453D01*
X187870058Y-85110709D01*
X187741216Y-85056011D01*
X187551256Y-85016490D01*
X187357236Y-85014787D01*
X187166611Y-85050968D01*
X187053211Y-85096778D01*
X187049409Y-85088055D01*
X186927187Y-84912209D01*
X186773008Y-84763586D01*
X186592797Y-84647898D01*
X186389601Y-84576192D01*
X186222600Y-84703098D01*
X185968600Y-84703098D01*
X185801599Y-84576192D01*
X185598403Y-84647898D01*
X185418192Y-84763586D01*
X185264013Y-84912209D01*
X185141791Y-85088055D01*
X185056224Y-85284367D01*
X185010600Y-85493600D01*
X178460000Y-85493600D01*
X178460000Y-83117600D01*
X185010600Y-83117600D01*
X185010600Y-83517600D01*
X185056224Y-83726833D01*
X185141791Y-83923145D01*
X185264013Y-84098991D01*
X185418192Y-84247614D01*
X185598403Y-84363302D01*
X185801599Y-84435008D01*
X185968600Y-84308102D01*
X185968600Y-83117600D01*
X186222600Y-83117600D01*
X186222600Y-84308102D01*
X186389601Y-84435008D01*
X186592797Y-84363302D01*
X186773008Y-84247614D01*
X186927187Y-84098991D01*
X187049409Y-83923145D01*
X187134976Y-83726833D01*
X187180600Y-83517600D01*
X187180600Y-83117600D01*
X193660600Y-83117600D01*
X193660600Y-83517600D01*
X193706224Y-83726833D01*
X193791791Y-83923145D01*
X193914013Y-84098991D01*
X194068192Y-84247614D01*
X194248403Y-84363302D01*
X194451599Y-84435008D01*
X194618600Y-84308102D01*
X194618600Y-83117600D01*
X194872600Y-83117600D01*
X194872600Y-84308102D01*
X195039601Y-84435008D01*
X195242797Y-84363302D01*
X195423008Y-84247614D01*
X195577187Y-84098991D01*
X195699409Y-83923145D01*
X195784976Y-83726833D01*
X195830600Y-83517600D01*
X195830600Y-83117600D01*
X194872600Y-83117600D01*
X194618600Y-83117600D01*
X193660600Y-83117600D01*
X187180600Y-83117600D01*
X186222600Y-83117600D01*
X185968600Y-83117600D01*
X185010600Y-83117600D01*
X178460000Y-83117600D01*
X178460000Y-81940000D01*
X185223845Y-81940000D01*
X185141791Y-82058055D01*
G37*
%TD.AperFunction*%
D22*
X209808698Y-103517988D02*
X209459017Y-103751637D01*
X209161637Y-104049017D01*
X208927988Y-104398698D01*
X208767047Y-104787244D01*
X208685000Y-105199721D01*
X208685000Y-105620279D01*
X208767047Y-106032756D01*
X208927988Y-106421302D01*
X209161637Y-106770983D01*
X209459017Y-107068363D01*
X209808698Y-107302012D01*
X210197244Y-107462953D01*
X210609721Y-107545000D01*
X211030279Y-107545000D01*
X211442756Y-107462953D01*
X211831302Y-107302012D01*
X212180983Y-107068363D01*
X212288035Y-106961311D01*
X212316463Y-107014494D01*
X212395815Y-107111185D01*
X212492506Y-107190537D01*
X212602820Y-107249502D01*
X212722518Y-107285812D01*
X212847000Y-107298072D01*
X215397000Y-107298072D01*
X215521482Y-107285812D01*
X215641180Y-107249502D01*
X215751494Y-107190537D01*
X215848185Y-107111185D01*
X215927537Y-107014494D01*
X215986502Y-106904180D01*
X216022812Y-106784482D01*
X216035072Y-106660000D01*
X216035072Y-104597131D01*
X216131608Y-104500595D01*
X216160601Y-104476801D01*
X216184395Y-104447808D01*
X216184399Y-104447804D01*
X216255573Y-104361077D01*
X216255574Y-104361076D01*
X216326146Y-104229047D01*
X216355529Y-104132182D01*
X216424537Y-104063174D01*
X216537805Y-103893656D01*
X216587801Y-103772956D01*
X216587800Y-115186798D01*
X214316471Y-117458128D01*
X213690700Y-117458128D01*
X213517446Y-117475192D01*
X213350850Y-117525728D01*
X213227475Y-117591673D01*
X212970072Y-117334271D01*
X212970072Y-116271000D01*
X212957812Y-116146518D01*
X212921502Y-116026820D01*
X212877554Y-115944600D01*
X212953939Y-115944600D01*
X213153898Y-115904826D01*
X213342256Y-115826805D01*
X213511774Y-115713537D01*
X213655937Y-115569374D01*
X213769205Y-115399856D01*
X213847226Y-115211498D01*
X213887000Y-115011539D01*
X213887000Y-114807661D01*
X213847226Y-114607702D01*
X213769205Y-114419344D01*
X213655937Y-114249826D01*
X213511774Y-114105663D01*
X213342256Y-113992395D01*
X213153898Y-113914374D01*
X212970072Y-113877809D01*
X212970072Y-112842000D01*
X212957812Y-112717518D01*
X212921502Y-112597820D01*
X212862537Y-112487506D01*
X212783185Y-112390815D01*
X212686494Y-112311463D01*
X212576180Y-112252498D01*
X212456482Y-112216188D01*
X212332000Y-112203928D01*
X211157877Y-112203928D01*
X211047252Y-112144798D01*
X210916244Y-112105057D01*
X210814135Y-112095000D01*
X210814134Y-112095000D01*
X210780000Y-112091638D01*
X210745865Y-112095000D01*
X210369324Y-112095000D01*
X210609701Y-111735251D01*
X210807873Y-111256822D01*
X210908900Y-110748924D01*
X210908900Y-110341278D01*
X211850000Y-110341278D01*
X211850000Y-110638722D01*
X211908029Y-110930451D01*
X212021856Y-111205253D01*
X212187107Y-111452569D01*
X212397431Y-111662893D01*
X212644747Y-111828144D01*
X212919549Y-111941971D01*
X213211278Y-112000000D01*
X213508722Y-112000000D01*
X213800451Y-111941971D01*
X214075253Y-111828144D01*
X214322569Y-111662893D01*
X214532893Y-111452569D01*
X214698144Y-111205253D01*
X214811971Y-110930451D01*
X214870000Y-110638722D01*
X214870000Y-110341278D01*
X214811971Y-110049549D01*
X214698144Y-109774747D01*
X214532893Y-109527431D01*
X214322569Y-109317107D01*
X214075253Y-109151856D01*
X213800451Y-109038029D01*
X213508722Y-108980000D01*
X213211278Y-108980000D01*
X212919549Y-109038029D01*
X212644747Y-109151856D01*
X212397431Y-109317107D01*
X212187107Y-109527431D01*
X212021856Y-109774747D01*
X211908029Y-110049549D01*
X211850000Y-110341278D01*
X210908900Y-110341278D01*
X210908900Y-110231076D01*
X210807873Y-109723178D01*
X210609701Y-109244749D01*
X210322000Y-108814174D01*
X209955826Y-108448000D01*
X209525251Y-108160299D01*
X209046822Y-107962127D01*
X208538924Y-107861100D01*
X208021076Y-107861100D01*
X207513178Y-107962127D01*
X207034749Y-108160299D01*
X206604174Y-108448000D01*
X206533763Y-108518411D01*
X206605000Y-108160279D01*
X206605000Y-107739721D01*
X206522953Y-107327244D01*
X206362012Y-106938698D01*
X206128363Y-106589017D01*
X205830983Y-106291637D01*
X205481302Y-106057988D01*
X205092756Y-105897047D01*
X204680279Y-105815000D01*
X204259721Y-105815000D01*
X203847244Y-105897047D01*
X203458698Y-106057988D01*
X203109017Y-106291637D01*
X203019560Y-106381094D01*
X203000537Y-106345506D01*
X202921185Y-106248815D01*
X202824494Y-106169463D01*
X202714180Y-106110498D01*
X202594482Y-106074188D01*
X202470000Y-106061928D01*
X199920000Y-106061928D01*
X199795518Y-106074188D01*
X199675820Y-106110498D01*
X199565506Y-106169463D01*
X199468815Y-106248815D01*
X199389463Y-106345506D01*
X199330498Y-106455820D01*
X199294188Y-106575518D01*
X199281928Y-106700000D01*
X199281928Y-109200000D01*
X199294188Y-109324482D01*
X199330498Y-109444180D01*
X199371261Y-109520440D01*
X199264206Y-109577663D01*
X199167515Y-109657015D01*
X199088163Y-109753706D01*
X199029198Y-109864020D01*
X198992888Y-109983718D01*
X198980628Y-110108200D01*
X198980628Y-111708200D01*
X198992888Y-111832682D01*
X199029198Y-111952380D01*
X199088163Y-112062694D01*
X199167515Y-112159385D01*
X199264206Y-112238737D01*
X199303658Y-112259825D01*
X199288163Y-112278706D01*
X199229198Y-112389020D01*
X199192888Y-112508718D01*
X199180628Y-112633200D01*
X199180628Y-113833200D01*
X199192888Y-113957682D01*
X199229198Y-114077380D01*
X199288163Y-114187694D01*
X199367515Y-114284385D01*
X199464206Y-114363737D01*
X199574520Y-114422702D01*
X199694218Y-114459012D01*
X199818700Y-114471272D01*
X201018700Y-114471272D01*
X201143182Y-114459012D01*
X201262880Y-114422702D01*
X201373194Y-114363737D01*
X201399680Y-114342000D01*
X203589928Y-114342000D01*
X203602188Y-114466482D01*
X203638498Y-114586180D01*
X203697463Y-114696494D01*
X203776815Y-114793185D01*
X203873506Y-114872537D01*
X203983820Y-114931502D01*
X204103518Y-114967812D01*
X204228000Y-114980072D01*
X204692250Y-114977000D01*
X204851000Y-114818250D01*
X204851000Y-113719000D01*
X203751750Y-113719000D01*
X203593000Y-113877750D01*
X203589928Y-114342000D01*
X201399680Y-114342000D01*
X201469885Y-114284385D01*
X201549237Y-114187694D01*
X201608202Y-114077380D01*
X201644512Y-113957682D01*
X201656772Y-113833200D01*
X201656772Y-112842000D01*
X203589928Y-112842000D01*
X203593000Y-113306250D01*
X203751750Y-113465000D01*
X204851000Y-113465000D01*
X204851000Y-112365750D01*
X204692250Y-112207000D01*
X204228000Y-112203928D01*
X204103518Y-112216188D01*
X203983820Y-112252498D01*
X203873506Y-112311463D01*
X203776815Y-112390815D01*
X203697463Y-112487506D01*
X203638498Y-112597820D01*
X203602188Y-112717518D01*
X203589928Y-112842000D01*
X201656772Y-112842000D01*
X201656772Y-112633200D01*
X201644512Y-112508718D01*
X201608202Y-112389020D01*
X201549237Y-112278706D01*
X201533742Y-112259825D01*
X201573194Y-112238737D01*
X201669885Y-112159385D01*
X201749237Y-112062694D01*
X201808202Y-111952380D01*
X201844512Y-111832682D01*
X201856772Y-111708200D01*
X201856772Y-111192979D01*
X201861856Y-111205253D01*
X202027107Y-111452569D01*
X202237431Y-111662893D01*
X202484747Y-111828144D01*
X202759549Y-111941971D01*
X203051278Y-112000000D01*
X203348722Y-112000000D01*
X203640451Y-111941971D01*
X203915253Y-111828144D01*
X204162569Y-111662893D01*
X204372893Y-111452569D01*
X204538144Y-111205253D01*
X204651971Y-110930451D01*
X204710000Y-110638722D01*
X204710000Y-110341278D01*
X204659023Y-110085000D01*
X204680279Y-110085000D01*
X205092756Y-110002953D01*
X205481302Y-109842012D01*
X205787708Y-109637279D01*
X205752127Y-109723178D01*
X205651100Y-110231076D01*
X205651100Y-110748924D01*
X205752127Y-111256822D01*
X205950299Y-111735251D01*
X206190676Y-112095000D01*
X205814135Y-112095000D01*
X205780000Y-112091638D01*
X205745866Y-112095000D01*
X205745865Y-112095000D01*
X205643756Y-112105057D01*
X205512748Y-112144798D01*
X205398038Y-112206111D01*
X205263750Y-112207000D01*
X205105000Y-112365750D01*
X205105000Y-112620978D01*
X205095057Y-112653756D01*
X205081638Y-112790000D01*
X205085001Y-112824145D01*
X205085000Y-115632928D01*
X204228000Y-115632928D01*
X204103518Y-115645188D01*
X203983820Y-115681498D01*
X203873506Y-115740463D01*
X203776815Y-115819815D01*
X203697463Y-115916506D01*
X203693089Y-115924688D01*
X203690256Y-115922795D01*
X203501898Y-115844774D01*
X203301939Y-115805000D01*
X203098061Y-115805000D01*
X202898102Y-115844774D01*
X202709744Y-115922795D01*
X202540226Y-116036063D01*
X202396063Y-116180226D01*
X202282795Y-116349744D01*
X202204774Y-116538102D01*
X202165000Y-116738061D01*
X202165000Y-116941939D01*
X202204774Y-117141898D01*
X202282795Y-117330256D01*
X202396063Y-117499774D01*
X202540226Y-117643937D01*
X202709744Y-117757205D01*
X202898102Y-117835226D01*
X203098061Y-117875000D01*
X203301939Y-117875000D01*
X203501898Y-117835226D01*
X203592555Y-117797674D01*
X203602188Y-117895482D01*
X203638498Y-118015180D01*
X203697463Y-118125494D01*
X203776815Y-118222185D01*
X203873506Y-118301537D01*
X203983820Y-118360502D01*
X204103518Y-118396812D01*
X204228000Y-118409072D01*
X205463862Y-118409072D01*
X205512748Y-118435202D01*
X205643756Y-118474943D01*
X205742312Y-118484650D01*
X205780000Y-118488362D01*
X205814134Y-118485000D01*
X210745866Y-118485000D01*
X210780000Y-118488362D01*
X210817689Y-118484650D01*
X210916244Y-118474943D01*
X211047252Y-118435202D01*
X211096138Y-118409072D01*
X211895271Y-118409072D01*
X212804838Y-119318640D01*
X212819692Y-119469454D01*
X212839393Y-119534400D01*
X202319702Y-119534400D01*
X201817388Y-119032086D01*
X201853700Y-118849535D01*
X201853700Y-118566865D01*
X201798553Y-118289626D01*
X201690380Y-118028473D01*
X201533337Y-117793441D01*
X201333459Y-117593563D01*
X201306772Y-117575731D01*
X201306772Y-117549241D01*
X201373194Y-117513737D01*
X201469885Y-117434385D01*
X201549237Y-117337694D01*
X201608202Y-117227380D01*
X201644512Y-117107682D01*
X201656772Y-116983200D01*
X201656772Y-115783200D01*
X201644512Y-115658718D01*
X201608202Y-115539020D01*
X201549237Y-115428706D01*
X201469885Y-115332015D01*
X201373194Y-115252663D01*
X201262880Y-115193698D01*
X201143182Y-115157388D01*
X201018700Y-115145128D01*
X199818700Y-115145128D01*
X199694218Y-115157388D01*
X199574520Y-115193698D01*
X199464206Y-115252663D01*
X199367515Y-115332015D01*
X199288163Y-115428706D01*
X199229198Y-115539020D01*
X199192888Y-115658718D01*
X199180628Y-115783200D01*
X199180628Y-116983200D01*
X199192888Y-117107682D01*
X199229198Y-117227380D01*
X199288163Y-117337694D01*
X199367515Y-117434385D01*
X199464206Y-117513737D01*
X199530628Y-117549241D01*
X199530628Y-117575731D01*
X199503941Y-117593563D01*
X199304063Y-117793441D01*
X199147020Y-118028473D01*
X199038847Y-118289626D01*
X198983700Y-118566865D01*
X198983700Y-118849535D01*
X199020012Y-119032086D01*
X198377999Y-119674100D01*
X198114123Y-119674100D01*
X198119012Y-119657982D01*
X198131272Y-119533500D01*
X198128200Y-119094250D01*
X197969450Y-118935500D01*
X197032700Y-118935500D01*
X197032700Y-118955500D01*
X196778700Y-118955500D01*
X196778700Y-118935500D01*
X196758700Y-118935500D01*
X196758700Y-118681500D01*
X196778700Y-118681500D01*
X196778700Y-117607250D01*
X197032700Y-117607250D01*
X197032700Y-118681500D01*
X197969450Y-118681500D01*
X198128200Y-118522750D01*
X198131272Y-118083500D01*
X198119012Y-117959018D01*
X198082702Y-117839320D01*
X198023737Y-117729006D01*
X197944385Y-117632315D01*
X197847694Y-117552963D01*
X197737380Y-117493998D01*
X197617682Y-117457688D01*
X197493200Y-117445428D01*
X197191450Y-117448500D01*
X197032700Y-117607250D01*
X196778700Y-117607250D01*
X196619950Y-117448500D01*
X196318200Y-117445428D01*
X196241659Y-117452966D01*
X196189574Y-117355524D01*
X196157800Y-117316807D01*
X196157800Y-117246061D01*
X196118026Y-117046102D01*
X196040005Y-116857744D01*
X195926737Y-116688226D01*
X195871356Y-116632845D01*
X197982002Y-114522200D01*
X198044139Y-114522200D01*
X198244098Y-114482426D01*
X198432456Y-114404405D01*
X198601974Y-114291137D01*
X198746137Y-114146974D01*
X198859405Y-113977456D01*
X198937426Y-113789098D01*
X198977200Y-113589139D01*
X198977200Y-113385261D01*
X198937426Y-113185302D01*
X198859405Y-112996944D01*
X198746137Y-112827426D01*
X198601974Y-112683263D01*
X198432456Y-112569995D01*
X198244098Y-112491974D01*
X198044139Y-112452200D01*
X197864000Y-112452200D01*
X197864000Y-104810401D01*
X199236003Y-103438399D01*
X210000843Y-103438399D01*
X209808698Y-103517988D01*
%TA.AperFunction,Conductor*%
D23*
G36*
X209808698Y-103517988D02*
G01*
X209459017Y-103751637D01*
X209161637Y-104049017D01*
X208927988Y-104398698D01*
X208767047Y-104787244D01*
X208685000Y-105199721D01*
X208685000Y-105620279D01*
X208767047Y-106032756D01*
X208927988Y-106421302D01*
X209161637Y-106770983D01*
X209459017Y-107068363D01*
X209808698Y-107302012D01*
X210197244Y-107462953D01*
X210609721Y-107545000D01*
X211030279Y-107545000D01*
X211442756Y-107462953D01*
X211831302Y-107302012D01*
X212180983Y-107068363D01*
X212288035Y-106961311D01*
X212316463Y-107014494D01*
X212395815Y-107111185D01*
X212492506Y-107190537D01*
X212602820Y-107249502D01*
X212722518Y-107285812D01*
X212847000Y-107298072D01*
X215397000Y-107298072D01*
X215521482Y-107285812D01*
X215641180Y-107249502D01*
X215751494Y-107190537D01*
X215848185Y-107111185D01*
X215927537Y-107014494D01*
X215986502Y-106904180D01*
X216022812Y-106784482D01*
X216035072Y-106660000D01*
X216035072Y-104597131D01*
X216131608Y-104500595D01*
X216160601Y-104476801D01*
X216184395Y-104447808D01*
X216184399Y-104447804D01*
X216255573Y-104361077D01*
X216255574Y-104361076D01*
X216326146Y-104229047D01*
X216355529Y-104132182D01*
X216424537Y-104063174D01*
X216537805Y-103893656D01*
X216587801Y-103772956D01*
X216587800Y-115186798D01*
X214316471Y-117458128D01*
X213690700Y-117458128D01*
X213517446Y-117475192D01*
X213350850Y-117525728D01*
X213227475Y-117591673D01*
X212970072Y-117334271D01*
X212970072Y-116271000D01*
X212957812Y-116146518D01*
X212921502Y-116026820D01*
X212877554Y-115944600D01*
X212953939Y-115944600D01*
X213153898Y-115904826D01*
X213342256Y-115826805D01*
X213511774Y-115713537D01*
X213655937Y-115569374D01*
X213769205Y-115399856D01*
X213847226Y-115211498D01*
X213887000Y-115011539D01*
X213887000Y-114807661D01*
X213847226Y-114607702D01*
X213769205Y-114419344D01*
X213655937Y-114249826D01*
X213511774Y-114105663D01*
X213342256Y-113992395D01*
X213153898Y-113914374D01*
X212970072Y-113877809D01*
X212970072Y-112842000D01*
X212957812Y-112717518D01*
X212921502Y-112597820D01*
X212862537Y-112487506D01*
X212783185Y-112390815D01*
X212686494Y-112311463D01*
X212576180Y-112252498D01*
X212456482Y-112216188D01*
X212332000Y-112203928D01*
X211157877Y-112203928D01*
X211047252Y-112144798D01*
X210916244Y-112105057D01*
X210814135Y-112095000D01*
X210814134Y-112095000D01*
X210780000Y-112091638D01*
X210745865Y-112095000D01*
X210369324Y-112095000D01*
X210609701Y-111735251D01*
X210807873Y-111256822D01*
X210908900Y-110748924D01*
X210908900Y-110341278D01*
X211850000Y-110341278D01*
X211850000Y-110638722D01*
X211908029Y-110930451D01*
X212021856Y-111205253D01*
X212187107Y-111452569D01*
X212397431Y-111662893D01*
X212644747Y-111828144D01*
X212919549Y-111941971D01*
X213211278Y-112000000D01*
X213508722Y-112000000D01*
X213800451Y-111941971D01*
X214075253Y-111828144D01*
X214322569Y-111662893D01*
X214532893Y-111452569D01*
X214698144Y-111205253D01*
X214811971Y-110930451D01*
X214870000Y-110638722D01*
X214870000Y-110341278D01*
X214811971Y-110049549D01*
X214698144Y-109774747D01*
X214532893Y-109527431D01*
X214322569Y-109317107D01*
X214075253Y-109151856D01*
X213800451Y-109038029D01*
X213508722Y-108980000D01*
X213211278Y-108980000D01*
X212919549Y-109038029D01*
X212644747Y-109151856D01*
X212397431Y-109317107D01*
X212187107Y-109527431D01*
X212021856Y-109774747D01*
X211908029Y-110049549D01*
X211850000Y-110341278D01*
X210908900Y-110341278D01*
X210908900Y-110231076D01*
X210807873Y-109723178D01*
X210609701Y-109244749D01*
X210322000Y-108814174D01*
X209955826Y-108448000D01*
X209525251Y-108160299D01*
X209046822Y-107962127D01*
X208538924Y-107861100D01*
X208021076Y-107861100D01*
X207513178Y-107962127D01*
X207034749Y-108160299D01*
X206604174Y-108448000D01*
X206533763Y-108518411D01*
X206605000Y-108160279D01*
X206605000Y-107739721D01*
X206522953Y-107327244D01*
X206362012Y-106938698D01*
X206128363Y-106589017D01*
X205830983Y-106291637D01*
X205481302Y-106057988D01*
X205092756Y-105897047D01*
X204680279Y-105815000D01*
X204259721Y-105815000D01*
X203847244Y-105897047D01*
X203458698Y-106057988D01*
X203109017Y-106291637D01*
X203019560Y-106381094D01*
X203000537Y-106345506D01*
X202921185Y-106248815D01*
X202824494Y-106169463D01*
X202714180Y-106110498D01*
X202594482Y-106074188D01*
X202470000Y-106061928D01*
X199920000Y-106061928D01*
X199795518Y-106074188D01*
X199675820Y-106110498D01*
X199565506Y-106169463D01*
X199468815Y-106248815D01*
X199389463Y-106345506D01*
X199330498Y-106455820D01*
X199294188Y-106575518D01*
X199281928Y-106700000D01*
X199281928Y-109200000D01*
X199294188Y-109324482D01*
X199330498Y-109444180D01*
X199371261Y-109520440D01*
X199264206Y-109577663D01*
X199167515Y-109657015D01*
X199088163Y-109753706D01*
X199029198Y-109864020D01*
X198992888Y-109983718D01*
X198980628Y-110108200D01*
X198980628Y-111708200D01*
X198992888Y-111832682D01*
X199029198Y-111952380D01*
X199088163Y-112062694D01*
X199167515Y-112159385D01*
X199264206Y-112238737D01*
X199303658Y-112259825D01*
X199288163Y-112278706D01*
X199229198Y-112389020D01*
X199192888Y-112508718D01*
X199180628Y-112633200D01*
X199180628Y-113833200D01*
X199192888Y-113957682D01*
X199229198Y-114077380D01*
X199288163Y-114187694D01*
X199367515Y-114284385D01*
X199464206Y-114363737D01*
X199574520Y-114422702D01*
X199694218Y-114459012D01*
X199818700Y-114471272D01*
X201018700Y-114471272D01*
X201143182Y-114459012D01*
X201262880Y-114422702D01*
X201373194Y-114363737D01*
X201399680Y-114342000D01*
X203589928Y-114342000D01*
X203602188Y-114466482D01*
X203638498Y-114586180D01*
X203697463Y-114696494D01*
X203776815Y-114793185D01*
X203873506Y-114872537D01*
X203983820Y-114931502D01*
X204103518Y-114967812D01*
X204228000Y-114980072D01*
X204692250Y-114977000D01*
X204851000Y-114818250D01*
X204851000Y-113719000D01*
X203751750Y-113719000D01*
X203593000Y-113877750D01*
X203589928Y-114342000D01*
X201399680Y-114342000D01*
X201469885Y-114284385D01*
X201549237Y-114187694D01*
X201608202Y-114077380D01*
X201644512Y-113957682D01*
X201656772Y-113833200D01*
X201656772Y-112842000D01*
X203589928Y-112842000D01*
X203593000Y-113306250D01*
X203751750Y-113465000D01*
X204851000Y-113465000D01*
X204851000Y-112365750D01*
X204692250Y-112207000D01*
X204228000Y-112203928D01*
X204103518Y-112216188D01*
X203983820Y-112252498D01*
X203873506Y-112311463D01*
X203776815Y-112390815D01*
X203697463Y-112487506D01*
X203638498Y-112597820D01*
X203602188Y-112717518D01*
X203589928Y-112842000D01*
X201656772Y-112842000D01*
X201656772Y-112633200D01*
X201644512Y-112508718D01*
X201608202Y-112389020D01*
X201549237Y-112278706D01*
X201533742Y-112259825D01*
X201573194Y-112238737D01*
X201669885Y-112159385D01*
X201749237Y-112062694D01*
X201808202Y-111952380D01*
X201844512Y-111832682D01*
X201856772Y-111708200D01*
X201856772Y-111192979D01*
X201861856Y-111205253D01*
X202027107Y-111452569D01*
X202237431Y-111662893D01*
X202484747Y-111828144D01*
X202759549Y-111941971D01*
X203051278Y-112000000D01*
X203348722Y-112000000D01*
X203640451Y-111941971D01*
X203915253Y-111828144D01*
X204162569Y-111662893D01*
X204372893Y-111452569D01*
X204538144Y-111205253D01*
X204651971Y-110930451D01*
X204710000Y-110638722D01*
X204710000Y-110341278D01*
X204659023Y-110085000D01*
X204680279Y-110085000D01*
X205092756Y-110002953D01*
X205481302Y-109842012D01*
X205787708Y-109637279D01*
X205752127Y-109723178D01*
X205651100Y-110231076D01*
X205651100Y-110748924D01*
X205752127Y-111256822D01*
X205950299Y-111735251D01*
X206190676Y-112095000D01*
X205814135Y-112095000D01*
X205780000Y-112091638D01*
X205745866Y-112095000D01*
X205745865Y-112095000D01*
X205643756Y-112105057D01*
X205512748Y-112144798D01*
X205398038Y-112206111D01*
X205263750Y-112207000D01*
X205105000Y-112365750D01*
X205105000Y-112620978D01*
X205095057Y-112653756D01*
X205081638Y-112790000D01*
X205085001Y-112824145D01*
X205085000Y-115632928D01*
X204228000Y-115632928D01*
X204103518Y-115645188D01*
X203983820Y-115681498D01*
X203873506Y-115740463D01*
X203776815Y-115819815D01*
X203697463Y-115916506D01*
X203693089Y-115924688D01*
X203690256Y-115922795D01*
X203501898Y-115844774D01*
X203301939Y-115805000D01*
X203098061Y-115805000D01*
X202898102Y-115844774D01*
X202709744Y-115922795D01*
X202540226Y-116036063D01*
X202396063Y-116180226D01*
X202282795Y-116349744D01*
X202204774Y-116538102D01*
X202165000Y-116738061D01*
X202165000Y-116941939D01*
X202204774Y-117141898D01*
X202282795Y-117330256D01*
X202396063Y-117499774D01*
X202540226Y-117643937D01*
X202709744Y-117757205D01*
X202898102Y-117835226D01*
X203098061Y-117875000D01*
X203301939Y-117875000D01*
X203501898Y-117835226D01*
X203592555Y-117797674D01*
X203602188Y-117895482D01*
X203638498Y-118015180D01*
X203697463Y-118125494D01*
X203776815Y-118222185D01*
X203873506Y-118301537D01*
X203983820Y-118360502D01*
X204103518Y-118396812D01*
X204228000Y-118409072D01*
X205463862Y-118409072D01*
X205512748Y-118435202D01*
X205643756Y-118474943D01*
X205742312Y-118484650D01*
X205780000Y-118488362D01*
X205814134Y-118485000D01*
X210745866Y-118485000D01*
X210780000Y-118488362D01*
X210817689Y-118484650D01*
X210916244Y-118474943D01*
X211047252Y-118435202D01*
X211096138Y-118409072D01*
X211895271Y-118409072D01*
X212804838Y-119318640D01*
X212819692Y-119469454D01*
X212839393Y-119534400D01*
X202319702Y-119534400D01*
X201817388Y-119032086D01*
X201853700Y-118849535D01*
X201853700Y-118566865D01*
X201798553Y-118289626D01*
X201690380Y-118028473D01*
X201533337Y-117793441D01*
X201333459Y-117593563D01*
X201306772Y-117575731D01*
X201306772Y-117549241D01*
X201373194Y-117513737D01*
X201469885Y-117434385D01*
X201549237Y-117337694D01*
X201608202Y-117227380D01*
X201644512Y-117107682D01*
X201656772Y-116983200D01*
X201656772Y-115783200D01*
X201644512Y-115658718D01*
X201608202Y-115539020D01*
X201549237Y-115428706D01*
X201469885Y-115332015D01*
X201373194Y-115252663D01*
X201262880Y-115193698D01*
X201143182Y-115157388D01*
X201018700Y-115145128D01*
X199818700Y-115145128D01*
X199694218Y-115157388D01*
X199574520Y-115193698D01*
X199464206Y-115252663D01*
X199367515Y-115332015D01*
X199288163Y-115428706D01*
X199229198Y-115539020D01*
X199192888Y-115658718D01*
X199180628Y-115783200D01*
X199180628Y-116983200D01*
X199192888Y-117107682D01*
X199229198Y-117227380D01*
X199288163Y-117337694D01*
X199367515Y-117434385D01*
X199464206Y-117513737D01*
X199530628Y-117549241D01*
X199530628Y-117575731D01*
X199503941Y-117593563D01*
X199304063Y-117793441D01*
X199147020Y-118028473D01*
X199038847Y-118289626D01*
X198983700Y-118566865D01*
X198983700Y-118849535D01*
X199020012Y-119032086D01*
X198377999Y-119674100D01*
X198114123Y-119674100D01*
X198119012Y-119657982D01*
X198131272Y-119533500D01*
X198128200Y-119094250D01*
X197969450Y-118935500D01*
X197032700Y-118935500D01*
X197032700Y-118955500D01*
X196778700Y-118955500D01*
X196778700Y-118935500D01*
X196758700Y-118935500D01*
X196758700Y-118681500D01*
X196778700Y-118681500D01*
X196778700Y-117607250D01*
X197032700Y-117607250D01*
X197032700Y-118681500D01*
X197969450Y-118681500D01*
X198128200Y-118522750D01*
X198131272Y-118083500D01*
X198119012Y-117959018D01*
X198082702Y-117839320D01*
X198023737Y-117729006D01*
X197944385Y-117632315D01*
X197847694Y-117552963D01*
X197737380Y-117493998D01*
X197617682Y-117457688D01*
X197493200Y-117445428D01*
X197191450Y-117448500D01*
X197032700Y-117607250D01*
X196778700Y-117607250D01*
X196619950Y-117448500D01*
X196318200Y-117445428D01*
X196241659Y-117452966D01*
X196189574Y-117355524D01*
X196157800Y-117316807D01*
X196157800Y-117246061D01*
X196118026Y-117046102D01*
X196040005Y-116857744D01*
X195926737Y-116688226D01*
X195871356Y-116632845D01*
X197982002Y-114522200D01*
X198044139Y-114522200D01*
X198244098Y-114482426D01*
X198432456Y-114404405D01*
X198601974Y-114291137D01*
X198746137Y-114146974D01*
X198859405Y-113977456D01*
X198937426Y-113789098D01*
X198977200Y-113589139D01*
X198977200Y-113385261D01*
X198937426Y-113185302D01*
X198859405Y-112996944D01*
X198746137Y-112827426D01*
X198601974Y-112683263D01*
X198432456Y-112569995D01*
X198244098Y-112491974D01*
X198044139Y-112452200D01*
X197864000Y-112452200D01*
X197864000Y-104810401D01*
X199236003Y-103438399D01*
X210000843Y-103438399D01*
X209808698Y-103517988D01*
G37*
%TD.AperFunction*%
D22*
X217246826Y-116932737D02*
X217299304Y-116967801D01*
X217366599Y-117049801D01*
X217395602Y-117073603D01*
X217647596Y-117325597D01*
X217671399Y-117354601D01*
X217787124Y-117449574D01*
X217919153Y-117520146D01*
X218062414Y-117563603D01*
X218174067Y-117574600D01*
X218174076Y-117574600D01*
X218211399Y-117578276D01*
X218248722Y-117574600D01*
X218449336Y-117574600D01*
X218514206Y-117627837D01*
X218580628Y-117663341D01*
X218580628Y-117689831D01*
X218553941Y-117707663D01*
X218354063Y-117907541D01*
X218197020Y-118142573D01*
X218088847Y-118403726D01*
X218033700Y-118680965D01*
X218033700Y-118963635D01*
X218070012Y-119146186D01*
X217681799Y-119534400D01*
X217328689Y-119534400D01*
X217325700Y-119106950D01*
X217166950Y-118948200D01*
X216230200Y-118948200D01*
X216230200Y-118968200D01*
X215976200Y-118968200D01*
X215976200Y-118948200D01*
X215956200Y-118948200D01*
X215956200Y-118694200D01*
X215976200Y-118694200D01*
X215976200Y-118674200D01*
X216230200Y-118674200D01*
X216230200Y-118694200D01*
X217166950Y-118694200D01*
X217325700Y-118535450D01*
X217328772Y-118096200D01*
X217316512Y-117971718D01*
X217280202Y-117852020D01*
X217221237Y-117741706D01*
X217141885Y-117645015D01*
X217045194Y-117565663D01*
X216934880Y-117506698D01*
X216815182Y-117470388D01*
X216690700Y-117458128D01*
X216463763Y-117460438D01*
X217119145Y-116805056D01*
X217246826Y-116932737D01*
%TA.AperFunction,Conductor*%
D23*
G36*
X217246826Y-116932737D02*
G01*
X217299304Y-116967801D01*
X217366599Y-117049801D01*
X217395602Y-117073603D01*
X217647596Y-117325597D01*
X217671399Y-117354601D01*
X217787124Y-117449574D01*
X217919153Y-117520146D01*
X218062414Y-117563603D01*
X218174067Y-117574600D01*
X218174076Y-117574600D01*
X218211399Y-117578276D01*
X218248722Y-117574600D01*
X218449336Y-117574600D01*
X218514206Y-117627837D01*
X218580628Y-117663341D01*
X218580628Y-117689831D01*
X218553941Y-117707663D01*
X218354063Y-117907541D01*
X218197020Y-118142573D01*
X218088847Y-118403726D01*
X218033700Y-118680965D01*
X218033700Y-118963635D01*
X218070012Y-119146186D01*
X217681799Y-119534400D01*
X217328689Y-119534400D01*
X217325700Y-119106950D01*
X217166950Y-118948200D01*
X216230200Y-118948200D01*
X216230200Y-118968200D01*
X215976200Y-118968200D01*
X215976200Y-118948200D01*
X215956200Y-118948200D01*
X215956200Y-118694200D01*
X215976200Y-118694200D01*
X215976200Y-118674200D01*
X216230200Y-118674200D01*
X216230200Y-118694200D01*
X217166950Y-118694200D01*
X217325700Y-118535450D01*
X217328772Y-118096200D01*
X217316512Y-117971718D01*
X217280202Y-117852020D01*
X217221237Y-117741706D01*
X217141885Y-117645015D01*
X217045194Y-117565663D01*
X216934880Y-117506698D01*
X216815182Y-117470388D01*
X216690700Y-117458128D01*
X216463763Y-117460438D01*
X217119145Y-116805056D01*
X217246826Y-116932737D01*
G37*
%TD.AperFunction*%
D22*
X236196600Y-119242998D02*
X236040101Y-119399497D01*
X236037700Y-119056150D01*
X235878950Y-118897400D01*
X234942200Y-118897400D01*
X234942200Y-118917400D01*
X234688200Y-118917400D01*
X234688200Y-118897400D01*
X234668200Y-118897400D01*
X234668200Y-118643400D01*
X234688200Y-118643400D01*
X234688200Y-118623400D01*
X234942200Y-118623400D01*
X234942200Y-118643400D01*
X235878950Y-118643400D01*
X236037700Y-118484650D01*
X236040772Y-118045400D01*
X236028512Y-117920918D01*
X235992202Y-117801220D01*
X235933237Y-117690906D01*
X235853885Y-117594215D01*
X235757194Y-117514863D01*
X235646880Y-117455898D01*
X235527182Y-117419588D01*
X235402700Y-117407328D01*
X235175763Y-117409638D01*
X236096003Y-116489399D01*
X236125001Y-116465601D01*
X236196600Y-116378357D01*
X236196600Y-119242998D01*
%TA.AperFunction,Conductor*%
D23*
G36*
X236196600Y-119242998D02*
G01*
X236040101Y-119399497D01*
X236037700Y-119056150D01*
X235878950Y-118897400D01*
X234942200Y-118897400D01*
X234942200Y-118917400D01*
X234688200Y-118917400D01*
X234688200Y-118897400D01*
X234668200Y-118897400D01*
X234668200Y-118643400D01*
X234688200Y-118643400D01*
X234688200Y-118623400D01*
X234942200Y-118623400D01*
X234942200Y-118643400D01*
X235878950Y-118643400D01*
X236037700Y-118484650D01*
X236040772Y-118045400D01*
X236028512Y-117920918D01*
X235992202Y-117801220D01*
X235933237Y-117690906D01*
X235853885Y-117594215D01*
X235757194Y-117514863D01*
X235646880Y-117455898D01*
X235527182Y-117419588D01*
X235402700Y-117407328D01*
X235175763Y-117409638D01*
X236096003Y-116489399D01*
X236125001Y-116465601D01*
X236196600Y-116378357D01*
X236196600Y-119242998D01*
G37*
%TD.AperFunction*%
D22*
X224802127Y-109723178D02*
X224701100Y-110231076D01*
X224701100Y-110748924D01*
X224802127Y-111256822D01*
X225000299Y-111735251D01*
X225240676Y-112095000D01*
X224864135Y-112095000D01*
X224830000Y-112091638D01*
X224795866Y-112095000D01*
X224795865Y-112095000D01*
X224693756Y-112105057D01*
X224562748Y-112144798D01*
X224448038Y-112206111D01*
X224313750Y-112207000D01*
X224155000Y-112365750D01*
X224155000Y-112620978D01*
X224145057Y-112653756D01*
X224131638Y-112790000D01*
X224135001Y-112824145D01*
X224135000Y-115632928D01*
X223278000Y-115632928D01*
X223153518Y-115645188D01*
X223033820Y-115681498D01*
X222923506Y-115740463D01*
X222826815Y-115819815D01*
X222747463Y-115916506D01*
X222688498Y-116026820D01*
X222652188Y-116146518D01*
X222639928Y-116271000D01*
X222639928Y-117334270D01*
X220877165Y-119097034D01*
X220903700Y-118963635D01*
X220903700Y-118680965D01*
X220848553Y-118403726D01*
X220740380Y-118142573D01*
X220583337Y-117907541D01*
X220383459Y-117707663D01*
X220356772Y-117689831D01*
X220356772Y-117663341D01*
X220423194Y-117627837D01*
X220519885Y-117548485D01*
X220599237Y-117451794D01*
X220658202Y-117341480D01*
X220694512Y-117221782D01*
X220706772Y-117097300D01*
X220706772Y-115897300D01*
X220694512Y-115772818D01*
X220658202Y-115653120D01*
X220599237Y-115542806D01*
X220519885Y-115446115D01*
X220423194Y-115366763D01*
X220312880Y-115307798D01*
X220193182Y-115271488D01*
X220068700Y-115259228D01*
X218868700Y-115259228D01*
X218744218Y-115271488D01*
X218624520Y-115307798D01*
X218575507Y-115333996D01*
X218566374Y-115324863D01*
X218396856Y-115211595D01*
X218208498Y-115133574D01*
X218107800Y-115113544D01*
X218107800Y-112119990D01*
X218138163Y-112176794D01*
X218217515Y-112273485D01*
X218314206Y-112352837D01*
X218353658Y-112373925D01*
X218338163Y-112392806D01*
X218279198Y-112503120D01*
X218242888Y-112622818D01*
X218230628Y-112747300D01*
X218230628Y-113947300D01*
X218242888Y-114071782D01*
X218279198Y-114191480D01*
X218338163Y-114301794D01*
X218417515Y-114398485D01*
X218514206Y-114477837D01*
X218624520Y-114536802D01*
X218744218Y-114573112D01*
X218868700Y-114585372D01*
X220068700Y-114585372D01*
X220193182Y-114573112D01*
X220312880Y-114536802D01*
X220423194Y-114477837D01*
X220519885Y-114398485D01*
X220566240Y-114342000D01*
X222639928Y-114342000D01*
X222652188Y-114466482D01*
X222688498Y-114586180D01*
X222747463Y-114696494D01*
X222826815Y-114793185D01*
X222923506Y-114872537D01*
X223033820Y-114931502D01*
X223153518Y-114967812D01*
X223278000Y-114980072D01*
X223742250Y-114977000D01*
X223901000Y-114818250D01*
X223901000Y-113719000D01*
X222801750Y-113719000D01*
X222643000Y-113877750D01*
X222639928Y-114342000D01*
X220566240Y-114342000D01*
X220599237Y-114301794D01*
X220658202Y-114191480D01*
X220694512Y-114071782D01*
X220706772Y-113947300D01*
X220706772Y-112842000D01*
X222639928Y-112842000D01*
X222643000Y-113306250D01*
X222801750Y-113465000D01*
X223901000Y-113465000D01*
X223901000Y-112365750D01*
X223742250Y-112207000D01*
X223278000Y-112203928D01*
X223153518Y-112216188D01*
X223033820Y-112252498D01*
X222923506Y-112311463D01*
X222826815Y-112390815D01*
X222747463Y-112487506D01*
X222688498Y-112597820D01*
X222652188Y-112717518D01*
X222639928Y-112842000D01*
X220706772Y-112842000D01*
X220706772Y-112747300D01*
X220694512Y-112622818D01*
X220658202Y-112503120D01*
X220599237Y-112392806D01*
X220583742Y-112373925D01*
X220623194Y-112352837D01*
X220719885Y-112273485D01*
X220799237Y-112176794D01*
X220858202Y-112066480D01*
X220894512Y-111946782D01*
X220906772Y-111822300D01*
X220906772Y-111192979D01*
X220911856Y-111205253D01*
X221077107Y-111452569D01*
X221287431Y-111662893D01*
X221534747Y-111828144D01*
X221809549Y-111941971D01*
X222101278Y-112000000D01*
X222398722Y-112000000D01*
X222690451Y-111941971D01*
X222965253Y-111828144D01*
X223212569Y-111662893D01*
X223422893Y-111452569D01*
X223588144Y-111205253D01*
X223701971Y-110930451D01*
X223760000Y-110638722D01*
X223760000Y-110341278D01*
X223709023Y-110085000D01*
X223730279Y-110085000D01*
X224142756Y-110002953D01*
X224531302Y-109842012D01*
X224837708Y-109637279D01*
X224802127Y-109723178D01*
%TA.AperFunction,Conductor*%
D23*
G36*
X224802127Y-109723178D02*
G01*
X224701100Y-110231076D01*
X224701100Y-110748924D01*
X224802127Y-111256822D01*
X225000299Y-111735251D01*
X225240676Y-112095000D01*
X224864135Y-112095000D01*
X224830000Y-112091638D01*
X224795866Y-112095000D01*
X224795865Y-112095000D01*
X224693756Y-112105057D01*
X224562748Y-112144798D01*
X224448038Y-112206111D01*
X224313750Y-112207000D01*
X224155000Y-112365750D01*
X224155000Y-112620978D01*
X224145057Y-112653756D01*
X224131638Y-112790000D01*
X224135001Y-112824145D01*
X224135000Y-115632928D01*
X223278000Y-115632928D01*
X223153518Y-115645188D01*
X223033820Y-115681498D01*
X222923506Y-115740463D01*
X222826815Y-115819815D01*
X222747463Y-115916506D01*
X222688498Y-116026820D01*
X222652188Y-116146518D01*
X222639928Y-116271000D01*
X222639928Y-117334270D01*
X220877165Y-119097034D01*
X220903700Y-118963635D01*
X220903700Y-118680965D01*
X220848553Y-118403726D01*
X220740380Y-118142573D01*
X220583337Y-117907541D01*
X220383459Y-117707663D01*
X220356772Y-117689831D01*
X220356772Y-117663341D01*
X220423194Y-117627837D01*
X220519885Y-117548485D01*
X220599237Y-117451794D01*
X220658202Y-117341480D01*
X220694512Y-117221782D01*
X220706772Y-117097300D01*
X220706772Y-115897300D01*
X220694512Y-115772818D01*
X220658202Y-115653120D01*
X220599237Y-115542806D01*
X220519885Y-115446115D01*
X220423194Y-115366763D01*
X220312880Y-115307798D01*
X220193182Y-115271488D01*
X220068700Y-115259228D01*
X218868700Y-115259228D01*
X218744218Y-115271488D01*
X218624520Y-115307798D01*
X218575507Y-115333996D01*
X218566374Y-115324863D01*
X218396856Y-115211595D01*
X218208498Y-115133574D01*
X218107800Y-115113544D01*
X218107800Y-112119990D01*
X218138163Y-112176794D01*
X218217515Y-112273485D01*
X218314206Y-112352837D01*
X218353658Y-112373925D01*
X218338163Y-112392806D01*
X218279198Y-112503120D01*
X218242888Y-112622818D01*
X218230628Y-112747300D01*
X218230628Y-113947300D01*
X218242888Y-114071782D01*
X218279198Y-114191480D01*
X218338163Y-114301794D01*
X218417515Y-114398485D01*
X218514206Y-114477837D01*
X218624520Y-114536802D01*
X218744218Y-114573112D01*
X218868700Y-114585372D01*
X220068700Y-114585372D01*
X220193182Y-114573112D01*
X220312880Y-114536802D01*
X220423194Y-114477837D01*
X220519885Y-114398485D01*
X220566240Y-114342000D01*
X222639928Y-114342000D01*
X222652188Y-114466482D01*
X222688498Y-114586180D01*
X222747463Y-114696494D01*
X222826815Y-114793185D01*
X222923506Y-114872537D01*
X223033820Y-114931502D01*
X223153518Y-114967812D01*
X223278000Y-114980072D01*
X223742250Y-114977000D01*
X223901000Y-114818250D01*
X223901000Y-113719000D01*
X222801750Y-113719000D01*
X222643000Y-113877750D01*
X222639928Y-114342000D01*
X220566240Y-114342000D01*
X220599237Y-114301794D01*
X220658202Y-114191480D01*
X220694512Y-114071782D01*
X220706772Y-113947300D01*
X220706772Y-112842000D01*
X222639928Y-112842000D01*
X222643000Y-113306250D01*
X222801750Y-113465000D01*
X223901000Y-113465000D01*
X223901000Y-112365750D01*
X223742250Y-112207000D01*
X223278000Y-112203928D01*
X223153518Y-112216188D01*
X223033820Y-112252498D01*
X222923506Y-112311463D01*
X222826815Y-112390815D01*
X222747463Y-112487506D01*
X222688498Y-112597820D01*
X222652188Y-112717518D01*
X222639928Y-112842000D01*
X220706772Y-112842000D01*
X220706772Y-112747300D01*
X220694512Y-112622818D01*
X220658202Y-112503120D01*
X220599237Y-112392806D01*
X220583742Y-112373925D01*
X220623194Y-112352837D01*
X220719885Y-112273485D01*
X220799237Y-112176794D01*
X220858202Y-112066480D01*
X220894512Y-111946782D01*
X220906772Y-111822300D01*
X220906772Y-111192979D01*
X220911856Y-111205253D01*
X221077107Y-111452569D01*
X221287431Y-111662893D01*
X221534747Y-111828144D01*
X221809549Y-111941971D01*
X222101278Y-112000000D01*
X222398722Y-112000000D01*
X222690451Y-111941971D01*
X222965253Y-111828144D01*
X223212569Y-111662893D01*
X223422893Y-111452569D01*
X223588144Y-111205253D01*
X223701971Y-110930451D01*
X223760000Y-110638722D01*
X223760000Y-110341278D01*
X223709023Y-110085000D01*
X223730279Y-110085000D01*
X224142756Y-110002953D01*
X224531302Y-109842012D01*
X224837708Y-109637279D01*
X224802127Y-109723178D01*
G37*
%TD.AperFunction*%
D22*
X203593000Y-94827750D02*
X203589928Y-95292000D01*
X203602188Y-95416482D01*
X203638498Y-95536180D01*
X203697463Y-95646494D01*
X203776815Y-95743185D01*
X203873506Y-95822537D01*
X203894816Y-95833927D01*
X203830374Y-95989502D01*
X203790600Y-96189461D01*
X203790600Y-96393339D01*
X203830374Y-96593298D01*
X203871353Y-96692230D01*
X203776815Y-96769815D01*
X203697463Y-96866506D01*
X203638498Y-96976820D01*
X203602188Y-97096518D01*
X203589928Y-97221000D01*
X203589928Y-98721000D01*
X203602188Y-98845482D01*
X203638498Y-98965180D01*
X203697463Y-99075494D01*
X203776815Y-99172185D01*
X203873506Y-99251537D01*
X203983820Y-99310502D01*
X204103518Y-99346812D01*
X204228000Y-99359072D01*
X205463862Y-99359072D01*
X205512748Y-99385202D01*
X205643756Y-99424943D01*
X205780000Y-99438362D01*
X205814134Y-99435000D01*
X210745866Y-99435000D01*
X210780000Y-99438362D01*
X210916244Y-99424943D01*
X211047252Y-99385202D01*
X211096138Y-99359072D01*
X211895271Y-99359072D01*
X212843801Y-100307603D01*
X212867599Y-100336601D01*
X212983324Y-100431574D01*
X213021087Y-100451759D01*
X213069528Y-100611450D01*
X213151595Y-100764986D01*
X213262038Y-100899562D01*
X213396614Y-101010005D01*
X213550150Y-101092072D01*
X213556506Y-101094000D01*
X203523800Y-101094000D01*
X203523800Y-101027061D01*
X203484026Y-100827102D01*
X203406005Y-100638744D01*
X203292737Y-100469226D01*
X203248800Y-100425289D01*
X203248800Y-95082201D01*
X203661999Y-94669002D01*
X203751748Y-94669002D01*
X203593000Y-94827750D01*
%TA.AperFunction,Conductor*%
D23*
G36*
X203593000Y-94827750D02*
G01*
X203589928Y-95292000D01*
X203602188Y-95416482D01*
X203638498Y-95536180D01*
X203697463Y-95646494D01*
X203776815Y-95743185D01*
X203873506Y-95822537D01*
X203894816Y-95833927D01*
X203830374Y-95989502D01*
X203790600Y-96189461D01*
X203790600Y-96393339D01*
X203830374Y-96593298D01*
X203871353Y-96692230D01*
X203776815Y-96769815D01*
X203697463Y-96866506D01*
X203638498Y-96976820D01*
X203602188Y-97096518D01*
X203589928Y-97221000D01*
X203589928Y-98721000D01*
X203602188Y-98845482D01*
X203638498Y-98965180D01*
X203697463Y-99075494D01*
X203776815Y-99172185D01*
X203873506Y-99251537D01*
X203983820Y-99310502D01*
X204103518Y-99346812D01*
X204228000Y-99359072D01*
X205463862Y-99359072D01*
X205512748Y-99385202D01*
X205643756Y-99424943D01*
X205780000Y-99438362D01*
X205814134Y-99435000D01*
X210745866Y-99435000D01*
X210780000Y-99438362D01*
X210916244Y-99424943D01*
X211047252Y-99385202D01*
X211096138Y-99359072D01*
X211895271Y-99359072D01*
X212843801Y-100307603D01*
X212867599Y-100336601D01*
X212983324Y-100431574D01*
X213021087Y-100451759D01*
X213069528Y-100611450D01*
X213151595Y-100764986D01*
X213262038Y-100899562D01*
X213396614Y-101010005D01*
X213550150Y-101092072D01*
X213556506Y-101094000D01*
X203523800Y-101094000D01*
X203523800Y-101027061D01*
X203484026Y-100827102D01*
X203406005Y-100638744D01*
X203292737Y-100469226D01*
X203248800Y-100425289D01*
X203248800Y-95082201D01*
X203661999Y-94669002D01*
X203751748Y-94669002D01*
X203593000Y-94827750D01*
G37*
%TD.AperFunction*%
D22*
X216333801Y-96558868D02*
X216330124Y-96596200D01*
X216344798Y-96745185D01*
X216388254Y-96888446D01*
X216458826Y-97020476D01*
X216520264Y-97095337D01*
X216553800Y-97136201D01*
X216582798Y-97159999D01*
X217616247Y-98193449D01*
X217616247Y-98255586D01*
X217656021Y-98455545D01*
X217734042Y-98643903D01*
X217847310Y-98813421D01*
X217894644Y-98860755D01*
X217526975Y-99228424D01*
X217528072Y-99071600D01*
X217515812Y-98947118D01*
X217479502Y-98827420D01*
X217420537Y-98717106D01*
X217341185Y-98620415D01*
X217244494Y-98541063D01*
X217134180Y-98482098D01*
X217014482Y-98445788D01*
X216890000Y-98433528D01*
X216588250Y-98436600D01*
X216429500Y-98595350D01*
X216429500Y-99669600D01*
X216449500Y-99669600D01*
X216449500Y-99923600D01*
X216429500Y-99923600D01*
X216429500Y-99943600D01*
X216175500Y-99943600D01*
X216175500Y-99923600D01*
X216155500Y-99923600D01*
X216155500Y-99669600D01*
X216175500Y-99669600D01*
X216175500Y-98595350D01*
X216016750Y-98436600D01*
X215715000Y-98433528D01*
X215590518Y-98445788D01*
X215470820Y-98482098D01*
X215360506Y-98541063D01*
X215263815Y-98620415D01*
X215198342Y-98700194D01*
X215192962Y-98693638D01*
X215058386Y-98583195D01*
X214987500Y-98545306D01*
X214987500Y-93948001D01*
X216333800Y-92601701D01*
X216333801Y-96558868D01*
%TA.AperFunction,Conductor*%
D23*
G36*
X216333801Y-96558868D02*
G01*
X216330124Y-96596200D01*
X216344798Y-96745185D01*
X216388254Y-96888446D01*
X216458826Y-97020476D01*
X216520264Y-97095337D01*
X216553800Y-97136201D01*
X216582798Y-97159999D01*
X217616247Y-98193449D01*
X217616247Y-98255586D01*
X217656021Y-98455545D01*
X217734042Y-98643903D01*
X217847310Y-98813421D01*
X217894644Y-98860755D01*
X217526975Y-99228424D01*
X217528072Y-99071600D01*
X217515812Y-98947118D01*
X217479502Y-98827420D01*
X217420537Y-98717106D01*
X217341185Y-98620415D01*
X217244494Y-98541063D01*
X217134180Y-98482098D01*
X217014482Y-98445788D01*
X216890000Y-98433528D01*
X216588250Y-98436600D01*
X216429500Y-98595350D01*
X216429500Y-99669600D01*
X216449500Y-99669600D01*
X216449500Y-99923600D01*
X216429500Y-99923600D01*
X216429500Y-99943600D01*
X216175500Y-99943600D01*
X216175500Y-99923600D01*
X216155500Y-99923600D01*
X216155500Y-99669600D01*
X216175500Y-99669600D01*
X216175500Y-98595350D01*
X216016750Y-98436600D01*
X215715000Y-98433528D01*
X215590518Y-98445788D01*
X215470820Y-98482098D01*
X215360506Y-98541063D01*
X215263815Y-98620415D01*
X215198342Y-98700194D01*
X215192962Y-98693638D01*
X215058386Y-98583195D01*
X214987500Y-98545306D01*
X214987500Y-93948001D01*
X216333800Y-92601701D01*
X216333801Y-96558868D01*
G37*
%TD.AperFunction*%
D22*
X205085001Y-94689000D02*
X204851000Y-94689000D01*
X204851000Y-94669000D01*
X204831000Y-94669000D01*
X204831000Y-94415000D01*
X204851000Y-94415000D01*
X204851000Y-94395000D01*
X205085001Y-94395000D01*
X205085001Y-94689000D01*
%TA.AperFunction,Conductor*%
D23*
G36*
X205085001Y-94689000D02*
G01*
X204851000Y-94689000D01*
X204851000Y-94669000D01*
X204831000Y-94669000D01*
X204831000Y-94415000D01*
X204851000Y-94415000D01*
X204851000Y-94395000D01*
X205085001Y-94395000D01*
X205085001Y-94689000D01*
G37*
%TD.AperFunction*%
%TD*%
M02*
