%TF.GenerationSoftware,KiCad,Pcbnew,(5.1.10)-1*%
%TF.CreationDate,2021-11-19T23:24:49+01:00*%
%TF.ProjectId,Labbe,4c616262-652e-46b6-9963-61645f706362,rev?*%
%TF.SameCoordinates,Original*%
%TF.FileFunction,Paste,Bot*%
%TF.FilePolarity,Positive*%
%FSLAX46Y46*%
G04 Gerber Fmt 4.6, Leading zero omitted, Abs format (unit mm)*
G04 Created by KiCad (PCBNEW (5.1.10)-1) date 2021-11-19 23:24:49*
%MOMM*%
%LPD*%
G01*
G04 APERTURE LIST*
%ADD10R,1.200000X1.200000*%
%ADD11R,1.500000X1.500000*%
%ADD12R,2.550000X2.500000*%
G04 APERTURE END LIST*
%TO.C,C4*%
G36*
G01*
X196318200Y-119283500D02*
X196318200Y-118333500D01*
G75*
G02*
X196568200Y-118083500I250000J0D01*
G01*
X197243200Y-118083500D01*
G75*
G02*
X197493200Y-118333500I0J-250000D01*
G01*
X197493200Y-119283500D01*
G75*
G02*
X197243200Y-119533500I-250000J0D01*
G01*
X196568200Y-119533500D01*
G75*
G02*
X196318200Y-119283500I0J250000D01*
G01*
G37*
G36*
G01*
X194243200Y-119283500D02*
X194243200Y-118333500D01*
G75*
G02*
X194493200Y-118083500I250000J0D01*
G01*
X195168200Y-118083500D01*
G75*
G02*
X195418200Y-118333500I0J-250000D01*
G01*
X195418200Y-119283500D01*
G75*
G02*
X195168200Y-119533500I-250000J0D01*
G01*
X194493200Y-119533500D01*
G75*
G02*
X194243200Y-119283500I0J250000D01*
G01*
G37*
%TD*%
%TO.C,C5*%
G36*
G01*
X215515700Y-119296200D02*
X215515700Y-118346200D01*
G75*
G02*
X215765700Y-118096200I250000J0D01*
G01*
X216440700Y-118096200D01*
G75*
G02*
X216690700Y-118346200I0J-250000D01*
G01*
X216690700Y-119296200D01*
G75*
G02*
X216440700Y-119546200I-250000J0D01*
G01*
X215765700Y-119546200D01*
G75*
G02*
X215515700Y-119296200I0J250000D01*
G01*
G37*
G36*
G01*
X213440700Y-119296200D02*
X213440700Y-118346200D01*
G75*
G02*
X213690700Y-118096200I250000J0D01*
G01*
X214365700Y-118096200D01*
G75*
G02*
X214615700Y-118346200I0J-250000D01*
G01*
X214615700Y-119296200D01*
G75*
G02*
X214365700Y-119546200I-250000J0D01*
G01*
X213690700Y-119546200D01*
G75*
G02*
X213440700Y-119296200I0J250000D01*
G01*
G37*
%TD*%
%TO.C,C6*%
G36*
G01*
X213640000Y-100271600D02*
X213640000Y-99321600D01*
G75*
G02*
X213890000Y-99071600I250000J0D01*
G01*
X214565000Y-99071600D01*
G75*
G02*
X214815000Y-99321600I0J-250000D01*
G01*
X214815000Y-100271600D01*
G75*
G02*
X214565000Y-100521600I-250000J0D01*
G01*
X213890000Y-100521600D01*
G75*
G02*
X213640000Y-100271600I0J250000D01*
G01*
G37*
G36*
G01*
X215715000Y-100271600D02*
X215715000Y-99321600D01*
G75*
G02*
X215965000Y-99071600I250000J0D01*
G01*
X216640000Y-99071600D01*
G75*
G02*
X216890000Y-99321600I0J-250000D01*
G01*
X216890000Y-100271600D01*
G75*
G02*
X216640000Y-100521600I-250000J0D01*
G01*
X215965000Y-100521600D01*
G75*
G02*
X215715000Y-100271600I0J250000D01*
G01*
G37*
%TD*%
%TO.C,C7*%
G36*
G01*
X234227700Y-119245400D02*
X234227700Y-118295400D01*
G75*
G02*
X234477700Y-118045400I250000J0D01*
G01*
X235152700Y-118045400D01*
G75*
G02*
X235402700Y-118295400I0J-250000D01*
G01*
X235402700Y-119245400D01*
G75*
G02*
X235152700Y-119495400I-250000J0D01*
G01*
X234477700Y-119495400D01*
G75*
G02*
X234227700Y-119245400I0J250000D01*
G01*
G37*
G36*
G01*
X232152700Y-119245400D02*
X232152700Y-118295400D01*
G75*
G02*
X232402700Y-118045400I250000J0D01*
G01*
X233077700Y-118045400D01*
G75*
G02*
X233327700Y-118295400I0J-250000D01*
G01*
X233327700Y-119245400D01*
G75*
G02*
X233077700Y-119495400I-250000J0D01*
G01*
X232402700Y-119495400D01*
G75*
G02*
X232152700Y-119245400I0J250000D01*
G01*
G37*
%TD*%
D10*
%TO.C,D1*%
X181165500Y-116434900D03*
X181165500Y-113284900D03*
%TD*%
%TO.C,D2*%
X200228200Y-94335400D03*
X200228200Y-97485400D03*
%TD*%
%TO.C,D3*%
X200418700Y-116383200D03*
X200418700Y-113233200D03*
%TD*%
%TO.C,D4*%
X219468700Y-113347300D03*
X219468700Y-116497300D03*
%TD*%
D11*
%TO.C,U1*%
X185928000Y-113592000D03*
X192532000Y-113592000D03*
X185928000Y-117021000D03*
X192532000Y-117021000D03*
D12*
X195072000Y-105410000D03*
X182145000Y-107950000D03*
%TD*%
D11*
%TO.C,U2*%
X204978000Y-94542000D03*
X211582000Y-94542000D03*
X204978000Y-97971000D03*
X211582000Y-97971000D03*
D12*
X214122000Y-86360000D03*
X201195000Y-88900000D03*
%TD*%
%TO.C,U3*%
X201195000Y-107950000D03*
X214122000Y-105410000D03*
D11*
X211582000Y-117021000D03*
X204978000Y-117021000D03*
X211582000Y-113592000D03*
X204978000Y-113592000D03*
%TD*%
D12*
%TO.C,U5*%
X220245000Y-107950000D03*
X233172000Y-105410000D03*
D11*
X230632000Y-117021000D03*
X224028000Y-117021000D03*
X230632000Y-113592000D03*
X224028000Y-113592000D03*
%TD*%
M02*
