%TF.GenerationSoftware,KiCad,Pcbnew,(5.1.10)-1*%
%TF.CreationDate,2021-11-19T23:24:49+01:00*%
%TF.ProjectId,Labbe,4c616262-652e-46b6-9963-61645f706362,rev?*%
%TF.SameCoordinates,Original*%
%TF.FileFunction,Copper,L1,Top*%
%TF.FilePolarity,Positive*%
%FSLAX46Y46*%
G04 Gerber Fmt 4.6, Leading zero omitted, Abs format (unit mm)*
G04 Created by KiCad (PCBNEW (5.1.10)-1) date 2021-11-19 23:24:49*
%MOMM*%
%LPD*%
G01*
G04 APERTURE LIST*
%TA.AperFunction,ComponentPad*%
%ADD10R,1.600000X1.600000*%
%TD*%
%TA.AperFunction,ComponentPad*%
%ADD11C,1.600000*%
%TD*%
%TA.AperFunction,ComponentPad*%
%ADD12C,0.700000*%
%TD*%
%TA.AperFunction,ComponentPad*%
%ADD13O,0.900000X2.400000*%
%TD*%
%TA.AperFunction,ComponentPad*%
%ADD14O,0.900000X1.700000*%
%TD*%
%TA.AperFunction,SMDPad,CuDef*%
%ADD15R,1.700000X1.000000*%
%TD*%
%TA.AperFunction,SMDPad,CuDef*%
%ADD16R,1.500000X0.550000*%
%TD*%
%TA.AperFunction,SMDPad,CuDef*%
%ADD17R,0.550000X1.500000*%
%TD*%
%TA.AperFunction,SMDPad,CuDef*%
%ADD18C,0.100000*%
%TD*%
%TA.AperFunction,ViaPad*%
%ADD19C,0.800000*%
%TD*%
%TA.AperFunction,Conductor*%
%ADD20C,0.250000*%
%TD*%
%TA.AperFunction,Conductor*%
%ADD21C,0.254000*%
%TD*%
%TA.AperFunction,Conductor*%
%ADD22C,0.100000*%
%TD*%
G04 APERTURE END LIST*
%TO.P,C1,2*%
%TO.N,GND*%
%TA.AperFunction,SMDPad,CuDef*%
G36*
G01*
X236682300Y-73968100D02*
X235732300Y-73968100D01*
G75*
G02*
X235482300Y-73718100I0J250000D01*
G01*
X235482300Y-73043100D01*
G75*
G02*
X235732300Y-72793100I250000J0D01*
G01*
X236682300Y-72793100D01*
G75*
G02*
X236932300Y-73043100I0J-250000D01*
G01*
X236932300Y-73718100D01*
G75*
G02*
X236682300Y-73968100I-250000J0D01*
G01*
G37*
%TD.AperFunction*%
%TO.P,C1,1*%
%TO.N,Net-(C1-Pad1)*%
%TA.AperFunction,SMDPad,CuDef*%
G36*
G01*
X236682300Y-76043100D02*
X235732300Y-76043100D01*
G75*
G02*
X235482300Y-75793100I0J250000D01*
G01*
X235482300Y-75118100D01*
G75*
G02*
X235732300Y-74868100I250000J0D01*
G01*
X236682300Y-74868100D01*
G75*
G02*
X236932300Y-75118100I0J-250000D01*
G01*
X236932300Y-75793100D01*
G75*
G02*
X236682300Y-76043100I-250000J0D01*
G01*
G37*
%TD.AperFunction*%
%TD*%
%TO.P,C2,1*%
%TO.N,Net-(C2-Pad1)*%
%TA.AperFunction,SMDPad,CuDef*%
G36*
G01*
X229189300Y-75484300D02*
X228239300Y-75484300D01*
G75*
G02*
X227989300Y-75234300I0J250000D01*
G01*
X227989300Y-74559300D01*
G75*
G02*
X228239300Y-74309300I250000J0D01*
G01*
X229189300Y-74309300D01*
G75*
G02*
X229439300Y-74559300I0J-250000D01*
G01*
X229439300Y-75234300D01*
G75*
G02*
X229189300Y-75484300I-250000J0D01*
G01*
G37*
%TD.AperFunction*%
%TO.P,C2,2*%
%TO.N,GND*%
%TA.AperFunction,SMDPad,CuDef*%
G36*
G01*
X229189300Y-73409300D02*
X228239300Y-73409300D01*
G75*
G02*
X227989300Y-73159300I0J250000D01*
G01*
X227989300Y-72484300D01*
G75*
G02*
X228239300Y-72234300I250000J0D01*
G01*
X229189300Y-72234300D01*
G75*
G02*
X229439300Y-72484300I0J-250000D01*
G01*
X229439300Y-73159300D01*
G75*
G02*
X229189300Y-73409300I-250000J0D01*
G01*
G37*
%TD.AperFunction*%
%TD*%
%TO.P,C3,1*%
%TO.N,GND*%
%TA.AperFunction,SMDPad,CuDef*%
G36*
G01*
X241419400Y-85711700D02*
X240469400Y-85711700D01*
G75*
G02*
X240219400Y-85461700I0J250000D01*
G01*
X240219400Y-84786700D01*
G75*
G02*
X240469400Y-84536700I250000J0D01*
G01*
X241419400Y-84536700D01*
G75*
G02*
X241669400Y-84786700I0J-250000D01*
G01*
X241669400Y-85461700D01*
G75*
G02*
X241419400Y-85711700I-250000J0D01*
G01*
G37*
%TD.AperFunction*%
%TO.P,C3,2*%
%TO.N,Net-(C3-Pad2)*%
%TA.AperFunction,SMDPad,CuDef*%
G36*
G01*
X241419400Y-83636700D02*
X240469400Y-83636700D01*
G75*
G02*
X240219400Y-83386700I0J250000D01*
G01*
X240219400Y-82711700D01*
G75*
G02*
X240469400Y-82461700I250000J0D01*
G01*
X241419400Y-82461700D01*
G75*
G02*
X241669400Y-82711700I0J-250000D01*
G01*
X241669400Y-83386700D01*
G75*
G02*
X241419400Y-83636700I-250000J0D01*
G01*
G37*
%TD.AperFunction*%
%TD*%
%TO.P,C8,1*%
%TO.N,VCC*%
%TA.AperFunction,SMDPad,CuDef*%
G36*
G01*
X241355900Y-76043100D02*
X240405900Y-76043100D01*
G75*
G02*
X240155900Y-75793100I0J250000D01*
G01*
X240155900Y-75118100D01*
G75*
G02*
X240405900Y-74868100I250000J0D01*
G01*
X241355900Y-74868100D01*
G75*
G02*
X241605900Y-75118100I0J-250000D01*
G01*
X241605900Y-75793100D01*
G75*
G02*
X241355900Y-76043100I-250000J0D01*
G01*
G37*
%TD.AperFunction*%
%TO.P,C8,2*%
%TO.N,GND*%
%TA.AperFunction,SMDPad,CuDef*%
G36*
G01*
X241355900Y-73968100D02*
X240405900Y-73968100D01*
G75*
G02*
X240155900Y-73718100I0J250000D01*
G01*
X240155900Y-73043100D01*
G75*
G02*
X240405900Y-72793100I250000J0D01*
G01*
X241355900Y-72793100D01*
G75*
G02*
X241605900Y-73043100I0J-250000D01*
G01*
X241605900Y-73718100D01*
G75*
G02*
X241355900Y-73968100I-250000J0D01*
G01*
G37*
%TD.AperFunction*%
%TD*%
%TO.P,C9,2*%
%TO.N,GND*%
%TA.AperFunction,SMDPad,CuDef*%
G36*
G01*
X241711500Y-78413100D02*
X240761500Y-78413100D01*
G75*
G02*
X240511500Y-78163100I0J250000D01*
G01*
X240511500Y-77488100D01*
G75*
G02*
X240761500Y-77238100I250000J0D01*
G01*
X241711500Y-77238100D01*
G75*
G02*
X241961500Y-77488100I0J-250000D01*
G01*
X241961500Y-78163100D01*
G75*
G02*
X241711500Y-78413100I-250000J0D01*
G01*
G37*
%TD.AperFunction*%
%TO.P,C9,1*%
%TO.N,VCC*%
%TA.AperFunction,SMDPad,CuDef*%
G36*
G01*
X241711500Y-80488100D02*
X240761500Y-80488100D01*
G75*
G02*
X240511500Y-80238100I0J250000D01*
G01*
X240511500Y-79563100D01*
G75*
G02*
X240761500Y-79313100I250000J0D01*
G01*
X241711500Y-79313100D01*
G75*
G02*
X241961500Y-79563100I0J-250000D01*
G01*
X241961500Y-80238100D01*
G75*
G02*
X241711500Y-80488100I-250000J0D01*
G01*
G37*
%TD.AperFunction*%
%TD*%
%TO.P,C10,1*%
%TO.N,VCC*%
%TA.AperFunction,SMDPad,CuDef*%
G36*
G01*
X220695500Y-85137500D02*
X221645500Y-85137500D01*
G75*
G02*
X221895500Y-85387500I0J-250000D01*
G01*
X221895500Y-86062500D01*
G75*
G02*
X221645500Y-86312500I-250000J0D01*
G01*
X220695500Y-86312500D01*
G75*
G02*
X220445500Y-86062500I0J250000D01*
G01*
X220445500Y-85387500D01*
G75*
G02*
X220695500Y-85137500I250000J0D01*
G01*
G37*
%TD.AperFunction*%
%TO.P,C10,2*%
%TO.N,GND*%
%TA.AperFunction,SMDPad,CuDef*%
G36*
G01*
X220695500Y-87212500D02*
X221645500Y-87212500D01*
G75*
G02*
X221895500Y-87462500I0J-250000D01*
G01*
X221895500Y-88137500D01*
G75*
G02*
X221645500Y-88387500I-250000J0D01*
G01*
X220695500Y-88387500D01*
G75*
G02*
X220445500Y-88137500I0J250000D01*
G01*
X220445500Y-87462500D01*
G75*
G02*
X220695500Y-87212500I250000J0D01*
G01*
G37*
%TD.AperFunction*%
%TD*%
%TO.P,C11,2*%
%TO.N,GND*%
%TA.AperFunction,SMDPad,CuDef*%
G36*
G01*
X221696300Y-78082900D02*
X220746300Y-78082900D01*
G75*
G02*
X220496300Y-77832900I0J250000D01*
G01*
X220496300Y-77157900D01*
G75*
G02*
X220746300Y-76907900I250000J0D01*
G01*
X221696300Y-76907900D01*
G75*
G02*
X221946300Y-77157900I0J-250000D01*
G01*
X221946300Y-77832900D01*
G75*
G02*
X221696300Y-78082900I-250000J0D01*
G01*
G37*
%TD.AperFunction*%
%TO.P,C11,1*%
%TO.N,VCC*%
%TA.AperFunction,SMDPad,CuDef*%
G36*
G01*
X221696300Y-80157900D02*
X220746300Y-80157900D01*
G75*
G02*
X220496300Y-79907900I0J250000D01*
G01*
X220496300Y-79232900D01*
G75*
G02*
X220746300Y-78982900I250000J0D01*
G01*
X221696300Y-78982900D01*
G75*
G02*
X221946300Y-79232900I0J-250000D01*
G01*
X221946300Y-79907900D01*
G75*
G02*
X221696300Y-80157900I-250000J0D01*
G01*
G37*
%TD.AperFunction*%
%TD*%
%TO.P,C12,1*%
%TO.N,VCC*%
%TA.AperFunction,SMDPad,CuDef*%
G36*
G01*
X241381300Y-90038500D02*
X240431300Y-90038500D01*
G75*
G02*
X240181300Y-89788500I0J250000D01*
G01*
X240181300Y-89113500D01*
G75*
G02*
X240431300Y-88863500I250000J0D01*
G01*
X241381300Y-88863500D01*
G75*
G02*
X241631300Y-89113500I0J-250000D01*
G01*
X241631300Y-89788500D01*
G75*
G02*
X241381300Y-90038500I-250000J0D01*
G01*
G37*
%TD.AperFunction*%
%TO.P,C12,2*%
%TO.N,GND*%
%TA.AperFunction,SMDPad,CuDef*%
G36*
G01*
X241381300Y-87963500D02*
X240431300Y-87963500D01*
G75*
G02*
X240181300Y-87713500I0J250000D01*
G01*
X240181300Y-87038500D01*
G75*
G02*
X240431300Y-86788500I250000J0D01*
G01*
X241381300Y-86788500D01*
G75*
G02*
X241631300Y-87038500I0J-250000D01*
G01*
X241631300Y-87713500D01*
G75*
G02*
X241381300Y-87963500I-250000J0D01*
G01*
G37*
%TD.AperFunction*%
%TD*%
D10*
%TO.P,D1,1*%
%TO.N,Net-(D1-Pad1)*%
X181165500Y-110959900D03*
D11*
%TO.P,D1,2*%
%TO.N,/Row1*%
X181165500Y-118759900D03*
%TD*%
%TO.P,D2,2*%
%TO.N,/Row0*%
X200228200Y-99810400D03*
D10*
%TO.P,D2,1*%
%TO.N,Net-(D2-Pad1)*%
X200228200Y-92010400D03*
%TD*%
%TO.P,D3,1*%
%TO.N,Net-(D3-Pad1)*%
X200418700Y-110908200D03*
D11*
%TO.P,D3,2*%
%TO.N,/Row1*%
X200418700Y-118708200D03*
%TD*%
%TO.P,D4,2*%
%TO.N,/Row1*%
X219468700Y-118822300D03*
D10*
%TO.P,D4,1*%
%TO.N,Net-(D4-Pad1)*%
X219468700Y-111022300D03*
%TD*%
D12*
%TO.P,J1,A1*%
%TO.N,GND*%
X193395600Y-87350600D03*
%TO.P,J1,A4*%
%TO.N,VCC*%
X192545600Y-87350600D03*
%TO.P,J1,A5*%
%TO.N,Net-(J1-PadA5)*%
X191695600Y-87350600D03*
%TO.P,J1,A6*%
%TO.N,Net-(J1-PadA6)*%
X190845600Y-87350600D03*
%TO.P,J1,A7*%
%TO.N,Net-(J1-PadA7)*%
X189995600Y-87350600D03*
%TO.P,J1,A8*%
%TO.N,Net-(J1-PadA8)*%
X189145600Y-87350600D03*
%TO.P,J1,A9*%
%TO.N,VCC*%
X188295600Y-87350600D03*
%TO.P,J1,A12*%
%TO.N,GND*%
X187445600Y-87350600D03*
%TO.P,J1,B9*%
%TO.N,VCC*%
X192545600Y-86000600D03*
%TO.P,J1,B7*%
%TO.N,Net-(J1-PadA7)*%
X190845600Y-86000600D03*
%TO.P,J1,B8*%
%TO.N,Net-(J1-PadB8)*%
X191695600Y-86000600D03*
%TO.P,J1,B12*%
%TO.N,GND*%
X193395600Y-86000600D03*
%TO.P,J1,B5*%
%TO.N,Net-(J1-PadB5)*%
X189145600Y-86000600D03*
%TO.P,J1,B4*%
%TO.N,VCC*%
X188295600Y-86000600D03*
%TO.P,J1,B1*%
%TO.N,GND*%
X187445600Y-86000600D03*
%TO.P,J1,B6*%
%TO.N,Net-(J1-PadA6)*%
X189995600Y-86000600D03*
D13*
%TO.P,J1,S1*%
%TO.N,GND*%
X194745600Y-86370600D03*
X186095600Y-86370600D03*
D14*
X194745600Y-82990600D03*
X186095600Y-82990600D03*
%TD*%
%TO.P,R1,1*%
%TO.N,GND*%
%TA.AperFunction,SMDPad,CuDef*%
G36*
G01*
X196361899Y-83810800D02*
X197261901Y-83810800D01*
G75*
G02*
X197511900Y-84060799I0J-249999D01*
G01*
X197511900Y-84760801D01*
G75*
G02*
X197261901Y-85010800I-249999J0D01*
G01*
X196361899Y-85010800D01*
G75*
G02*
X196111900Y-84760801I0J249999D01*
G01*
X196111900Y-84060799D01*
G75*
G02*
X196361899Y-83810800I249999J0D01*
G01*
G37*
%TD.AperFunction*%
%TO.P,R1,2*%
%TO.N,Net-(J1-PadA5)*%
%TA.AperFunction,SMDPad,CuDef*%
G36*
G01*
X196361899Y-85810800D02*
X197261901Y-85810800D01*
G75*
G02*
X197511900Y-86060799I0J-249999D01*
G01*
X197511900Y-86760801D01*
G75*
G02*
X197261901Y-87010800I-249999J0D01*
G01*
X196361899Y-87010800D01*
G75*
G02*
X196111900Y-86760801I0J249999D01*
G01*
X196111900Y-86060799D01*
G75*
G02*
X196361899Y-85810800I249999J0D01*
G01*
G37*
%TD.AperFunction*%
%TD*%
%TO.P,R2,2*%
%TO.N,Net-(J1-PadB5)*%
%TA.AperFunction,SMDPad,CuDef*%
G36*
G01*
X184460301Y-84788300D02*
X183560299Y-84788300D01*
G75*
G02*
X183310300Y-84538301I0J249999D01*
G01*
X183310300Y-83838299D01*
G75*
G02*
X183560299Y-83588300I249999J0D01*
G01*
X184460301Y-83588300D01*
G75*
G02*
X184710300Y-83838299I0J-249999D01*
G01*
X184710300Y-84538301D01*
G75*
G02*
X184460301Y-84788300I-249999J0D01*
G01*
G37*
%TD.AperFunction*%
%TO.P,R2,1*%
%TO.N,GND*%
%TA.AperFunction,SMDPad,CuDef*%
G36*
G01*
X184460301Y-86788300D02*
X183560299Y-86788300D01*
G75*
G02*
X183310300Y-86538301I0J249999D01*
G01*
X183310300Y-85838299D01*
G75*
G02*
X183560299Y-85588300I249999J0D01*
G01*
X184460301Y-85588300D01*
G75*
G02*
X184710300Y-85838299I0J-249999D01*
G01*
X184710300Y-86538301D01*
G75*
G02*
X184460301Y-86788300I-249999J0D01*
G01*
G37*
%TD.AperFunction*%
%TD*%
%TO.P,R3,1*%
%TO.N,/D-*%
%TA.AperFunction,SMDPad,CuDef*%
G36*
G01*
X237696700Y-94772901D02*
X237696700Y-93872899D01*
G75*
G02*
X237946699Y-93622900I249999J0D01*
G01*
X238646701Y-93622900D01*
G75*
G02*
X238896700Y-93872899I0J-249999D01*
G01*
X238896700Y-94772901D01*
G75*
G02*
X238646701Y-95022900I-249999J0D01*
G01*
X237946699Y-95022900D01*
G75*
G02*
X237696700Y-94772901I0J249999D01*
G01*
G37*
%TD.AperFunction*%
%TO.P,R3,2*%
%TO.N,Net-(J1-PadA7)*%
%TA.AperFunction,SMDPad,CuDef*%
G36*
G01*
X239696700Y-94772901D02*
X239696700Y-93872899D01*
G75*
G02*
X239946699Y-93622900I249999J0D01*
G01*
X240646701Y-93622900D01*
G75*
G02*
X240896700Y-93872899I0J-249999D01*
G01*
X240896700Y-94772901D01*
G75*
G02*
X240646701Y-95022900I-249999J0D01*
G01*
X239946699Y-95022900D01*
G75*
G02*
X239696700Y-94772901I0J249999D01*
G01*
G37*
%TD.AperFunction*%
%TD*%
%TO.P,R4,2*%
%TO.N,Net-(J1-PadA6)*%
%TA.AperFunction,SMDPad,CuDef*%
G36*
G01*
X239575800Y-99586201D02*
X239575800Y-98686199D01*
G75*
G02*
X239825799Y-98436200I249999J0D01*
G01*
X240525801Y-98436200D01*
G75*
G02*
X240775800Y-98686199I0J-249999D01*
G01*
X240775800Y-99586201D01*
G75*
G02*
X240525801Y-99836200I-249999J0D01*
G01*
X239825799Y-99836200D01*
G75*
G02*
X239575800Y-99586201I0J249999D01*
G01*
G37*
%TD.AperFunction*%
%TO.P,R4,1*%
%TO.N,/D+*%
%TA.AperFunction,SMDPad,CuDef*%
G36*
G01*
X237575800Y-99586201D02*
X237575800Y-98686199D01*
G75*
G02*
X237825799Y-98436200I249999J0D01*
G01*
X238525801Y-98436200D01*
G75*
G02*
X238775800Y-98686199I0J-249999D01*
G01*
X238775800Y-99586201D01*
G75*
G02*
X238525801Y-99836200I-249999J0D01*
G01*
X237825799Y-99836200D01*
G75*
G02*
X237575800Y-99586201I0J249999D01*
G01*
G37*
%TD.AperFunction*%
%TD*%
%TO.P,R5,1*%
%TO.N,Net-(R5-Pad1)*%
%TA.AperFunction,SMDPad,CuDef*%
G36*
G01*
X225240001Y-96973700D02*
X224339999Y-96973700D01*
G75*
G02*
X224090000Y-96723701I0J249999D01*
G01*
X224090000Y-96023699D01*
G75*
G02*
X224339999Y-95773700I249999J0D01*
G01*
X225240001Y-95773700D01*
G75*
G02*
X225490000Y-96023699I0J-249999D01*
G01*
X225490000Y-96723701D01*
G75*
G02*
X225240001Y-96973700I-249999J0D01*
G01*
G37*
%TD.AperFunction*%
%TO.P,R5,2*%
%TO.N,VCC*%
%TA.AperFunction,SMDPad,CuDef*%
G36*
G01*
X225240001Y-94973700D02*
X224339999Y-94973700D01*
G75*
G02*
X224090000Y-94723701I0J249999D01*
G01*
X224090000Y-94023699D01*
G75*
G02*
X224339999Y-93773700I249999J0D01*
G01*
X225240001Y-93773700D01*
G75*
G02*
X225490000Y-94023699I0J-249999D01*
G01*
X225490000Y-94723701D01*
G75*
G02*
X225240001Y-94973700I-249999J0D01*
G01*
G37*
%TD.AperFunction*%
%TD*%
%TO.P,R6,1*%
%TO.N,Net-(R6-Pad1)*%
%TA.AperFunction,SMDPad,CuDef*%
G36*
G01*
X220513600Y-75138701D02*
X220513600Y-74238699D01*
G75*
G02*
X220763599Y-73988700I249999J0D01*
G01*
X221463601Y-73988700D01*
G75*
G02*
X221713600Y-74238699I0J-249999D01*
G01*
X221713600Y-75138701D01*
G75*
G02*
X221463601Y-75388700I-249999J0D01*
G01*
X220763599Y-75388700D01*
G75*
G02*
X220513600Y-75138701I0J249999D01*
G01*
G37*
%TD.AperFunction*%
%TO.P,R6,2*%
%TO.N,/RGB*%
%TA.AperFunction,SMDPad,CuDef*%
G36*
G01*
X222513600Y-75138701D02*
X222513600Y-74238699D01*
G75*
G02*
X222763599Y-73988700I249999J0D01*
G01*
X223463601Y-73988700D01*
G75*
G02*
X223713600Y-74238699I0J-249999D01*
G01*
X223713600Y-75138701D01*
G75*
G02*
X223463601Y-75388700I-249999J0D01*
G01*
X222763599Y-75388700D01*
G75*
G02*
X222513600Y-75138701I0J249999D01*
G01*
G37*
%TD.AperFunction*%
%TD*%
%TO.P,R7,2*%
%TO.N,Net-(R7-Pad2)*%
%TA.AperFunction,SMDPad,CuDef*%
G36*
G01*
X221645901Y-82150000D02*
X220745899Y-82150000D01*
G75*
G02*
X220495900Y-81900001I0J249999D01*
G01*
X220495900Y-81199999D01*
G75*
G02*
X220745899Y-80950000I249999J0D01*
G01*
X221645901Y-80950000D01*
G75*
G02*
X221895900Y-81199999I0J-249999D01*
G01*
X221895900Y-81900001D01*
G75*
G02*
X221645901Y-82150000I-249999J0D01*
G01*
G37*
%TD.AperFunction*%
%TO.P,R7,1*%
%TO.N,GND*%
%TA.AperFunction,SMDPad,CuDef*%
G36*
G01*
X221645901Y-84150000D02*
X220745899Y-84150000D01*
G75*
G02*
X220495900Y-83900001I0J249999D01*
G01*
X220495900Y-83199999D01*
G75*
G02*
X220745899Y-82950000I249999J0D01*
G01*
X221645901Y-82950000D01*
G75*
G02*
X221895900Y-83199999I0J-249999D01*
G01*
X221895900Y-83900001D01*
G75*
G02*
X221645901Y-84150000I-249999J0D01*
G01*
G37*
%TD.AperFunction*%
%TD*%
D15*
%TO.P,SW1,1*%
%TO.N,Net-(R5-Pad1)*%
X228854000Y-94615000D03*
X235154000Y-94615000D03*
%TO.P,SW1,2*%
%TO.N,GND*%
X228854000Y-98415000D03*
X235154000Y-98415000D03*
%TD*%
D16*
%TO.P,U4,1*%
%TO.N,Net-(U4-Pad1)*%
X237970300Y-87591400D03*
%TO.P,U4,2*%
%TO.N,VCC*%
X237970300Y-86791400D03*
%TO.P,U4,3*%
%TO.N,/D-*%
X237970300Y-85991400D03*
%TO.P,U4,4*%
%TO.N,/D+*%
X237970300Y-85191400D03*
%TO.P,U4,5*%
%TO.N,GND*%
X237970300Y-84391400D03*
%TO.P,U4,6*%
%TO.N,Net-(C3-Pad2)*%
X237970300Y-83591400D03*
%TO.P,U4,7*%
%TO.N,VCC*%
X237970300Y-82791400D03*
%TO.P,U4,8*%
%TO.N,Net-(U4-Pad8)*%
X237970300Y-81991400D03*
%TO.P,U4,9*%
%TO.N,Net-(U4-Pad9)*%
X237970300Y-81191400D03*
%TO.P,U4,10*%
%TO.N,Net-(U4-Pad10)*%
X237970300Y-80391400D03*
%TO.P,U4,11*%
%TO.N,Net-(U4-Pad11)*%
X237970300Y-79591400D03*
D17*
%TO.P,U4,12*%
%TO.N,Net-(U4-Pad12)*%
X236270300Y-77891400D03*
%TO.P,U4,13*%
%TO.N,Net-(R5-Pad1)*%
X235470300Y-77891400D03*
%TO.P,U4,14*%
%TO.N,VCC*%
X234670300Y-77891400D03*
%TO.P,U4,15*%
%TO.N,GND*%
X233870300Y-77891400D03*
%TO.P,U4,16*%
%TO.N,Net-(C1-Pad1)*%
X233070300Y-77891400D03*
%TO.P,U4,17*%
%TO.N,Net-(C2-Pad1)*%
X232270300Y-77891400D03*
%TO.P,U4,18*%
%TO.N,Net-(U4-Pad18)*%
X231470300Y-77891400D03*
%TO.P,U4,19*%
%TO.N,Net-(U4-Pad19)*%
X230670300Y-77891400D03*
%TO.P,U4,20*%
%TO.N,Net-(U4-Pad20)*%
X229870300Y-77891400D03*
%TO.P,U4,21*%
%TO.N,Net-(U4-Pad21)*%
X229070300Y-77891400D03*
%TO.P,U4,22*%
%TO.N,Net-(U4-Pad22)*%
X228270300Y-77891400D03*
D16*
%TO.P,U4,23*%
%TO.N,GND*%
X226570300Y-79591400D03*
%TO.P,U4,24*%
%TO.N,VCC*%
X226570300Y-80391400D03*
%TO.P,U4,25*%
%TO.N,Net-(U4-Pad25)*%
X226570300Y-81191400D03*
%TO.P,U4,26*%
%TO.N,Net-(U4-Pad26)*%
X226570300Y-81991400D03*
%TO.P,U4,27*%
%TO.N,Net-(U4-Pad27)*%
X226570300Y-82791400D03*
%TO.P,U4,28*%
%TO.N,Net-(U4-Pad28)*%
X226570300Y-83591400D03*
%TO.P,U4,29*%
%TO.N,Net-(U4-Pad29)*%
X226570300Y-84391400D03*
%TO.P,U4,30*%
%TO.N,Net-(U4-Pad30)*%
X226570300Y-85191400D03*
%TO.P,U4,31*%
%TO.N,Net-(U4-Pad31)*%
X226570300Y-85991400D03*
%TO.P,U4,32*%
%TO.N,/RGB*%
X226570300Y-86791400D03*
%TO.P,U4,33*%
%TO.N,Net-(R7-Pad2)*%
X226570300Y-87591400D03*
D17*
%TO.P,U4,34*%
%TO.N,VCC*%
X228270300Y-89291400D03*
%TO.P,U4,35*%
%TO.N,GND*%
X229070300Y-89291400D03*
%TO.P,U4,36*%
%TO.N,Net-(U4-Pad36)*%
X229870300Y-89291400D03*
%TO.P,U4,37*%
%TO.N,/Row1*%
X230670300Y-89291400D03*
%TO.P,U4,38*%
%TO.N,/Row0*%
X231470300Y-89291400D03*
%TO.P,U4,39*%
%TO.N,/Col2*%
X232270300Y-89291400D03*
%TO.P,U4,40*%
%TO.N,/Col1*%
X233070300Y-89291400D03*
%TO.P,U4,41*%
%TO.N,/Col0*%
X233870300Y-89291400D03*
%TO.P,U4,42*%
%TO.N,Net-(U4-Pad42)*%
X234670300Y-89291400D03*
%TO.P,U4,43*%
%TO.N,GND*%
X235470300Y-89291400D03*
%TO.P,U4,44*%
%TO.N,VCC*%
X236270300Y-89291400D03*
%TD*%
%TA.AperFunction,SMDPad,CuDef*%
D18*
%TO.P,Y1,1*%
%TO.N,Net-(C1-Pad1)*%
G36*
X234745174Y-74371946D02*
G01*
X233896646Y-75220474D01*
X232906696Y-74230524D01*
X233755224Y-73381996D01*
X234745174Y-74371946D01*
G37*
%TD.AperFunction*%
%TA.AperFunction,SMDPad,CuDef*%
%TO.P,Y1,2*%
%TO.N,GND*%
G36*
X233189539Y-72816311D02*
G01*
X232341011Y-73664839D01*
X231351061Y-72674889D01*
X232199589Y-71826361D01*
X233189539Y-72816311D01*
G37*
%TD.AperFunction*%
%TA.AperFunction,SMDPad,CuDef*%
%TO.P,Y1,3*%
%TO.N,Net-(C2-Pad1)*%
G36*
X231987458Y-74018392D02*
G01*
X231138930Y-74866920D01*
X230148980Y-73876970D01*
X230997508Y-73028442D01*
X231987458Y-74018392D01*
G37*
%TD.AperFunction*%
%TA.AperFunction,SMDPad,CuDef*%
%TO.P,Y1,4*%
%TO.N,GND*%
G36*
X233543093Y-75574027D02*
G01*
X232694565Y-76422555D01*
X231704615Y-75432605D01*
X232553143Y-74584077D01*
X233543093Y-75574027D01*
G37*
%TD.AperFunction*%
%TD*%
D19*
%TO.N,GND*%
X220980000Y-116840000D03*
X217373200Y-117729000D03*
X234941953Y-117593953D03*
X219009297Y-80757097D03*
X219760800Y-83718400D03*
X238023400Y-75793600D03*
X233231228Y-79241402D03*
X203581000Y-103759000D03*
X205257400Y-101129000D03*
%TO.N,VCC*%
X217093800Y-90766900D03*
X218651247Y-98153647D03*
X219689253Y-99166253D03*
X194565893Y-115266707D03*
X195122800Y-117348000D03*
%TO.N,/Row1*%
X226745800Y-90016400D03*
X219925900Y-89547700D03*
X217906600Y-116128800D03*
%TO.N,/Row0*%
X225330313Y-90384823D03*
X217015903Y-88228597D03*
%TO.N,Net-(J1-PadA6)*%
X199923400Y-120370601D03*
X239064800Y-101015800D03*
%TO.N,/D-*%
X239458500Y-86385400D03*
X239166400Y-92951300D03*
%TO.N,/D+*%
X239598200Y-85382100D03*
X238912400Y-97840800D03*
%TO.N,Net-(R5-Pad1)*%
X235432600Y-82066400D03*
X235407200Y-93014800D03*
%TO.N,/RGB*%
X223977200Y-81280000D03*
X224002600Y-76631800D03*
%TO.N,Net-(R6-Pad1)*%
X212598000Y-82118200D03*
X207518000Y-83947000D03*
X204825600Y-96291400D03*
%TO.N,/Col0*%
X225688155Y-93249618D03*
%TO.N,Net-(U1-Pad4)*%
X202488800Y-101129000D03*
X197942200Y-113487200D03*
X194008253Y-117471947D03*
X186872147Y-118450000D03*
%TO.N,Net-(U1-Pad5)*%
X203200000Y-116840000D03*
X194310000Y-114300000D03*
%TO.N,/Col1*%
X225767900Y-92252800D03*
X215620600Y-91097100D03*
X215620600Y-103403400D03*
%TO.N,Net-(U3-Pad5)*%
X219176600Y-120370600D03*
X212852000Y-114909600D03*
%TO.N,/Col2*%
X225824148Y-91254381D03*
X221348300Y-91287600D03*
X232740200Y-102717600D03*
%TD*%
D20*
%TO.N,Net-(C1-Pad1)*%
X235052935Y-74301235D02*
X236207300Y-75455600D01*
X233825935Y-74301235D02*
X235052935Y-74301235D01*
X233070300Y-77081398D02*
X233070300Y-77891400D01*
X234320910Y-75830788D02*
X233070300Y-77081398D01*
X234320910Y-74796210D02*
X234320910Y-75830788D01*
X233825935Y-74301235D02*
X234320910Y-74796210D01*
%TO.N,GND*%
X193395600Y-86000600D02*
X193395600Y-87350600D01*
X194375600Y-86000600D02*
X194745600Y-86370600D01*
X193395600Y-86000600D02*
X194375600Y-86000600D01*
X194852100Y-86370600D02*
X196811900Y-84410800D01*
X194745600Y-86370600D02*
X194852100Y-86370600D01*
X187075600Y-86370600D02*
X187445600Y-86000600D01*
X186095600Y-86370600D02*
X187075600Y-86370600D01*
X220980000Y-116840000D02*
X220446600Y-117373400D01*
X217728800Y-117373400D02*
X217373200Y-117729000D01*
X220446600Y-117373400D02*
X217728800Y-117373400D01*
X234941953Y-117593953D02*
X233740106Y-118795800D01*
X222935800Y-118795800D02*
X220980000Y-116840000D01*
X233740106Y-118795800D02*
X222935800Y-118795800D01*
X224474300Y-77495400D02*
X226570300Y-79591400D01*
X221221300Y-77495400D02*
X224474300Y-77495400D01*
X219009297Y-79707403D02*
X219009297Y-80757097D01*
X221221300Y-77495400D02*
X219009297Y-79707403D01*
X221027500Y-83718400D02*
X221195900Y-83550000D01*
X219760800Y-83718400D02*
X221027500Y-83718400D01*
X235470300Y-90101402D02*
X236478698Y-91109800D01*
X235470300Y-89291400D02*
X235470300Y-90101402D01*
X241757200Y-91109800D02*
X242163600Y-90703400D01*
X236478698Y-91109800D02*
X241757200Y-91109800D01*
X242163600Y-88633300D02*
X240906300Y-87376000D01*
X242163600Y-90703400D02*
X242163600Y-88633300D01*
X240211600Y-84391400D02*
X240944400Y-85124200D01*
X237970300Y-84391400D02*
X240211600Y-84391400D01*
X241605900Y-73380600D02*
X242189000Y-73963700D01*
X240880900Y-73380600D02*
X241605900Y-73380600D01*
X242189000Y-76873100D02*
X241236500Y-77825600D01*
X242189000Y-73963700D02*
X242189000Y-76873100D01*
X232312468Y-75191930D02*
X232623854Y-75503316D01*
X232312468Y-72787768D02*
X232312468Y-75191930D01*
X232270300Y-72745600D02*
X232312468Y-72787768D01*
X240436400Y-73380600D02*
X238023400Y-75793600D01*
X240880900Y-73380600D02*
X240436400Y-73380600D01*
X233870300Y-78602330D02*
X233870300Y-77891400D01*
X233231228Y-79241402D02*
X233870300Y-78602330D01*
X203581000Y-102805400D02*
X205257400Y-101129000D01*
X203581000Y-103759000D02*
X203581000Y-102805400D01*
X184192600Y-86370600D02*
X184010300Y-86188300D01*
X186095600Y-86370600D02*
X184192600Y-86370600D01*
X187445600Y-86000600D02*
X187445600Y-87350600D01*
X235470300Y-88481398D02*
X234898302Y-87909400D01*
X235470300Y-89291400D02*
X235470300Y-88481398D01*
X229070300Y-88328100D02*
X229070300Y-89291400D01*
X229489000Y-87909400D02*
X229070300Y-88328100D01*
X234898302Y-87909400D02*
X229489000Y-87909400D01*
%TO.N,Net-(C2-Pad1)*%
X229663419Y-73947681D02*
X228714300Y-74896800D01*
X231068219Y-73947681D02*
X229663419Y-73947681D01*
X232270300Y-77081398D02*
X232270300Y-77891400D01*
X231068219Y-75879317D02*
X232270300Y-77081398D01*
X231068219Y-73947681D02*
X231068219Y-75879317D01*
%TO.N,Net-(C3-Pad2)*%
X240402200Y-83591400D02*
X240944400Y-83049200D01*
X237970300Y-83591400D02*
X240402200Y-83591400D01*
%TO.N,VCC*%
X234670300Y-77081398D02*
X235069098Y-76682600D01*
X234670300Y-77891400D02*
X234670300Y-77081398D01*
X239653900Y-76682600D02*
X240880900Y-75455600D01*
X235069098Y-76682600D02*
X239653900Y-76682600D01*
X241236500Y-80525200D02*
X241236500Y-79900600D01*
X238970300Y-82791400D02*
X241236500Y-80525200D01*
X237970300Y-82791400D02*
X238970300Y-82791400D01*
X240906300Y-89001690D02*
X240906300Y-89451000D01*
X238696010Y-86791400D02*
X240906300Y-89001690D01*
X237970300Y-86791400D02*
X238696010Y-86791400D01*
X222042300Y-80391400D02*
X221221300Y-79570400D01*
X226570300Y-80391400D02*
X222042300Y-80391400D01*
X228270300Y-89291400D02*
X224736900Y-89291400D01*
X224736900Y-94320600D02*
X224790000Y-94373700D01*
X236270300Y-88481398D02*
X236270300Y-89291400D01*
X226570300Y-80391400D02*
X228180302Y-80391400D01*
X237939449Y-86760549D02*
X237970300Y-86791400D01*
X234549451Y-86760549D02*
X236270300Y-88481398D01*
X234670300Y-78891400D02*
X232676700Y-80885000D01*
X234670300Y-77891400D02*
X234670300Y-78891400D01*
X232676700Y-83846398D02*
X235590851Y-86760549D01*
X235590851Y-86760549D02*
X237939449Y-86760549D01*
X234549451Y-86760549D02*
X235590851Y-86760549D01*
X228270300Y-89291400D02*
X228270300Y-84505300D01*
X228270300Y-84505300D02*
X229819200Y-82956400D01*
X229819200Y-82956400D02*
X229819200Y-82143600D01*
X229875851Y-82086949D02*
X234549451Y-86760549D01*
X229819200Y-82143600D02*
X229875851Y-82086949D01*
X228180302Y-80391400D02*
X229875851Y-82086949D01*
X233845200Y-82791400D02*
X232676700Y-81622900D01*
X237970300Y-82791400D02*
X233845200Y-82791400D01*
X232676700Y-81622900D02*
X232676700Y-83846398D01*
X232676700Y-80885000D02*
X232676700Y-81622900D01*
X192545600Y-87350600D02*
X192545600Y-86000600D01*
X192545600Y-85505626D02*
X193647026Y-84404200D01*
X192545600Y-86000600D02*
X192545600Y-85505626D01*
X194828029Y-84404200D02*
X196176900Y-83055329D01*
X193647026Y-84404200D02*
X194828029Y-84404200D01*
X217736371Y-83055329D02*
X221221300Y-79570400D01*
X224790000Y-94373700D02*
X224790000Y-90957400D01*
X223304100Y-89471500D02*
X223304100Y-87858600D01*
X224790000Y-90957400D02*
X223304100Y-89471500D01*
X223304100Y-87858600D02*
X221170500Y-85725000D01*
X224736900Y-89291400D02*
X223304100Y-87858600D01*
X217093800Y-90766900D02*
X217932000Y-89928700D01*
X217932000Y-84797900D02*
X216189429Y-83055329D01*
X217932000Y-89928700D02*
X217932000Y-84797900D01*
X216189429Y-83055329D02*
X217736371Y-83055329D01*
X196176900Y-83055329D02*
X216189429Y-83055329D01*
X218676647Y-98153647D02*
X219689253Y-99166253D01*
X218651247Y-98153647D02*
X218676647Y-98153647D01*
X194565893Y-115266707D02*
X194132200Y-115700400D01*
X194132200Y-116357400D02*
X195122800Y-117348000D01*
X194132200Y-115700400D02*
X194132200Y-116357400D01*
%TO.N,/Row1*%
X230670300Y-90291400D02*
X230423400Y-90538300D01*
X230670300Y-89291400D02*
X230670300Y-90291400D01*
X230423400Y-90538300D02*
X227101400Y-90538300D01*
X226745800Y-90182700D02*
X226745800Y-90016400D01*
X227101400Y-90538300D02*
X226745800Y-90182700D01*
X219925900Y-89547700D02*
X219049600Y-89547700D01*
X218478100Y-90119200D02*
X218478100Y-90766900D01*
X219049600Y-89547700D02*
X218478100Y-90119200D01*
X217906600Y-91338400D02*
X217906600Y-116128800D01*
X218478100Y-90766900D02*
X217906600Y-91338400D01*
%TO.N,/Row0*%
X231470300Y-89291400D02*
X231470300Y-90893800D01*
X231470300Y-90893800D02*
X231228900Y-91135200D01*
X231228900Y-91135200D02*
X231216200Y-91122500D01*
X231216200Y-91122500D02*
X226656900Y-91122500D01*
X226027592Y-90384823D02*
X225330313Y-90384823D01*
X226656900Y-91014131D02*
X226027592Y-90384823D01*
X226656900Y-91122500D02*
X226656900Y-91014131D01*
X217015903Y-88228597D02*
X215339503Y-88228597D01*
X215339503Y-88228597D02*
X214782400Y-88785700D01*
X214782400Y-88785700D02*
X214782400Y-96824800D01*
X211796800Y-99810400D02*
X200228200Y-99810400D01*
X214782400Y-96824800D02*
X211796800Y-99810400D01*
%TO.N,Net-(J1-PadA5)*%
X191695600Y-87845574D02*
X191695600Y-87350600D01*
X195834000Y-88582500D02*
X192432526Y-88582500D01*
X196811900Y-87604600D02*
X195834000Y-88582500D01*
X192432526Y-88582500D02*
X191695600Y-87845574D01*
X196811900Y-86410800D02*
X196811900Y-87604600D01*
%TO.N,Net-(J1-PadA6)*%
X190845600Y-87350600D02*
X190845600Y-87894000D01*
X179755800Y-119015202D02*
X181263598Y-120523000D01*
X179755800Y-98983800D02*
X179755800Y-119015202D01*
X190845600Y-87894000D02*
X179755800Y-98983800D01*
X181263598Y-120523000D02*
X194970400Y-120523000D01*
X199771001Y-120523000D02*
X199923400Y-120370601D01*
X194970400Y-120523000D02*
X199771001Y-120523000D01*
X239064800Y-100247200D02*
X240175800Y-99136200D01*
X239064800Y-101015800D02*
X239064800Y-100247200D01*
%TO.N,Net-(J1-PadA7)*%
X189995600Y-87201598D02*
X189995600Y-87350600D01*
X190845600Y-86351598D02*
X189995600Y-87201598D01*
X190845600Y-86000600D02*
X190845600Y-86351598D01*
X219964000Y-120656202D02*
X219524601Y-121095601D01*
X219964000Y-120294400D02*
X219964000Y-120656202D01*
X220878400Y-119380000D02*
X219964000Y-120294400D01*
X219524601Y-121095601D02*
X181166601Y-121095601D01*
X181166601Y-121095601D02*
X179298600Y-119227600D01*
X179298600Y-119227600D02*
X179298600Y-98542574D01*
X179298600Y-98542574D02*
X189995600Y-87845574D01*
X189995600Y-87845574D02*
X189995600Y-87350600D01*
X236347000Y-118414800D02*
X235381800Y-119380000D01*
X236804200Y-104317800D02*
X236347000Y-104775000D01*
X236347000Y-104775000D02*
X236347000Y-118414800D01*
X238988600Y-104317800D02*
X236804200Y-104317800D01*
X241858800Y-94945200D02*
X241858800Y-101447600D01*
X241236500Y-94322900D02*
X241858800Y-94945200D01*
X241858800Y-101447600D02*
X238988600Y-104317800D01*
X235381800Y-119380000D02*
X220878400Y-119380000D01*
X240296700Y-94322900D02*
X241236500Y-94322900D01*
%TO.N,Net-(J1-PadB5)*%
X184010300Y-84188300D02*
X185458100Y-84188300D01*
X185458100Y-84188300D02*
X185458100Y-84226400D01*
X185458100Y-84226400D02*
X185788300Y-84556600D01*
X185788300Y-84556600D02*
X188290200Y-84556600D01*
X189145600Y-85412000D02*
X189145600Y-86000600D01*
X188290200Y-84556600D02*
X189145600Y-85412000D01*
%TO.N,/D-*%
X239064500Y-85991400D02*
X239458500Y-86385400D01*
X237970300Y-85991400D02*
X239064500Y-85991400D01*
X239166400Y-93453200D02*
X238296700Y-94322900D01*
X239166400Y-92951300D02*
X239166400Y-93453200D01*
%TO.N,/D+*%
X239407500Y-85191400D02*
X239598200Y-85382100D01*
X237970300Y-85191400D02*
X239407500Y-85191400D01*
X238912400Y-98399600D02*
X238175800Y-99136200D01*
X238912400Y-97840800D02*
X238912400Y-98399600D01*
%TO.N,Net-(R5-Pad1)*%
X227095300Y-96373700D02*
X228854000Y-94615000D01*
X224790000Y-96373700D02*
X227095300Y-96373700D01*
X228854000Y-94615000D02*
X235154000Y-94615000D01*
X235470300Y-82028700D02*
X235432600Y-82066400D01*
X235470300Y-77891400D02*
X235470300Y-82028700D01*
X235407200Y-94361800D02*
X235154000Y-94615000D01*
X235407200Y-93014800D02*
X235407200Y-94361800D01*
%TO.N,/RGB*%
X223977200Y-85198300D02*
X223977200Y-81280000D01*
X225570300Y-86791400D02*
X223977200Y-85198300D01*
X226570300Y-86791400D02*
X225570300Y-86791400D01*
X224002600Y-75577700D02*
X223113600Y-74688700D01*
X224002600Y-76631800D02*
X224002600Y-75577700D01*
%TO.N,Net-(R6-Pad1)*%
X220027500Y-74688700D02*
X212598000Y-82118200D01*
X221113600Y-74688700D02*
X220027500Y-74688700D01*
X204825600Y-91462426D02*
X204825600Y-96291400D01*
X207518000Y-88770026D02*
X204825600Y-91462426D01*
X207518000Y-83947000D02*
X207518000Y-88770026D01*
%TO.N,Net-(R7-Pad2)*%
X225570300Y-87591400D02*
X222491300Y-84512400D01*
X226570300Y-87591400D02*
X225570300Y-87591400D01*
X222491300Y-82845400D02*
X221195900Y-81550000D01*
X222491300Y-84512400D02*
X222491300Y-82845400D01*
%TO.N,/Col0*%
X233870300Y-89291400D02*
X233870300Y-91440200D01*
X233870300Y-91440200D02*
X232448100Y-92862400D01*
X232060882Y-93249618D02*
X225688155Y-93249618D01*
X232448100Y-92862400D02*
X232060882Y-93249618D01*
%TO.N,Net-(U1-Pad4)*%
X197942200Y-105675600D02*
X197942200Y-113487200D01*
X202488800Y-101129000D02*
X197942200Y-105675600D01*
X193030200Y-118450000D02*
X186872147Y-118450000D01*
X194008253Y-117471947D02*
X193030200Y-118450000D01*
%TO.N,Net-(U1-Pad5)*%
X200660000Y-114300000D02*
X194310000Y-114300000D01*
X203200000Y-116840000D02*
X200660000Y-114300000D01*
%TO.N,/Col1*%
X233070300Y-90291400D02*
X233057700Y-90304000D01*
X233070300Y-89291400D02*
X233070300Y-90291400D01*
X233057700Y-90304000D02*
X233057700Y-91274900D01*
X232079800Y-92252800D02*
X225767900Y-92252800D01*
X233057700Y-91274900D02*
X232079800Y-92252800D01*
X215620600Y-91097100D02*
X215620600Y-103403400D01*
%TO.N,Net-(U3-Pad5)*%
X218313000Y-120370600D02*
X212852000Y-114909600D01*
X219176600Y-120370600D02*
X218313000Y-120370600D01*
%TO.N,/Col2*%
X232270300Y-89291400D02*
X232270300Y-91262200D01*
X232270300Y-91262200D02*
X232270300Y-91325700D01*
X232270300Y-91325700D02*
X231940100Y-91655900D01*
X231940100Y-91655900D02*
X227660200Y-91655900D01*
X226225667Y-91655900D02*
X225824148Y-91254381D01*
X227660200Y-91655900D02*
X226225667Y-91655900D01*
X221348300Y-91287600D02*
X220446600Y-92189300D01*
X220446600Y-92189300D02*
X220446600Y-94932500D01*
X228231700Y-102717600D02*
X232740200Y-102717600D01*
X220446600Y-94932500D02*
X228231700Y-102717600D01*
%TD*%
D21*
%TO.N,GND*%
X185141791Y-82058055D02*
X185056224Y-82254367D01*
X185010600Y-82463600D01*
X185010600Y-82863600D01*
X185968600Y-82863600D01*
X185968600Y-82843600D01*
X186222600Y-82843600D01*
X186222600Y-82863600D01*
X187180600Y-82863600D01*
X187180600Y-82463600D01*
X187134976Y-82254367D01*
X187049409Y-82058055D01*
X186967355Y-81940000D01*
X193873845Y-81940000D01*
X193791791Y-82058055D01*
X193706224Y-82254367D01*
X193660600Y-82463600D01*
X193660600Y-82863600D01*
X194618600Y-82863600D01*
X194618600Y-82843600D01*
X194872600Y-82843600D01*
X194872600Y-82863600D01*
X194892600Y-82863600D01*
X194892600Y-83117600D01*
X194872600Y-83117600D01*
X194872600Y-83137600D01*
X194618600Y-83137600D01*
X194618600Y-83117600D01*
X193660600Y-83117600D01*
X193660600Y-83517600D01*
X193688206Y-83644200D01*
X193684359Y-83644200D01*
X193647026Y-83640523D01*
X193609693Y-83644200D01*
X193498040Y-83655197D01*
X193354779Y-83698654D01*
X193222750Y-83769226D01*
X193107025Y-83864199D01*
X193083227Y-83893197D01*
X192034598Y-84941827D01*
X192005600Y-84965625D01*
X191940452Y-85045007D01*
X191792614Y-85015600D01*
X191598586Y-85015600D01*
X191408286Y-85053453D01*
X191270600Y-85110484D01*
X191132914Y-85053453D01*
X190942614Y-85015600D01*
X190748586Y-85015600D01*
X190558286Y-85053453D01*
X190420600Y-85110484D01*
X190282914Y-85053453D01*
X190092614Y-85015600D01*
X189898586Y-85015600D01*
X189805384Y-85034139D01*
X189780574Y-84987724D01*
X189685601Y-84871999D01*
X189656604Y-84848202D01*
X188854003Y-84045602D01*
X188830201Y-84016599D01*
X188714476Y-83921626D01*
X188582447Y-83851054D01*
X188439186Y-83807597D01*
X188327533Y-83796600D01*
X188327522Y-83796600D01*
X188290200Y-83792924D01*
X188252878Y-83796600D01*
X187104566Y-83796600D01*
X187134976Y-83726833D01*
X187180600Y-83517600D01*
X187180600Y-83117600D01*
X186222600Y-83117600D01*
X186222600Y-83137600D01*
X185968600Y-83137600D01*
X185968600Y-83117600D01*
X185010600Y-83117600D01*
X185010600Y-83146602D01*
X184953687Y-83099895D01*
X184800151Y-83017828D01*
X184633555Y-82967292D01*
X184460301Y-82950228D01*
X183560299Y-82950228D01*
X183387045Y-82967292D01*
X183220449Y-83017828D01*
X183066913Y-83099895D01*
X182932338Y-83210338D01*
X182821895Y-83344913D01*
X182739828Y-83498449D01*
X182689292Y-83665045D01*
X182672228Y-83838299D01*
X182672228Y-84538301D01*
X182689292Y-84711555D01*
X182739828Y-84878151D01*
X182821895Y-85031687D01*
X182888576Y-85112937D01*
X182859115Y-85137115D01*
X182779763Y-85233806D01*
X182720798Y-85344120D01*
X182684488Y-85463818D01*
X182672228Y-85588300D01*
X182675300Y-85902550D01*
X182834050Y-86061300D01*
X183883300Y-86061300D01*
X183883300Y-86041300D01*
X184137300Y-86041300D01*
X184137300Y-86061300D01*
X184157300Y-86061300D01*
X184157300Y-86315300D01*
X184137300Y-86315300D01*
X184137300Y-87264550D01*
X184296050Y-87423300D01*
X184710300Y-87426372D01*
X184834782Y-87414112D01*
X184954480Y-87377802D01*
X185030169Y-87337345D01*
X185056224Y-87456833D01*
X185141791Y-87653145D01*
X185264013Y-87828991D01*
X185418192Y-87977614D01*
X185598403Y-88093302D01*
X185801599Y-88165008D01*
X185968600Y-88038102D01*
X185968600Y-86497600D01*
X185948600Y-86497600D01*
X185948600Y-86243600D01*
X185968600Y-86243600D01*
X185968600Y-86223600D01*
X186222600Y-86223600D01*
X186222600Y-86243600D01*
X186489137Y-86243600D01*
X186495968Y-86279589D01*
X186568643Y-86459493D01*
X186576833Y-86474816D01*
X186775080Y-86491512D01*
X186768992Y-86497600D01*
X186222600Y-86497600D01*
X186222600Y-88038102D01*
X186389601Y-88165008D01*
X186592797Y-88093302D01*
X186773008Y-87977614D01*
X186927187Y-87828991D01*
X187049409Y-87653145D01*
X187115825Y-87500770D01*
X187265995Y-87350600D01*
X187251853Y-87336458D01*
X187310600Y-87277710D01*
X187310600Y-87447614D01*
X187346701Y-87629104D01*
X186954688Y-88021117D01*
X186971384Y-88219367D01*
X187149984Y-88295189D01*
X187339944Y-88334710D01*
X187533964Y-88336413D01*
X187724589Y-88300232D01*
X187871251Y-88240985D01*
X188008286Y-88297747D01*
X188198586Y-88335600D01*
X188392614Y-88335600D01*
X188440246Y-88326125D01*
X178787598Y-97978775D01*
X178758600Y-98002573D01*
X178734802Y-98031571D01*
X178734801Y-98031572D01*
X178663626Y-98118298D01*
X178593054Y-98250328D01*
X178563928Y-98346349D01*
X178551537Y-98387198D01*
X178549598Y-98393589D01*
X178534924Y-98542574D01*
X178538601Y-98579907D01*
X178538600Y-119190278D01*
X178534924Y-119227600D01*
X178538600Y-119264922D01*
X178538600Y-119264932D01*
X178549597Y-119376585D01*
X178570419Y-119445226D01*
X178593054Y-119519846D01*
X178663626Y-119651876D01*
X178682324Y-119674659D01*
X178758599Y-119767601D01*
X178787603Y-119791404D01*
X180256198Y-121260000D01*
X178460000Y-121260000D01*
X178460000Y-89927842D01*
X179340800Y-89927842D01*
X179340800Y-90259758D01*
X179405554Y-90585296D01*
X179532572Y-90891947D01*
X179716975Y-91167925D01*
X179951675Y-91402625D01*
X180227653Y-91587028D01*
X180534304Y-91714046D01*
X180859842Y-91778800D01*
X181191758Y-91778800D01*
X181517296Y-91714046D01*
X181823947Y-91587028D01*
X182099925Y-91402625D01*
X182334625Y-91167925D01*
X182519028Y-90891947D01*
X182646046Y-90585296D01*
X182710800Y-90259758D01*
X182710800Y-89927842D01*
X182646046Y-89602304D01*
X182519028Y-89295653D01*
X182334625Y-89019675D01*
X182099925Y-88784975D01*
X181823947Y-88600572D01*
X181517296Y-88473554D01*
X181191758Y-88408800D01*
X180859842Y-88408800D01*
X180534304Y-88473554D01*
X180227653Y-88600572D01*
X179951675Y-88784975D01*
X179716975Y-89019675D01*
X179532572Y-89295653D01*
X179405554Y-89602304D01*
X179340800Y-89927842D01*
X178460000Y-89927842D01*
X178460000Y-86788300D01*
X182672228Y-86788300D01*
X182684488Y-86912782D01*
X182720798Y-87032480D01*
X182779763Y-87142794D01*
X182859115Y-87239485D01*
X182955806Y-87318837D01*
X183066120Y-87377802D01*
X183185818Y-87414112D01*
X183310300Y-87426372D01*
X183724550Y-87423300D01*
X183883300Y-87264550D01*
X183883300Y-86315300D01*
X182834050Y-86315300D01*
X182675300Y-86474050D01*
X182672228Y-86788300D01*
X178460000Y-86788300D01*
X178460000Y-81940000D01*
X185223845Y-81940000D01*
X185141791Y-82058055D01*
%TA.AperFunction,Conductor*%
D22*
G36*
X185141791Y-82058055D02*
G01*
X185056224Y-82254367D01*
X185010600Y-82463600D01*
X185010600Y-82863600D01*
X185968600Y-82863600D01*
X185968600Y-82843600D01*
X186222600Y-82843600D01*
X186222600Y-82863600D01*
X187180600Y-82863600D01*
X187180600Y-82463600D01*
X187134976Y-82254367D01*
X187049409Y-82058055D01*
X186967355Y-81940000D01*
X193873845Y-81940000D01*
X193791791Y-82058055D01*
X193706224Y-82254367D01*
X193660600Y-82463600D01*
X193660600Y-82863600D01*
X194618600Y-82863600D01*
X194618600Y-82843600D01*
X194872600Y-82843600D01*
X194872600Y-82863600D01*
X194892600Y-82863600D01*
X194892600Y-83117600D01*
X194872600Y-83117600D01*
X194872600Y-83137600D01*
X194618600Y-83137600D01*
X194618600Y-83117600D01*
X193660600Y-83117600D01*
X193660600Y-83517600D01*
X193688206Y-83644200D01*
X193684359Y-83644200D01*
X193647026Y-83640523D01*
X193609693Y-83644200D01*
X193498040Y-83655197D01*
X193354779Y-83698654D01*
X193222750Y-83769226D01*
X193107025Y-83864199D01*
X193083227Y-83893197D01*
X192034598Y-84941827D01*
X192005600Y-84965625D01*
X191940452Y-85045007D01*
X191792614Y-85015600D01*
X191598586Y-85015600D01*
X191408286Y-85053453D01*
X191270600Y-85110484D01*
X191132914Y-85053453D01*
X190942614Y-85015600D01*
X190748586Y-85015600D01*
X190558286Y-85053453D01*
X190420600Y-85110484D01*
X190282914Y-85053453D01*
X190092614Y-85015600D01*
X189898586Y-85015600D01*
X189805384Y-85034139D01*
X189780574Y-84987724D01*
X189685601Y-84871999D01*
X189656604Y-84848202D01*
X188854003Y-84045602D01*
X188830201Y-84016599D01*
X188714476Y-83921626D01*
X188582447Y-83851054D01*
X188439186Y-83807597D01*
X188327533Y-83796600D01*
X188327522Y-83796600D01*
X188290200Y-83792924D01*
X188252878Y-83796600D01*
X187104566Y-83796600D01*
X187134976Y-83726833D01*
X187180600Y-83517600D01*
X187180600Y-83117600D01*
X186222600Y-83117600D01*
X186222600Y-83137600D01*
X185968600Y-83137600D01*
X185968600Y-83117600D01*
X185010600Y-83117600D01*
X185010600Y-83146602D01*
X184953687Y-83099895D01*
X184800151Y-83017828D01*
X184633555Y-82967292D01*
X184460301Y-82950228D01*
X183560299Y-82950228D01*
X183387045Y-82967292D01*
X183220449Y-83017828D01*
X183066913Y-83099895D01*
X182932338Y-83210338D01*
X182821895Y-83344913D01*
X182739828Y-83498449D01*
X182689292Y-83665045D01*
X182672228Y-83838299D01*
X182672228Y-84538301D01*
X182689292Y-84711555D01*
X182739828Y-84878151D01*
X182821895Y-85031687D01*
X182888576Y-85112937D01*
X182859115Y-85137115D01*
X182779763Y-85233806D01*
X182720798Y-85344120D01*
X182684488Y-85463818D01*
X182672228Y-85588300D01*
X182675300Y-85902550D01*
X182834050Y-86061300D01*
X183883300Y-86061300D01*
X183883300Y-86041300D01*
X184137300Y-86041300D01*
X184137300Y-86061300D01*
X184157300Y-86061300D01*
X184157300Y-86315300D01*
X184137300Y-86315300D01*
X184137300Y-87264550D01*
X184296050Y-87423300D01*
X184710300Y-87426372D01*
X184834782Y-87414112D01*
X184954480Y-87377802D01*
X185030169Y-87337345D01*
X185056224Y-87456833D01*
X185141791Y-87653145D01*
X185264013Y-87828991D01*
X185418192Y-87977614D01*
X185598403Y-88093302D01*
X185801599Y-88165008D01*
X185968600Y-88038102D01*
X185968600Y-86497600D01*
X185948600Y-86497600D01*
X185948600Y-86243600D01*
X185968600Y-86243600D01*
X185968600Y-86223600D01*
X186222600Y-86223600D01*
X186222600Y-86243600D01*
X186489137Y-86243600D01*
X186495968Y-86279589D01*
X186568643Y-86459493D01*
X186576833Y-86474816D01*
X186775080Y-86491512D01*
X186768992Y-86497600D01*
X186222600Y-86497600D01*
X186222600Y-88038102D01*
X186389601Y-88165008D01*
X186592797Y-88093302D01*
X186773008Y-87977614D01*
X186927187Y-87828991D01*
X187049409Y-87653145D01*
X187115825Y-87500770D01*
X187265995Y-87350600D01*
X187251853Y-87336458D01*
X187310600Y-87277710D01*
X187310600Y-87447614D01*
X187346701Y-87629104D01*
X186954688Y-88021117D01*
X186971384Y-88219367D01*
X187149984Y-88295189D01*
X187339944Y-88334710D01*
X187533964Y-88336413D01*
X187724589Y-88300232D01*
X187871251Y-88240985D01*
X188008286Y-88297747D01*
X188198586Y-88335600D01*
X188392614Y-88335600D01*
X188440246Y-88326125D01*
X178787598Y-97978775D01*
X178758600Y-98002573D01*
X178734802Y-98031571D01*
X178734801Y-98031572D01*
X178663626Y-98118298D01*
X178593054Y-98250328D01*
X178563928Y-98346349D01*
X178551537Y-98387198D01*
X178549598Y-98393589D01*
X178534924Y-98542574D01*
X178538601Y-98579907D01*
X178538600Y-119190278D01*
X178534924Y-119227600D01*
X178538600Y-119264922D01*
X178538600Y-119264932D01*
X178549597Y-119376585D01*
X178570419Y-119445226D01*
X178593054Y-119519846D01*
X178663626Y-119651876D01*
X178682324Y-119674659D01*
X178758599Y-119767601D01*
X178787603Y-119791404D01*
X180256198Y-121260000D01*
X178460000Y-121260000D01*
X178460000Y-89927842D01*
X179340800Y-89927842D01*
X179340800Y-90259758D01*
X179405554Y-90585296D01*
X179532572Y-90891947D01*
X179716975Y-91167925D01*
X179951675Y-91402625D01*
X180227653Y-91587028D01*
X180534304Y-91714046D01*
X180859842Y-91778800D01*
X181191758Y-91778800D01*
X181517296Y-91714046D01*
X181823947Y-91587028D01*
X182099925Y-91402625D01*
X182334625Y-91167925D01*
X182519028Y-90891947D01*
X182646046Y-90585296D01*
X182710800Y-90259758D01*
X182710800Y-89927842D01*
X182646046Y-89602304D01*
X182519028Y-89295653D01*
X182334625Y-89019675D01*
X182099925Y-88784975D01*
X181823947Y-88600572D01*
X181517296Y-88473554D01*
X181191758Y-88408800D01*
X180859842Y-88408800D01*
X180534304Y-88473554D01*
X180227653Y-88600572D01*
X179951675Y-88784975D01*
X179716975Y-89019675D01*
X179532572Y-89295653D01*
X179405554Y-89602304D01*
X179340800Y-89927842D01*
X178460000Y-89927842D01*
X178460000Y-86788300D01*
X182672228Y-86788300D01*
X182684488Y-86912782D01*
X182720798Y-87032480D01*
X182779763Y-87142794D01*
X182859115Y-87239485D01*
X182955806Y-87318837D01*
X183066120Y-87377802D01*
X183185818Y-87414112D01*
X183310300Y-87426372D01*
X183724550Y-87423300D01*
X183883300Y-87264550D01*
X183883300Y-86315300D01*
X182834050Y-86315300D01*
X182675300Y-86474050D01*
X182672228Y-86788300D01*
X178460000Y-86788300D01*
X178460000Y-81940000D01*
X185223845Y-81940000D01*
X185141791Y-82058055D01*
G37*
%TD.AperFunction*%
D21*
X219874892Y-82073255D02*
X219925428Y-82239851D01*
X220007495Y-82393387D01*
X220074176Y-82474637D01*
X220044715Y-82498815D01*
X219965363Y-82595506D01*
X219906398Y-82705820D01*
X219870088Y-82825518D01*
X219857828Y-82950000D01*
X219860900Y-83264250D01*
X220019650Y-83423000D01*
X221068900Y-83423000D01*
X221068900Y-83403000D01*
X221322900Y-83403000D01*
X221322900Y-83423000D01*
X221342900Y-83423000D01*
X221342900Y-83677000D01*
X221322900Y-83677000D01*
X221322900Y-83697000D01*
X221068900Y-83697000D01*
X221068900Y-83677000D01*
X220019650Y-83677000D01*
X219860900Y-83835750D01*
X219857828Y-84150000D01*
X219870088Y-84274482D01*
X219906398Y-84394180D01*
X219965363Y-84504494D01*
X220044715Y-84601185D01*
X220141406Y-84680537D01*
X220154968Y-84687786D01*
X220067538Y-84759538D01*
X219957095Y-84894114D01*
X219875028Y-85047650D01*
X219824492Y-85214246D01*
X219807428Y-85387500D01*
X219807428Y-86062500D01*
X219824492Y-86235754D01*
X219875028Y-86402350D01*
X219957095Y-86555886D01*
X220067538Y-86690462D01*
X220074094Y-86695842D01*
X219994315Y-86761315D01*
X219914963Y-86858006D01*
X219855998Y-86968320D01*
X219819688Y-87088018D01*
X219807428Y-87212500D01*
X219810500Y-87514250D01*
X219969250Y-87673000D01*
X221043500Y-87673000D01*
X221043500Y-87653000D01*
X221297500Y-87653000D01*
X221297500Y-87673000D01*
X221317500Y-87673000D01*
X221317500Y-87927000D01*
X221297500Y-87927000D01*
X221297500Y-88863750D01*
X221456250Y-89022500D01*
X221895500Y-89025572D01*
X222019982Y-89013312D01*
X222139680Y-88977002D01*
X222249994Y-88918037D01*
X222346685Y-88838685D01*
X222426037Y-88741994D01*
X222485002Y-88631680D01*
X222521312Y-88511982D01*
X222533572Y-88387500D01*
X222531262Y-88160564D01*
X222544101Y-88173403D01*
X222544100Y-89434177D01*
X222540424Y-89471500D01*
X222544100Y-89508822D01*
X222544100Y-89508832D01*
X222555097Y-89620485D01*
X222594594Y-89750692D01*
X222598554Y-89763746D01*
X222669126Y-89895776D01*
X222697213Y-89930000D01*
X222764099Y-90011501D01*
X222793103Y-90035304D01*
X224030001Y-91272203D01*
X224030000Y-93194173D01*
X224000149Y-93203228D01*
X223846613Y-93285295D01*
X223712038Y-93395738D01*
X223601595Y-93530313D01*
X223519528Y-93683849D01*
X223468992Y-93850445D01*
X223451928Y-94023699D01*
X223451928Y-94723701D01*
X223468992Y-94896955D01*
X223519528Y-95063551D01*
X223601595Y-95217087D01*
X223712038Y-95351662D01*
X223738891Y-95373700D01*
X223712038Y-95395738D01*
X223601595Y-95530313D01*
X223519528Y-95683849D01*
X223468992Y-95850445D01*
X223451928Y-96023699D01*
X223451928Y-96723701D01*
X223467150Y-96878248D01*
X221206600Y-94617699D01*
X221206600Y-92504101D01*
X221388101Y-92322600D01*
X221450239Y-92322600D01*
X221650198Y-92282826D01*
X221838556Y-92204805D01*
X222008074Y-92091537D01*
X222152237Y-91947374D01*
X222265505Y-91777856D01*
X222343526Y-91589498D01*
X222383300Y-91389539D01*
X222383300Y-91185661D01*
X222343526Y-90985702D01*
X222265505Y-90797344D01*
X222152237Y-90627826D01*
X222008074Y-90483663D01*
X221838556Y-90370395D01*
X221650198Y-90292374D01*
X221450239Y-90252600D01*
X221246361Y-90252600D01*
X221046402Y-90292374D01*
X220858044Y-90370395D01*
X220688526Y-90483663D01*
X220544363Y-90627826D01*
X220431095Y-90797344D01*
X220353074Y-90985702D01*
X220313300Y-91185661D01*
X220313300Y-91247799D01*
X219935602Y-91625497D01*
X219906599Y-91649299D01*
X219865666Y-91699177D01*
X219811626Y-91765024D01*
X219757813Y-91865701D01*
X219741054Y-91897054D01*
X219697597Y-92040315D01*
X219686600Y-92151968D01*
X219686600Y-92151978D01*
X219682924Y-92189300D01*
X219686600Y-92226623D01*
X219686601Y-94895168D01*
X219682924Y-94932500D01*
X219686601Y-94969833D01*
X219689255Y-94996774D01*
X219697598Y-95081485D01*
X219741054Y-95224746D01*
X219811626Y-95356776D01*
X219843602Y-95395738D01*
X219906600Y-95472501D01*
X219935598Y-95496299D01*
X227667901Y-103228603D01*
X227691699Y-103257601D01*
X227720697Y-103281399D01*
X227807423Y-103352574D01*
X227939453Y-103423146D01*
X228082714Y-103466603D01*
X228194367Y-103477600D01*
X228194377Y-103477600D01*
X228231699Y-103481276D01*
X228269022Y-103477600D01*
X228956203Y-103477600D01*
X228858698Y-103517988D01*
X228509017Y-103751637D01*
X228211637Y-104049017D01*
X227977988Y-104398698D01*
X227817047Y-104787244D01*
X227735000Y-105199721D01*
X227735000Y-105620279D01*
X227817047Y-106032756D01*
X227977988Y-106421302D01*
X228211637Y-106770983D01*
X228509017Y-107068363D01*
X228858698Y-107302012D01*
X229247244Y-107462953D01*
X229659721Y-107545000D01*
X230080279Y-107545000D01*
X230492756Y-107462953D01*
X230881302Y-107302012D01*
X231230983Y-107068363D01*
X231528363Y-106770983D01*
X231762012Y-106421302D01*
X231922953Y-106032756D01*
X232005000Y-105620279D01*
X232005000Y-105199721D01*
X231922953Y-104787244D01*
X231762012Y-104398698D01*
X231528363Y-104049017D01*
X231230983Y-103751637D01*
X230881302Y-103517988D01*
X230783797Y-103477600D01*
X232036489Y-103477600D01*
X232080426Y-103521537D01*
X232249944Y-103634805D01*
X232438302Y-103712826D01*
X232638261Y-103752600D01*
X232842139Y-103752600D01*
X233042098Y-103712826D01*
X233230456Y-103634805D01*
X233399974Y-103521537D01*
X233544137Y-103377374D01*
X233657405Y-103207856D01*
X233735426Y-103019498D01*
X233775200Y-102819539D01*
X233775200Y-102615661D01*
X233735426Y-102415702D01*
X233657405Y-102227344D01*
X233544137Y-102057826D01*
X233399974Y-101913663D01*
X233230456Y-101800395D01*
X233042098Y-101722374D01*
X232842139Y-101682600D01*
X232638261Y-101682600D01*
X232438302Y-101722374D01*
X232249944Y-101800395D01*
X232080426Y-101913663D01*
X232036489Y-101957600D01*
X228546502Y-101957600D01*
X225503902Y-98915000D01*
X227365928Y-98915000D01*
X227378188Y-99039482D01*
X227414498Y-99159180D01*
X227473463Y-99269494D01*
X227552815Y-99366185D01*
X227649506Y-99445537D01*
X227759820Y-99504502D01*
X227879518Y-99540812D01*
X228004000Y-99553072D01*
X228568250Y-99550000D01*
X228727000Y-99391250D01*
X228727000Y-98542000D01*
X228981000Y-98542000D01*
X228981000Y-99391250D01*
X229139750Y-99550000D01*
X229704000Y-99553072D01*
X229828482Y-99540812D01*
X229948180Y-99504502D01*
X230058494Y-99445537D01*
X230155185Y-99366185D01*
X230234537Y-99269494D01*
X230293502Y-99159180D01*
X230329812Y-99039482D01*
X230342072Y-98915000D01*
X233665928Y-98915000D01*
X233678188Y-99039482D01*
X233714498Y-99159180D01*
X233773463Y-99269494D01*
X233852815Y-99366185D01*
X233949506Y-99445537D01*
X234059820Y-99504502D01*
X234179518Y-99540812D01*
X234304000Y-99553072D01*
X234868250Y-99550000D01*
X235027000Y-99391250D01*
X235027000Y-98542000D01*
X235281000Y-98542000D01*
X235281000Y-99391250D01*
X235439750Y-99550000D01*
X236004000Y-99553072D01*
X236128482Y-99540812D01*
X236248180Y-99504502D01*
X236358494Y-99445537D01*
X236455185Y-99366185D01*
X236534537Y-99269494D01*
X236593502Y-99159180D01*
X236629812Y-99039482D01*
X236642072Y-98915000D01*
X236639000Y-98700750D01*
X236480250Y-98542000D01*
X235281000Y-98542000D01*
X235027000Y-98542000D01*
X233827750Y-98542000D01*
X233669000Y-98700750D01*
X233665928Y-98915000D01*
X230342072Y-98915000D01*
X230339000Y-98700750D01*
X230180250Y-98542000D01*
X228981000Y-98542000D01*
X228727000Y-98542000D01*
X227527750Y-98542000D01*
X227369000Y-98700750D01*
X227365928Y-98915000D01*
X225503902Y-98915000D01*
X224503902Y-97915000D01*
X227365928Y-97915000D01*
X227369000Y-98129250D01*
X227527750Y-98288000D01*
X228727000Y-98288000D01*
X228727000Y-97438750D01*
X228981000Y-97438750D01*
X228981000Y-98288000D01*
X230180250Y-98288000D01*
X230339000Y-98129250D01*
X230342072Y-97915000D01*
X233665928Y-97915000D01*
X233669000Y-98129250D01*
X233827750Y-98288000D01*
X235027000Y-98288000D01*
X235027000Y-97438750D01*
X235281000Y-97438750D01*
X235281000Y-98288000D01*
X236480250Y-98288000D01*
X236639000Y-98129250D01*
X236642072Y-97915000D01*
X236629812Y-97790518D01*
X236593502Y-97670820D01*
X236534537Y-97560506D01*
X236455185Y-97463815D01*
X236358494Y-97384463D01*
X236248180Y-97325498D01*
X236128482Y-97289188D01*
X236004000Y-97276928D01*
X235439750Y-97280000D01*
X235281000Y-97438750D01*
X235027000Y-97438750D01*
X234868250Y-97280000D01*
X234304000Y-97276928D01*
X234179518Y-97289188D01*
X234059820Y-97325498D01*
X233949506Y-97384463D01*
X233852815Y-97463815D01*
X233773463Y-97560506D01*
X233714498Y-97670820D01*
X233678188Y-97790518D01*
X233665928Y-97915000D01*
X230342072Y-97915000D01*
X230329812Y-97790518D01*
X230293502Y-97670820D01*
X230234537Y-97560506D01*
X230155185Y-97463815D01*
X230058494Y-97384463D01*
X229948180Y-97325498D01*
X229828482Y-97289188D01*
X229704000Y-97276928D01*
X229139750Y-97280000D01*
X228981000Y-97438750D01*
X228727000Y-97438750D01*
X228568250Y-97280000D01*
X228004000Y-97276928D01*
X227879518Y-97289188D01*
X227759820Y-97325498D01*
X227649506Y-97384463D01*
X227552815Y-97463815D01*
X227473463Y-97560506D01*
X227414498Y-97670820D01*
X227378188Y-97790518D01*
X227365928Y-97915000D01*
X224503902Y-97915000D01*
X224185452Y-97596550D01*
X224339999Y-97611772D01*
X225240001Y-97611772D01*
X225413255Y-97594708D01*
X225579851Y-97544172D01*
X225733387Y-97462105D01*
X225867962Y-97351662D01*
X225978405Y-97217087D01*
X226022976Y-97133700D01*
X227057978Y-97133700D01*
X227095300Y-97137376D01*
X227132622Y-97133700D01*
X227132633Y-97133700D01*
X227244286Y-97122703D01*
X227387547Y-97079246D01*
X227519576Y-97008674D01*
X227635301Y-96913701D01*
X227659103Y-96884698D01*
X228790730Y-95753072D01*
X229704000Y-95753072D01*
X229828482Y-95740812D01*
X229948180Y-95704502D01*
X230058494Y-95645537D01*
X230155185Y-95566185D01*
X230234537Y-95469494D01*
X230285046Y-95375000D01*
X233722954Y-95375000D01*
X233773463Y-95469494D01*
X233852815Y-95566185D01*
X233949506Y-95645537D01*
X234059820Y-95704502D01*
X234179518Y-95740812D01*
X234304000Y-95753072D01*
X236004000Y-95753072D01*
X236128482Y-95740812D01*
X236248180Y-95704502D01*
X236358494Y-95645537D01*
X236455185Y-95566185D01*
X236534537Y-95469494D01*
X236593502Y-95359180D01*
X236629812Y-95239482D01*
X236642072Y-95115000D01*
X236642072Y-94115000D01*
X236629812Y-93990518D01*
X236593502Y-93870820D01*
X236534537Y-93760506D01*
X236455185Y-93663815D01*
X236358494Y-93584463D01*
X236294281Y-93550140D01*
X236324405Y-93505056D01*
X236402426Y-93316698D01*
X236442200Y-93116739D01*
X236442200Y-92912861D01*
X236402426Y-92712902D01*
X236324405Y-92524544D01*
X236211137Y-92355026D01*
X236066974Y-92210863D01*
X235897456Y-92097595D01*
X235709098Y-92019574D01*
X235509139Y-91979800D01*
X235305261Y-91979800D01*
X235105302Y-92019574D01*
X234916944Y-92097595D01*
X234747426Y-92210863D01*
X234603263Y-92355026D01*
X234489995Y-92524544D01*
X234411974Y-92712902D01*
X234372200Y-92912861D01*
X234372200Y-93116739D01*
X234411974Y-93316698D01*
X234478344Y-93476928D01*
X234304000Y-93476928D01*
X234179518Y-93489188D01*
X234059820Y-93525498D01*
X233949506Y-93584463D01*
X233852815Y-93663815D01*
X233773463Y-93760506D01*
X233722954Y-93855000D01*
X232521216Y-93855000D01*
X232600883Y-93789619D01*
X232624686Y-93760615D01*
X233011899Y-93373402D01*
X234381303Y-92003999D01*
X234410301Y-91980201D01*
X234505274Y-91864476D01*
X234575846Y-91732447D01*
X234619303Y-91589186D01*
X234630300Y-91477533D01*
X234633977Y-91440200D01*
X234630300Y-91402867D01*
X234630300Y-90679472D01*
X234945300Y-90679472D01*
X235069782Y-90667212D01*
X235070963Y-90666854D01*
X235184550Y-90676400D01*
X235276633Y-90584317D01*
X235299794Y-90571937D01*
X235396485Y-90492585D01*
X235470300Y-90402641D01*
X235544115Y-90492585D01*
X235640806Y-90571937D01*
X235663967Y-90584317D01*
X235756050Y-90676400D01*
X235869637Y-90666854D01*
X235870818Y-90667212D01*
X235995300Y-90679472D01*
X236545300Y-90679472D01*
X236669782Y-90667212D01*
X236789480Y-90630902D01*
X236899794Y-90571937D01*
X236996485Y-90492585D01*
X237075837Y-90395894D01*
X237134802Y-90285580D01*
X237171112Y-90165882D01*
X237183372Y-90041400D01*
X237183372Y-88541400D01*
X237179338Y-88500438D01*
X237220300Y-88504472D01*
X238720300Y-88504472D01*
X238844782Y-88492212D01*
X238964480Y-88455902D01*
X239074794Y-88396937D01*
X239158253Y-88328444D01*
X239609113Y-88779304D01*
X239560292Y-88940246D01*
X239543228Y-89113500D01*
X239543228Y-89788500D01*
X239560292Y-89961754D01*
X239610828Y-90128350D01*
X239692895Y-90281886D01*
X239803338Y-90416462D01*
X239937914Y-90526905D01*
X240091450Y-90608972D01*
X240258046Y-90659508D01*
X240431300Y-90676572D01*
X241381300Y-90676572D01*
X241554554Y-90659508D01*
X241721150Y-90608972D01*
X241874686Y-90526905D01*
X241910001Y-90497923D01*
X241910001Y-93921599D01*
X241800303Y-93811902D01*
X241776501Y-93782899D01*
X241660776Y-93687926D01*
X241528747Y-93617354D01*
X241489097Y-93605327D01*
X241467172Y-93533049D01*
X241385105Y-93379513D01*
X241274662Y-93244938D01*
X241140087Y-93134495D01*
X240986551Y-93052428D01*
X240819955Y-93001892D01*
X240646701Y-92984828D01*
X240201400Y-92984828D01*
X240201400Y-92849361D01*
X240161626Y-92649402D01*
X240083605Y-92461044D01*
X239970337Y-92291526D01*
X239826174Y-92147363D01*
X239656656Y-92034095D01*
X239468298Y-91956074D01*
X239268339Y-91916300D01*
X239064461Y-91916300D01*
X238864502Y-91956074D01*
X238676144Y-92034095D01*
X238506626Y-92147363D01*
X238362463Y-92291526D01*
X238249195Y-92461044D01*
X238171174Y-92649402D01*
X238131400Y-92849361D01*
X238131400Y-92984828D01*
X237946699Y-92984828D01*
X237773445Y-93001892D01*
X237606849Y-93052428D01*
X237453313Y-93134495D01*
X237318738Y-93244938D01*
X237208295Y-93379513D01*
X237126228Y-93533049D01*
X237075692Y-93699645D01*
X237058628Y-93872899D01*
X237058628Y-94772901D01*
X237075692Y-94946155D01*
X237126228Y-95112751D01*
X237208295Y-95266287D01*
X237318738Y-95400862D01*
X237453313Y-95511305D01*
X237606849Y-95593372D01*
X237773445Y-95643908D01*
X237946699Y-95660972D01*
X238646701Y-95660972D01*
X238819955Y-95643908D01*
X238986551Y-95593372D01*
X239140087Y-95511305D01*
X239274662Y-95400862D01*
X239296700Y-95374009D01*
X239318738Y-95400862D01*
X239453313Y-95511305D01*
X239606849Y-95593372D01*
X239773445Y-95643908D01*
X239946699Y-95660972D01*
X240646701Y-95660972D01*
X240819955Y-95643908D01*
X240986551Y-95593372D01*
X241098800Y-95533373D01*
X241098800Y-98013132D01*
X241019187Y-97947795D01*
X240865651Y-97865728D01*
X240699055Y-97815192D01*
X240525801Y-97798128D01*
X239947400Y-97798128D01*
X239947400Y-97738861D01*
X239907626Y-97538902D01*
X239829605Y-97350544D01*
X239716337Y-97181026D01*
X239572174Y-97036863D01*
X239402656Y-96923595D01*
X239214298Y-96845574D01*
X239014339Y-96805800D01*
X238810461Y-96805800D01*
X238610502Y-96845574D01*
X238422144Y-96923595D01*
X238252626Y-97036863D01*
X238108463Y-97181026D01*
X237995195Y-97350544D01*
X237917174Y-97538902D01*
X237877400Y-97738861D01*
X237877400Y-97798128D01*
X237825799Y-97798128D01*
X237652545Y-97815192D01*
X237485949Y-97865728D01*
X237332413Y-97947795D01*
X237197838Y-98058238D01*
X237087395Y-98192813D01*
X237005328Y-98346349D01*
X236954792Y-98512945D01*
X236937728Y-98686199D01*
X236937728Y-99586201D01*
X236954792Y-99759455D01*
X237005328Y-99926051D01*
X237087395Y-100079587D01*
X237197838Y-100214162D01*
X237332413Y-100324605D01*
X237485949Y-100406672D01*
X237652545Y-100457208D01*
X237825799Y-100474272D01*
X238181854Y-100474272D01*
X238147595Y-100525544D01*
X238069574Y-100713902D01*
X238029800Y-100913861D01*
X238029800Y-101117739D01*
X238069574Y-101317698D01*
X238147595Y-101506056D01*
X238260863Y-101675574D01*
X238405026Y-101819737D01*
X238574544Y-101933005D01*
X238762902Y-102011026D01*
X238962861Y-102050800D01*
X239166739Y-102050800D01*
X239366698Y-102011026D01*
X239555056Y-101933005D01*
X239724574Y-101819737D01*
X239868737Y-101675574D01*
X239982005Y-101506056D01*
X240060026Y-101317698D01*
X240099800Y-101117739D01*
X240099800Y-100913861D01*
X240060026Y-100713902D01*
X239982005Y-100525544D01*
X239947746Y-100474272D01*
X240525801Y-100474272D01*
X240699055Y-100457208D01*
X240865651Y-100406672D01*
X241019187Y-100324605D01*
X241098801Y-100259268D01*
X241098801Y-101132797D01*
X238673799Y-103557800D01*
X236841522Y-103557800D01*
X236804199Y-103554124D01*
X236766876Y-103557800D01*
X236766867Y-103557800D01*
X236655214Y-103568797D01*
X236511953Y-103612254D01*
X236379924Y-103682826D01*
X236264199Y-103777799D01*
X236240400Y-103806798D01*
X235836002Y-104211197D01*
X235806999Y-104234999D01*
X235751871Y-104302174D01*
X235712026Y-104350724D01*
X235665162Y-104438400D01*
X235641454Y-104482754D01*
X235597997Y-104626015D01*
X235587000Y-104737668D01*
X235587000Y-104737678D01*
X235583324Y-104775000D01*
X235587000Y-104812322D01*
X235587001Y-118099997D01*
X235066999Y-118620000D01*
X220915723Y-118620000D01*
X220891091Y-118617574D01*
X220848553Y-118403726D01*
X220740380Y-118142573D01*
X220583337Y-117907541D01*
X220383459Y-117707663D01*
X220148427Y-117550620D01*
X219887274Y-117442447D01*
X219610035Y-117387300D01*
X219327365Y-117387300D01*
X219050126Y-117442447D01*
X218788973Y-117550620D01*
X218553941Y-117707663D01*
X218354063Y-117907541D01*
X218197020Y-118142573D01*
X218088847Y-118403726D01*
X218033700Y-118680965D01*
X218033700Y-118963635D01*
X218046826Y-119029624D01*
X213887000Y-114869799D01*
X213887000Y-114807661D01*
X213847226Y-114607702D01*
X213769205Y-114419344D01*
X213655937Y-114249826D01*
X213511774Y-114105663D01*
X213342256Y-113992395D01*
X213153898Y-113914374D01*
X212953939Y-113874600D01*
X212750061Y-113874600D01*
X212550102Y-113914374D01*
X212361744Y-113992395D01*
X212192226Y-114105663D01*
X212048063Y-114249826D01*
X211934795Y-114419344D01*
X211856774Y-114607702D01*
X211817000Y-114807661D01*
X211817000Y-115011539D01*
X211856774Y-115211498D01*
X211934795Y-115399856D01*
X212048063Y-115569374D01*
X212192226Y-115713537D01*
X212361744Y-115826805D01*
X212550102Y-115904826D01*
X212750061Y-115944600D01*
X212812199Y-115944600D01*
X217203199Y-120335601D01*
X200958400Y-120335601D01*
X200958400Y-120268662D01*
X200918626Y-120068703D01*
X200913554Y-120056457D01*
X201098427Y-119979880D01*
X201333459Y-119822837D01*
X201533337Y-119622959D01*
X201690380Y-119387927D01*
X201798553Y-119126774D01*
X201853700Y-118849535D01*
X201853700Y-118566865D01*
X201798553Y-118289626D01*
X201690380Y-118028473D01*
X201533337Y-117793441D01*
X201333459Y-117593563D01*
X201098427Y-117436520D01*
X200837274Y-117328347D01*
X200560035Y-117273200D01*
X200277365Y-117273200D01*
X200000126Y-117328347D01*
X199738973Y-117436520D01*
X199503941Y-117593563D01*
X199304063Y-117793441D01*
X199147020Y-118028473D01*
X199038847Y-118289626D01*
X198983700Y-118566865D01*
X198983700Y-118849535D01*
X199038847Y-119126774D01*
X199147020Y-119387927D01*
X199265577Y-119565360D01*
X199263626Y-119566664D01*
X199119463Y-119710827D01*
X199084602Y-119763000D01*
X182191796Y-119763000D01*
X182280137Y-119674659D01*
X182437180Y-119439627D01*
X182545353Y-119178474D01*
X182600500Y-118901235D01*
X182600500Y-118618565D01*
X182545353Y-118341326D01*
X182437180Y-118080173D01*
X182280137Y-117845141D01*
X182080259Y-117645263D01*
X181845227Y-117488220D01*
X181584074Y-117380047D01*
X181306835Y-117324900D01*
X181024165Y-117324900D01*
X180746926Y-117380047D01*
X180515800Y-117475782D01*
X180515800Y-112397972D01*
X181965500Y-112397972D01*
X182089982Y-112385712D01*
X182209680Y-112349402D01*
X182319994Y-112290437D01*
X182416685Y-112211085D01*
X182496037Y-112114394D01*
X182555002Y-112004080D01*
X182591312Y-111884382D01*
X182603572Y-111759900D01*
X182603572Y-110159900D01*
X182591312Y-110035418D01*
X182555002Y-109915720D01*
X182496037Y-109805406D01*
X182416685Y-109708715D01*
X182319994Y-109629363D01*
X182209680Y-109570398D01*
X182089982Y-109534088D01*
X181965500Y-109521828D01*
X180515800Y-109521828D01*
X180515800Y-105199721D01*
X189635000Y-105199721D01*
X189635000Y-105620279D01*
X189717047Y-106032756D01*
X189877988Y-106421302D01*
X190111637Y-106770983D01*
X190409017Y-107068363D01*
X190758698Y-107302012D01*
X191147244Y-107462953D01*
X191559721Y-107545000D01*
X191980279Y-107545000D01*
X192392756Y-107462953D01*
X192781302Y-107302012D01*
X193130983Y-107068363D01*
X193428363Y-106770983D01*
X193662012Y-106421302D01*
X193822953Y-106032756D01*
X193905000Y-105620279D01*
X193905000Y-105199721D01*
X193822953Y-104787244D01*
X193662012Y-104398698D01*
X193428363Y-104049017D01*
X193130983Y-103751637D01*
X192781302Y-103517988D01*
X192392756Y-103357047D01*
X191980279Y-103275000D01*
X191559721Y-103275000D01*
X191147244Y-103357047D01*
X190758698Y-103517988D01*
X190409017Y-103751637D01*
X190111637Y-104049017D01*
X189877988Y-104398698D01*
X189717047Y-104787244D01*
X189635000Y-105199721D01*
X180515800Y-105199721D01*
X180515800Y-99298601D01*
X188604001Y-91210400D01*
X198790128Y-91210400D01*
X198790128Y-92810400D01*
X198802388Y-92934882D01*
X198838698Y-93054580D01*
X198897663Y-93164894D01*
X198977015Y-93261585D01*
X199073706Y-93340937D01*
X199184020Y-93399902D01*
X199303718Y-93436212D01*
X199428200Y-93448472D01*
X201028200Y-93448472D01*
X201152682Y-93436212D01*
X201272380Y-93399902D01*
X201382694Y-93340937D01*
X201479385Y-93261585D01*
X201558737Y-93164894D01*
X201617702Y-93054580D01*
X201654012Y-92934882D01*
X201666272Y-92810400D01*
X201666272Y-91210400D01*
X201654012Y-91085918D01*
X201617702Y-90966220D01*
X201558737Y-90855906D01*
X201479385Y-90759215D01*
X201382694Y-90679863D01*
X201272380Y-90620898D01*
X201152682Y-90584588D01*
X201028200Y-90572328D01*
X199428200Y-90572328D01*
X199303718Y-90584588D01*
X199184020Y-90620898D01*
X199073706Y-90679863D01*
X198977015Y-90759215D01*
X198897663Y-90855906D01*
X198838698Y-90966220D01*
X198802388Y-91085918D01*
X198790128Y-91210400D01*
X188604001Y-91210400D01*
X191294813Y-88519589D01*
X191868727Y-89093502D01*
X191892525Y-89122501D01*
X192008250Y-89217474D01*
X192140279Y-89288046D01*
X192283540Y-89331503D01*
X192395193Y-89342500D01*
X192395201Y-89342500D01*
X192432526Y-89346176D01*
X192469851Y-89342500D01*
X195796678Y-89342500D01*
X195834000Y-89346176D01*
X195871322Y-89342500D01*
X195871333Y-89342500D01*
X195982986Y-89331503D01*
X196126247Y-89288046D01*
X196258276Y-89217474D01*
X196374001Y-89122501D01*
X196397803Y-89093498D01*
X197322908Y-88168395D01*
X197351901Y-88144601D01*
X197375695Y-88115608D01*
X197375699Y-88115604D01*
X197446873Y-88028877D01*
X197451021Y-88021117D01*
X197517446Y-87896847D01*
X197560903Y-87753586D01*
X197571900Y-87641933D01*
X197571900Y-87641924D01*
X197575576Y-87604601D01*
X197574104Y-87589658D01*
X197601751Y-87581272D01*
X197755287Y-87499205D01*
X197889862Y-87388762D01*
X198000305Y-87254187D01*
X198082372Y-87100651D01*
X198132908Y-86934055D01*
X198149972Y-86760801D01*
X198149972Y-86060799D01*
X198132908Y-85887545D01*
X198082372Y-85720949D01*
X198000305Y-85567413D01*
X197933624Y-85486163D01*
X197963085Y-85461985D01*
X198042437Y-85365294D01*
X198101402Y-85254980D01*
X198137712Y-85135282D01*
X198149972Y-85010800D01*
X198146900Y-84696550D01*
X197988150Y-84537800D01*
X196938900Y-84537800D01*
X196938900Y-84557800D01*
X196684900Y-84557800D01*
X196684900Y-84537800D01*
X196664900Y-84537800D01*
X196664900Y-84283800D01*
X196684900Y-84283800D01*
X196684900Y-84263800D01*
X196938900Y-84263800D01*
X196938900Y-84283800D01*
X197988150Y-84283800D01*
X198146900Y-84125050D01*
X198149928Y-83815329D01*
X206488914Y-83815329D01*
X206483000Y-83845061D01*
X206483000Y-84048939D01*
X206522774Y-84248898D01*
X206600795Y-84437256D01*
X206714063Y-84606774D01*
X206758000Y-84650711D01*
X206758001Y-88455223D01*
X206591479Y-88621745D01*
X206522953Y-88277244D01*
X206362012Y-87888698D01*
X206128363Y-87539017D01*
X205830983Y-87241637D01*
X205481302Y-87007988D01*
X205092756Y-86847047D01*
X204680279Y-86765000D01*
X204259721Y-86765000D01*
X203847244Y-86847047D01*
X203458698Y-87007988D01*
X203109017Y-87241637D01*
X202811637Y-87539017D01*
X202577988Y-87888698D01*
X202417047Y-88277244D01*
X202335000Y-88689721D01*
X202335000Y-89110279D01*
X202417047Y-89522756D01*
X202577988Y-89911302D01*
X202657499Y-90030299D01*
X202484747Y-90101856D01*
X202237431Y-90267107D01*
X202027107Y-90477431D01*
X201861856Y-90724747D01*
X201748029Y-90999549D01*
X201690000Y-91291278D01*
X201690000Y-91588722D01*
X201748029Y-91880451D01*
X201861856Y-92155253D01*
X202027107Y-92402569D01*
X202237431Y-92612893D01*
X202484747Y-92778144D01*
X202759549Y-92891971D01*
X203051278Y-92950000D01*
X203348722Y-92950000D01*
X203640451Y-92891971D01*
X203915253Y-92778144D01*
X204065600Y-92677685D01*
X204065601Y-95587688D01*
X204021663Y-95631626D01*
X203908395Y-95801144D01*
X203830374Y-95989502D01*
X203790600Y-96189461D01*
X203790600Y-96393339D01*
X203830374Y-96593298D01*
X203908395Y-96781656D01*
X204021663Y-96951174D01*
X204165826Y-97095337D01*
X204335344Y-97208605D01*
X204523702Y-97286626D01*
X204723661Y-97326400D01*
X204927539Y-97326400D01*
X205085000Y-97295079D01*
X205085000Y-98705865D01*
X205081638Y-98740000D01*
X205095057Y-98876244D01*
X205134798Y-99007252D01*
X205157861Y-99050400D01*
X201446243Y-99050400D01*
X201342837Y-98895641D01*
X201142959Y-98695763D01*
X200907927Y-98538720D01*
X200646774Y-98430547D01*
X200369535Y-98375400D01*
X200086865Y-98375400D01*
X199809626Y-98430547D01*
X199548473Y-98538720D01*
X199313441Y-98695763D01*
X199113563Y-98895641D01*
X198956520Y-99130673D01*
X198848347Y-99391826D01*
X198793200Y-99669065D01*
X198793200Y-99951735D01*
X198848347Y-100228974D01*
X198956520Y-100490127D01*
X199113563Y-100725159D01*
X199313441Y-100925037D01*
X199548473Y-101082080D01*
X199809626Y-101190253D01*
X200086865Y-101245400D01*
X200369535Y-101245400D01*
X200646774Y-101190253D01*
X200907927Y-101082080D01*
X201142959Y-100925037D01*
X201342837Y-100725159D01*
X201446243Y-100570400D01*
X201617261Y-100570400D01*
X201571595Y-100638744D01*
X201493574Y-100827102D01*
X201453800Y-101027061D01*
X201453800Y-101089197D01*
X197431203Y-105111796D01*
X197402199Y-105135599D01*
X197349941Y-105199276D01*
X197307226Y-105251324D01*
X197273190Y-105315001D01*
X197236654Y-105383354D01*
X197193197Y-105526615D01*
X197182200Y-105638268D01*
X197182200Y-105638278D01*
X197178524Y-105675600D01*
X197182200Y-105712922D01*
X197182201Y-112783488D01*
X197138263Y-112827426D01*
X197024995Y-112996944D01*
X196946974Y-113185302D01*
X196907200Y-113385261D01*
X196907200Y-113540000D01*
X195013711Y-113540000D01*
X194969774Y-113496063D01*
X194800256Y-113382795D01*
X194611898Y-113304774D01*
X194411939Y-113265000D01*
X194208061Y-113265000D01*
X194008102Y-113304774D01*
X193819744Y-113382795D01*
X193650226Y-113496063D01*
X193506063Y-113640226D01*
X193392795Y-113809744D01*
X193314774Y-113998102D01*
X193275000Y-114198061D01*
X193275000Y-114401939D01*
X193314774Y-114601898D01*
X193392795Y-114790256D01*
X193506063Y-114959774D01*
X193560784Y-115014495D01*
X193530893Y-115164768D01*
X193530893Y-115235101D01*
X193497226Y-115276124D01*
X193466357Y-115333876D01*
X193426654Y-115408154D01*
X193383197Y-115551415D01*
X193372200Y-115663068D01*
X193372200Y-115663078D01*
X193368524Y-115700400D01*
X193372200Y-115737722D01*
X193372200Y-116320078D01*
X193368524Y-116357400D01*
X193372200Y-116394722D01*
X193372200Y-116394733D01*
X193383197Y-116506386D01*
X193418111Y-116621484D01*
X193348479Y-116668010D01*
X193204316Y-116812173D01*
X193091048Y-116981691D01*
X193013027Y-117170049D01*
X192973253Y-117370008D01*
X192973253Y-117432146D01*
X192715399Y-117690000D01*
X192425000Y-117690000D01*
X192425000Y-112824135D01*
X192428362Y-112790000D01*
X192414943Y-112653756D01*
X192375202Y-112522748D01*
X192310667Y-112402011D01*
X192223817Y-112296183D01*
X192117989Y-112209333D01*
X191997252Y-112144798D01*
X191866244Y-112105057D01*
X191764135Y-112095000D01*
X191764134Y-112095000D01*
X191730000Y-112091638D01*
X191695865Y-112095000D01*
X191319324Y-112095000D01*
X191559701Y-111735251D01*
X191757873Y-111256822D01*
X191858900Y-110748924D01*
X191858900Y-110341278D01*
X192800000Y-110341278D01*
X192800000Y-110638722D01*
X192858029Y-110930451D01*
X192971856Y-111205253D01*
X193137107Y-111452569D01*
X193347431Y-111662893D01*
X193594747Y-111828144D01*
X193869549Y-111941971D01*
X194161278Y-112000000D01*
X194458722Y-112000000D01*
X194750451Y-111941971D01*
X195025253Y-111828144D01*
X195272569Y-111662893D01*
X195482893Y-111452569D01*
X195648144Y-111205253D01*
X195761971Y-110930451D01*
X195820000Y-110638722D01*
X195820000Y-110341278D01*
X195761971Y-110049549D01*
X195648144Y-109774747D01*
X195482893Y-109527431D01*
X195272569Y-109317107D01*
X195025253Y-109151856D01*
X194750451Y-109038029D01*
X194458722Y-108980000D01*
X194161278Y-108980000D01*
X193869549Y-109038029D01*
X193594747Y-109151856D01*
X193347431Y-109317107D01*
X193137107Y-109527431D01*
X192971856Y-109774747D01*
X192858029Y-110049549D01*
X192800000Y-110341278D01*
X191858900Y-110341278D01*
X191858900Y-110231076D01*
X191757873Y-109723178D01*
X191559701Y-109244749D01*
X191272000Y-108814174D01*
X190905826Y-108448000D01*
X190475251Y-108160299D01*
X189996822Y-107962127D01*
X189488924Y-107861100D01*
X188971076Y-107861100D01*
X188463178Y-107962127D01*
X187984749Y-108160299D01*
X187554174Y-108448000D01*
X187483763Y-108518411D01*
X187555000Y-108160279D01*
X187555000Y-107739721D01*
X187472953Y-107327244D01*
X187312012Y-106938698D01*
X187078363Y-106589017D01*
X186780983Y-106291637D01*
X186431302Y-106057988D01*
X186042756Y-105897047D01*
X185630279Y-105815000D01*
X185209721Y-105815000D01*
X184797244Y-105897047D01*
X184408698Y-106057988D01*
X184059017Y-106291637D01*
X183761637Y-106589017D01*
X183527988Y-106938698D01*
X183367047Y-107327244D01*
X183285000Y-107739721D01*
X183285000Y-108160279D01*
X183367047Y-108572756D01*
X183527988Y-108961302D01*
X183607499Y-109080299D01*
X183434747Y-109151856D01*
X183187431Y-109317107D01*
X182977107Y-109527431D01*
X182811856Y-109774747D01*
X182698029Y-110049549D01*
X182640000Y-110341278D01*
X182640000Y-110638722D01*
X182698029Y-110930451D01*
X182811856Y-111205253D01*
X182977107Y-111452569D01*
X183187431Y-111662893D01*
X183434747Y-111828144D01*
X183709549Y-111941971D01*
X184001278Y-112000000D01*
X184298722Y-112000000D01*
X184590451Y-111941971D01*
X184865253Y-111828144D01*
X185112569Y-111662893D01*
X185322893Y-111452569D01*
X185488144Y-111205253D01*
X185601971Y-110930451D01*
X185660000Y-110638722D01*
X185660000Y-110341278D01*
X185609023Y-110085000D01*
X185630279Y-110085000D01*
X186042756Y-110002953D01*
X186431302Y-109842012D01*
X186737708Y-109637279D01*
X186702127Y-109723178D01*
X186601100Y-110231076D01*
X186601100Y-110748924D01*
X186702127Y-111256822D01*
X186900299Y-111735251D01*
X187140676Y-112095000D01*
X186764135Y-112095000D01*
X186730000Y-112091638D01*
X186695866Y-112095000D01*
X186695865Y-112095000D01*
X186593756Y-112105057D01*
X186462748Y-112144798D01*
X186342011Y-112209333D01*
X186236183Y-112296183D01*
X186149333Y-112402011D01*
X186084798Y-112522748D01*
X186045057Y-112653756D01*
X186031638Y-112790000D01*
X186035001Y-112824145D01*
X186035000Y-117755865D01*
X186031638Y-117790000D01*
X186036356Y-117837899D01*
X185954942Y-117959744D01*
X185876921Y-118148102D01*
X185837147Y-118348061D01*
X185837147Y-118551939D01*
X185876921Y-118751898D01*
X185954942Y-118940256D01*
X186068210Y-119109774D01*
X186212373Y-119253937D01*
X186381891Y-119367205D01*
X186570249Y-119445226D01*
X186770208Y-119485000D01*
X186974086Y-119485000D01*
X187174045Y-119445226D01*
X187362403Y-119367205D01*
X187531921Y-119253937D01*
X187575858Y-119210000D01*
X192992878Y-119210000D01*
X193030200Y-119213676D01*
X193067522Y-119210000D01*
X193067533Y-119210000D01*
X193179186Y-119199003D01*
X193322447Y-119155546D01*
X193454476Y-119084974D01*
X193570201Y-118990001D01*
X193594004Y-118960998D01*
X194048054Y-118506947D01*
X194110192Y-118506947D01*
X194310151Y-118467173D01*
X194498509Y-118389152D01*
X194664314Y-118278365D01*
X194820902Y-118343226D01*
X195020861Y-118383000D01*
X195224739Y-118383000D01*
X195424698Y-118343226D01*
X195613056Y-118265205D01*
X195782574Y-118151937D01*
X195926737Y-118007774D01*
X196040005Y-117838256D01*
X196118026Y-117649898D01*
X196157800Y-117449939D01*
X196157800Y-117246061D01*
X196118026Y-117046102D01*
X196040005Y-116857744D01*
X195926737Y-116688226D01*
X195782574Y-116544063D01*
X195613056Y-116430795D01*
X195424698Y-116352774D01*
X195224739Y-116313000D01*
X195162601Y-116313000D01*
X195040143Y-116190542D01*
X195056149Y-116183912D01*
X195225667Y-116070644D01*
X195369830Y-115926481D01*
X195483098Y-115756963D01*
X195561119Y-115568605D01*
X195600893Y-115368646D01*
X195600893Y-115164768D01*
X195580054Y-115060000D01*
X200345199Y-115060000D01*
X202165000Y-116879803D01*
X202165000Y-116941939D01*
X202204774Y-117141898D01*
X202282795Y-117330256D01*
X202396063Y-117499774D01*
X202540226Y-117643937D01*
X202709744Y-117757205D01*
X202898102Y-117835226D01*
X203098061Y-117875000D01*
X203301939Y-117875000D01*
X203501898Y-117835226D01*
X203690256Y-117757205D01*
X203859774Y-117643937D01*
X204003937Y-117499774D01*
X204117205Y-117330256D01*
X204195226Y-117141898D01*
X204235000Y-116941939D01*
X204235000Y-116738061D01*
X204195226Y-116538102D01*
X204117205Y-116349744D01*
X204003937Y-116180226D01*
X203859774Y-116036063D01*
X203690256Y-115922795D01*
X203501898Y-115844774D01*
X203301939Y-115805000D01*
X203239803Y-115805000D01*
X201223804Y-113789003D01*
X201200001Y-113759999D01*
X201084276Y-113665026D01*
X200952247Y-113594454D01*
X200808986Y-113550997D01*
X200697333Y-113540000D01*
X200697322Y-113540000D01*
X200660000Y-113536324D01*
X200622678Y-113540000D01*
X198977200Y-113540000D01*
X198977200Y-113385261D01*
X198937426Y-113185302D01*
X198859405Y-112996944D01*
X198746137Y-112827426D01*
X198702200Y-112783489D01*
X198702200Y-110108200D01*
X198980628Y-110108200D01*
X198980628Y-111708200D01*
X198992888Y-111832682D01*
X199029198Y-111952380D01*
X199088163Y-112062694D01*
X199167515Y-112159385D01*
X199264206Y-112238737D01*
X199374520Y-112297702D01*
X199494218Y-112334012D01*
X199618700Y-112346272D01*
X201218700Y-112346272D01*
X201343182Y-112334012D01*
X201462880Y-112297702D01*
X201573194Y-112238737D01*
X201669885Y-112159385D01*
X201749237Y-112062694D01*
X201808202Y-111952380D01*
X201844512Y-111832682D01*
X201856772Y-111708200D01*
X201856772Y-111192979D01*
X201861856Y-111205253D01*
X202027107Y-111452569D01*
X202237431Y-111662893D01*
X202484747Y-111828144D01*
X202759549Y-111941971D01*
X203051278Y-112000000D01*
X203348722Y-112000000D01*
X203640451Y-111941971D01*
X203915253Y-111828144D01*
X204162569Y-111662893D01*
X204372893Y-111452569D01*
X204538144Y-111205253D01*
X204651971Y-110930451D01*
X204710000Y-110638722D01*
X204710000Y-110341278D01*
X204659023Y-110085000D01*
X204680279Y-110085000D01*
X205092756Y-110002953D01*
X205481302Y-109842012D01*
X205787708Y-109637279D01*
X205752127Y-109723178D01*
X205651100Y-110231076D01*
X205651100Y-110748924D01*
X205752127Y-111256822D01*
X205950299Y-111735251D01*
X206190676Y-112095000D01*
X205814135Y-112095000D01*
X205780000Y-112091638D01*
X205745866Y-112095000D01*
X205745865Y-112095000D01*
X205643756Y-112105057D01*
X205512748Y-112144798D01*
X205392011Y-112209333D01*
X205286183Y-112296183D01*
X205199333Y-112402011D01*
X205134798Y-112522748D01*
X205095057Y-112653756D01*
X205081638Y-112790000D01*
X205085001Y-112824145D01*
X205085000Y-117755865D01*
X205081638Y-117790000D01*
X205095057Y-117926244D01*
X205134798Y-118057252D01*
X205199333Y-118177989D01*
X205286183Y-118283817D01*
X205392011Y-118370667D01*
X205512748Y-118435202D01*
X205643756Y-118474943D01*
X205780000Y-118488362D01*
X205814134Y-118485000D01*
X210745866Y-118485000D01*
X210780000Y-118488362D01*
X210916244Y-118474943D01*
X211047252Y-118435202D01*
X211167989Y-118370667D01*
X211273817Y-118283817D01*
X211360667Y-118177989D01*
X211425202Y-118057252D01*
X211464943Y-117926244D01*
X211475000Y-117824135D01*
X211475000Y-117824134D01*
X211478362Y-117790000D01*
X211475000Y-117755865D01*
X211475000Y-112824135D01*
X211478362Y-112790000D01*
X211464943Y-112653756D01*
X211425202Y-112522748D01*
X211360667Y-112402011D01*
X211273817Y-112296183D01*
X211167989Y-112209333D01*
X211047252Y-112144798D01*
X210916244Y-112105057D01*
X210814135Y-112095000D01*
X210814134Y-112095000D01*
X210780000Y-112091638D01*
X210745865Y-112095000D01*
X210369324Y-112095000D01*
X210609701Y-111735251D01*
X210807873Y-111256822D01*
X210908900Y-110748924D01*
X210908900Y-110341278D01*
X211850000Y-110341278D01*
X211850000Y-110638722D01*
X211908029Y-110930451D01*
X212021856Y-111205253D01*
X212187107Y-111452569D01*
X212397431Y-111662893D01*
X212644747Y-111828144D01*
X212919549Y-111941971D01*
X213211278Y-112000000D01*
X213508722Y-112000000D01*
X213800451Y-111941971D01*
X214075253Y-111828144D01*
X214322569Y-111662893D01*
X214532893Y-111452569D01*
X214698144Y-111205253D01*
X214811971Y-110930451D01*
X214870000Y-110638722D01*
X214870000Y-110341278D01*
X214811971Y-110049549D01*
X214698144Y-109774747D01*
X214532893Y-109527431D01*
X214322569Y-109317107D01*
X214075253Y-109151856D01*
X213800451Y-109038029D01*
X213508722Y-108980000D01*
X213211278Y-108980000D01*
X212919549Y-109038029D01*
X212644747Y-109151856D01*
X212397431Y-109317107D01*
X212187107Y-109527431D01*
X212021856Y-109774747D01*
X211908029Y-110049549D01*
X211850000Y-110341278D01*
X210908900Y-110341278D01*
X210908900Y-110231076D01*
X210807873Y-109723178D01*
X210609701Y-109244749D01*
X210322000Y-108814174D01*
X209955826Y-108448000D01*
X209525251Y-108160299D01*
X209046822Y-107962127D01*
X208538924Y-107861100D01*
X208021076Y-107861100D01*
X207513178Y-107962127D01*
X207034749Y-108160299D01*
X206604174Y-108448000D01*
X206533763Y-108518411D01*
X206605000Y-108160279D01*
X206605000Y-107739721D01*
X206522953Y-107327244D01*
X206362012Y-106938698D01*
X206128363Y-106589017D01*
X205830983Y-106291637D01*
X205481302Y-106057988D01*
X205092756Y-105897047D01*
X204680279Y-105815000D01*
X204259721Y-105815000D01*
X203847244Y-105897047D01*
X203458698Y-106057988D01*
X203109017Y-106291637D01*
X202811637Y-106589017D01*
X202577988Y-106938698D01*
X202417047Y-107327244D01*
X202335000Y-107739721D01*
X202335000Y-108160279D01*
X202417047Y-108572756D01*
X202577988Y-108961302D01*
X202657499Y-109080299D01*
X202484747Y-109151856D01*
X202237431Y-109317107D01*
X202027107Y-109527431D01*
X201861856Y-109774747D01*
X201815252Y-109887260D01*
X201808202Y-109864020D01*
X201749237Y-109753706D01*
X201669885Y-109657015D01*
X201573194Y-109577663D01*
X201462880Y-109518698D01*
X201343182Y-109482388D01*
X201218700Y-109470128D01*
X199618700Y-109470128D01*
X199494218Y-109482388D01*
X199374520Y-109518698D01*
X199264206Y-109577663D01*
X199167515Y-109657015D01*
X199088163Y-109753706D01*
X199029198Y-109864020D01*
X198992888Y-109983718D01*
X198980628Y-110108200D01*
X198702200Y-110108200D01*
X198702200Y-105990401D01*
X199492880Y-105199721D01*
X208685000Y-105199721D01*
X208685000Y-105620279D01*
X208767047Y-106032756D01*
X208927988Y-106421302D01*
X209161637Y-106770983D01*
X209459017Y-107068363D01*
X209808698Y-107302012D01*
X210197244Y-107462953D01*
X210609721Y-107545000D01*
X211030279Y-107545000D01*
X211442756Y-107462953D01*
X211831302Y-107302012D01*
X212180983Y-107068363D01*
X212478363Y-106770983D01*
X212712012Y-106421302D01*
X212872953Y-106032756D01*
X212955000Y-105620279D01*
X212955000Y-105199721D01*
X212872953Y-104787244D01*
X212712012Y-104398698D01*
X212478363Y-104049017D01*
X212180983Y-103751637D01*
X211831302Y-103517988D01*
X211442756Y-103357047D01*
X211030279Y-103275000D01*
X210609721Y-103275000D01*
X210197244Y-103357047D01*
X209808698Y-103517988D01*
X209459017Y-103751637D01*
X209161637Y-104049017D01*
X208927988Y-104398698D01*
X208767047Y-104787244D01*
X208685000Y-105199721D01*
X199492880Y-105199721D01*
X202528603Y-102164000D01*
X202590739Y-102164000D01*
X202790698Y-102124226D01*
X202979056Y-102046205D01*
X203148574Y-101932937D01*
X203292737Y-101788774D01*
X203406005Y-101619256D01*
X203484026Y-101430898D01*
X203523800Y-101230939D01*
X203523800Y-101027061D01*
X203484026Y-100827102D01*
X203406005Y-100638744D01*
X203360339Y-100570400D01*
X211759478Y-100570400D01*
X211796800Y-100574076D01*
X211834122Y-100570400D01*
X211834133Y-100570400D01*
X211945786Y-100559403D01*
X212089047Y-100515946D01*
X212221076Y-100445374D01*
X212336801Y-100350401D01*
X212360604Y-100321397D01*
X214860601Y-97821401D01*
X214860601Y-102699688D01*
X214816663Y-102743626D01*
X214703395Y-102913144D01*
X214625374Y-103101502D01*
X214585600Y-103301461D01*
X214585600Y-103505339D01*
X214625374Y-103705298D01*
X214703395Y-103893656D01*
X214816663Y-104063174D01*
X214960826Y-104207337D01*
X215130344Y-104320605D01*
X215318702Y-104398626D01*
X215518661Y-104438400D01*
X215722539Y-104438400D01*
X215922498Y-104398626D01*
X216110856Y-104320605D01*
X216280374Y-104207337D01*
X216424537Y-104063174D01*
X216537805Y-103893656D01*
X216615826Y-103705298D01*
X216655600Y-103505339D01*
X216655600Y-103301461D01*
X216615826Y-103101502D01*
X216537805Y-102913144D01*
X216424537Y-102743626D01*
X216380600Y-102699689D01*
X216380600Y-91800811D01*
X216424537Y-91756874D01*
X216513404Y-91623875D01*
X216603544Y-91684105D01*
X216791902Y-91762126D01*
X216991861Y-91801900D01*
X217146600Y-91801900D01*
X217146601Y-115425088D01*
X217102663Y-115469026D01*
X216989395Y-115638544D01*
X216911374Y-115826902D01*
X216871600Y-116026861D01*
X216871600Y-116230739D01*
X216911374Y-116430698D01*
X216989395Y-116619056D01*
X217102663Y-116788574D01*
X217246826Y-116932737D01*
X217416344Y-117046005D01*
X217604702Y-117124026D01*
X217804661Y-117163800D01*
X218008539Y-117163800D01*
X218208498Y-117124026D01*
X218396856Y-117046005D01*
X218566374Y-116932737D01*
X218710537Y-116788574D01*
X218823805Y-116619056D01*
X218901826Y-116430698D01*
X218941600Y-116230739D01*
X218941600Y-116026861D01*
X218901826Y-115826902D01*
X218823805Y-115638544D01*
X218710537Y-115469026D01*
X218666600Y-115425089D01*
X218666600Y-112460165D01*
X218668700Y-112460372D01*
X220268700Y-112460372D01*
X220393182Y-112448112D01*
X220512880Y-112411802D01*
X220623194Y-112352837D01*
X220719885Y-112273485D01*
X220799237Y-112176794D01*
X220858202Y-112066480D01*
X220894512Y-111946782D01*
X220906772Y-111822300D01*
X220906772Y-111192979D01*
X220911856Y-111205253D01*
X221077107Y-111452569D01*
X221287431Y-111662893D01*
X221534747Y-111828144D01*
X221809549Y-111941971D01*
X222101278Y-112000000D01*
X222398722Y-112000000D01*
X222690451Y-111941971D01*
X222965253Y-111828144D01*
X223212569Y-111662893D01*
X223422893Y-111452569D01*
X223588144Y-111205253D01*
X223701971Y-110930451D01*
X223760000Y-110638722D01*
X223760000Y-110341278D01*
X223709023Y-110085000D01*
X223730279Y-110085000D01*
X224142756Y-110002953D01*
X224531302Y-109842012D01*
X224837708Y-109637279D01*
X224802127Y-109723178D01*
X224701100Y-110231076D01*
X224701100Y-110748924D01*
X224802127Y-111256822D01*
X225000299Y-111735251D01*
X225240676Y-112095000D01*
X224864135Y-112095000D01*
X224830000Y-112091638D01*
X224795866Y-112095000D01*
X224795865Y-112095000D01*
X224693756Y-112105057D01*
X224562748Y-112144798D01*
X224442011Y-112209333D01*
X224336183Y-112296183D01*
X224249333Y-112402011D01*
X224184798Y-112522748D01*
X224145057Y-112653756D01*
X224131638Y-112790000D01*
X224135001Y-112824145D01*
X224135000Y-117755865D01*
X224131638Y-117790000D01*
X224145057Y-117926244D01*
X224184798Y-118057252D01*
X224249333Y-118177989D01*
X224336183Y-118283817D01*
X224442011Y-118370667D01*
X224562748Y-118435202D01*
X224693756Y-118474943D01*
X224830000Y-118488362D01*
X224864134Y-118485000D01*
X229795866Y-118485000D01*
X229830000Y-118488362D01*
X229966244Y-118474943D01*
X230097252Y-118435202D01*
X230217989Y-118370667D01*
X230323817Y-118283817D01*
X230410667Y-118177989D01*
X230475202Y-118057252D01*
X230514943Y-117926244D01*
X230525000Y-117824135D01*
X230525000Y-117824134D01*
X230528362Y-117790000D01*
X230525000Y-117755865D01*
X230525000Y-112824135D01*
X230528362Y-112790000D01*
X230514943Y-112653756D01*
X230475202Y-112522748D01*
X230410667Y-112402011D01*
X230323817Y-112296183D01*
X230217989Y-112209333D01*
X230097252Y-112144798D01*
X229966244Y-112105057D01*
X229864135Y-112095000D01*
X229864134Y-112095000D01*
X229830000Y-112091638D01*
X229795865Y-112095000D01*
X229419324Y-112095000D01*
X229659701Y-111735251D01*
X229857873Y-111256822D01*
X229958900Y-110748924D01*
X229958900Y-110341278D01*
X230900000Y-110341278D01*
X230900000Y-110638722D01*
X230958029Y-110930451D01*
X231071856Y-111205253D01*
X231237107Y-111452569D01*
X231447431Y-111662893D01*
X231694747Y-111828144D01*
X231969549Y-111941971D01*
X232261278Y-112000000D01*
X232558722Y-112000000D01*
X232850451Y-111941971D01*
X233125253Y-111828144D01*
X233372569Y-111662893D01*
X233582893Y-111452569D01*
X233748144Y-111205253D01*
X233861971Y-110930451D01*
X233920000Y-110638722D01*
X233920000Y-110341278D01*
X233861971Y-110049549D01*
X233748144Y-109774747D01*
X233582893Y-109527431D01*
X233372569Y-109317107D01*
X233125253Y-109151856D01*
X232850451Y-109038029D01*
X232558722Y-108980000D01*
X232261278Y-108980000D01*
X231969549Y-109038029D01*
X231694747Y-109151856D01*
X231447431Y-109317107D01*
X231237107Y-109527431D01*
X231071856Y-109774747D01*
X230958029Y-110049549D01*
X230900000Y-110341278D01*
X229958900Y-110341278D01*
X229958900Y-110231076D01*
X229857873Y-109723178D01*
X229659701Y-109244749D01*
X229372000Y-108814174D01*
X229005826Y-108448000D01*
X228575251Y-108160299D01*
X228096822Y-107962127D01*
X227588924Y-107861100D01*
X227071076Y-107861100D01*
X226563178Y-107962127D01*
X226084749Y-108160299D01*
X225654174Y-108448000D01*
X225583763Y-108518411D01*
X225655000Y-108160279D01*
X225655000Y-107739721D01*
X225572953Y-107327244D01*
X225412012Y-106938698D01*
X225178363Y-106589017D01*
X224880983Y-106291637D01*
X224531302Y-106057988D01*
X224142756Y-105897047D01*
X223730279Y-105815000D01*
X223309721Y-105815000D01*
X222897244Y-105897047D01*
X222508698Y-106057988D01*
X222159017Y-106291637D01*
X221861637Y-106589017D01*
X221627988Y-106938698D01*
X221467047Y-107327244D01*
X221385000Y-107739721D01*
X221385000Y-108160279D01*
X221467047Y-108572756D01*
X221627988Y-108961302D01*
X221707499Y-109080299D01*
X221534747Y-109151856D01*
X221287431Y-109317107D01*
X221077107Y-109527431D01*
X220911856Y-109774747D01*
X220840970Y-109945881D01*
X220799237Y-109867806D01*
X220719885Y-109771115D01*
X220623194Y-109691763D01*
X220512880Y-109632798D01*
X220393182Y-109596488D01*
X220268700Y-109584228D01*
X218668700Y-109584228D01*
X218666600Y-109584435D01*
X218666600Y-99330265D01*
X218694027Y-99468151D01*
X218772048Y-99656509D01*
X218885316Y-99826027D01*
X219029479Y-99970190D01*
X219198997Y-100083458D01*
X219387355Y-100161479D01*
X219587314Y-100201253D01*
X219791192Y-100201253D01*
X219991151Y-100161479D01*
X220179509Y-100083458D01*
X220349027Y-99970190D01*
X220493190Y-99826027D01*
X220606458Y-99656509D01*
X220684479Y-99468151D01*
X220724253Y-99268192D01*
X220724253Y-99064314D01*
X220684479Y-98864355D01*
X220606458Y-98675997D01*
X220493190Y-98506479D01*
X220349027Y-98362316D01*
X220179509Y-98249048D01*
X219991151Y-98171027D01*
X219791192Y-98131253D01*
X219729055Y-98131253D01*
X219686247Y-98088446D01*
X219686247Y-98051708D01*
X219646473Y-97851749D01*
X219568452Y-97663391D01*
X219455184Y-97493873D01*
X219311021Y-97349710D01*
X219141503Y-97236442D01*
X218953145Y-97158421D01*
X218753186Y-97118647D01*
X218666600Y-97118647D01*
X218666600Y-91653201D01*
X218989103Y-91330699D01*
X219018101Y-91306901D01*
X219069850Y-91243845D01*
X219113074Y-91191177D01*
X219183646Y-91059147D01*
X219198692Y-91009546D01*
X219227103Y-90915886D01*
X219238100Y-90804233D01*
X219238100Y-90804224D01*
X219241776Y-90766901D01*
X219238100Y-90729578D01*
X219238100Y-90434001D01*
X219298700Y-90373402D01*
X219435644Y-90464905D01*
X219624002Y-90542926D01*
X219823961Y-90582700D01*
X220027839Y-90582700D01*
X220227798Y-90542926D01*
X220416156Y-90464905D01*
X220585674Y-90351637D01*
X220729837Y-90207474D01*
X220843105Y-90037956D01*
X220921126Y-89849598D01*
X220960900Y-89649639D01*
X220960900Y-89445761D01*
X220921126Y-89245802D01*
X220843105Y-89057444D01*
X220820059Y-89022952D01*
X220884750Y-89022500D01*
X221043500Y-88863750D01*
X221043500Y-87927000D01*
X219969250Y-87927000D01*
X219810500Y-88085750D01*
X219807428Y-88387500D01*
X219819688Y-88511982D01*
X219820137Y-88513461D01*
X219624002Y-88552474D01*
X219435644Y-88630495D01*
X219266126Y-88743763D01*
X219222189Y-88787700D01*
X219086922Y-88787700D01*
X219049599Y-88784024D01*
X219012276Y-88787700D01*
X219012267Y-88787700D01*
X218900614Y-88798697D01*
X218768789Y-88838685D01*
X218757353Y-88842154D01*
X218692000Y-88877086D01*
X218692000Y-84835233D01*
X218695677Y-84797900D01*
X218691052Y-84750937D01*
X218681003Y-84648914D01*
X218637546Y-84505653D01*
X218566974Y-84373624D01*
X218472001Y-84257899D01*
X218443003Y-84234101D01*
X217983472Y-83774570D01*
X218028618Y-83760875D01*
X218160647Y-83690303D01*
X218276372Y-83595330D01*
X218300175Y-83566326D01*
X219867572Y-81998930D01*
X219874892Y-82073255D01*
%TA.AperFunction,Conductor*%
D22*
G36*
X219874892Y-82073255D02*
G01*
X219925428Y-82239851D01*
X220007495Y-82393387D01*
X220074176Y-82474637D01*
X220044715Y-82498815D01*
X219965363Y-82595506D01*
X219906398Y-82705820D01*
X219870088Y-82825518D01*
X219857828Y-82950000D01*
X219860900Y-83264250D01*
X220019650Y-83423000D01*
X221068900Y-83423000D01*
X221068900Y-83403000D01*
X221322900Y-83403000D01*
X221322900Y-83423000D01*
X221342900Y-83423000D01*
X221342900Y-83677000D01*
X221322900Y-83677000D01*
X221322900Y-83697000D01*
X221068900Y-83697000D01*
X221068900Y-83677000D01*
X220019650Y-83677000D01*
X219860900Y-83835750D01*
X219857828Y-84150000D01*
X219870088Y-84274482D01*
X219906398Y-84394180D01*
X219965363Y-84504494D01*
X220044715Y-84601185D01*
X220141406Y-84680537D01*
X220154968Y-84687786D01*
X220067538Y-84759538D01*
X219957095Y-84894114D01*
X219875028Y-85047650D01*
X219824492Y-85214246D01*
X219807428Y-85387500D01*
X219807428Y-86062500D01*
X219824492Y-86235754D01*
X219875028Y-86402350D01*
X219957095Y-86555886D01*
X220067538Y-86690462D01*
X220074094Y-86695842D01*
X219994315Y-86761315D01*
X219914963Y-86858006D01*
X219855998Y-86968320D01*
X219819688Y-87088018D01*
X219807428Y-87212500D01*
X219810500Y-87514250D01*
X219969250Y-87673000D01*
X221043500Y-87673000D01*
X221043500Y-87653000D01*
X221297500Y-87653000D01*
X221297500Y-87673000D01*
X221317500Y-87673000D01*
X221317500Y-87927000D01*
X221297500Y-87927000D01*
X221297500Y-88863750D01*
X221456250Y-89022500D01*
X221895500Y-89025572D01*
X222019982Y-89013312D01*
X222139680Y-88977002D01*
X222249994Y-88918037D01*
X222346685Y-88838685D01*
X222426037Y-88741994D01*
X222485002Y-88631680D01*
X222521312Y-88511982D01*
X222533572Y-88387500D01*
X222531262Y-88160564D01*
X222544101Y-88173403D01*
X222544100Y-89434177D01*
X222540424Y-89471500D01*
X222544100Y-89508822D01*
X222544100Y-89508832D01*
X222555097Y-89620485D01*
X222594594Y-89750692D01*
X222598554Y-89763746D01*
X222669126Y-89895776D01*
X222697213Y-89930000D01*
X222764099Y-90011501D01*
X222793103Y-90035304D01*
X224030001Y-91272203D01*
X224030000Y-93194173D01*
X224000149Y-93203228D01*
X223846613Y-93285295D01*
X223712038Y-93395738D01*
X223601595Y-93530313D01*
X223519528Y-93683849D01*
X223468992Y-93850445D01*
X223451928Y-94023699D01*
X223451928Y-94723701D01*
X223468992Y-94896955D01*
X223519528Y-95063551D01*
X223601595Y-95217087D01*
X223712038Y-95351662D01*
X223738891Y-95373700D01*
X223712038Y-95395738D01*
X223601595Y-95530313D01*
X223519528Y-95683849D01*
X223468992Y-95850445D01*
X223451928Y-96023699D01*
X223451928Y-96723701D01*
X223467150Y-96878248D01*
X221206600Y-94617699D01*
X221206600Y-92504101D01*
X221388101Y-92322600D01*
X221450239Y-92322600D01*
X221650198Y-92282826D01*
X221838556Y-92204805D01*
X222008074Y-92091537D01*
X222152237Y-91947374D01*
X222265505Y-91777856D01*
X222343526Y-91589498D01*
X222383300Y-91389539D01*
X222383300Y-91185661D01*
X222343526Y-90985702D01*
X222265505Y-90797344D01*
X222152237Y-90627826D01*
X222008074Y-90483663D01*
X221838556Y-90370395D01*
X221650198Y-90292374D01*
X221450239Y-90252600D01*
X221246361Y-90252600D01*
X221046402Y-90292374D01*
X220858044Y-90370395D01*
X220688526Y-90483663D01*
X220544363Y-90627826D01*
X220431095Y-90797344D01*
X220353074Y-90985702D01*
X220313300Y-91185661D01*
X220313300Y-91247799D01*
X219935602Y-91625497D01*
X219906599Y-91649299D01*
X219865666Y-91699177D01*
X219811626Y-91765024D01*
X219757813Y-91865701D01*
X219741054Y-91897054D01*
X219697597Y-92040315D01*
X219686600Y-92151968D01*
X219686600Y-92151978D01*
X219682924Y-92189300D01*
X219686600Y-92226623D01*
X219686601Y-94895168D01*
X219682924Y-94932500D01*
X219686601Y-94969833D01*
X219689255Y-94996774D01*
X219697598Y-95081485D01*
X219741054Y-95224746D01*
X219811626Y-95356776D01*
X219843602Y-95395738D01*
X219906600Y-95472501D01*
X219935598Y-95496299D01*
X227667901Y-103228603D01*
X227691699Y-103257601D01*
X227720697Y-103281399D01*
X227807423Y-103352574D01*
X227939453Y-103423146D01*
X228082714Y-103466603D01*
X228194367Y-103477600D01*
X228194377Y-103477600D01*
X228231699Y-103481276D01*
X228269022Y-103477600D01*
X228956203Y-103477600D01*
X228858698Y-103517988D01*
X228509017Y-103751637D01*
X228211637Y-104049017D01*
X227977988Y-104398698D01*
X227817047Y-104787244D01*
X227735000Y-105199721D01*
X227735000Y-105620279D01*
X227817047Y-106032756D01*
X227977988Y-106421302D01*
X228211637Y-106770983D01*
X228509017Y-107068363D01*
X228858698Y-107302012D01*
X229247244Y-107462953D01*
X229659721Y-107545000D01*
X230080279Y-107545000D01*
X230492756Y-107462953D01*
X230881302Y-107302012D01*
X231230983Y-107068363D01*
X231528363Y-106770983D01*
X231762012Y-106421302D01*
X231922953Y-106032756D01*
X232005000Y-105620279D01*
X232005000Y-105199721D01*
X231922953Y-104787244D01*
X231762012Y-104398698D01*
X231528363Y-104049017D01*
X231230983Y-103751637D01*
X230881302Y-103517988D01*
X230783797Y-103477600D01*
X232036489Y-103477600D01*
X232080426Y-103521537D01*
X232249944Y-103634805D01*
X232438302Y-103712826D01*
X232638261Y-103752600D01*
X232842139Y-103752600D01*
X233042098Y-103712826D01*
X233230456Y-103634805D01*
X233399974Y-103521537D01*
X233544137Y-103377374D01*
X233657405Y-103207856D01*
X233735426Y-103019498D01*
X233775200Y-102819539D01*
X233775200Y-102615661D01*
X233735426Y-102415702D01*
X233657405Y-102227344D01*
X233544137Y-102057826D01*
X233399974Y-101913663D01*
X233230456Y-101800395D01*
X233042098Y-101722374D01*
X232842139Y-101682600D01*
X232638261Y-101682600D01*
X232438302Y-101722374D01*
X232249944Y-101800395D01*
X232080426Y-101913663D01*
X232036489Y-101957600D01*
X228546502Y-101957600D01*
X225503902Y-98915000D01*
X227365928Y-98915000D01*
X227378188Y-99039482D01*
X227414498Y-99159180D01*
X227473463Y-99269494D01*
X227552815Y-99366185D01*
X227649506Y-99445537D01*
X227759820Y-99504502D01*
X227879518Y-99540812D01*
X228004000Y-99553072D01*
X228568250Y-99550000D01*
X228727000Y-99391250D01*
X228727000Y-98542000D01*
X228981000Y-98542000D01*
X228981000Y-99391250D01*
X229139750Y-99550000D01*
X229704000Y-99553072D01*
X229828482Y-99540812D01*
X229948180Y-99504502D01*
X230058494Y-99445537D01*
X230155185Y-99366185D01*
X230234537Y-99269494D01*
X230293502Y-99159180D01*
X230329812Y-99039482D01*
X230342072Y-98915000D01*
X233665928Y-98915000D01*
X233678188Y-99039482D01*
X233714498Y-99159180D01*
X233773463Y-99269494D01*
X233852815Y-99366185D01*
X233949506Y-99445537D01*
X234059820Y-99504502D01*
X234179518Y-99540812D01*
X234304000Y-99553072D01*
X234868250Y-99550000D01*
X235027000Y-99391250D01*
X235027000Y-98542000D01*
X235281000Y-98542000D01*
X235281000Y-99391250D01*
X235439750Y-99550000D01*
X236004000Y-99553072D01*
X236128482Y-99540812D01*
X236248180Y-99504502D01*
X236358494Y-99445537D01*
X236455185Y-99366185D01*
X236534537Y-99269494D01*
X236593502Y-99159180D01*
X236629812Y-99039482D01*
X236642072Y-98915000D01*
X236639000Y-98700750D01*
X236480250Y-98542000D01*
X235281000Y-98542000D01*
X235027000Y-98542000D01*
X233827750Y-98542000D01*
X233669000Y-98700750D01*
X233665928Y-98915000D01*
X230342072Y-98915000D01*
X230339000Y-98700750D01*
X230180250Y-98542000D01*
X228981000Y-98542000D01*
X228727000Y-98542000D01*
X227527750Y-98542000D01*
X227369000Y-98700750D01*
X227365928Y-98915000D01*
X225503902Y-98915000D01*
X224503902Y-97915000D01*
X227365928Y-97915000D01*
X227369000Y-98129250D01*
X227527750Y-98288000D01*
X228727000Y-98288000D01*
X228727000Y-97438750D01*
X228981000Y-97438750D01*
X228981000Y-98288000D01*
X230180250Y-98288000D01*
X230339000Y-98129250D01*
X230342072Y-97915000D01*
X233665928Y-97915000D01*
X233669000Y-98129250D01*
X233827750Y-98288000D01*
X235027000Y-98288000D01*
X235027000Y-97438750D01*
X235281000Y-97438750D01*
X235281000Y-98288000D01*
X236480250Y-98288000D01*
X236639000Y-98129250D01*
X236642072Y-97915000D01*
X236629812Y-97790518D01*
X236593502Y-97670820D01*
X236534537Y-97560506D01*
X236455185Y-97463815D01*
X236358494Y-97384463D01*
X236248180Y-97325498D01*
X236128482Y-97289188D01*
X236004000Y-97276928D01*
X235439750Y-97280000D01*
X235281000Y-97438750D01*
X235027000Y-97438750D01*
X234868250Y-97280000D01*
X234304000Y-97276928D01*
X234179518Y-97289188D01*
X234059820Y-97325498D01*
X233949506Y-97384463D01*
X233852815Y-97463815D01*
X233773463Y-97560506D01*
X233714498Y-97670820D01*
X233678188Y-97790518D01*
X233665928Y-97915000D01*
X230342072Y-97915000D01*
X230329812Y-97790518D01*
X230293502Y-97670820D01*
X230234537Y-97560506D01*
X230155185Y-97463815D01*
X230058494Y-97384463D01*
X229948180Y-97325498D01*
X229828482Y-97289188D01*
X229704000Y-97276928D01*
X229139750Y-97280000D01*
X228981000Y-97438750D01*
X228727000Y-97438750D01*
X228568250Y-97280000D01*
X228004000Y-97276928D01*
X227879518Y-97289188D01*
X227759820Y-97325498D01*
X227649506Y-97384463D01*
X227552815Y-97463815D01*
X227473463Y-97560506D01*
X227414498Y-97670820D01*
X227378188Y-97790518D01*
X227365928Y-97915000D01*
X224503902Y-97915000D01*
X224185452Y-97596550D01*
X224339999Y-97611772D01*
X225240001Y-97611772D01*
X225413255Y-97594708D01*
X225579851Y-97544172D01*
X225733387Y-97462105D01*
X225867962Y-97351662D01*
X225978405Y-97217087D01*
X226022976Y-97133700D01*
X227057978Y-97133700D01*
X227095300Y-97137376D01*
X227132622Y-97133700D01*
X227132633Y-97133700D01*
X227244286Y-97122703D01*
X227387547Y-97079246D01*
X227519576Y-97008674D01*
X227635301Y-96913701D01*
X227659103Y-96884698D01*
X228790730Y-95753072D01*
X229704000Y-95753072D01*
X229828482Y-95740812D01*
X229948180Y-95704502D01*
X230058494Y-95645537D01*
X230155185Y-95566185D01*
X230234537Y-95469494D01*
X230285046Y-95375000D01*
X233722954Y-95375000D01*
X233773463Y-95469494D01*
X233852815Y-95566185D01*
X233949506Y-95645537D01*
X234059820Y-95704502D01*
X234179518Y-95740812D01*
X234304000Y-95753072D01*
X236004000Y-95753072D01*
X236128482Y-95740812D01*
X236248180Y-95704502D01*
X236358494Y-95645537D01*
X236455185Y-95566185D01*
X236534537Y-95469494D01*
X236593502Y-95359180D01*
X236629812Y-95239482D01*
X236642072Y-95115000D01*
X236642072Y-94115000D01*
X236629812Y-93990518D01*
X236593502Y-93870820D01*
X236534537Y-93760506D01*
X236455185Y-93663815D01*
X236358494Y-93584463D01*
X236294281Y-93550140D01*
X236324405Y-93505056D01*
X236402426Y-93316698D01*
X236442200Y-93116739D01*
X236442200Y-92912861D01*
X236402426Y-92712902D01*
X236324405Y-92524544D01*
X236211137Y-92355026D01*
X236066974Y-92210863D01*
X235897456Y-92097595D01*
X235709098Y-92019574D01*
X235509139Y-91979800D01*
X235305261Y-91979800D01*
X235105302Y-92019574D01*
X234916944Y-92097595D01*
X234747426Y-92210863D01*
X234603263Y-92355026D01*
X234489995Y-92524544D01*
X234411974Y-92712902D01*
X234372200Y-92912861D01*
X234372200Y-93116739D01*
X234411974Y-93316698D01*
X234478344Y-93476928D01*
X234304000Y-93476928D01*
X234179518Y-93489188D01*
X234059820Y-93525498D01*
X233949506Y-93584463D01*
X233852815Y-93663815D01*
X233773463Y-93760506D01*
X233722954Y-93855000D01*
X232521216Y-93855000D01*
X232600883Y-93789619D01*
X232624686Y-93760615D01*
X233011899Y-93373402D01*
X234381303Y-92003999D01*
X234410301Y-91980201D01*
X234505274Y-91864476D01*
X234575846Y-91732447D01*
X234619303Y-91589186D01*
X234630300Y-91477533D01*
X234633977Y-91440200D01*
X234630300Y-91402867D01*
X234630300Y-90679472D01*
X234945300Y-90679472D01*
X235069782Y-90667212D01*
X235070963Y-90666854D01*
X235184550Y-90676400D01*
X235276633Y-90584317D01*
X235299794Y-90571937D01*
X235396485Y-90492585D01*
X235470300Y-90402641D01*
X235544115Y-90492585D01*
X235640806Y-90571937D01*
X235663967Y-90584317D01*
X235756050Y-90676400D01*
X235869637Y-90666854D01*
X235870818Y-90667212D01*
X235995300Y-90679472D01*
X236545300Y-90679472D01*
X236669782Y-90667212D01*
X236789480Y-90630902D01*
X236899794Y-90571937D01*
X236996485Y-90492585D01*
X237075837Y-90395894D01*
X237134802Y-90285580D01*
X237171112Y-90165882D01*
X237183372Y-90041400D01*
X237183372Y-88541400D01*
X237179338Y-88500438D01*
X237220300Y-88504472D01*
X238720300Y-88504472D01*
X238844782Y-88492212D01*
X238964480Y-88455902D01*
X239074794Y-88396937D01*
X239158253Y-88328444D01*
X239609113Y-88779304D01*
X239560292Y-88940246D01*
X239543228Y-89113500D01*
X239543228Y-89788500D01*
X239560292Y-89961754D01*
X239610828Y-90128350D01*
X239692895Y-90281886D01*
X239803338Y-90416462D01*
X239937914Y-90526905D01*
X240091450Y-90608972D01*
X240258046Y-90659508D01*
X240431300Y-90676572D01*
X241381300Y-90676572D01*
X241554554Y-90659508D01*
X241721150Y-90608972D01*
X241874686Y-90526905D01*
X241910001Y-90497923D01*
X241910001Y-93921599D01*
X241800303Y-93811902D01*
X241776501Y-93782899D01*
X241660776Y-93687926D01*
X241528747Y-93617354D01*
X241489097Y-93605327D01*
X241467172Y-93533049D01*
X241385105Y-93379513D01*
X241274662Y-93244938D01*
X241140087Y-93134495D01*
X240986551Y-93052428D01*
X240819955Y-93001892D01*
X240646701Y-92984828D01*
X240201400Y-92984828D01*
X240201400Y-92849361D01*
X240161626Y-92649402D01*
X240083605Y-92461044D01*
X239970337Y-92291526D01*
X239826174Y-92147363D01*
X239656656Y-92034095D01*
X239468298Y-91956074D01*
X239268339Y-91916300D01*
X239064461Y-91916300D01*
X238864502Y-91956074D01*
X238676144Y-92034095D01*
X238506626Y-92147363D01*
X238362463Y-92291526D01*
X238249195Y-92461044D01*
X238171174Y-92649402D01*
X238131400Y-92849361D01*
X238131400Y-92984828D01*
X237946699Y-92984828D01*
X237773445Y-93001892D01*
X237606849Y-93052428D01*
X237453313Y-93134495D01*
X237318738Y-93244938D01*
X237208295Y-93379513D01*
X237126228Y-93533049D01*
X237075692Y-93699645D01*
X237058628Y-93872899D01*
X237058628Y-94772901D01*
X237075692Y-94946155D01*
X237126228Y-95112751D01*
X237208295Y-95266287D01*
X237318738Y-95400862D01*
X237453313Y-95511305D01*
X237606849Y-95593372D01*
X237773445Y-95643908D01*
X237946699Y-95660972D01*
X238646701Y-95660972D01*
X238819955Y-95643908D01*
X238986551Y-95593372D01*
X239140087Y-95511305D01*
X239274662Y-95400862D01*
X239296700Y-95374009D01*
X239318738Y-95400862D01*
X239453313Y-95511305D01*
X239606849Y-95593372D01*
X239773445Y-95643908D01*
X239946699Y-95660972D01*
X240646701Y-95660972D01*
X240819955Y-95643908D01*
X240986551Y-95593372D01*
X241098800Y-95533373D01*
X241098800Y-98013132D01*
X241019187Y-97947795D01*
X240865651Y-97865728D01*
X240699055Y-97815192D01*
X240525801Y-97798128D01*
X239947400Y-97798128D01*
X239947400Y-97738861D01*
X239907626Y-97538902D01*
X239829605Y-97350544D01*
X239716337Y-97181026D01*
X239572174Y-97036863D01*
X239402656Y-96923595D01*
X239214298Y-96845574D01*
X239014339Y-96805800D01*
X238810461Y-96805800D01*
X238610502Y-96845574D01*
X238422144Y-96923595D01*
X238252626Y-97036863D01*
X238108463Y-97181026D01*
X237995195Y-97350544D01*
X237917174Y-97538902D01*
X237877400Y-97738861D01*
X237877400Y-97798128D01*
X237825799Y-97798128D01*
X237652545Y-97815192D01*
X237485949Y-97865728D01*
X237332413Y-97947795D01*
X237197838Y-98058238D01*
X237087395Y-98192813D01*
X237005328Y-98346349D01*
X236954792Y-98512945D01*
X236937728Y-98686199D01*
X236937728Y-99586201D01*
X236954792Y-99759455D01*
X237005328Y-99926051D01*
X237087395Y-100079587D01*
X237197838Y-100214162D01*
X237332413Y-100324605D01*
X237485949Y-100406672D01*
X237652545Y-100457208D01*
X237825799Y-100474272D01*
X238181854Y-100474272D01*
X238147595Y-100525544D01*
X238069574Y-100713902D01*
X238029800Y-100913861D01*
X238029800Y-101117739D01*
X238069574Y-101317698D01*
X238147595Y-101506056D01*
X238260863Y-101675574D01*
X238405026Y-101819737D01*
X238574544Y-101933005D01*
X238762902Y-102011026D01*
X238962861Y-102050800D01*
X239166739Y-102050800D01*
X239366698Y-102011026D01*
X239555056Y-101933005D01*
X239724574Y-101819737D01*
X239868737Y-101675574D01*
X239982005Y-101506056D01*
X240060026Y-101317698D01*
X240099800Y-101117739D01*
X240099800Y-100913861D01*
X240060026Y-100713902D01*
X239982005Y-100525544D01*
X239947746Y-100474272D01*
X240525801Y-100474272D01*
X240699055Y-100457208D01*
X240865651Y-100406672D01*
X241019187Y-100324605D01*
X241098801Y-100259268D01*
X241098801Y-101132797D01*
X238673799Y-103557800D01*
X236841522Y-103557800D01*
X236804199Y-103554124D01*
X236766876Y-103557800D01*
X236766867Y-103557800D01*
X236655214Y-103568797D01*
X236511953Y-103612254D01*
X236379924Y-103682826D01*
X236264199Y-103777799D01*
X236240400Y-103806798D01*
X235836002Y-104211197D01*
X235806999Y-104234999D01*
X235751871Y-104302174D01*
X235712026Y-104350724D01*
X235665162Y-104438400D01*
X235641454Y-104482754D01*
X235597997Y-104626015D01*
X235587000Y-104737668D01*
X235587000Y-104737678D01*
X235583324Y-104775000D01*
X235587000Y-104812322D01*
X235587001Y-118099997D01*
X235066999Y-118620000D01*
X220915723Y-118620000D01*
X220891091Y-118617574D01*
X220848553Y-118403726D01*
X220740380Y-118142573D01*
X220583337Y-117907541D01*
X220383459Y-117707663D01*
X220148427Y-117550620D01*
X219887274Y-117442447D01*
X219610035Y-117387300D01*
X219327365Y-117387300D01*
X219050126Y-117442447D01*
X218788973Y-117550620D01*
X218553941Y-117707663D01*
X218354063Y-117907541D01*
X218197020Y-118142573D01*
X218088847Y-118403726D01*
X218033700Y-118680965D01*
X218033700Y-118963635D01*
X218046826Y-119029624D01*
X213887000Y-114869799D01*
X213887000Y-114807661D01*
X213847226Y-114607702D01*
X213769205Y-114419344D01*
X213655937Y-114249826D01*
X213511774Y-114105663D01*
X213342256Y-113992395D01*
X213153898Y-113914374D01*
X212953939Y-113874600D01*
X212750061Y-113874600D01*
X212550102Y-113914374D01*
X212361744Y-113992395D01*
X212192226Y-114105663D01*
X212048063Y-114249826D01*
X211934795Y-114419344D01*
X211856774Y-114607702D01*
X211817000Y-114807661D01*
X211817000Y-115011539D01*
X211856774Y-115211498D01*
X211934795Y-115399856D01*
X212048063Y-115569374D01*
X212192226Y-115713537D01*
X212361744Y-115826805D01*
X212550102Y-115904826D01*
X212750061Y-115944600D01*
X212812199Y-115944600D01*
X217203199Y-120335601D01*
X200958400Y-120335601D01*
X200958400Y-120268662D01*
X200918626Y-120068703D01*
X200913554Y-120056457D01*
X201098427Y-119979880D01*
X201333459Y-119822837D01*
X201533337Y-119622959D01*
X201690380Y-119387927D01*
X201798553Y-119126774D01*
X201853700Y-118849535D01*
X201853700Y-118566865D01*
X201798553Y-118289626D01*
X201690380Y-118028473D01*
X201533337Y-117793441D01*
X201333459Y-117593563D01*
X201098427Y-117436520D01*
X200837274Y-117328347D01*
X200560035Y-117273200D01*
X200277365Y-117273200D01*
X200000126Y-117328347D01*
X199738973Y-117436520D01*
X199503941Y-117593563D01*
X199304063Y-117793441D01*
X199147020Y-118028473D01*
X199038847Y-118289626D01*
X198983700Y-118566865D01*
X198983700Y-118849535D01*
X199038847Y-119126774D01*
X199147020Y-119387927D01*
X199265577Y-119565360D01*
X199263626Y-119566664D01*
X199119463Y-119710827D01*
X199084602Y-119763000D01*
X182191796Y-119763000D01*
X182280137Y-119674659D01*
X182437180Y-119439627D01*
X182545353Y-119178474D01*
X182600500Y-118901235D01*
X182600500Y-118618565D01*
X182545353Y-118341326D01*
X182437180Y-118080173D01*
X182280137Y-117845141D01*
X182080259Y-117645263D01*
X181845227Y-117488220D01*
X181584074Y-117380047D01*
X181306835Y-117324900D01*
X181024165Y-117324900D01*
X180746926Y-117380047D01*
X180515800Y-117475782D01*
X180515800Y-112397972D01*
X181965500Y-112397972D01*
X182089982Y-112385712D01*
X182209680Y-112349402D01*
X182319994Y-112290437D01*
X182416685Y-112211085D01*
X182496037Y-112114394D01*
X182555002Y-112004080D01*
X182591312Y-111884382D01*
X182603572Y-111759900D01*
X182603572Y-110159900D01*
X182591312Y-110035418D01*
X182555002Y-109915720D01*
X182496037Y-109805406D01*
X182416685Y-109708715D01*
X182319994Y-109629363D01*
X182209680Y-109570398D01*
X182089982Y-109534088D01*
X181965500Y-109521828D01*
X180515800Y-109521828D01*
X180515800Y-105199721D01*
X189635000Y-105199721D01*
X189635000Y-105620279D01*
X189717047Y-106032756D01*
X189877988Y-106421302D01*
X190111637Y-106770983D01*
X190409017Y-107068363D01*
X190758698Y-107302012D01*
X191147244Y-107462953D01*
X191559721Y-107545000D01*
X191980279Y-107545000D01*
X192392756Y-107462953D01*
X192781302Y-107302012D01*
X193130983Y-107068363D01*
X193428363Y-106770983D01*
X193662012Y-106421302D01*
X193822953Y-106032756D01*
X193905000Y-105620279D01*
X193905000Y-105199721D01*
X193822953Y-104787244D01*
X193662012Y-104398698D01*
X193428363Y-104049017D01*
X193130983Y-103751637D01*
X192781302Y-103517988D01*
X192392756Y-103357047D01*
X191980279Y-103275000D01*
X191559721Y-103275000D01*
X191147244Y-103357047D01*
X190758698Y-103517988D01*
X190409017Y-103751637D01*
X190111637Y-104049017D01*
X189877988Y-104398698D01*
X189717047Y-104787244D01*
X189635000Y-105199721D01*
X180515800Y-105199721D01*
X180515800Y-99298601D01*
X188604001Y-91210400D01*
X198790128Y-91210400D01*
X198790128Y-92810400D01*
X198802388Y-92934882D01*
X198838698Y-93054580D01*
X198897663Y-93164894D01*
X198977015Y-93261585D01*
X199073706Y-93340937D01*
X199184020Y-93399902D01*
X199303718Y-93436212D01*
X199428200Y-93448472D01*
X201028200Y-93448472D01*
X201152682Y-93436212D01*
X201272380Y-93399902D01*
X201382694Y-93340937D01*
X201479385Y-93261585D01*
X201558737Y-93164894D01*
X201617702Y-93054580D01*
X201654012Y-92934882D01*
X201666272Y-92810400D01*
X201666272Y-91210400D01*
X201654012Y-91085918D01*
X201617702Y-90966220D01*
X201558737Y-90855906D01*
X201479385Y-90759215D01*
X201382694Y-90679863D01*
X201272380Y-90620898D01*
X201152682Y-90584588D01*
X201028200Y-90572328D01*
X199428200Y-90572328D01*
X199303718Y-90584588D01*
X199184020Y-90620898D01*
X199073706Y-90679863D01*
X198977015Y-90759215D01*
X198897663Y-90855906D01*
X198838698Y-90966220D01*
X198802388Y-91085918D01*
X198790128Y-91210400D01*
X188604001Y-91210400D01*
X191294813Y-88519589D01*
X191868727Y-89093502D01*
X191892525Y-89122501D01*
X192008250Y-89217474D01*
X192140279Y-89288046D01*
X192283540Y-89331503D01*
X192395193Y-89342500D01*
X192395201Y-89342500D01*
X192432526Y-89346176D01*
X192469851Y-89342500D01*
X195796678Y-89342500D01*
X195834000Y-89346176D01*
X195871322Y-89342500D01*
X195871333Y-89342500D01*
X195982986Y-89331503D01*
X196126247Y-89288046D01*
X196258276Y-89217474D01*
X196374001Y-89122501D01*
X196397803Y-89093498D01*
X197322908Y-88168395D01*
X197351901Y-88144601D01*
X197375695Y-88115608D01*
X197375699Y-88115604D01*
X197446873Y-88028877D01*
X197451021Y-88021117D01*
X197517446Y-87896847D01*
X197560903Y-87753586D01*
X197571900Y-87641933D01*
X197571900Y-87641924D01*
X197575576Y-87604601D01*
X197574104Y-87589658D01*
X197601751Y-87581272D01*
X197755287Y-87499205D01*
X197889862Y-87388762D01*
X198000305Y-87254187D01*
X198082372Y-87100651D01*
X198132908Y-86934055D01*
X198149972Y-86760801D01*
X198149972Y-86060799D01*
X198132908Y-85887545D01*
X198082372Y-85720949D01*
X198000305Y-85567413D01*
X197933624Y-85486163D01*
X197963085Y-85461985D01*
X198042437Y-85365294D01*
X198101402Y-85254980D01*
X198137712Y-85135282D01*
X198149972Y-85010800D01*
X198146900Y-84696550D01*
X197988150Y-84537800D01*
X196938900Y-84537800D01*
X196938900Y-84557800D01*
X196684900Y-84557800D01*
X196684900Y-84537800D01*
X196664900Y-84537800D01*
X196664900Y-84283800D01*
X196684900Y-84283800D01*
X196684900Y-84263800D01*
X196938900Y-84263800D01*
X196938900Y-84283800D01*
X197988150Y-84283800D01*
X198146900Y-84125050D01*
X198149928Y-83815329D01*
X206488914Y-83815329D01*
X206483000Y-83845061D01*
X206483000Y-84048939D01*
X206522774Y-84248898D01*
X206600795Y-84437256D01*
X206714063Y-84606774D01*
X206758000Y-84650711D01*
X206758001Y-88455223D01*
X206591479Y-88621745D01*
X206522953Y-88277244D01*
X206362012Y-87888698D01*
X206128363Y-87539017D01*
X205830983Y-87241637D01*
X205481302Y-87007988D01*
X205092756Y-86847047D01*
X204680279Y-86765000D01*
X204259721Y-86765000D01*
X203847244Y-86847047D01*
X203458698Y-87007988D01*
X203109017Y-87241637D01*
X202811637Y-87539017D01*
X202577988Y-87888698D01*
X202417047Y-88277244D01*
X202335000Y-88689721D01*
X202335000Y-89110279D01*
X202417047Y-89522756D01*
X202577988Y-89911302D01*
X202657499Y-90030299D01*
X202484747Y-90101856D01*
X202237431Y-90267107D01*
X202027107Y-90477431D01*
X201861856Y-90724747D01*
X201748029Y-90999549D01*
X201690000Y-91291278D01*
X201690000Y-91588722D01*
X201748029Y-91880451D01*
X201861856Y-92155253D01*
X202027107Y-92402569D01*
X202237431Y-92612893D01*
X202484747Y-92778144D01*
X202759549Y-92891971D01*
X203051278Y-92950000D01*
X203348722Y-92950000D01*
X203640451Y-92891971D01*
X203915253Y-92778144D01*
X204065600Y-92677685D01*
X204065601Y-95587688D01*
X204021663Y-95631626D01*
X203908395Y-95801144D01*
X203830374Y-95989502D01*
X203790600Y-96189461D01*
X203790600Y-96393339D01*
X203830374Y-96593298D01*
X203908395Y-96781656D01*
X204021663Y-96951174D01*
X204165826Y-97095337D01*
X204335344Y-97208605D01*
X204523702Y-97286626D01*
X204723661Y-97326400D01*
X204927539Y-97326400D01*
X205085000Y-97295079D01*
X205085000Y-98705865D01*
X205081638Y-98740000D01*
X205095057Y-98876244D01*
X205134798Y-99007252D01*
X205157861Y-99050400D01*
X201446243Y-99050400D01*
X201342837Y-98895641D01*
X201142959Y-98695763D01*
X200907927Y-98538720D01*
X200646774Y-98430547D01*
X200369535Y-98375400D01*
X200086865Y-98375400D01*
X199809626Y-98430547D01*
X199548473Y-98538720D01*
X199313441Y-98695763D01*
X199113563Y-98895641D01*
X198956520Y-99130673D01*
X198848347Y-99391826D01*
X198793200Y-99669065D01*
X198793200Y-99951735D01*
X198848347Y-100228974D01*
X198956520Y-100490127D01*
X199113563Y-100725159D01*
X199313441Y-100925037D01*
X199548473Y-101082080D01*
X199809626Y-101190253D01*
X200086865Y-101245400D01*
X200369535Y-101245400D01*
X200646774Y-101190253D01*
X200907927Y-101082080D01*
X201142959Y-100925037D01*
X201342837Y-100725159D01*
X201446243Y-100570400D01*
X201617261Y-100570400D01*
X201571595Y-100638744D01*
X201493574Y-100827102D01*
X201453800Y-101027061D01*
X201453800Y-101089197D01*
X197431203Y-105111796D01*
X197402199Y-105135599D01*
X197349941Y-105199276D01*
X197307226Y-105251324D01*
X197273190Y-105315001D01*
X197236654Y-105383354D01*
X197193197Y-105526615D01*
X197182200Y-105638268D01*
X197182200Y-105638278D01*
X197178524Y-105675600D01*
X197182200Y-105712922D01*
X197182201Y-112783488D01*
X197138263Y-112827426D01*
X197024995Y-112996944D01*
X196946974Y-113185302D01*
X196907200Y-113385261D01*
X196907200Y-113540000D01*
X195013711Y-113540000D01*
X194969774Y-113496063D01*
X194800256Y-113382795D01*
X194611898Y-113304774D01*
X194411939Y-113265000D01*
X194208061Y-113265000D01*
X194008102Y-113304774D01*
X193819744Y-113382795D01*
X193650226Y-113496063D01*
X193506063Y-113640226D01*
X193392795Y-113809744D01*
X193314774Y-113998102D01*
X193275000Y-114198061D01*
X193275000Y-114401939D01*
X193314774Y-114601898D01*
X193392795Y-114790256D01*
X193506063Y-114959774D01*
X193560784Y-115014495D01*
X193530893Y-115164768D01*
X193530893Y-115235101D01*
X193497226Y-115276124D01*
X193466357Y-115333876D01*
X193426654Y-115408154D01*
X193383197Y-115551415D01*
X193372200Y-115663068D01*
X193372200Y-115663078D01*
X193368524Y-115700400D01*
X193372200Y-115737722D01*
X193372200Y-116320078D01*
X193368524Y-116357400D01*
X193372200Y-116394722D01*
X193372200Y-116394733D01*
X193383197Y-116506386D01*
X193418111Y-116621484D01*
X193348479Y-116668010D01*
X193204316Y-116812173D01*
X193091048Y-116981691D01*
X193013027Y-117170049D01*
X192973253Y-117370008D01*
X192973253Y-117432146D01*
X192715399Y-117690000D01*
X192425000Y-117690000D01*
X192425000Y-112824135D01*
X192428362Y-112790000D01*
X192414943Y-112653756D01*
X192375202Y-112522748D01*
X192310667Y-112402011D01*
X192223817Y-112296183D01*
X192117989Y-112209333D01*
X191997252Y-112144798D01*
X191866244Y-112105057D01*
X191764135Y-112095000D01*
X191764134Y-112095000D01*
X191730000Y-112091638D01*
X191695865Y-112095000D01*
X191319324Y-112095000D01*
X191559701Y-111735251D01*
X191757873Y-111256822D01*
X191858900Y-110748924D01*
X191858900Y-110341278D01*
X192800000Y-110341278D01*
X192800000Y-110638722D01*
X192858029Y-110930451D01*
X192971856Y-111205253D01*
X193137107Y-111452569D01*
X193347431Y-111662893D01*
X193594747Y-111828144D01*
X193869549Y-111941971D01*
X194161278Y-112000000D01*
X194458722Y-112000000D01*
X194750451Y-111941971D01*
X195025253Y-111828144D01*
X195272569Y-111662893D01*
X195482893Y-111452569D01*
X195648144Y-111205253D01*
X195761971Y-110930451D01*
X195820000Y-110638722D01*
X195820000Y-110341278D01*
X195761971Y-110049549D01*
X195648144Y-109774747D01*
X195482893Y-109527431D01*
X195272569Y-109317107D01*
X195025253Y-109151856D01*
X194750451Y-109038029D01*
X194458722Y-108980000D01*
X194161278Y-108980000D01*
X193869549Y-109038029D01*
X193594747Y-109151856D01*
X193347431Y-109317107D01*
X193137107Y-109527431D01*
X192971856Y-109774747D01*
X192858029Y-110049549D01*
X192800000Y-110341278D01*
X191858900Y-110341278D01*
X191858900Y-110231076D01*
X191757873Y-109723178D01*
X191559701Y-109244749D01*
X191272000Y-108814174D01*
X190905826Y-108448000D01*
X190475251Y-108160299D01*
X189996822Y-107962127D01*
X189488924Y-107861100D01*
X188971076Y-107861100D01*
X188463178Y-107962127D01*
X187984749Y-108160299D01*
X187554174Y-108448000D01*
X187483763Y-108518411D01*
X187555000Y-108160279D01*
X187555000Y-107739721D01*
X187472953Y-107327244D01*
X187312012Y-106938698D01*
X187078363Y-106589017D01*
X186780983Y-106291637D01*
X186431302Y-106057988D01*
X186042756Y-105897047D01*
X185630279Y-105815000D01*
X185209721Y-105815000D01*
X184797244Y-105897047D01*
X184408698Y-106057988D01*
X184059017Y-106291637D01*
X183761637Y-106589017D01*
X183527988Y-106938698D01*
X183367047Y-107327244D01*
X183285000Y-107739721D01*
X183285000Y-108160279D01*
X183367047Y-108572756D01*
X183527988Y-108961302D01*
X183607499Y-109080299D01*
X183434747Y-109151856D01*
X183187431Y-109317107D01*
X182977107Y-109527431D01*
X182811856Y-109774747D01*
X182698029Y-110049549D01*
X182640000Y-110341278D01*
X182640000Y-110638722D01*
X182698029Y-110930451D01*
X182811856Y-111205253D01*
X182977107Y-111452569D01*
X183187431Y-111662893D01*
X183434747Y-111828144D01*
X183709549Y-111941971D01*
X184001278Y-112000000D01*
X184298722Y-112000000D01*
X184590451Y-111941971D01*
X184865253Y-111828144D01*
X185112569Y-111662893D01*
X185322893Y-111452569D01*
X185488144Y-111205253D01*
X185601971Y-110930451D01*
X185660000Y-110638722D01*
X185660000Y-110341278D01*
X185609023Y-110085000D01*
X185630279Y-110085000D01*
X186042756Y-110002953D01*
X186431302Y-109842012D01*
X186737708Y-109637279D01*
X186702127Y-109723178D01*
X186601100Y-110231076D01*
X186601100Y-110748924D01*
X186702127Y-111256822D01*
X186900299Y-111735251D01*
X187140676Y-112095000D01*
X186764135Y-112095000D01*
X186730000Y-112091638D01*
X186695866Y-112095000D01*
X186695865Y-112095000D01*
X186593756Y-112105057D01*
X186462748Y-112144798D01*
X186342011Y-112209333D01*
X186236183Y-112296183D01*
X186149333Y-112402011D01*
X186084798Y-112522748D01*
X186045057Y-112653756D01*
X186031638Y-112790000D01*
X186035001Y-112824145D01*
X186035000Y-117755865D01*
X186031638Y-117790000D01*
X186036356Y-117837899D01*
X185954942Y-117959744D01*
X185876921Y-118148102D01*
X185837147Y-118348061D01*
X185837147Y-118551939D01*
X185876921Y-118751898D01*
X185954942Y-118940256D01*
X186068210Y-119109774D01*
X186212373Y-119253937D01*
X186381891Y-119367205D01*
X186570249Y-119445226D01*
X186770208Y-119485000D01*
X186974086Y-119485000D01*
X187174045Y-119445226D01*
X187362403Y-119367205D01*
X187531921Y-119253937D01*
X187575858Y-119210000D01*
X192992878Y-119210000D01*
X193030200Y-119213676D01*
X193067522Y-119210000D01*
X193067533Y-119210000D01*
X193179186Y-119199003D01*
X193322447Y-119155546D01*
X193454476Y-119084974D01*
X193570201Y-118990001D01*
X193594004Y-118960998D01*
X194048054Y-118506947D01*
X194110192Y-118506947D01*
X194310151Y-118467173D01*
X194498509Y-118389152D01*
X194664314Y-118278365D01*
X194820902Y-118343226D01*
X195020861Y-118383000D01*
X195224739Y-118383000D01*
X195424698Y-118343226D01*
X195613056Y-118265205D01*
X195782574Y-118151937D01*
X195926737Y-118007774D01*
X196040005Y-117838256D01*
X196118026Y-117649898D01*
X196157800Y-117449939D01*
X196157800Y-117246061D01*
X196118026Y-117046102D01*
X196040005Y-116857744D01*
X195926737Y-116688226D01*
X195782574Y-116544063D01*
X195613056Y-116430795D01*
X195424698Y-116352774D01*
X195224739Y-116313000D01*
X195162601Y-116313000D01*
X195040143Y-116190542D01*
X195056149Y-116183912D01*
X195225667Y-116070644D01*
X195369830Y-115926481D01*
X195483098Y-115756963D01*
X195561119Y-115568605D01*
X195600893Y-115368646D01*
X195600893Y-115164768D01*
X195580054Y-115060000D01*
X200345199Y-115060000D01*
X202165000Y-116879803D01*
X202165000Y-116941939D01*
X202204774Y-117141898D01*
X202282795Y-117330256D01*
X202396063Y-117499774D01*
X202540226Y-117643937D01*
X202709744Y-117757205D01*
X202898102Y-117835226D01*
X203098061Y-117875000D01*
X203301939Y-117875000D01*
X203501898Y-117835226D01*
X203690256Y-117757205D01*
X203859774Y-117643937D01*
X204003937Y-117499774D01*
X204117205Y-117330256D01*
X204195226Y-117141898D01*
X204235000Y-116941939D01*
X204235000Y-116738061D01*
X204195226Y-116538102D01*
X204117205Y-116349744D01*
X204003937Y-116180226D01*
X203859774Y-116036063D01*
X203690256Y-115922795D01*
X203501898Y-115844774D01*
X203301939Y-115805000D01*
X203239803Y-115805000D01*
X201223804Y-113789003D01*
X201200001Y-113759999D01*
X201084276Y-113665026D01*
X200952247Y-113594454D01*
X200808986Y-113550997D01*
X200697333Y-113540000D01*
X200697322Y-113540000D01*
X200660000Y-113536324D01*
X200622678Y-113540000D01*
X198977200Y-113540000D01*
X198977200Y-113385261D01*
X198937426Y-113185302D01*
X198859405Y-112996944D01*
X198746137Y-112827426D01*
X198702200Y-112783489D01*
X198702200Y-110108200D01*
X198980628Y-110108200D01*
X198980628Y-111708200D01*
X198992888Y-111832682D01*
X199029198Y-111952380D01*
X199088163Y-112062694D01*
X199167515Y-112159385D01*
X199264206Y-112238737D01*
X199374520Y-112297702D01*
X199494218Y-112334012D01*
X199618700Y-112346272D01*
X201218700Y-112346272D01*
X201343182Y-112334012D01*
X201462880Y-112297702D01*
X201573194Y-112238737D01*
X201669885Y-112159385D01*
X201749237Y-112062694D01*
X201808202Y-111952380D01*
X201844512Y-111832682D01*
X201856772Y-111708200D01*
X201856772Y-111192979D01*
X201861856Y-111205253D01*
X202027107Y-111452569D01*
X202237431Y-111662893D01*
X202484747Y-111828144D01*
X202759549Y-111941971D01*
X203051278Y-112000000D01*
X203348722Y-112000000D01*
X203640451Y-111941971D01*
X203915253Y-111828144D01*
X204162569Y-111662893D01*
X204372893Y-111452569D01*
X204538144Y-111205253D01*
X204651971Y-110930451D01*
X204710000Y-110638722D01*
X204710000Y-110341278D01*
X204659023Y-110085000D01*
X204680279Y-110085000D01*
X205092756Y-110002953D01*
X205481302Y-109842012D01*
X205787708Y-109637279D01*
X205752127Y-109723178D01*
X205651100Y-110231076D01*
X205651100Y-110748924D01*
X205752127Y-111256822D01*
X205950299Y-111735251D01*
X206190676Y-112095000D01*
X205814135Y-112095000D01*
X205780000Y-112091638D01*
X205745866Y-112095000D01*
X205745865Y-112095000D01*
X205643756Y-112105057D01*
X205512748Y-112144798D01*
X205392011Y-112209333D01*
X205286183Y-112296183D01*
X205199333Y-112402011D01*
X205134798Y-112522748D01*
X205095057Y-112653756D01*
X205081638Y-112790000D01*
X205085001Y-112824145D01*
X205085000Y-117755865D01*
X205081638Y-117790000D01*
X205095057Y-117926244D01*
X205134798Y-118057252D01*
X205199333Y-118177989D01*
X205286183Y-118283817D01*
X205392011Y-118370667D01*
X205512748Y-118435202D01*
X205643756Y-118474943D01*
X205780000Y-118488362D01*
X205814134Y-118485000D01*
X210745866Y-118485000D01*
X210780000Y-118488362D01*
X210916244Y-118474943D01*
X211047252Y-118435202D01*
X211167989Y-118370667D01*
X211273817Y-118283817D01*
X211360667Y-118177989D01*
X211425202Y-118057252D01*
X211464943Y-117926244D01*
X211475000Y-117824135D01*
X211475000Y-117824134D01*
X211478362Y-117790000D01*
X211475000Y-117755865D01*
X211475000Y-112824135D01*
X211478362Y-112790000D01*
X211464943Y-112653756D01*
X211425202Y-112522748D01*
X211360667Y-112402011D01*
X211273817Y-112296183D01*
X211167989Y-112209333D01*
X211047252Y-112144798D01*
X210916244Y-112105057D01*
X210814135Y-112095000D01*
X210814134Y-112095000D01*
X210780000Y-112091638D01*
X210745865Y-112095000D01*
X210369324Y-112095000D01*
X210609701Y-111735251D01*
X210807873Y-111256822D01*
X210908900Y-110748924D01*
X210908900Y-110341278D01*
X211850000Y-110341278D01*
X211850000Y-110638722D01*
X211908029Y-110930451D01*
X212021856Y-111205253D01*
X212187107Y-111452569D01*
X212397431Y-111662893D01*
X212644747Y-111828144D01*
X212919549Y-111941971D01*
X213211278Y-112000000D01*
X213508722Y-112000000D01*
X213800451Y-111941971D01*
X214075253Y-111828144D01*
X214322569Y-111662893D01*
X214532893Y-111452569D01*
X214698144Y-111205253D01*
X214811971Y-110930451D01*
X214870000Y-110638722D01*
X214870000Y-110341278D01*
X214811971Y-110049549D01*
X214698144Y-109774747D01*
X214532893Y-109527431D01*
X214322569Y-109317107D01*
X214075253Y-109151856D01*
X213800451Y-109038029D01*
X213508722Y-108980000D01*
X213211278Y-108980000D01*
X212919549Y-109038029D01*
X212644747Y-109151856D01*
X212397431Y-109317107D01*
X212187107Y-109527431D01*
X212021856Y-109774747D01*
X211908029Y-110049549D01*
X211850000Y-110341278D01*
X210908900Y-110341278D01*
X210908900Y-110231076D01*
X210807873Y-109723178D01*
X210609701Y-109244749D01*
X210322000Y-108814174D01*
X209955826Y-108448000D01*
X209525251Y-108160299D01*
X209046822Y-107962127D01*
X208538924Y-107861100D01*
X208021076Y-107861100D01*
X207513178Y-107962127D01*
X207034749Y-108160299D01*
X206604174Y-108448000D01*
X206533763Y-108518411D01*
X206605000Y-108160279D01*
X206605000Y-107739721D01*
X206522953Y-107327244D01*
X206362012Y-106938698D01*
X206128363Y-106589017D01*
X205830983Y-106291637D01*
X205481302Y-106057988D01*
X205092756Y-105897047D01*
X204680279Y-105815000D01*
X204259721Y-105815000D01*
X203847244Y-105897047D01*
X203458698Y-106057988D01*
X203109017Y-106291637D01*
X202811637Y-106589017D01*
X202577988Y-106938698D01*
X202417047Y-107327244D01*
X202335000Y-107739721D01*
X202335000Y-108160279D01*
X202417047Y-108572756D01*
X202577988Y-108961302D01*
X202657499Y-109080299D01*
X202484747Y-109151856D01*
X202237431Y-109317107D01*
X202027107Y-109527431D01*
X201861856Y-109774747D01*
X201815252Y-109887260D01*
X201808202Y-109864020D01*
X201749237Y-109753706D01*
X201669885Y-109657015D01*
X201573194Y-109577663D01*
X201462880Y-109518698D01*
X201343182Y-109482388D01*
X201218700Y-109470128D01*
X199618700Y-109470128D01*
X199494218Y-109482388D01*
X199374520Y-109518698D01*
X199264206Y-109577663D01*
X199167515Y-109657015D01*
X199088163Y-109753706D01*
X199029198Y-109864020D01*
X198992888Y-109983718D01*
X198980628Y-110108200D01*
X198702200Y-110108200D01*
X198702200Y-105990401D01*
X199492880Y-105199721D01*
X208685000Y-105199721D01*
X208685000Y-105620279D01*
X208767047Y-106032756D01*
X208927988Y-106421302D01*
X209161637Y-106770983D01*
X209459017Y-107068363D01*
X209808698Y-107302012D01*
X210197244Y-107462953D01*
X210609721Y-107545000D01*
X211030279Y-107545000D01*
X211442756Y-107462953D01*
X211831302Y-107302012D01*
X212180983Y-107068363D01*
X212478363Y-106770983D01*
X212712012Y-106421302D01*
X212872953Y-106032756D01*
X212955000Y-105620279D01*
X212955000Y-105199721D01*
X212872953Y-104787244D01*
X212712012Y-104398698D01*
X212478363Y-104049017D01*
X212180983Y-103751637D01*
X211831302Y-103517988D01*
X211442756Y-103357047D01*
X211030279Y-103275000D01*
X210609721Y-103275000D01*
X210197244Y-103357047D01*
X209808698Y-103517988D01*
X209459017Y-103751637D01*
X209161637Y-104049017D01*
X208927988Y-104398698D01*
X208767047Y-104787244D01*
X208685000Y-105199721D01*
X199492880Y-105199721D01*
X202528603Y-102164000D01*
X202590739Y-102164000D01*
X202790698Y-102124226D01*
X202979056Y-102046205D01*
X203148574Y-101932937D01*
X203292737Y-101788774D01*
X203406005Y-101619256D01*
X203484026Y-101430898D01*
X203523800Y-101230939D01*
X203523800Y-101027061D01*
X203484026Y-100827102D01*
X203406005Y-100638744D01*
X203360339Y-100570400D01*
X211759478Y-100570400D01*
X211796800Y-100574076D01*
X211834122Y-100570400D01*
X211834133Y-100570400D01*
X211945786Y-100559403D01*
X212089047Y-100515946D01*
X212221076Y-100445374D01*
X212336801Y-100350401D01*
X212360604Y-100321397D01*
X214860601Y-97821401D01*
X214860601Y-102699688D01*
X214816663Y-102743626D01*
X214703395Y-102913144D01*
X214625374Y-103101502D01*
X214585600Y-103301461D01*
X214585600Y-103505339D01*
X214625374Y-103705298D01*
X214703395Y-103893656D01*
X214816663Y-104063174D01*
X214960826Y-104207337D01*
X215130344Y-104320605D01*
X215318702Y-104398626D01*
X215518661Y-104438400D01*
X215722539Y-104438400D01*
X215922498Y-104398626D01*
X216110856Y-104320605D01*
X216280374Y-104207337D01*
X216424537Y-104063174D01*
X216537805Y-103893656D01*
X216615826Y-103705298D01*
X216655600Y-103505339D01*
X216655600Y-103301461D01*
X216615826Y-103101502D01*
X216537805Y-102913144D01*
X216424537Y-102743626D01*
X216380600Y-102699689D01*
X216380600Y-91800811D01*
X216424537Y-91756874D01*
X216513404Y-91623875D01*
X216603544Y-91684105D01*
X216791902Y-91762126D01*
X216991861Y-91801900D01*
X217146600Y-91801900D01*
X217146601Y-115425088D01*
X217102663Y-115469026D01*
X216989395Y-115638544D01*
X216911374Y-115826902D01*
X216871600Y-116026861D01*
X216871600Y-116230739D01*
X216911374Y-116430698D01*
X216989395Y-116619056D01*
X217102663Y-116788574D01*
X217246826Y-116932737D01*
X217416344Y-117046005D01*
X217604702Y-117124026D01*
X217804661Y-117163800D01*
X218008539Y-117163800D01*
X218208498Y-117124026D01*
X218396856Y-117046005D01*
X218566374Y-116932737D01*
X218710537Y-116788574D01*
X218823805Y-116619056D01*
X218901826Y-116430698D01*
X218941600Y-116230739D01*
X218941600Y-116026861D01*
X218901826Y-115826902D01*
X218823805Y-115638544D01*
X218710537Y-115469026D01*
X218666600Y-115425089D01*
X218666600Y-112460165D01*
X218668700Y-112460372D01*
X220268700Y-112460372D01*
X220393182Y-112448112D01*
X220512880Y-112411802D01*
X220623194Y-112352837D01*
X220719885Y-112273485D01*
X220799237Y-112176794D01*
X220858202Y-112066480D01*
X220894512Y-111946782D01*
X220906772Y-111822300D01*
X220906772Y-111192979D01*
X220911856Y-111205253D01*
X221077107Y-111452569D01*
X221287431Y-111662893D01*
X221534747Y-111828144D01*
X221809549Y-111941971D01*
X222101278Y-112000000D01*
X222398722Y-112000000D01*
X222690451Y-111941971D01*
X222965253Y-111828144D01*
X223212569Y-111662893D01*
X223422893Y-111452569D01*
X223588144Y-111205253D01*
X223701971Y-110930451D01*
X223760000Y-110638722D01*
X223760000Y-110341278D01*
X223709023Y-110085000D01*
X223730279Y-110085000D01*
X224142756Y-110002953D01*
X224531302Y-109842012D01*
X224837708Y-109637279D01*
X224802127Y-109723178D01*
X224701100Y-110231076D01*
X224701100Y-110748924D01*
X224802127Y-111256822D01*
X225000299Y-111735251D01*
X225240676Y-112095000D01*
X224864135Y-112095000D01*
X224830000Y-112091638D01*
X224795866Y-112095000D01*
X224795865Y-112095000D01*
X224693756Y-112105057D01*
X224562748Y-112144798D01*
X224442011Y-112209333D01*
X224336183Y-112296183D01*
X224249333Y-112402011D01*
X224184798Y-112522748D01*
X224145057Y-112653756D01*
X224131638Y-112790000D01*
X224135001Y-112824145D01*
X224135000Y-117755865D01*
X224131638Y-117790000D01*
X224145057Y-117926244D01*
X224184798Y-118057252D01*
X224249333Y-118177989D01*
X224336183Y-118283817D01*
X224442011Y-118370667D01*
X224562748Y-118435202D01*
X224693756Y-118474943D01*
X224830000Y-118488362D01*
X224864134Y-118485000D01*
X229795866Y-118485000D01*
X229830000Y-118488362D01*
X229966244Y-118474943D01*
X230097252Y-118435202D01*
X230217989Y-118370667D01*
X230323817Y-118283817D01*
X230410667Y-118177989D01*
X230475202Y-118057252D01*
X230514943Y-117926244D01*
X230525000Y-117824135D01*
X230525000Y-117824134D01*
X230528362Y-117790000D01*
X230525000Y-117755865D01*
X230525000Y-112824135D01*
X230528362Y-112790000D01*
X230514943Y-112653756D01*
X230475202Y-112522748D01*
X230410667Y-112402011D01*
X230323817Y-112296183D01*
X230217989Y-112209333D01*
X230097252Y-112144798D01*
X229966244Y-112105057D01*
X229864135Y-112095000D01*
X229864134Y-112095000D01*
X229830000Y-112091638D01*
X229795865Y-112095000D01*
X229419324Y-112095000D01*
X229659701Y-111735251D01*
X229857873Y-111256822D01*
X229958900Y-110748924D01*
X229958900Y-110341278D01*
X230900000Y-110341278D01*
X230900000Y-110638722D01*
X230958029Y-110930451D01*
X231071856Y-111205253D01*
X231237107Y-111452569D01*
X231447431Y-111662893D01*
X231694747Y-111828144D01*
X231969549Y-111941971D01*
X232261278Y-112000000D01*
X232558722Y-112000000D01*
X232850451Y-111941971D01*
X233125253Y-111828144D01*
X233372569Y-111662893D01*
X233582893Y-111452569D01*
X233748144Y-111205253D01*
X233861971Y-110930451D01*
X233920000Y-110638722D01*
X233920000Y-110341278D01*
X233861971Y-110049549D01*
X233748144Y-109774747D01*
X233582893Y-109527431D01*
X233372569Y-109317107D01*
X233125253Y-109151856D01*
X232850451Y-109038029D01*
X232558722Y-108980000D01*
X232261278Y-108980000D01*
X231969549Y-109038029D01*
X231694747Y-109151856D01*
X231447431Y-109317107D01*
X231237107Y-109527431D01*
X231071856Y-109774747D01*
X230958029Y-110049549D01*
X230900000Y-110341278D01*
X229958900Y-110341278D01*
X229958900Y-110231076D01*
X229857873Y-109723178D01*
X229659701Y-109244749D01*
X229372000Y-108814174D01*
X229005826Y-108448000D01*
X228575251Y-108160299D01*
X228096822Y-107962127D01*
X227588924Y-107861100D01*
X227071076Y-107861100D01*
X226563178Y-107962127D01*
X226084749Y-108160299D01*
X225654174Y-108448000D01*
X225583763Y-108518411D01*
X225655000Y-108160279D01*
X225655000Y-107739721D01*
X225572953Y-107327244D01*
X225412012Y-106938698D01*
X225178363Y-106589017D01*
X224880983Y-106291637D01*
X224531302Y-106057988D01*
X224142756Y-105897047D01*
X223730279Y-105815000D01*
X223309721Y-105815000D01*
X222897244Y-105897047D01*
X222508698Y-106057988D01*
X222159017Y-106291637D01*
X221861637Y-106589017D01*
X221627988Y-106938698D01*
X221467047Y-107327244D01*
X221385000Y-107739721D01*
X221385000Y-108160279D01*
X221467047Y-108572756D01*
X221627988Y-108961302D01*
X221707499Y-109080299D01*
X221534747Y-109151856D01*
X221287431Y-109317107D01*
X221077107Y-109527431D01*
X220911856Y-109774747D01*
X220840970Y-109945881D01*
X220799237Y-109867806D01*
X220719885Y-109771115D01*
X220623194Y-109691763D01*
X220512880Y-109632798D01*
X220393182Y-109596488D01*
X220268700Y-109584228D01*
X218668700Y-109584228D01*
X218666600Y-109584435D01*
X218666600Y-99330265D01*
X218694027Y-99468151D01*
X218772048Y-99656509D01*
X218885316Y-99826027D01*
X219029479Y-99970190D01*
X219198997Y-100083458D01*
X219387355Y-100161479D01*
X219587314Y-100201253D01*
X219791192Y-100201253D01*
X219991151Y-100161479D01*
X220179509Y-100083458D01*
X220349027Y-99970190D01*
X220493190Y-99826027D01*
X220606458Y-99656509D01*
X220684479Y-99468151D01*
X220724253Y-99268192D01*
X220724253Y-99064314D01*
X220684479Y-98864355D01*
X220606458Y-98675997D01*
X220493190Y-98506479D01*
X220349027Y-98362316D01*
X220179509Y-98249048D01*
X219991151Y-98171027D01*
X219791192Y-98131253D01*
X219729055Y-98131253D01*
X219686247Y-98088446D01*
X219686247Y-98051708D01*
X219646473Y-97851749D01*
X219568452Y-97663391D01*
X219455184Y-97493873D01*
X219311021Y-97349710D01*
X219141503Y-97236442D01*
X218953145Y-97158421D01*
X218753186Y-97118647D01*
X218666600Y-97118647D01*
X218666600Y-91653201D01*
X218989103Y-91330699D01*
X219018101Y-91306901D01*
X219069850Y-91243845D01*
X219113074Y-91191177D01*
X219183646Y-91059147D01*
X219198692Y-91009546D01*
X219227103Y-90915886D01*
X219238100Y-90804233D01*
X219238100Y-90804224D01*
X219241776Y-90766901D01*
X219238100Y-90729578D01*
X219238100Y-90434001D01*
X219298700Y-90373402D01*
X219435644Y-90464905D01*
X219624002Y-90542926D01*
X219823961Y-90582700D01*
X220027839Y-90582700D01*
X220227798Y-90542926D01*
X220416156Y-90464905D01*
X220585674Y-90351637D01*
X220729837Y-90207474D01*
X220843105Y-90037956D01*
X220921126Y-89849598D01*
X220960900Y-89649639D01*
X220960900Y-89445761D01*
X220921126Y-89245802D01*
X220843105Y-89057444D01*
X220820059Y-89022952D01*
X220884750Y-89022500D01*
X221043500Y-88863750D01*
X221043500Y-87927000D01*
X219969250Y-87927000D01*
X219810500Y-88085750D01*
X219807428Y-88387500D01*
X219819688Y-88511982D01*
X219820137Y-88513461D01*
X219624002Y-88552474D01*
X219435644Y-88630495D01*
X219266126Y-88743763D01*
X219222189Y-88787700D01*
X219086922Y-88787700D01*
X219049599Y-88784024D01*
X219012276Y-88787700D01*
X219012267Y-88787700D01*
X218900614Y-88798697D01*
X218768789Y-88838685D01*
X218757353Y-88842154D01*
X218692000Y-88877086D01*
X218692000Y-84835233D01*
X218695677Y-84797900D01*
X218691052Y-84750937D01*
X218681003Y-84648914D01*
X218637546Y-84505653D01*
X218566974Y-84373624D01*
X218472001Y-84257899D01*
X218443003Y-84234101D01*
X217983472Y-83774570D01*
X218028618Y-83760875D01*
X218160647Y-83690303D01*
X218276372Y-83595330D01*
X218300175Y-83566326D01*
X219867572Y-81998930D01*
X219874892Y-82073255D01*
G37*
%TD.AperFunction*%
D21*
X233985651Y-87271551D02*
X234009450Y-87300550D01*
X234038454Y-87324353D01*
X234617429Y-87903328D01*
X234395300Y-87903328D01*
X234270818Y-87915588D01*
X234270300Y-87915745D01*
X234269782Y-87915588D01*
X234145300Y-87903328D01*
X233595300Y-87903328D01*
X233470818Y-87915588D01*
X233470300Y-87915745D01*
X233469782Y-87915588D01*
X233345300Y-87903328D01*
X232795300Y-87903328D01*
X232670818Y-87915588D01*
X232670300Y-87915745D01*
X232669782Y-87915588D01*
X232545300Y-87903328D01*
X231995300Y-87903328D01*
X231870818Y-87915588D01*
X231870300Y-87915745D01*
X231869782Y-87915588D01*
X231745300Y-87903328D01*
X231195300Y-87903328D01*
X231070818Y-87915588D01*
X231070300Y-87915745D01*
X231069782Y-87915588D01*
X230945300Y-87903328D01*
X230395300Y-87903328D01*
X230270818Y-87915588D01*
X230270300Y-87915745D01*
X230269782Y-87915588D01*
X230145300Y-87903328D01*
X229595300Y-87903328D01*
X229470818Y-87915588D01*
X229469637Y-87915946D01*
X229356050Y-87906400D01*
X229263967Y-87998483D01*
X229240806Y-88010863D01*
X229144115Y-88090215D01*
X229070300Y-88180159D01*
X229030300Y-88131419D01*
X229030300Y-84820101D01*
X230282252Y-83568151D01*
X233985651Y-87271551D01*
%TA.AperFunction,Conductor*%
D22*
G36*
X233985651Y-87271551D02*
G01*
X234009450Y-87300550D01*
X234038454Y-87324353D01*
X234617429Y-87903328D01*
X234395300Y-87903328D01*
X234270818Y-87915588D01*
X234270300Y-87915745D01*
X234269782Y-87915588D01*
X234145300Y-87903328D01*
X233595300Y-87903328D01*
X233470818Y-87915588D01*
X233470300Y-87915745D01*
X233469782Y-87915588D01*
X233345300Y-87903328D01*
X232795300Y-87903328D01*
X232670818Y-87915588D01*
X232670300Y-87915745D01*
X232669782Y-87915588D01*
X232545300Y-87903328D01*
X231995300Y-87903328D01*
X231870818Y-87915588D01*
X231870300Y-87915745D01*
X231869782Y-87915588D01*
X231745300Y-87903328D01*
X231195300Y-87903328D01*
X231070818Y-87915588D01*
X231070300Y-87915745D01*
X231069782Y-87915588D01*
X230945300Y-87903328D01*
X230395300Y-87903328D01*
X230270818Y-87915588D01*
X230270300Y-87915745D01*
X230269782Y-87915588D01*
X230145300Y-87903328D01*
X229595300Y-87903328D01*
X229470818Y-87915588D01*
X229469637Y-87915946D01*
X229356050Y-87906400D01*
X229263967Y-87998483D01*
X229240806Y-88010863D01*
X229144115Y-88090215D01*
X229070300Y-88180159D01*
X229030300Y-88131419D01*
X229030300Y-84820101D01*
X230282252Y-83568151D01*
X233985651Y-87271551D01*
G37*
%TD.AperFunction*%
D21*
X241071400Y-84997200D02*
X241091400Y-84997200D01*
X241091400Y-85251200D01*
X241071400Y-85251200D01*
X241071400Y-86187950D01*
X241114500Y-86231050D01*
X241033300Y-86312250D01*
X241033300Y-87249000D01*
X241053300Y-87249000D01*
X241053300Y-87503000D01*
X241033300Y-87503000D01*
X241033300Y-87523000D01*
X240779300Y-87523000D01*
X240779300Y-87503000D01*
X240759300Y-87503000D01*
X240759300Y-87249000D01*
X240779300Y-87249000D01*
X240779300Y-86312250D01*
X240736200Y-86269150D01*
X240817400Y-86187950D01*
X240817400Y-85251200D01*
X240797400Y-85251200D01*
X240797400Y-84997200D01*
X240817400Y-84997200D01*
X240817400Y-84977200D01*
X241071400Y-84977200D01*
X241071400Y-84997200D01*
%TA.AperFunction,Conductor*%
D22*
G36*
X241071400Y-84997200D02*
G01*
X241091400Y-84997200D01*
X241091400Y-85251200D01*
X241071400Y-85251200D01*
X241071400Y-86187950D01*
X241114500Y-86231050D01*
X241033300Y-86312250D01*
X241033300Y-87249000D01*
X241053300Y-87249000D01*
X241053300Y-87503000D01*
X241033300Y-87503000D01*
X241033300Y-87523000D01*
X240779300Y-87523000D01*
X240779300Y-87503000D01*
X240759300Y-87503000D01*
X240759300Y-87249000D01*
X240779300Y-87249000D01*
X240779300Y-86312250D01*
X240736200Y-86269150D01*
X240817400Y-86187950D01*
X240817400Y-85251200D01*
X240797400Y-85251200D01*
X240797400Y-84997200D01*
X240817400Y-84997200D01*
X240817400Y-84977200D01*
X241071400Y-84977200D01*
X241071400Y-84997200D01*
G37*
%TD.AperFunction*%
D21*
X194872600Y-86243600D02*
X194892600Y-86243600D01*
X194892600Y-86497600D01*
X194872600Y-86497600D01*
X194872600Y-86517600D01*
X194618600Y-86517600D01*
X194618600Y-86497600D01*
X194072208Y-86497600D01*
X194066120Y-86491512D01*
X194264367Y-86474816D01*
X194340189Y-86296216D01*
X194351136Y-86243600D01*
X194618600Y-86243600D01*
X194618600Y-86223600D01*
X194872600Y-86223600D01*
X194872600Y-86243600D01*
%TA.AperFunction,Conductor*%
D22*
G36*
X194872600Y-86243600D02*
G01*
X194892600Y-86243600D01*
X194892600Y-86497600D01*
X194872600Y-86497600D01*
X194872600Y-86517600D01*
X194618600Y-86517600D01*
X194618600Y-86497600D01*
X194072208Y-86497600D01*
X194066120Y-86491512D01*
X194264367Y-86474816D01*
X194340189Y-86296216D01*
X194351136Y-86243600D01*
X194618600Y-86243600D01*
X194618600Y-86223600D01*
X194872600Y-86223600D01*
X194872600Y-86243600D01*
G37*
%TD.AperFunction*%
D21*
X227538115Y-71783115D02*
X227458763Y-71879806D01*
X227399798Y-71990120D01*
X227363488Y-72109818D01*
X227351228Y-72234300D01*
X227354300Y-72536050D01*
X227513050Y-72694800D01*
X228587300Y-72694800D01*
X228587300Y-72674800D01*
X228841300Y-72674800D01*
X228841300Y-72694800D01*
X229915550Y-72694800D01*
X230074300Y-72536050D01*
X230077372Y-72234300D01*
X230065112Y-72109818D01*
X230028802Y-71990120D01*
X229969837Y-71879806D01*
X229890485Y-71783115D01*
X229886689Y-71780000D01*
X231528368Y-71780000D01*
X231528368Y-71824063D01*
X232270300Y-72565995D01*
X232941521Y-71894774D01*
X232941521Y-71780000D01*
X241910001Y-71780000D01*
X241910001Y-72235627D01*
X241850080Y-72203598D01*
X241730382Y-72167288D01*
X241605900Y-72155028D01*
X241166650Y-72158100D01*
X241007900Y-72316850D01*
X241007900Y-73253600D01*
X241027900Y-73253600D01*
X241027900Y-73507600D01*
X241007900Y-73507600D01*
X241007900Y-73527600D01*
X240753900Y-73527600D01*
X240753900Y-73507600D01*
X239679650Y-73507600D01*
X239520900Y-73666350D01*
X239517828Y-73968100D01*
X239530088Y-74092582D01*
X239566398Y-74212280D01*
X239625363Y-74322594D01*
X239704715Y-74419285D01*
X239784494Y-74484758D01*
X239777938Y-74490138D01*
X239667495Y-74624714D01*
X239585428Y-74778250D01*
X239534892Y-74944846D01*
X239517828Y-75118100D01*
X239517828Y-75743871D01*
X239339099Y-75922600D01*
X237557617Y-75922600D01*
X237570372Y-75793100D01*
X237570372Y-75118100D01*
X237553308Y-74944846D01*
X237502772Y-74778250D01*
X237420705Y-74624714D01*
X237310262Y-74490138D01*
X237303706Y-74484758D01*
X237383485Y-74419285D01*
X237462837Y-74322594D01*
X237521802Y-74212280D01*
X237558112Y-74092582D01*
X237570372Y-73968100D01*
X237567300Y-73666350D01*
X237408550Y-73507600D01*
X236334300Y-73507600D01*
X236334300Y-73527600D01*
X236080300Y-73527600D01*
X236080300Y-73507600D01*
X235006050Y-73507600D01*
X234972415Y-73541235D01*
X234816833Y-73541235D01*
X234206409Y-72930811D01*
X234109718Y-72851459D01*
X234000538Y-72793100D01*
X234844228Y-72793100D01*
X234847300Y-73094850D01*
X235006050Y-73253600D01*
X236080300Y-73253600D01*
X236080300Y-72316850D01*
X236334300Y-72316850D01*
X236334300Y-73253600D01*
X237408550Y-73253600D01*
X237567300Y-73094850D01*
X237570372Y-72793100D01*
X239517828Y-72793100D01*
X239520900Y-73094850D01*
X239679650Y-73253600D01*
X240753900Y-73253600D01*
X240753900Y-72316850D01*
X240595150Y-72158100D01*
X240155900Y-72155028D01*
X240031418Y-72167288D01*
X239911720Y-72203598D01*
X239801406Y-72262563D01*
X239704715Y-72341915D01*
X239625363Y-72438606D01*
X239566398Y-72548920D01*
X239530088Y-72668618D01*
X239517828Y-72793100D01*
X237570372Y-72793100D01*
X237558112Y-72668618D01*
X237521802Y-72548920D01*
X237462837Y-72438606D01*
X237383485Y-72341915D01*
X237286794Y-72262563D01*
X237176480Y-72203598D01*
X237056782Y-72167288D01*
X236932300Y-72155028D01*
X236493050Y-72158100D01*
X236334300Y-72316850D01*
X236080300Y-72316850D01*
X235921550Y-72158100D01*
X235482300Y-72155028D01*
X235357818Y-72167288D01*
X235238120Y-72203598D01*
X235127806Y-72262563D01*
X235031115Y-72341915D01*
X234951763Y-72438606D01*
X234892798Y-72548920D01*
X234856488Y-72668618D01*
X234844228Y-72793100D01*
X234000538Y-72793100D01*
X233999404Y-72792494D01*
X233879706Y-72756184D01*
X233821120Y-72750414D01*
X233815350Y-72691829D01*
X233779041Y-72572131D01*
X233720077Y-72461817D01*
X233640724Y-72365126D01*
X233345633Y-72074379D01*
X233121126Y-72074379D01*
X232449905Y-72745600D01*
X232464048Y-72759743D01*
X232284443Y-72939348D01*
X232270300Y-72925205D01*
X232256158Y-72939348D01*
X232076553Y-72759743D01*
X232090695Y-72745600D01*
X231348763Y-72003668D01*
X231124257Y-72003668D01*
X230899876Y-72223704D01*
X230820523Y-72320395D01*
X230761559Y-72430710D01*
X230759644Y-72437024D01*
X230753328Y-72438940D01*
X230643014Y-72497905D01*
X230546323Y-72577257D01*
X230045165Y-73078415D01*
X229915550Y-72948800D01*
X228841300Y-72948800D01*
X228841300Y-72968800D01*
X228587300Y-72968800D01*
X228587300Y-72948800D01*
X227513050Y-72948800D01*
X227354300Y-73107550D01*
X227351228Y-73409300D01*
X227363488Y-73533782D01*
X227399798Y-73653480D01*
X227458763Y-73763794D01*
X227538115Y-73860485D01*
X227617894Y-73925958D01*
X227611338Y-73931338D01*
X227500895Y-74065914D01*
X227418828Y-74219450D01*
X227368292Y-74386046D01*
X227351228Y-74559300D01*
X227351228Y-75234300D01*
X227368292Y-75407554D01*
X227418828Y-75574150D01*
X227500895Y-75727686D01*
X227611338Y-75862262D01*
X227745914Y-75972705D01*
X227899450Y-76054772D01*
X228066046Y-76105308D01*
X228239300Y-76122372D01*
X229189300Y-76122372D01*
X229362554Y-76105308D01*
X229529150Y-76054772D01*
X229682686Y-75972705D01*
X229817262Y-75862262D01*
X229927705Y-75727686D01*
X230009772Y-75574150D01*
X230060308Y-75407554D01*
X230077372Y-75234300D01*
X230077372Y-74707732D01*
X230308220Y-74938580D01*
X230308220Y-75841985D01*
X230304543Y-75879317D01*
X230308220Y-75916650D01*
X230319217Y-76028303D01*
X230327246Y-76054772D01*
X230362673Y-76171563D01*
X230433245Y-76303593D01*
X230464594Y-76341791D01*
X230528219Y-76419318D01*
X230557217Y-76443116D01*
X230617429Y-76503328D01*
X230395300Y-76503328D01*
X230270818Y-76515588D01*
X230270300Y-76515745D01*
X230269782Y-76515588D01*
X230145300Y-76503328D01*
X229595300Y-76503328D01*
X229470818Y-76515588D01*
X229470300Y-76515745D01*
X229469782Y-76515588D01*
X229345300Y-76503328D01*
X228795300Y-76503328D01*
X228670818Y-76515588D01*
X228670300Y-76515745D01*
X228669782Y-76515588D01*
X228545300Y-76503328D01*
X227995300Y-76503328D01*
X227870818Y-76515588D01*
X227751120Y-76551898D01*
X227640806Y-76610863D01*
X227544115Y-76690215D01*
X227464763Y-76786906D01*
X227405798Y-76897220D01*
X227369488Y-77016918D01*
X227357228Y-77141400D01*
X227357228Y-78641400D01*
X227361272Y-78682464D01*
X227317087Y-78678336D01*
X226856050Y-78681400D01*
X226697300Y-78840150D01*
X226697300Y-79464400D01*
X227796550Y-79464400D01*
X227955300Y-79305650D01*
X227952748Y-79275281D01*
X227995300Y-79279472D01*
X228545300Y-79279472D01*
X228669782Y-79267212D01*
X228670300Y-79267055D01*
X228670818Y-79267212D01*
X228795300Y-79279472D01*
X229345300Y-79279472D01*
X229469782Y-79267212D01*
X229470300Y-79267055D01*
X229470818Y-79267212D01*
X229595300Y-79279472D01*
X230145300Y-79279472D01*
X230269782Y-79267212D01*
X230270300Y-79267055D01*
X230270818Y-79267212D01*
X230395300Y-79279472D01*
X230945300Y-79279472D01*
X231069782Y-79267212D01*
X231070300Y-79267055D01*
X231070818Y-79267212D01*
X231195300Y-79279472D01*
X231745300Y-79279472D01*
X231869782Y-79267212D01*
X231870300Y-79267055D01*
X231870818Y-79267212D01*
X231995300Y-79279472D01*
X232545300Y-79279472D01*
X232669782Y-79267212D01*
X232670300Y-79267055D01*
X232670818Y-79267212D01*
X232795300Y-79279472D01*
X233207426Y-79279472D01*
X232165703Y-80321196D01*
X232136699Y-80344999D01*
X232098620Y-80391399D01*
X232041726Y-80460724D01*
X231987643Y-80561906D01*
X231971154Y-80592754D01*
X231927697Y-80736015D01*
X231916700Y-80847668D01*
X231916700Y-80847678D01*
X231913024Y-80885000D01*
X231916700Y-80922322D01*
X231916700Y-81585578D01*
X231913024Y-81622900D01*
X231916700Y-81660223D01*
X231916701Y-83052997D01*
X230439659Y-81575956D01*
X230439650Y-81575945D01*
X230439646Y-81575941D01*
X230415852Y-81546948D01*
X230386859Y-81523154D01*
X228744105Y-79880402D01*
X228720303Y-79851399D01*
X228604578Y-79756426D01*
X228472549Y-79685854D01*
X228329288Y-79642397D01*
X228217635Y-79631400D01*
X228217624Y-79631400D01*
X228180302Y-79627724D01*
X228142980Y-79631400D01*
X227730281Y-79631400D01*
X227674794Y-79585863D01*
X227564480Y-79526898D01*
X227444782Y-79490588D01*
X227320300Y-79478328D01*
X225820300Y-79478328D01*
X225695818Y-79490588D01*
X225576120Y-79526898D01*
X225465806Y-79585863D01*
X225410319Y-79631400D01*
X222584372Y-79631400D01*
X222584372Y-79305650D01*
X225185300Y-79305650D01*
X225344050Y-79464400D01*
X226443300Y-79464400D01*
X226443300Y-78840150D01*
X226284550Y-78681400D01*
X225823513Y-78678336D01*
X225698971Y-78689970D01*
X225579092Y-78725676D01*
X225468482Y-78784084D01*
X225371392Y-78862949D01*
X225291554Y-78959239D01*
X225232035Y-79069255D01*
X225195123Y-79188769D01*
X225185300Y-79305650D01*
X222584372Y-79305650D01*
X222584372Y-79232900D01*
X222567308Y-79059646D01*
X222516772Y-78893050D01*
X222434705Y-78739514D01*
X222324262Y-78604938D01*
X222317706Y-78599558D01*
X222397485Y-78534085D01*
X222476837Y-78437394D01*
X222535802Y-78327080D01*
X222572112Y-78207382D01*
X222584372Y-78082900D01*
X222581300Y-77781150D01*
X222422550Y-77622400D01*
X221348300Y-77622400D01*
X221348300Y-77642400D01*
X221094300Y-77642400D01*
X221094300Y-77622400D01*
X220020050Y-77622400D01*
X219861300Y-77781150D01*
X219858228Y-78082900D01*
X219870488Y-78207382D01*
X219906798Y-78327080D01*
X219965763Y-78437394D01*
X220045115Y-78534085D01*
X220124894Y-78599558D01*
X220118338Y-78604938D01*
X220007895Y-78739514D01*
X219925828Y-78893050D01*
X219875292Y-79059646D01*
X219858228Y-79232900D01*
X219858228Y-79858670D01*
X217421570Y-82295329D01*
X216226751Y-82295329D01*
X216189429Y-82291653D01*
X216152107Y-82295329D01*
X213618044Y-82295329D01*
X213633000Y-82220139D01*
X213633000Y-82158001D01*
X218883101Y-76907900D01*
X219858228Y-76907900D01*
X219861300Y-77209650D01*
X220020050Y-77368400D01*
X221094300Y-77368400D01*
X221094300Y-76431650D01*
X221348300Y-76431650D01*
X221348300Y-77368400D01*
X222422550Y-77368400D01*
X222581300Y-77209650D01*
X222584372Y-76907900D01*
X222572112Y-76783418D01*
X222535802Y-76663720D01*
X222476837Y-76553406D01*
X222397485Y-76456715D01*
X222300794Y-76377363D01*
X222190480Y-76318398D01*
X222070782Y-76282088D01*
X221946300Y-76269828D01*
X221507050Y-76272900D01*
X221348300Y-76431650D01*
X221094300Y-76431650D01*
X220935550Y-76272900D01*
X220496300Y-76269828D01*
X220371818Y-76282088D01*
X220252120Y-76318398D01*
X220141806Y-76377363D01*
X220045115Y-76456715D01*
X219965763Y-76553406D01*
X219906798Y-76663720D01*
X219870488Y-76783418D01*
X219858228Y-76907900D01*
X218883101Y-76907900D01*
X220085470Y-75705532D01*
X220135638Y-75766662D01*
X220270213Y-75877105D01*
X220423749Y-75959172D01*
X220590345Y-76009708D01*
X220763599Y-76026772D01*
X221463601Y-76026772D01*
X221636855Y-76009708D01*
X221803451Y-75959172D01*
X221956987Y-75877105D01*
X222091562Y-75766662D01*
X222113600Y-75739809D01*
X222135638Y-75766662D01*
X222270213Y-75877105D01*
X222423749Y-75959172D01*
X222590345Y-76009708D01*
X222763599Y-76026772D01*
X223162083Y-76026772D01*
X223085395Y-76141544D01*
X223007374Y-76329902D01*
X222967600Y-76529861D01*
X222967600Y-76733739D01*
X223007374Y-76933698D01*
X223085395Y-77122056D01*
X223198663Y-77291574D01*
X223342826Y-77435737D01*
X223512344Y-77549005D01*
X223700702Y-77627026D01*
X223900661Y-77666800D01*
X224104539Y-77666800D01*
X224304498Y-77627026D01*
X224492856Y-77549005D01*
X224662374Y-77435737D01*
X224806537Y-77291574D01*
X224919805Y-77122056D01*
X224997826Y-76933698D01*
X225037600Y-76733739D01*
X225037600Y-76529861D01*
X224997826Y-76329902D01*
X224919805Y-76141544D01*
X224806537Y-75972026D01*
X224762600Y-75928089D01*
X224762600Y-75615023D01*
X224766276Y-75577700D01*
X224762600Y-75540377D01*
X224762600Y-75540367D01*
X224751603Y-75428714D01*
X224708146Y-75285453D01*
X224637574Y-75153424D01*
X224542601Y-75037699D01*
X224513603Y-75013901D01*
X224351672Y-74851970D01*
X224351672Y-74238699D01*
X224334608Y-74065445D01*
X224284072Y-73898849D01*
X224202005Y-73745313D01*
X224091562Y-73610738D01*
X223956987Y-73500295D01*
X223803451Y-73418228D01*
X223636855Y-73367692D01*
X223463601Y-73350628D01*
X222763599Y-73350628D01*
X222590345Y-73367692D01*
X222423749Y-73418228D01*
X222270213Y-73500295D01*
X222135638Y-73610738D01*
X222113600Y-73637591D01*
X222091562Y-73610738D01*
X221956987Y-73500295D01*
X221803451Y-73418228D01*
X221636855Y-73367692D01*
X221463601Y-73350628D01*
X220763599Y-73350628D01*
X220590345Y-73367692D01*
X220423749Y-73418228D01*
X220270213Y-73500295D01*
X220135638Y-73610738D01*
X220025195Y-73745313D01*
X219943128Y-73898849D01*
X219932345Y-73934395D01*
X219878514Y-73939697D01*
X219735253Y-73983154D01*
X219603224Y-74053726D01*
X219487499Y-74148699D01*
X219463701Y-74177697D01*
X217206103Y-76435295D01*
X221279487Y-71780000D01*
X227541911Y-71780000D01*
X227538115Y-71783115D01*
%TA.AperFunction,Conductor*%
D22*
G36*
X227538115Y-71783115D02*
G01*
X227458763Y-71879806D01*
X227399798Y-71990120D01*
X227363488Y-72109818D01*
X227351228Y-72234300D01*
X227354300Y-72536050D01*
X227513050Y-72694800D01*
X228587300Y-72694800D01*
X228587300Y-72674800D01*
X228841300Y-72674800D01*
X228841300Y-72694800D01*
X229915550Y-72694800D01*
X230074300Y-72536050D01*
X230077372Y-72234300D01*
X230065112Y-72109818D01*
X230028802Y-71990120D01*
X229969837Y-71879806D01*
X229890485Y-71783115D01*
X229886689Y-71780000D01*
X231528368Y-71780000D01*
X231528368Y-71824063D01*
X232270300Y-72565995D01*
X232941521Y-71894774D01*
X232941521Y-71780000D01*
X241910001Y-71780000D01*
X241910001Y-72235627D01*
X241850080Y-72203598D01*
X241730382Y-72167288D01*
X241605900Y-72155028D01*
X241166650Y-72158100D01*
X241007900Y-72316850D01*
X241007900Y-73253600D01*
X241027900Y-73253600D01*
X241027900Y-73507600D01*
X241007900Y-73507600D01*
X241007900Y-73527600D01*
X240753900Y-73527600D01*
X240753900Y-73507600D01*
X239679650Y-73507600D01*
X239520900Y-73666350D01*
X239517828Y-73968100D01*
X239530088Y-74092582D01*
X239566398Y-74212280D01*
X239625363Y-74322594D01*
X239704715Y-74419285D01*
X239784494Y-74484758D01*
X239777938Y-74490138D01*
X239667495Y-74624714D01*
X239585428Y-74778250D01*
X239534892Y-74944846D01*
X239517828Y-75118100D01*
X239517828Y-75743871D01*
X239339099Y-75922600D01*
X237557617Y-75922600D01*
X237570372Y-75793100D01*
X237570372Y-75118100D01*
X237553308Y-74944846D01*
X237502772Y-74778250D01*
X237420705Y-74624714D01*
X237310262Y-74490138D01*
X237303706Y-74484758D01*
X237383485Y-74419285D01*
X237462837Y-74322594D01*
X237521802Y-74212280D01*
X237558112Y-74092582D01*
X237570372Y-73968100D01*
X237567300Y-73666350D01*
X237408550Y-73507600D01*
X236334300Y-73507600D01*
X236334300Y-73527600D01*
X236080300Y-73527600D01*
X236080300Y-73507600D01*
X235006050Y-73507600D01*
X234972415Y-73541235D01*
X234816833Y-73541235D01*
X234206409Y-72930811D01*
X234109718Y-72851459D01*
X234000538Y-72793100D01*
X234844228Y-72793100D01*
X234847300Y-73094850D01*
X235006050Y-73253600D01*
X236080300Y-73253600D01*
X236080300Y-72316850D01*
X236334300Y-72316850D01*
X236334300Y-73253600D01*
X237408550Y-73253600D01*
X237567300Y-73094850D01*
X237570372Y-72793100D01*
X239517828Y-72793100D01*
X239520900Y-73094850D01*
X239679650Y-73253600D01*
X240753900Y-73253600D01*
X240753900Y-72316850D01*
X240595150Y-72158100D01*
X240155900Y-72155028D01*
X240031418Y-72167288D01*
X239911720Y-72203598D01*
X239801406Y-72262563D01*
X239704715Y-72341915D01*
X239625363Y-72438606D01*
X239566398Y-72548920D01*
X239530088Y-72668618D01*
X239517828Y-72793100D01*
X237570372Y-72793100D01*
X237558112Y-72668618D01*
X237521802Y-72548920D01*
X237462837Y-72438606D01*
X237383485Y-72341915D01*
X237286794Y-72262563D01*
X237176480Y-72203598D01*
X237056782Y-72167288D01*
X236932300Y-72155028D01*
X236493050Y-72158100D01*
X236334300Y-72316850D01*
X236080300Y-72316850D01*
X235921550Y-72158100D01*
X235482300Y-72155028D01*
X235357818Y-72167288D01*
X235238120Y-72203598D01*
X235127806Y-72262563D01*
X235031115Y-72341915D01*
X234951763Y-72438606D01*
X234892798Y-72548920D01*
X234856488Y-72668618D01*
X234844228Y-72793100D01*
X234000538Y-72793100D01*
X233999404Y-72792494D01*
X233879706Y-72756184D01*
X233821120Y-72750414D01*
X233815350Y-72691829D01*
X233779041Y-72572131D01*
X233720077Y-72461817D01*
X233640724Y-72365126D01*
X233345633Y-72074379D01*
X233121126Y-72074379D01*
X232449905Y-72745600D01*
X232464048Y-72759743D01*
X232284443Y-72939348D01*
X232270300Y-72925205D01*
X232256158Y-72939348D01*
X232076553Y-72759743D01*
X232090695Y-72745600D01*
X231348763Y-72003668D01*
X231124257Y-72003668D01*
X230899876Y-72223704D01*
X230820523Y-72320395D01*
X230761559Y-72430710D01*
X230759644Y-72437024D01*
X230753328Y-72438940D01*
X230643014Y-72497905D01*
X230546323Y-72577257D01*
X230045165Y-73078415D01*
X229915550Y-72948800D01*
X228841300Y-72948800D01*
X228841300Y-72968800D01*
X228587300Y-72968800D01*
X228587300Y-72948800D01*
X227513050Y-72948800D01*
X227354300Y-73107550D01*
X227351228Y-73409300D01*
X227363488Y-73533782D01*
X227399798Y-73653480D01*
X227458763Y-73763794D01*
X227538115Y-73860485D01*
X227617894Y-73925958D01*
X227611338Y-73931338D01*
X227500895Y-74065914D01*
X227418828Y-74219450D01*
X227368292Y-74386046D01*
X227351228Y-74559300D01*
X227351228Y-75234300D01*
X227368292Y-75407554D01*
X227418828Y-75574150D01*
X227500895Y-75727686D01*
X227611338Y-75862262D01*
X227745914Y-75972705D01*
X227899450Y-76054772D01*
X228066046Y-76105308D01*
X228239300Y-76122372D01*
X229189300Y-76122372D01*
X229362554Y-76105308D01*
X229529150Y-76054772D01*
X229682686Y-75972705D01*
X229817262Y-75862262D01*
X229927705Y-75727686D01*
X230009772Y-75574150D01*
X230060308Y-75407554D01*
X230077372Y-75234300D01*
X230077372Y-74707732D01*
X230308220Y-74938580D01*
X230308220Y-75841985D01*
X230304543Y-75879317D01*
X230308220Y-75916650D01*
X230319217Y-76028303D01*
X230327246Y-76054772D01*
X230362673Y-76171563D01*
X230433245Y-76303593D01*
X230464594Y-76341791D01*
X230528219Y-76419318D01*
X230557217Y-76443116D01*
X230617429Y-76503328D01*
X230395300Y-76503328D01*
X230270818Y-76515588D01*
X230270300Y-76515745D01*
X230269782Y-76515588D01*
X230145300Y-76503328D01*
X229595300Y-76503328D01*
X229470818Y-76515588D01*
X229470300Y-76515745D01*
X229469782Y-76515588D01*
X229345300Y-76503328D01*
X228795300Y-76503328D01*
X228670818Y-76515588D01*
X228670300Y-76515745D01*
X228669782Y-76515588D01*
X228545300Y-76503328D01*
X227995300Y-76503328D01*
X227870818Y-76515588D01*
X227751120Y-76551898D01*
X227640806Y-76610863D01*
X227544115Y-76690215D01*
X227464763Y-76786906D01*
X227405798Y-76897220D01*
X227369488Y-77016918D01*
X227357228Y-77141400D01*
X227357228Y-78641400D01*
X227361272Y-78682464D01*
X227317087Y-78678336D01*
X226856050Y-78681400D01*
X226697300Y-78840150D01*
X226697300Y-79464400D01*
X227796550Y-79464400D01*
X227955300Y-79305650D01*
X227952748Y-79275281D01*
X227995300Y-79279472D01*
X228545300Y-79279472D01*
X228669782Y-79267212D01*
X228670300Y-79267055D01*
X228670818Y-79267212D01*
X228795300Y-79279472D01*
X229345300Y-79279472D01*
X229469782Y-79267212D01*
X229470300Y-79267055D01*
X229470818Y-79267212D01*
X229595300Y-79279472D01*
X230145300Y-79279472D01*
X230269782Y-79267212D01*
X230270300Y-79267055D01*
X230270818Y-79267212D01*
X230395300Y-79279472D01*
X230945300Y-79279472D01*
X231069782Y-79267212D01*
X231070300Y-79267055D01*
X231070818Y-79267212D01*
X231195300Y-79279472D01*
X231745300Y-79279472D01*
X231869782Y-79267212D01*
X231870300Y-79267055D01*
X231870818Y-79267212D01*
X231995300Y-79279472D01*
X232545300Y-79279472D01*
X232669782Y-79267212D01*
X232670300Y-79267055D01*
X232670818Y-79267212D01*
X232795300Y-79279472D01*
X233207426Y-79279472D01*
X232165703Y-80321196D01*
X232136699Y-80344999D01*
X232098620Y-80391399D01*
X232041726Y-80460724D01*
X231987643Y-80561906D01*
X231971154Y-80592754D01*
X231927697Y-80736015D01*
X231916700Y-80847668D01*
X231916700Y-80847678D01*
X231913024Y-80885000D01*
X231916700Y-80922322D01*
X231916700Y-81585578D01*
X231913024Y-81622900D01*
X231916700Y-81660223D01*
X231916701Y-83052997D01*
X230439659Y-81575956D01*
X230439650Y-81575945D01*
X230439646Y-81575941D01*
X230415852Y-81546948D01*
X230386859Y-81523154D01*
X228744105Y-79880402D01*
X228720303Y-79851399D01*
X228604578Y-79756426D01*
X228472549Y-79685854D01*
X228329288Y-79642397D01*
X228217635Y-79631400D01*
X228217624Y-79631400D01*
X228180302Y-79627724D01*
X228142980Y-79631400D01*
X227730281Y-79631400D01*
X227674794Y-79585863D01*
X227564480Y-79526898D01*
X227444782Y-79490588D01*
X227320300Y-79478328D01*
X225820300Y-79478328D01*
X225695818Y-79490588D01*
X225576120Y-79526898D01*
X225465806Y-79585863D01*
X225410319Y-79631400D01*
X222584372Y-79631400D01*
X222584372Y-79305650D01*
X225185300Y-79305650D01*
X225344050Y-79464400D01*
X226443300Y-79464400D01*
X226443300Y-78840150D01*
X226284550Y-78681400D01*
X225823513Y-78678336D01*
X225698971Y-78689970D01*
X225579092Y-78725676D01*
X225468482Y-78784084D01*
X225371392Y-78862949D01*
X225291554Y-78959239D01*
X225232035Y-79069255D01*
X225195123Y-79188769D01*
X225185300Y-79305650D01*
X222584372Y-79305650D01*
X222584372Y-79232900D01*
X222567308Y-79059646D01*
X222516772Y-78893050D01*
X222434705Y-78739514D01*
X222324262Y-78604938D01*
X222317706Y-78599558D01*
X222397485Y-78534085D01*
X222476837Y-78437394D01*
X222535802Y-78327080D01*
X222572112Y-78207382D01*
X222584372Y-78082900D01*
X222581300Y-77781150D01*
X222422550Y-77622400D01*
X221348300Y-77622400D01*
X221348300Y-77642400D01*
X221094300Y-77642400D01*
X221094300Y-77622400D01*
X220020050Y-77622400D01*
X219861300Y-77781150D01*
X219858228Y-78082900D01*
X219870488Y-78207382D01*
X219906798Y-78327080D01*
X219965763Y-78437394D01*
X220045115Y-78534085D01*
X220124894Y-78599558D01*
X220118338Y-78604938D01*
X220007895Y-78739514D01*
X219925828Y-78893050D01*
X219875292Y-79059646D01*
X219858228Y-79232900D01*
X219858228Y-79858670D01*
X217421570Y-82295329D01*
X216226751Y-82295329D01*
X216189429Y-82291653D01*
X216152107Y-82295329D01*
X213618044Y-82295329D01*
X213633000Y-82220139D01*
X213633000Y-82158001D01*
X218883101Y-76907900D01*
X219858228Y-76907900D01*
X219861300Y-77209650D01*
X220020050Y-77368400D01*
X221094300Y-77368400D01*
X221094300Y-76431650D01*
X221348300Y-76431650D01*
X221348300Y-77368400D01*
X222422550Y-77368400D01*
X222581300Y-77209650D01*
X222584372Y-76907900D01*
X222572112Y-76783418D01*
X222535802Y-76663720D01*
X222476837Y-76553406D01*
X222397485Y-76456715D01*
X222300794Y-76377363D01*
X222190480Y-76318398D01*
X222070782Y-76282088D01*
X221946300Y-76269828D01*
X221507050Y-76272900D01*
X221348300Y-76431650D01*
X221094300Y-76431650D01*
X220935550Y-76272900D01*
X220496300Y-76269828D01*
X220371818Y-76282088D01*
X220252120Y-76318398D01*
X220141806Y-76377363D01*
X220045115Y-76456715D01*
X219965763Y-76553406D01*
X219906798Y-76663720D01*
X219870488Y-76783418D01*
X219858228Y-76907900D01*
X218883101Y-76907900D01*
X220085470Y-75705532D01*
X220135638Y-75766662D01*
X220270213Y-75877105D01*
X220423749Y-75959172D01*
X220590345Y-76009708D01*
X220763599Y-76026772D01*
X221463601Y-76026772D01*
X221636855Y-76009708D01*
X221803451Y-75959172D01*
X221956987Y-75877105D01*
X222091562Y-75766662D01*
X222113600Y-75739809D01*
X222135638Y-75766662D01*
X222270213Y-75877105D01*
X222423749Y-75959172D01*
X222590345Y-76009708D01*
X222763599Y-76026772D01*
X223162083Y-76026772D01*
X223085395Y-76141544D01*
X223007374Y-76329902D01*
X222967600Y-76529861D01*
X222967600Y-76733739D01*
X223007374Y-76933698D01*
X223085395Y-77122056D01*
X223198663Y-77291574D01*
X223342826Y-77435737D01*
X223512344Y-77549005D01*
X223700702Y-77627026D01*
X223900661Y-77666800D01*
X224104539Y-77666800D01*
X224304498Y-77627026D01*
X224492856Y-77549005D01*
X224662374Y-77435737D01*
X224806537Y-77291574D01*
X224919805Y-77122056D01*
X224997826Y-76933698D01*
X225037600Y-76733739D01*
X225037600Y-76529861D01*
X224997826Y-76329902D01*
X224919805Y-76141544D01*
X224806537Y-75972026D01*
X224762600Y-75928089D01*
X224762600Y-75615023D01*
X224766276Y-75577700D01*
X224762600Y-75540377D01*
X224762600Y-75540367D01*
X224751603Y-75428714D01*
X224708146Y-75285453D01*
X224637574Y-75153424D01*
X224542601Y-75037699D01*
X224513603Y-75013901D01*
X224351672Y-74851970D01*
X224351672Y-74238699D01*
X224334608Y-74065445D01*
X224284072Y-73898849D01*
X224202005Y-73745313D01*
X224091562Y-73610738D01*
X223956987Y-73500295D01*
X223803451Y-73418228D01*
X223636855Y-73367692D01*
X223463601Y-73350628D01*
X222763599Y-73350628D01*
X222590345Y-73367692D01*
X222423749Y-73418228D01*
X222270213Y-73500295D01*
X222135638Y-73610738D01*
X222113600Y-73637591D01*
X222091562Y-73610738D01*
X221956987Y-73500295D01*
X221803451Y-73418228D01*
X221636855Y-73367692D01*
X221463601Y-73350628D01*
X220763599Y-73350628D01*
X220590345Y-73367692D01*
X220423749Y-73418228D01*
X220270213Y-73500295D01*
X220135638Y-73610738D01*
X220025195Y-73745313D01*
X219943128Y-73898849D01*
X219932345Y-73934395D01*
X219878514Y-73939697D01*
X219735253Y-73983154D01*
X219603224Y-74053726D01*
X219487499Y-74148699D01*
X219463701Y-74177697D01*
X217206103Y-76435295D01*
X221279487Y-71780000D01*
X227541911Y-71780000D01*
X227538115Y-71783115D01*
G37*
%TD.AperFunction*%
D21*
X239876500Y-77539850D02*
X240035250Y-77698600D01*
X241109500Y-77698600D01*
X241109500Y-77678600D01*
X241363500Y-77678600D01*
X241363500Y-77698600D01*
X241383500Y-77698600D01*
X241383500Y-77952600D01*
X241363500Y-77952600D01*
X241363500Y-77972600D01*
X241109500Y-77972600D01*
X241109500Y-77952600D01*
X240035250Y-77952600D01*
X239876500Y-78111350D01*
X239873428Y-78413100D01*
X239885688Y-78537582D01*
X239921998Y-78657280D01*
X239980963Y-78767594D01*
X240060315Y-78864285D01*
X240140094Y-78929758D01*
X240133538Y-78935138D01*
X240023095Y-79069714D01*
X239941028Y-79223250D01*
X239890492Y-79389846D01*
X239873428Y-79563100D01*
X239873428Y-80238100D01*
X239890492Y-80411354D01*
X239941028Y-80577950D01*
X239999519Y-80687379D01*
X239358372Y-81328527D01*
X239358372Y-80916400D01*
X239346112Y-80791918D01*
X239345955Y-80791400D01*
X239346112Y-80790882D01*
X239358372Y-80666400D01*
X239358372Y-80116400D01*
X239346112Y-79991918D01*
X239345955Y-79991400D01*
X239346112Y-79990882D01*
X239358372Y-79866400D01*
X239358372Y-79316400D01*
X239346112Y-79191918D01*
X239309802Y-79072220D01*
X239250837Y-78961906D01*
X239171485Y-78865215D01*
X239074794Y-78785863D01*
X238964480Y-78726898D01*
X238844782Y-78690588D01*
X238720300Y-78678328D01*
X237220300Y-78678328D01*
X237179338Y-78682362D01*
X237183372Y-78641400D01*
X237183372Y-77442600D01*
X239616578Y-77442600D01*
X239653900Y-77446276D01*
X239691222Y-77442600D01*
X239691233Y-77442600D01*
X239802886Y-77431603D01*
X239875175Y-77409675D01*
X239876500Y-77539850D01*
%TA.AperFunction,Conductor*%
D22*
G36*
X239876500Y-77539850D02*
G01*
X240035250Y-77698600D01*
X241109500Y-77698600D01*
X241109500Y-77678600D01*
X241363500Y-77678600D01*
X241363500Y-77698600D01*
X241383500Y-77698600D01*
X241383500Y-77952600D01*
X241363500Y-77952600D01*
X241363500Y-77972600D01*
X241109500Y-77972600D01*
X241109500Y-77952600D01*
X240035250Y-77952600D01*
X239876500Y-78111350D01*
X239873428Y-78413100D01*
X239885688Y-78537582D01*
X239921998Y-78657280D01*
X239980963Y-78767594D01*
X240060315Y-78864285D01*
X240140094Y-78929758D01*
X240133538Y-78935138D01*
X240023095Y-79069714D01*
X239941028Y-79223250D01*
X239890492Y-79389846D01*
X239873428Y-79563100D01*
X239873428Y-80238100D01*
X239890492Y-80411354D01*
X239941028Y-80577950D01*
X239999519Y-80687379D01*
X239358372Y-81328527D01*
X239358372Y-80916400D01*
X239346112Y-80791918D01*
X239345955Y-80791400D01*
X239346112Y-80790882D01*
X239358372Y-80666400D01*
X239358372Y-80116400D01*
X239346112Y-79991918D01*
X239345955Y-79991400D01*
X239346112Y-79990882D01*
X239358372Y-79866400D01*
X239358372Y-79316400D01*
X239346112Y-79191918D01*
X239309802Y-79072220D01*
X239250837Y-78961906D01*
X239171485Y-78865215D01*
X239074794Y-78785863D01*
X238964480Y-78726898D01*
X238844782Y-78690588D01*
X238720300Y-78678328D01*
X237220300Y-78678328D01*
X237179338Y-78682362D01*
X237183372Y-78641400D01*
X237183372Y-77442600D01*
X239616578Y-77442600D01*
X239653900Y-77446276D01*
X239691222Y-77442600D01*
X239691233Y-77442600D01*
X239802886Y-77431603D01*
X239875175Y-77409675D01*
X239876500Y-77539850D01*
G37*
%TD.AperFunction*%
D21*
X232817602Y-75489174D02*
X232803459Y-75503316D01*
X232817602Y-75517459D01*
X232637997Y-75697064D01*
X232623854Y-75682921D01*
X232609712Y-75697064D01*
X232430107Y-75517459D01*
X232444249Y-75503316D01*
X232430107Y-75489174D01*
X232609712Y-75309569D01*
X232623854Y-75323711D01*
X232637997Y-75309569D01*
X232817602Y-75489174D01*
%TA.AperFunction,Conductor*%
D22*
G36*
X232817602Y-75489174D02*
G01*
X232803459Y-75503316D01*
X232817602Y-75517459D01*
X232637997Y-75697064D01*
X232623854Y-75682921D01*
X232609712Y-75697064D01*
X232430107Y-75517459D01*
X232444249Y-75503316D01*
X232430107Y-75489174D01*
X232609712Y-75309569D01*
X232623854Y-75323711D01*
X232637997Y-75309569D01*
X232817602Y-75489174D01*
G37*
%TD.AperFunction*%
%TD*%
M02*
