M48
; DRILL file {KiCad (5.1.10)-1} date 11/19/21 23:26:07
; FORMAT={-:-/ absolute / inch / decimal}
; #@! TF.CreationDate,2021-11-19T23:26:07+01:00
; #@! TF.GenerationSoftware,Kicad,Pcbnew,(5.1.10)-1
; #@! TF.FileFunction,Plated,1,2,PTH
FMAT,2
INCH
T1C0.0157
T2C0.0236
T3C0.0276
%
G90
G05
T1
X7.3572Y-4.6634
X7.3797Y-3.3859
X7.3797Y-3.439
X7.4132Y-3.3859
X7.4132Y-3.439
X7.4467Y-3.3859
X7.4467Y-3.439
X7.4801Y-3.3859
X7.4801Y-3.439
X7.5136Y-3.3859
X7.5136Y-3.439
X7.5471Y-3.3859
X7.5471Y-3.439
X7.5805Y-3.3859
X7.5805Y-3.439
X7.614Y-3.3859
X7.614Y-3.439
X7.6381Y-4.6249
X7.65Y-4.5
X7.6601Y-4.5381
X7.682Y-4.62
X7.793Y-4.468
X7.871Y-4.739
X7.972Y-3.9815
X8.0Y-4.6
X8.015Y-4.085
X8.064Y-3.791
X8.081Y-3.9815
X8.17Y-3.305
X8.37Y-3.233
X8.38Y-4.524
X8.489Y-3.5865
X8.489Y-4.071
X8.5439Y-3.4736
X8.547Y-3.5735
X8.558Y-4.635
X8.579Y-4.572
X8.6083Y-3.8643
X8.6224Y-3.1794
X8.629Y-4.739
X8.6492Y-3.9042
X8.652Y-3.296
X8.6585Y-3.5255
X8.7Y-4.6
X8.7145Y-3.594
X8.818Y-3.2
X8.819Y-3.017
X8.8713Y-3.5585
X8.8854Y-3.6712
X8.8885Y-3.632
X8.8907Y-3.5927
X8.927Y-3.544
X9.163Y-4.044
X9.1823Y-3.1197
X9.2497Y-4.6297
X9.268Y-3.662
X9.269Y-3.231
X9.371Y-2.984
X9.406Y-3.852
X9.412Y-3.977
X9.416Y-3.6595
X9.4275Y-3.401
X9.433Y-3.3615
T3
X7.1325Y-4.3685
X7.1325Y-4.6756
X7.883Y-3.6225
X7.883Y-3.9295
X7.8905Y-4.3665
X7.8905Y-4.6736
X8.6405Y-4.371
X8.6405Y-4.678
T2
G00X7.3266Y-3.2831
M15
G01X7.3266Y-3.2516
M16
G05
G00X7.3266Y-3.4299
M15
G01X7.3266Y-3.3709
M16
G05
G00X7.6671Y-3.2831
M15
G01X7.6671Y-3.2516
M16
G05
G00X7.6671Y-3.4299
M15
G01X7.6671Y-3.3709
M16
G05
T0
M30
