%TF.GenerationSoftware,KiCad,Pcbnew,(5.1.10)-1*%
%TF.CreationDate,2021-11-19T23:24:49+01:00*%
%TF.ProjectId,Labbe,4c616262-652e-46b6-9963-61645f706362,rev?*%
%TF.SameCoordinates,Original*%
%TF.FileFunction,Soldermask,Top*%
%TF.FilePolarity,Negative*%
%FSLAX46Y46*%
G04 Gerber Fmt 4.6, Leading zero omitted, Abs format (unit mm)*
G04 Created by KiCad (PCBNEW (5.1.10)-1) date 2021-11-19 23:24:49*
%MOMM*%
%LPD*%
G01*
G04 APERTURE LIST*
%ADD10R,1.600000X1.600000*%
%ADD11C,1.600000*%
%ADD12C,0.700000*%
%ADD13O,0.900000X2.400000*%
%ADD14O,0.900000X1.700000*%
%ADD15R,1.700000X1.000000*%
%ADD16C,1.750000*%
%ADD17C,3.000000*%
%ADD18C,3.987800*%
%ADD19R,1.500000X0.550000*%
%ADD20R,0.550000X1.500000*%
%ADD21C,0.100000*%
%ADD22C,2.100000*%
G04 APERTURE END LIST*
%TO.C,C1*%
G36*
G01*
X236682300Y-73968100D02*
X235732300Y-73968100D01*
G75*
G02*
X235482300Y-73718100I0J250000D01*
G01*
X235482300Y-73043100D01*
G75*
G02*
X235732300Y-72793100I250000J0D01*
G01*
X236682300Y-72793100D01*
G75*
G02*
X236932300Y-73043100I0J-250000D01*
G01*
X236932300Y-73718100D01*
G75*
G02*
X236682300Y-73968100I-250000J0D01*
G01*
G37*
G36*
G01*
X236682300Y-76043100D02*
X235732300Y-76043100D01*
G75*
G02*
X235482300Y-75793100I0J250000D01*
G01*
X235482300Y-75118100D01*
G75*
G02*
X235732300Y-74868100I250000J0D01*
G01*
X236682300Y-74868100D01*
G75*
G02*
X236932300Y-75118100I0J-250000D01*
G01*
X236932300Y-75793100D01*
G75*
G02*
X236682300Y-76043100I-250000J0D01*
G01*
G37*
%TD*%
%TO.C,C2*%
G36*
G01*
X229189300Y-75484300D02*
X228239300Y-75484300D01*
G75*
G02*
X227989300Y-75234300I0J250000D01*
G01*
X227989300Y-74559300D01*
G75*
G02*
X228239300Y-74309300I250000J0D01*
G01*
X229189300Y-74309300D01*
G75*
G02*
X229439300Y-74559300I0J-250000D01*
G01*
X229439300Y-75234300D01*
G75*
G02*
X229189300Y-75484300I-250000J0D01*
G01*
G37*
G36*
G01*
X229189300Y-73409300D02*
X228239300Y-73409300D01*
G75*
G02*
X227989300Y-73159300I0J250000D01*
G01*
X227989300Y-72484300D01*
G75*
G02*
X228239300Y-72234300I250000J0D01*
G01*
X229189300Y-72234300D01*
G75*
G02*
X229439300Y-72484300I0J-250000D01*
G01*
X229439300Y-73159300D01*
G75*
G02*
X229189300Y-73409300I-250000J0D01*
G01*
G37*
%TD*%
%TO.C,C3*%
G36*
G01*
X241419400Y-85711700D02*
X240469400Y-85711700D01*
G75*
G02*
X240219400Y-85461700I0J250000D01*
G01*
X240219400Y-84786700D01*
G75*
G02*
X240469400Y-84536700I250000J0D01*
G01*
X241419400Y-84536700D01*
G75*
G02*
X241669400Y-84786700I0J-250000D01*
G01*
X241669400Y-85461700D01*
G75*
G02*
X241419400Y-85711700I-250000J0D01*
G01*
G37*
G36*
G01*
X241419400Y-83636700D02*
X240469400Y-83636700D01*
G75*
G02*
X240219400Y-83386700I0J250000D01*
G01*
X240219400Y-82711700D01*
G75*
G02*
X240469400Y-82461700I250000J0D01*
G01*
X241419400Y-82461700D01*
G75*
G02*
X241669400Y-82711700I0J-250000D01*
G01*
X241669400Y-83386700D01*
G75*
G02*
X241419400Y-83636700I-250000J0D01*
G01*
G37*
%TD*%
%TO.C,C8*%
G36*
G01*
X241355900Y-76043100D02*
X240405900Y-76043100D01*
G75*
G02*
X240155900Y-75793100I0J250000D01*
G01*
X240155900Y-75118100D01*
G75*
G02*
X240405900Y-74868100I250000J0D01*
G01*
X241355900Y-74868100D01*
G75*
G02*
X241605900Y-75118100I0J-250000D01*
G01*
X241605900Y-75793100D01*
G75*
G02*
X241355900Y-76043100I-250000J0D01*
G01*
G37*
G36*
G01*
X241355900Y-73968100D02*
X240405900Y-73968100D01*
G75*
G02*
X240155900Y-73718100I0J250000D01*
G01*
X240155900Y-73043100D01*
G75*
G02*
X240405900Y-72793100I250000J0D01*
G01*
X241355900Y-72793100D01*
G75*
G02*
X241605900Y-73043100I0J-250000D01*
G01*
X241605900Y-73718100D01*
G75*
G02*
X241355900Y-73968100I-250000J0D01*
G01*
G37*
%TD*%
%TO.C,C9*%
G36*
G01*
X241711500Y-78413100D02*
X240761500Y-78413100D01*
G75*
G02*
X240511500Y-78163100I0J250000D01*
G01*
X240511500Y-77488100D01*
G75*
G02*
X240761500Y-77238100I250000J0D01*
G01*
X241711500Y-77238100D01*
G75*
G02*
X241961500Y-77488100I0J-250000D01*
G01*
X241961500Y-78163100D01*
G75*
G02*
X241711500Y-78413100I-250000J0D01*
G01*
G37*
G36*
G01*
X241711500Y-80488100D02*
X240761500Y-80488100D01*
G75*
G02*
X240511500Y-80238100I0J250000D01*
G01*
X240511500Y-79563100D01*
G75*
G02*
X240761500Y-79313100I250000J0D01*
G01*
X241711500Y-79313100D01*
G75*
G02*
X241961500Y-79563100I0J-250000D01*
G01*
X241961500Y-80238100D01*
G75*
G02*
X241711500Y-80488100I-250000J0D01*
G01*
G37*
%TD*%
%TO.C,C10*%
G36*
G01*
X220695500Y-85137500D02*
X221645500Y-85137500D01*
G75*
G02*
X221895500Y-85387500I0J-250000D01*
G01*
X221895500Y-86062500D01*
G75*
G02*
X221645500Y-86312500I-250000J0D01*
G01*
X220695500Y-86312500D01*
G75*
G02*
X220445500Y-86062500I0J250000D01*
G01*
X220445500Y-85387500D01*
G75*
G02*
X220695500Y-85137500I250000J0D01*
G01*
G37*
G36*
G01*
X220695500Y-87212500D02*
X221645500Y-87212500D01*
G75*
G02*
X221895500Y-87462500I0J-250000D01*
G01*
X221895500Y-88137500D01*
G75*
G02*
X221645500Y-88387500I-250000J0D01*
G01*
X220695500Y-88387500D01*
G75*
G02*
X220445500Y-88137500I0J250000D01*
G01*
X220445500Y-87462500D01*
G75*
G02*
X220695500Y-87212500I250000J0D01*
G01*
G37*
%TD*%
%TO.C,C11*%
G36*
G01*
X221696300Y-78082900D02*
X220746300Y-78082900D01*
G75*
G02*
X220496300Y-77832900I0J250000D01*
G01*
X220496300Y-77157900D01*
G75*
G02*
X220746300Y-76907900I250000J0D01*
G01*
X221696300Y-76907900D01*
G75*
G02*
X221946300Y-77157900I0J-250000D01*
G01*
X221946300Y-77832900D01*
G75*
G02*
X221696300Y-78082900I-250000J0D01*
G01*
G37*
G36*
G01*
X221696300Y-80157900D02*
X220746300Y-80157900D01*
G75*
G02*
X220496300Y-79907900I0J250000D01*
G01*
X220496300Y-79232900D01*
G75*
G02*
X220746300Y-78982900I250000J0D01*
G01*
X221696300Y-78982900D01*
G75*
G02*
X221946300Y-79232900I0J-250000D01*
G01*
X221946300Y-79907900D01*
G75*
G02*
X221696300Y-80157900I-250000J0D01*
G01*
G37*
%TD*%
%TO.C,C12*%
G36*
G01*
X241381300Y-90038500D02*
X240431300Y-90038500D01*
G75*
G02*
X240181300Y-89788500I0J250000D01*
G01*
X240181300Y-89113500D01*
G75*
G02*
X240431300Y-88863500I250000J0D01*
G01*
X241381300Y-88863500D01*
G75*
G02*
X241631300Y-89113500I0J-250000D01*
G01*
X241631300Y-89788500D01*
G75*
G02*
X241381300Y-90038500I-250000J0D01*
G01*
G37*
G36*
G01*
X241381300Y-87963500D02*
X240431300Y-87963500D01*
G75*
G02*
X240181300Y-87713500I0J250000D01*
G01*
X240181300Y-87038500D01*
G75*
G02*
X240431300Y-86788500I250000J0D01*
G01*
X241381300Y-86788500D01*
G75*
G02*
X241631300Y-87038500I0J-250000D01*
G01*
X241631300Y-87713500D01*
G75*
G02*
X241381300Y-87963500I-250000J0D01*
G01*
G37*
%TD*%
D10*
%TO.C,D1*%
X181165500Y-110959900D03*
D11*
X181165500Y-118759900D03*
%TD*%
%TO.C,D2*%
X200228200Y-99810400D03*
D10*
X200228200Y-92010400D03*
%TD*%
%TO.C,D3*%
X200418700Y-110908200D03*
D11*
X200418700Y-118708200D03*
%TD*%
%TO.C,D4*%
X219468700Y-118822300D03*
D10*
X219468700Y-111022300D03*
%TD*%
D12*
%TO.C,J1*%
X193395600Y-87350600D03*
X192545600Y-87350600D03*
X191695600Y-87350600D03*
X190845600Y-87350600D03*
X189995600Y-87350600D03*
X189145600Y-87350600D03*
X188295600Y-87350600D03*
X187445600Y-87350600D03*
X192545600Y-86000600D03*
X190845600Y-86000600D03*
X191695600Y-86000600D03*
X193395600Y-86000600D03*
X189145600Y-86000600D03*
X188295600Y-86000600D03*
X187445600Y-86000600D03*
X189995600Y-86000600D03*
D13*
X194745600Y-86370600D03*
X186095600Y-86370600D03*
D14*
X194745600Y-82990600D03*
X186095600Y-82990600D03*
%TD*%
%TO.C,R1*%
G36*
G01*
X196361899Y-83810800D02*
X197261901Y-83810800D01*
G75*
G02*
X197511900Y-84060799I0J-249999D01*
G01*
X197511900Y-84760801D01*
G75*
G02*
X197261901Y-85010800I-249999J0D01*
G01*
X196361899Y-85010800D01*
G75*
G02*
X196111900Y-84760801I0J249999D01*
G01*
X196111900Y-84060799D01*
G75*
G02*
X196361899Y-83810800I249999J0D01*
G01*
G37*
G36*
G01*
X196361899Y-85810800D02*
X197261901Y-85810800D01*
G75*
G02*
X197511900Y-86060799I0J-249999D01*
G01*
X197511900Y-86760801D01*
G75*
G02*
X197261901Y-87010800I-249999J0D01*
G01*
X196361899Y-87010800D01*
G75*
G02*
X196111900Y-86760801I0J249999D01*
G01*
X196111900Y-86060799D01*
G75*
G02*
X196361899Y-85810800I249999J0D01*
G01*
G37*
%TD*%
%TO.C,R2*%
G36*
G01*
X184460301Y-84788300D02*
X183560299Y-84788300D01*
G75*
G02*
X183310300Y-84538301I0J249999D01*
G01*
X183310300Y-83838299D01*
G75*
G02*
X183560299Y-83588300I249999J0D01*
G01*
X184460301Y-83588300D01*
G75*
G02*
X184710300Y-83838299I0J-249999D01*
G01*
X184710300Y-84538301D01*
G75*
G02*
X184460301Y-84788300I-249999J0D01*
G01*
G37*
G36*
G01*
X184460301Y-86788300D02*
X183560299Y-86788300D01*
G75*
G02*
X183310300Y-86538301I0J249999D01*
G01*
X183310300Y-85838299D01*
G75*
G02*
X183560299Y-85588300I249999J0D01*
G01*
X184460301Y-85588300D01*
G75*
G02*
X184710300Y-85838299I0J-249999D01*
G01*
X184710300Y-86538301D01*
G75*
G02*
X184460301Y-86788300I-249999J0D01*
G01*
G37*
%TD*%
%TO.C,R3*%
G36*
G01*
X237696700Y-94772901D02*
X237696700Y-93872899D01*
G75*
G02*
X237946699Y-93622900I249999J0D01*
G01*
X238646701Y-93622900D01*
G75*
G02*
X238896700Y-93872899I0J-249999D01*
G01*
X238896700Y-94772901D01*
G75*
G02*
X238646701Y-95022900I-249999J0D01*
G01*
X237946699Y-95022900D01*
G75*
G02*
X237696700Y-94772901I0J249999D01*
G01*
G37*
G36*
G01*
X239696700Y-94772901D02*
X239696700Y-93872899D01*
G75*
G02*
X239946699Y-93622900I249999J0D01*
G01*
X240646701Y-93622900D01*
G75*
G02*
X240896700Y-93872899I0J-249999D01*
G01*
X240896700Y-94772901D01*
G75*
G02*
X240646701Y-95022900I-249999J0D01*
G01*
X239946699Y-95022900D01*
G75*
G02*
X239696700Y-94772901I0J249999D01*
G01*
G37*
%TD*%
%TO.C,R4*%
G36*
G01*
X239575800Y-99586201D02*
X239575800Y-98686199D01*
G75*
G02*
X239825799Y-98436200I249999J0D01*
G01*
X240525801Y-98436200D01*
G75*
G02*
X240775800Y-98686199I0J-249999D01*
G01*
X240775800Y-99586201D01*
G75*
G02*
X240525801Y-99836200I-249999J0D01*
G01*
X239825799Y-99836200D01*
G75*
G02*
X239575800Y-99586201I0J249999D01*
G01*
G37*
G36*
G01*
X237575800Y-99586201D02*
X237575800Y-98686199D01*
G75*
G02*
X237825799Y-98436200I249999J0D01*
G01*
X238525801Y-98436200D01*
G75*
G02*
X238775800Y-98686199I0J-249999D01*
G01*
X238775800Y-99586201D01*
G75*
G02*
X238525801Y-99836200I-249999J0D01*
G01*
X237825799Y-99836200D01*
G75*
G02*
X237575800Y-99586201I0J249999D01*
G01*
G37*
%TD*%
%TO.C,R5*%
G36*
G01*
X225240001Y-96973700D02*
X224339999Y-96973700D01*
G75*
G02*
X224090000Y-96723701I0J249999D01*
G01*
X224090000Y-96023699D01*
G75*
G02*
X224339999Y-95773700I249999J0D01*
G01*
X225240001Y-95773700D01*
G75*
G02*
X225490000Y-96023699I0J-249999D01*
G01*
X225490000Y-96723701D01*
G75*
G02*
X225240001Y-96973700I-249999J0D01*
G01*
G37*
G36*
G01*
X225240001Y-94973700D02*
X224339999Y-94973700D01*
G75*
G02*
X224090000Y-94723701I0J249999D01*
G01*
X224090000Y-94023699D01*
G75*
G02*
X224339999Y-93773700I249999J0D01*
G01*
X225240001Y-93773700D01*
G75*
G02*
X225490000Y-94023699I0J-249999D01*
G01*
X225490000Y-94723701D01*
G75*
G02*
X225240001Y-94973700I-249999J0D01*
G01*
G37*
%TD*%
%TO.C,R6*%
G36*
G01*
X220513600Y-75138701D02*
X220513600Y-74238699D01*
G75*
G02*
X220763599Y-73988700I249999J0D01*
G01*
X221463601Y-73988700D01*
G75*
G02*
X221713600Y-74238699I0J-249999D01*
G01*
X221713600Y-75138701D01*
G75*
G02*
X221463601Y-75388700I-249999J0D01*
G01*
X220763599Y-75388700D01*
G75*
G02*
X220513600Y-75138701I0J249999D01*
G01*
G37*
G36*
G01*
X222513600Y-75138701D02*
X222513600Y-74238699D01*
G75*
G02*
X222763599Y-73988700I249999J0D01*
G01*
X223463601Y-73988700D01*
G75*
G02*
X223713600Y-74238699I0J-249999D01*
G01*
X223713600Y-75138701D01*
G75*
G02*
X223463601Y-75388700I-249999J0D01*
G01*
X222763599Y-75388700D01*
G75*
G02*
X222513600Y-75138701I0J249999D01*
G01*
G37*
%TD*%
%TO.C,R7*%
G36*
G01*
X221645901Y-82150000D02*
X220745899Y-82150000D01*
G75*
G02*
X220495900Y-81900001I0J249999D01*
G01*
X220495900Y-81199999D01*
G75*
G02*
X220745899Y-80950000I249999J0D01*
G01*
X221645901Y-80950000D01*
G75*
G02*
X221895900Y-81199999I0J-249999D01*
G01*
X221895900Y-81900001D01*
G75*
G02*
X221645901Y-82150000I-249999J0D01*
G01*
G37*
G36*
G01*
X221645901Y-84150000D02*
X220745899Y-84150000D01*
G75*
G02*
X220495900Y-83900001I0J249999D01*
G01*
X220495900Y-83199999D01*
G75*
G02*
X220745899Y-82950000I249999J0D01*
G01*
X221645901Y-82950000D01*
G75*
G02*
X221895900Y-83199999I0J-249999D01*
G01*
X221895900Y-83900001D01*
G75*
G02*
X221645901Y-84150000I-249999J0D01*
G01*
G37*
%TD*%
D15*
%TO.C,SW1*%
X228854000Y-94615000D03*
X235154000Y-94615000D03*
X228854000Y-98415000D03*
X235154000Y-98415000D03*
%TD*%
D16*
%TO.C,U1*%
X194310000Y-110490000D03*
X184150000Y-110490000D03*
D17*
X185420000Y-107950000D03*
D18*
X189230000Y-110490000D03*
D17*
X191770000Y-105410000D03*
%TD*%
D16*
%TO.C,U2*%
X213360000Y-91440000D03*
X203200000Y-91440000D03*
D17*
X204470000Y-88900000D03*
D18*
X208280000Y-91440000D03*
D17*
X210820000Y-86360000D03*
%TD*%
%TO.C,U3*%
X210820000Y-105410000D03*
D18*
X208280000Y-110490000D03*
D17*
X204470000Y-107950000D03*
D16*
X203200000Y-110490000D03*
X213360000Y-110490000D03*
%TD*%
D19*
%TO.C,U4*%
X237970300Y-87591400D03*
X237970300Y-86791400D03*
X237970300Y-85991400D03*
X237970300Y-85191400D03*
X237970300Y-84391400D03*
X237970300Y-83591400D03*
X237970300Y-82791400D03*
X237970300Y-81991400D03*
X237970300Y-81191400D03*
X237970300Y-80391400D03*
X237970300Y-79591400D03*
D20*
X236270300Y-77891400D03*
X235470300Y-77891400D03*
X234670300Y-77891400D03*
X233870300Y-77891400D03*
X233070300Y-77891400D03*
X232270300Y-77891400D03*
X231470300Y-77891400D03*
X230670300Y-77891400D03*
X229870300Y-77891400D03*
X229070300Y-77891400D03*
X228270300Y-77891400D03*
D19*
X226570300Y-79591400D03*
X226570300Y-80391400D03*
X226570300Y-81191400D03*
X226570300Y-81991400D03*
X226570300Y-82791400D03*
X226570300Y-83591400D03*
X226570300Y-84391400D03*
X226570300Y-85191400D03*
X226570300Y-85991400D03*
X226570300Y-86791400D03*
X226570300Y-87591400D03*
D20*
X228270300Y-89291400D03*
X229070300Y-89291400D03*
X229870300Y-89291400D03*
X230670300Y-89291400D03*
X231470300Y-89291400D03*
X232270300Y-89291400D03*
X233070300Y-89291400D03*
X233870300Y-89291400D03*
X234670300Y-89291400D03*
X235470300Y-89291400D03*
X236270300Y-89291400D03*
%TD*%
D17*
%TO.C,U5*%
X229870000Y-105410000D03*
D18*
X227330000Y-110490000D03*
D17*
X223520000Y-107950000D03*
D16*
X222250000Y-110490000D03*
X232410000Y-110490000D03*
%TD*%
D21*
%TO.C,Y1*%
G36*
X234745174Y-74371946D02*
G01*
X233896646Y-75220474D01*
X232906696Y-74230524D01*
X233755224Y-73381996D01*
X234745174Y-74371946D01*
G37*
G36*
X233189539Y-72816311D02*
G01*
X232341011Y-73664839D01*
X231351061Y-72674889D01*
X232199589Y-71826361D01*
X233189539Y-72816311D01*
G37*
G36*
X231987458Y-74018392D02*
G01*
X231138930Y-74866920D01*
X230148980Y-73876970D01*
X230997508Y-73028442D01*
X231987458Y-74018392D01*
G37*
G36*
X233543093Y-75574027D02*
G01*
X232694565Y-76422555D01*
X231704615Y-75432605D01*
X232553143Y-74584077D01*
X233543093Y-75574027D01*
G37*
%TD*%
D22*
%TO.C,H3*%
X240055400Y-118795800D03*
%TD*%
%TO.C,H4*%
X181025800Y-90093800D03*
%TD*%
M02*
