%TF.GenerationSoftware,KiCad,Pcbnew,(5.1.10)-1*%
%TF.CreationDate,2021-11-19T23:24:49+01:00*%
%TF.ProjectId,Labbe,4c616262-652e-46b6-9963-61645f706362,rev?*%
%TF.SameCoordinates,Original*%
%TF.FileFunction,Legend,Top*%
%TF.FilePolarity,Positive*%
%FSLAX46Y46*%
G04 Gerber Fmt 4.6, Leading zero omitted, Abs format (unit mm)*
G04 Created by KiCad (PCBNEW (5.1.10)-1) date 2021-11-19 23:24:49*
%MOMM*%
%LPD*%
G01*
G04 APERTURE LIST*
%ADD10C,0.010000*%
%ADD11C,0.120000*%
%ADD12C,0.150000*%
G04 APERTURE END LIST*
D10*
%TO.C,G\u002A\u002A\u002A*%
G36*
X189791885Y-98361738D02*
G01*
X189848796Y-98372962D01*
X189880905Y-98387469D01*
X189921683Y-98422540D01*
X189941712Y-98459565D01*
X189935106Y-98484162D01*
X189921796Y-98487345D01*
X189898148Y-98505279D01*
X189860257Y-98550767D01*
X189839600Y-98579709D01*
X189796040Y-98634510D01*
X189757565Y-98667616D01*
X189744703Y-98672073D01*
X189714945Y-98686522D01*
X189712600Y-98695163D01*
X189693363Y-98716349D01*
X189635900Y-98707558D01*
X189547500Y-98672073D01*
X189477214Y-98643348D01*
X189421039Y-98626956D01*
X189408779Y-98625522D01*
X189362260Y-98609497D01*
X189303185Y-98570747D01*
X189247415Y-98522267D01*
X189210813Y-98477052D01*
X189204600Y-98458242D01*
X189228366Y-98420843D01*
X189300113Y-98392238D01*
X189420514Y-98372254D01*
X189583320Y-98360987D01*
X189707163Y-98358082D01*
X189791885Y-98361738D01*
G37*
X189791885Y-98361738D02*
X189848796Y-98372962D01*
X189880905Y-98387469D01*
X189921683Y-98422540D01*
X189941712Y-98459565D01*
X189935106Y-98484162D01*
X189921796Y-98487345D01*
X189898148Y-98505279D01*
X189860257Y-98550767D01*
X189839600Y-98579709D01*
X189796040Y-98634510D01*
X189757565Y-98667616D01*
X189744703Y-98672073D01*
X189714945Y-98686522D01*
X189712600Y-98695163D01*
X189693363Y-98716349D01*
X189635900Y-98707558D01*
X189547500Y-98672073D01*
X189477214Y-98643348D01*
X189421039Y-98626956D01*
X189408779Y-98625522D01*
X189362260Y-98609497D01*
X189303185Y-98570747D01*
X189247415Y-98522267D01*
X189210813Y-98477052D01*
X189204600Y-98458242D01*
X189228366Y-98420843D01*
X189300113Y-98392238D01*
X189420514Y-98372254D01*
X189583320Y-98360987D01*
X189707163Y-98358082D01*
X189791885Y-98361738D01*
G36*
X190621081Y-91632550D02*
G01*
X190715183Y-91634751D01*
X190903302Y-91641350D01*
X191054894Y-91652406D01*
X191184178Y-91670270D01*
X191305373Y-91697295D01*
X191432700Y-91735834D01*
X191528700Y-91769332D01*
X191570574Y-91783757D01*
X191649752Y-91810434D01*
X191755784Y-91845863D01*
X191878221Y-91886543D01*
X191909700Y-91896968D01*
X192031769Y-91938156D01*
X192137095Y-91975174D01*
X192216191Y-92004578D01*
X192259570Y-92022925D01*
X192264029Y-92025616D01*
X192309338Y-92043090D01*
X192329430Y-92044982D01*
X192374011Y-92056162D01*
X192453637Y-92086914D01*
X192559790Y-92133054D01*
X192683950Y-92190398D01*
X192817598Y-92254763D01*
X192952216Y-92321964D01*
X193079285Y-92387818D01*
X193190286Y-92448141D01*
X193276700Y-92498750D01*
X193330008Y-92535460D01*
X193332533Y-92537624D01*
X193370132Y-92567673D01*
X193429715Y-92612453D01*
X193458957Y-92633800D01*
X193525881Y-92684935D01*
X193581358Y-92731977D01*
X193595844Y-92745990D01*
X193641475Y-92791607D01*
X193699134Y-92846784D01*
X193706723Y-92853871D01*
X193762082Y-92909726D01*
X193828841Y-92982998D01*
X193869466Y-93030317D01*
X193922055Y-93091591D01*
X193963720Y-93136857D01*
X193982192Y-93153809D01*
X194008003Y-93185832D01*
X194040149Y-93246617D01*
X194071848Y-93320309D01*
X194096314Y-93391054D01*
X194106766Y-93442998D01*
X194106800Y-93445043D01*
X194118626Y-93508522D01*
X194141972Y-93564356D01*
X194165924Y-93613808D01*
X194200186Y-93693245D01*
X194238900Y-93788868D01*
X194256036Y-93833040D01*
X194300988Y-93937915D01*
X194348933Y-94028990D01*
X194392577Y-94092831D01*
X194403162Y-94104117D01*
X194455433Y-94148740D01*
X194478649Y-94155700D01*
X194472893Y-94124871D01*
X194438252Y-94056127D01*
X194437031Y-94053946D01*
X194382718Y-93957162D01*
X194467009Y-93972334D01*
X194631645Y-94016486D01*
X194781391Y-94091044D01*
X194805300Y-94106182D01*
X194894469Y-94169383D01*
X194987855Y-94244185D01*
X195075367Y-94321496D01*
X195146914Y-94392225D01*
X195192405Y-94447279D01*
X195200947Y-94462638D01*
X195236196Y-94503958D01*
X195284264Y-94517930D01*
X195309396Y-94509936D01*
X195333377Y-94517426D01*
X195353846Y-94530769D01*
X195400233Y-94553409D01*
X195471795Y-94576992D01*
X195493965Y-94582761D01*
X195585631Y-94613675D01*
X195677382Y-94657261D01*
X195691943Y-94665837D01*
X195752798Y-94700889D01*
X195796142Y-94721356D01*
X195804951Y-94723527D01*
X195837561Y-94742521D01*
X195882936Y-94791529D01*
X195932661Y-94858586D01*
X195978321Y-94931730D01*
X196011503Y-94998996D01*
X196022057Y-95032201D01*
X196038386Y-95104196D01*
X196052302Y-95143489D01*
X196068614Y-95163090D01*
X196071067Y-95164807D01*
X196084824Y-95195994D01*
X196093389Y-95257581D01*
X196096324Y-95333992D01*
X196093191Y-95409646D01*
X196083550Y-95468967D01*
X196079938Y-95479754D01*
X196071624Y-95519190D01*
X196096157Y-95531562D01*
X196105338Y-95531851D01*
X196162524Y-95542260D01*
X196215000Y-95561463D01*
X196279627Y-95587264D01*
X196363549Y-95615744D01*
X196389601Y-95623690D01*
X196506697Y-95674941D01*
X196603940Y-95756907D01*
X196689100Y-95876550D01*
X196706383Y-95907499D01*
X196737385Y-95970376D01*
X196757562Y-96029397D01*
X196769414Y-96097776D01*
X196775442Y-96188730D01*
X196777720Y-96284554D01*
X196777610Y-96396209D01*
X196774281Y-96498184D01*
X196768344Y-96577001D01*
X196762908Y-96611401D01*
X196731388Y-96680342D01*
X196684629Y-96714595D01*
X196631326Y-96709644D01*
X196606590Y-96692584D01*
X196544292Y-96663079D01*
X196437114Y-96648392D01*
X196414326Y-96647321D01*
X196330498Y-96645963D01*
X196285624Y-96651805D01*
X196268069Y-96667815D01*
X196265800Y-96685202D01*
X196284626Y-96730101D01*
X196325499Y-96770919D01*
X196377461Y-96828545D01*
X196426332Y-96919005D01*
X196467148Y-97028982D01*
X196494943Y-97145160D01*
X196504768Y-97251741D01*
X196498128Y-97375248D01*
X196480627Y-97492692D01*
X196454893Y-97591917D01*
X196423553Y-97660767D01*
X196413560Y-97673565D01*
X196378951Y-97716993D01*
X196333433Y-97781902D01*
X196310062Y-97817709D01*
X196269723Y-97869179D01*
X196202519Y-97942383D01*
X196117093Y-98029108D01*
X196022086Y-98121144D01*
X195926139Y-98210279D01*
X195837894Y-98288300D01*
X195765993Y-98346997D01*
X195721546Y-98376953D01*
X195695587Y-98385946D01*
X195686244Y-98370992D01*
X195690527Y-98323020D01*
X195694828Y-98295919D01*
X195700503Y-98219485D01*
X195687339Y-98179360D01*
X195684033Y-98176985D01*
X195664305Y-98144857D01*
X195656200Y-98090327D01*
X195651539Y-98029217D01*
X195639467Y-97943877D01*
X195633306Y-97910073D01*
X195685610Y-97910073D01*
X195689602Y-97942853D01*
X195698421Y-97938936D01*
X195701776Y-97891661D01*
X195698421Y-97881209D01*
X195689151Y-97878308D01*
X195685610Y-97910073D01*
X195633306Y-97910073D01*
X195626565Y-97873097D01*
X195610205Y-97806163D01*
X195656200Y-97806163D01*
X195668900Y-97817709D01*
X195681600Y-97806163D01*
X195668900Y-97794618D01*
X195656200Y-97806163D01*
X195610205Y-97806163D01*
X195605543Y-97787090D01*
X195578728Y-97729830D01*
X195535963Y-97684055D01*
X195498029Y-97654633D01*
X195399127Y-97582379D01*
X195416465Y-97728907D01*
X195425730Y-97806410D01*
X195432759Y-97863729D01*
X195435821Y-97886982D01*
X195434802Y-97933731D01*
X195424271Y-98010747D01*
X195407060Y-98103498D01*
X195386004Y-98197454D01*
X195363935Y-98278083D01*
X195353743Y-98307970D01*
X195328248Y-98378253D01*
X195311333Y-98430458D01*
X195307254Y-98448236D01*
X195292934Y-98497141D01*
X195256401Y-98571756D01*
X195204958Y-98660206D01*
X195145911Y-98750615D01*
X195086563Y-98831108D01*
X195037721Y-98886446D01*
X194968890Y-98948332D01*
X194916101Y-98985848D01*
X194884717Y-98996606D01*
X194880102Y-98978220D01*
X194893306Y-98950681D01*
X194914698Y-98895633D01*
X194914013Y-98832598D01*
X194889144Y-98753047D01*
X194837988Y-98648450D01*
X194803560Y-98586986D01*
X194671605Y-98375292D01*
X194542853Y-98203801D01*
X194418493Y-98073631D01*
X194299715Y-97985897D01*
X194187709Y-97941715D01*
X194111219Y-97937572D01*
X194043300Y-97944709D01*
X194047157Y-98140982D01*
X194049402Y-98250506D01*
X194052302Y-98385457D01*
X194055405Y-98525093D01*
X194057186Y-98602800D01*
X194052128Y-98805437D01*
X194029524Y-99016513D01*
X193991782Y-99224299D01*
X193941312Y-99417063D01*
X193880524Y-99583075D01*
X193838363Y-99668034D01*
X193808982Y-99709861D01*
X193760170Y-99769802D01*
X193700069Y-99838949D01*
X193636819Y-99908397D01*
X193578563Y-99969239D01*
X193533443Y-100012568D01*
X193509599Y-100029477D01*
X193508291Y-100029126D01*
X193511004Y-100004824D01*
X193527679Y-99951892D01*
X193540795Y-99917047D01*
X193559052Y-99865952D01*
X193567962Y-99819968D01*
X193567339Y-99766624D01*
X193556993Y-99693446D01*
X193536736Y-99587964D01*
X193535751Y-99583066D01*
X193514199Y-99483983D01*
X193510320Y-99468709D01*
X193725800Y-99468709D01*
X193738500Y-99480254D01*
X193751200Y-99468709D01*
X193738500Y-99457163D01*
X193725800Y-99468709D01*
X193510320Y-99468709D01*
X193493289Y-99401657D01*
X193475944Y-99346945D01*
X193467951Y-99331318D01*
X193449202Y-99290839D01*
X193446400Y-99267300D01*
X193436191Y-99223051D01*
X193408983Y-99148555D01*
X193369903Y-99055133D01*
X193324077Y-98954109D01*
X193276631Y-98856807D01*
X193232691Y-98774550D01*
X193198977Y-98720805D01*
X193162361Y-98663583D01*
X193142679Y-98618656D01*
X193141600Y-98611123D01*
X193129153Y-98582492D01*
X193120492Y-98579709D01*
X193095424Y-98561280D01*
X193064498Y-98516890D01*
X193064118Y-98516209D01*
X193025805Y-98456979D01*
X192973714Y-98387492D01*
X192958226Y-98368568D01*
X192915734Y-98313343D01*
X192890560Y-98271736D01*
X192887600Y-98261713D01*
X192870165Y-98228913D01*
X192852712Y-98212678D01*
X192821439Y-98202623D01*
X192785758Y-98226108D01*
X192763896Y-98250260D01*
X192715936Y-98309673D01*
X192665291Y-98376322D01*
X192620612Y-98438293D01*
X192590550Y-98483674D01*
X192582800Y-98499652D01*
X192566821Y-98526188D01*
X192527804Y-98570555D01*
X192479124Y-98618382D01*
X192446098Y-98646508D01*
X192416709Y-98670559D01*
X192380454Y-98703188D01*
X192331046Y-98750444D01*
X192262196Y-98818376D01*
X192167617Y-98913036D01*
X192135416Y-98945407D01*
X192062141Y-99013311D01*
X191989684Y-99071012D01*
X191935899Y-99104819D01*
X191875209Y-99138232D01*
X191834404Y-99169261D01*
X191833500Y-99170274D01*
X191792697Y-99200677D01*
X191706943Y-99249446D01*
X191575796Y-99316815D01*
X191401700Y-99401641D01*
X191324020Y-99440591D01*
X191261049Y-99475274D01*
X191236600Y-99490915D01*
X191197353Y-99511796D01*
X191123443Y-99544339D01*
X191027420Y-99583166D01*
X190970194Y-99605076D01*
X190836758Y-99649040D01*
X190696670Y-99684869D01*
X190561196Y-99710714D01*
X190441602Y-99724727D01*
X190349157Y-99725058D01*
X190302995Y-99714559D01*
X190253009Y-99699379D01*
X190174404Y-99684040D01*
X190124690Y-99676936D01*
X190017763Y-99654476D01*
X189945803Y-99619546D01*
X189916163Y-99575902D01*
X189915800Y-99570244D01*
X189925340Y-99550670D01*
X189960539Y-99536217D01*
X190031265Y-99523823D01*
X190087621Y-99516917D01*
X190187790Y-99498758D01*
X190260439Y-99472144D01*
X190295229Y-99441210D01*
X190296800Y-99433260D01*
X190317386Y-99413491D01*
X190334900Y-99410982D01*
X190368678Y-99397188D01*
X190373000Y-99385381D01*
X190389996Y-99358136D01*
X190435105Y-99308656D01*
X190499507Y-99246415D01*
X190518095Y-99229517D01*
X190596265Y-99156308D01*
X190667354Y-99084500D01*
X190717204Y-99028455D01*
X190720768Y-99023889D01*
X190778346Y-98948524D01*
X190709023Y-98963490D01*
X190642799Y-98984825D01*
X190601600Y-99006606D01*
X190555618Y-99031343D01*
X190474059Y-99066887D01*
X190369231Y-99108628D01*
X190253445Y-99151960D01*
X190139010Y-99192274D01*
X190038235Y-99224962D01*
X189964008Y-99245287D01*
X189865549Y-99263488D01*
X189753438Y-99278983D01*
X189710008Y-99283449D01*
X189648624Y-99287152D01*
X189595178Y-99283915D01*
X189538043Y-99270506D01*
X189465592Y-99243689D01*
X189366197Y-99200231D01*
X189296830Y-99168523D01*
X189185429Y-99119099D01*
X189086737Y-99078659D01*
X189011533Y-99051403D01*
X188970799Y-99041527D01*
X188921220Y-99036280D01*
X188840446Y-99022563D01*
X188751569Y-99004532D01*
X188649280Y-98982254D01*
X188553250Y-98961472D01*
X188493400Y-98948632D01*
X188348102Y-98915812D01*
X188228322Y-98883086D01*
X188113810Y-98843923D01*
X187984317Y-98791792D01*
X187915370Y-98762191D01*
X187808111Y-98716870D01*
X187715663Y-98680189D01*
X187648743Y-98656250D01*
X187619637Y-98648982D01*
X187593326Y-98655526D01*
X187574195Y-98680080D01*
X187559969Y-98730024D01*
X187548368Y-98812740D01*
X187539285Y-98909402D01*
X187536717Y-99026397D01*
X187545024Y-99161795D01*
X187562216Y-99300890D01*
X187586303Y-99428977D01*
X187615295Y-99531351D01*
X187627473Y-99561073D01*
X187657525Y-99628650D01*
X187703493Y-99736931D01*
X187758278Y-99868783D01*
X187792693Y-99930137D01*
X187846983Y-100005084D01*
X187886458Y-100051742D01*
X187936215Y-100110249D01*
X187967400Y-100154340D01*
X187973407Y-100171940D01*
X187944056Y-100183169D01*
X187885757Y-100191371D01*
X187881069Y-100191717D01*
X187815239Y-100201293D01*
X187771646Y-100216406D01*
X187771188Y-100216724D01*
X187722205Y-100232646D01*
X187634727Y-100243438D01*
X187520812Y-100248525D01*
X187392517Y-100247334D01*
X187274200Y-100240376D01*
X187157394Y-100226954D01*
X187026300Y-100206347D01*
X186892428Y-100181018D01*
X186767293Y-100153431D01*
X186662406Y-100126050D01*
X186589281Y-100101338D01*
X186565241Y-100088666D01*
X186425560Y-99979321D01*
X186323092Y-99891469D01*
X186252963Y-99820740D01*
X186221422Y-99780436D01*
X186163866Y-99681144D01*
X186113164Y-99567627D01*
X186110998Y-99561073D01*
X186867800Y-99561073D01*
X186880500Y-99572618D01*
X186893200Y-99561073D01*
X186880500Y-99549527D01*
X186867800Y-99561073D01*
X186110998Y-99561073D01*
X186077528Y-99459842D01*
X186075334Y-99448697D01*
X186791600Y-99448697D01*
X186804123Y-99482555D01*
X186829217Y-99495742D01*
X186838590Y-99491415D01*
X186835084Y-99467692D01*
X186821656Y-99452160D01*
X186796084Y-99439143D01*
X186791600Y-99448697D01*
X186075334Y-99448697D01*
X186066507Y-99403865D01*
X186056076Y-99334202D01*
X186742681Y-99334202D01*
X186756637Y-99375453D01*
X186775463Y-99402046D01*
X186784366Y-99402164D01*
X186782959Y-99376339D01*
X186769300Y-99349213D01*
X186746841Y-99322086D01*
X186742681Y-99334202D01*
X186056076Y-99334202D01*
X186055987Y-99333614D01*
X186040268Y-99248911D01*
X186038303Y-99239486D01*
X186718971Y-99239486D01*
X186731540Y-99276298D01*
X186749863Y-99295512D01*
X186750324Y-99295527D01*
X186753802Y-99276836D01*
X186747896Y-99248429D01*
X186732316Y-99215707D01*
X186721736Y-99212797D01*
X186718971Y-99239486D01*
X186038303Y-99239486D01*
X186035278Y-99224987D01*
X186030210Y-99185380D01*
X187082116Y-99185380D01*
X187090536Y-99227263D01*
X187108058Y-99283982D01*
X187116981Y-99230044D01*
X187118386Y-99182873D01*
X187111152Y-99162696D01*
X187088542Y-99156428D01*
X187082116Y-99185380D01*
X186030210Y-99185380D01*
X186026576Y-99156982D01*
X186715400Y-99156982D01*
X186724693Y-99175988D01*
X186732333Y-99172376D01*
X186735373Y-99144972D01*
X186732333Y-99141588D01*
X186717233Y-99144757D01*
X186715400Y-99156982D01*
X186026576Y-99156982D01*
X186023478Y-99132775D01*
X186021234Y-99076163D01*
X187075951Y-99076163D01*
X187078697Y-99115599D01*
X187086648Y-99119071D01*
X187087660Y-99117012D01*
X187092685Y-99071172D01*
X187088601Y-99047739D01*
X187080516Y-99038323D01*
X187076119Y-99068993D01*
X187075951Y-99076163D01*
X186021234Y-99076163D01*
X186018945Y-99018436D01*
X186715400Y-99018436D01*
X186724693Y-99037443D01*
X186732333Y-99033830D01*
X186735373Y-99006427D01*
X186732333Y-99003042D01*
X186717233Y-99006212D01*
X186715400Y-99018436D01*
X186018945Y-99018436D01*
X186018409Y-99004923D01*
X186019638Y-98851512D01*
X186026732Y-98682623D01*
X186035097Y-98566239D01*
X186539605Y-98566239D01*
X186544275Y-98596188D01*
X186552945Y-98596546D01*
X186559009Y-98565641D01*
X186554951Y-98552288D01*
X186543672Y-98543542D01*
X186539605Y-98566239D01*
X186035097Y-98566239D01*
X186039260Y-98508338D01*
X186056788Y-98338736D01*
X186078885Y-98183899D01*
X186080292Y-98175618D01*
X186099232Y-98060545D01*
X186114234Y-97963951D01*
X187460466Y-97963951D01*
X187463953Y-97977679D01*
X187477400Y-97979345D01*
X187498307Y-97970897D01*
X187494333Y-97963951D01*
X187464189Y-97961188D01*
X187460466Y-97963951D01*
X186114234Y-97963951D01*
X186119025Y-97933103D01*
X186130988Y-97851599D01*
X186144428Y-97765667D01*
X186157752Y-97695362D01*
X186168115Y-97655665D01*
X186168264Y-97655306D01*
X186158143Y-97620461D01*
X186109013Y-97591794D01*
X186078795Y-97575254D01*
X186994800Y-97575254D01*
X187007500Y-97586800D01*
X187020200Y-97575254D01*
X187007500Y-97563709D01*
X186994800Y-97575254D01*
X186078795Y-97575254D01*
X186031045Y-97549118D01*
X185929706Y-97476750D01*
X185812937Y-97381365D01*
X185688680Y-97269636D01*
X185564878Y-97148236D01*
X185500615Y-97080582D01*
X185438508Y-97013663D01*
X185387244Y-96958952D01*
X185357383Y-96927714D01*
X185356500Y-96926829D01*
X185335721Y-96896061D01*
X185300732Y-96834726D01*
X185257690Y-96754561D01*
X185212752Y-96667307D01*
X185172072Y-96584704D01*
X185169073Y-96578141D01*
X186878962Y-96578141D01*
X186886650Y-96614066D01*
X186908451Y-96676938D01*
X186945319Y-96773452D01*
X186969674Y-96836345D01*
X187027884Y-96985648D01*
X187073548Y-97099137D01*
X187110402Y-97184744D01*
X187142182Y-97250403D01*
X187172623Y-97304045D01*
X187205461Y-97353601D01*
X187228006Y-97384861D01*
X187281948Y-97458662D01*
X187352123Y-97555314D01*
X187427040Y-97658968D01*
X187462709Y-97708504D01*
X187539772Y-97809296D01*
X187624011Y-97909345D01*
X187701969Y-97993022D01*
X187733362Y-98022919D01*
X187795757Y-98080719D01*
X187840570Y-98125980D01*
X187858381Y-98149171D01*
X187858400Y-98149442D01*
X187839406Y-98162296D01*
X187780384Y-98159874D01*
X187678273Y-98141898D01*
X187610683Y-98127124D01*
X187526251Y-98109987D01*
X187463012Y-98101098D01*
X187435391Y-98102202D01*
X187432908Y-98129564D01*
X187440354Y-98187583D01*
X187451166Y-98241239D01*
X187493194Y-98357195D01*
X187568615Y-98459409D01*
X187578515Y-98469819D01*
X187650267Y-98531898D01*
X187740549Y-98593472D01*
X187835199Y-98646529D01*
X187920054Y-98683052D01*
X187976713Y-98695163D01*
X188027470Y-98705828D01*
X188069619Y-98722917D01*
X188122294Y-98746130D01*
X188150500Y-98754987D01*
X188186989Y-98763057D01*
X188256204Y-98779679D01*
X188328300Y-98797543D01*
X188418032Y-98819420D01*
X188494022Y-98836835D01*
X188531500Y-98844469D01*
X188597289Y-98857192D01*
X188645800Y-98867713D01*
X188707163Y-98879491D01*
X188794550Y-98893670D01*
X188849602Y-98901679D01*
X188966543Y-98920985D01*
X189077985Y-98944798D01*
X189170518Y-98969781D01*
X189230731Y-98992592D01*
X189241430Y-98999238D01*
X189287065Y-99016894D01*
X189304930Y-99018578D01*
X189353579Y-99029222D01*
X189417392Y-99054794D01*
X189420500Y-99056311D01*
X189493137Y-99088741D01*
X189582016Y-99124081D01*
X189609314Y-99134090D01*
X189664827Y-99152728D01*
X189709553Y-99161013D01*
X189757845Y-99157833D01*
X189824060Y-99142074D01*
X189922553Y-99112626D01*
X189934810Y-99108861D01*
X190043283Y-99073071D01*
X190143363Y-99035789D01*
X190217519Y-99003662D01*
X190231594Y-98996303D01*
X190294357Y-98965600D01*
X190342608Y-98949753D01*
X190348928Y-98949163D01*
X190390284Y-98940034D01*
X190457985Y-98916806D01*
X190498330Y-98900759D01*
X190623230Y-98849037D01*
X190714781Y-98812270D01*
X190785499Y-98785554D01*
X190844787Y-98765017D01*
X190915748Y-98722136D01*
X190975211Y-98641102D01*
X190978137Y-98635697D01*
X191010483Y-98569233D01*
X191024058Y-98533527D01*
X191974502Y-98533527D01*
X191977657Y-98556493D01*
X191995156Y-98539815D01*
X191999918Y-98533527D01*
X192029696Y-98488827D01*
X192064974Y-98429842D01*
X192065101Y-98429618D01*
X192104345Y-98360345D01*
X192039685Y-98429618D01*
X191997658Y-98482819D01*
X191975493Y-98526790D01*
X191974502Y-98533527D01*
X191024058Y-98533527D01*
X191030377Y-98516907D01*
X191033400Y-98501100D01*
X191051312Y-98461748D01*
X191073970Y-98439300D01*
X191128226Y-98378462D01*
X191185732Y-98278902D01*
X191244015Y-98147787D01*
X191300604Y-97992282D01*
X191318449Y-97933480D01*
X193446686Y-97933480D01*
X193461811Y-97970561D01*
X193495655Y-98032684D01*
X193505825Y-98049858D01*
X193581135Y-98207754D01*
X193637225Y-98391593D01*
X193669290Y-98583038D01*
X193675000Y-98695553D01*
X193678720Y-98775558D01*
X193689246Y-98817777D01*
X193700400Y-98822163D01*
X193714744Y-98792719D01*
X193723746Y-98732924D01*
X193725358Y-98688028D01*
X193715164Y-98565171D01*
X193687961Y-98428666D01*
X193647582Y-98289210D01*
X193597855Y-98157498D01*
X193542611Y-98044227D01*
X193485682Y-97960094D01*
X193453533Y-97928964D01*
X193446686Y-97933480D01*
X191318449Y-97933480D01*
X191322049Y-97921618D01*
X192735200Y-97921618D01*
X192747900Y-97933163D01*
X192760600Y-97921618D01*
X192747900Y-97910073D01*
X192735200Y-97921618D01*
X191322049Y-97921618D01*
X191336064Y-97875436D01*
X192763582Y-97875436D01*
X192771151Y-97878762D01*
X192773205Y-97875436D01*
X193395600Y-97875436D01*
X193408300Y-97886982D01*
X193421000Y-97875436D01*
X193408300Y-97863891D01*
X193395600Y-97875436D01*
X192773205Y-97875436D01*
X192789478Y-97849087D01*
X192813843Y-97797397D01*
X192839524Y-97734678D01*
X192861801Y-97671914D01*
X192875952Y-97620090D01*
X192877701Y-97609891D01*
X192877854Y-97582751D01*
X192864686Y-97599411D01*
X192838016Y-97660154D01*
X192825914Y-97690709D01*
X192795387Y-97772242D01*
X192773205Y-97837468D01*
X192763672Y-97873634D01*
X192763582Y-97875436D01*
X191336064Y-97875436D01*
X191353025Y-97819553D01*
X191398808Y-97636768D01*
X191435480Y-97451091D01*
X191439413Y-97425163D01*
X194539449Y-97425163D01*
X194548970Y-97440324D01*
X194584969Y-97479988D01*
X194638647Y-97535430D01*
X194701203Y-97597925D01*
X194763838Y-97658746D01*
X194817751Y-97709168D01*
X194854142Y-97740466D01*
X194863343Y-97746323D01*
X194859183Y-97731144D01*
X194845556Y-97705918D01*
X194815644Y-97668477D01*
X194763450Y-97614399D01*
X194699585Y-97553417D01*
X194646630Y-97505982D01*
X194894200Y-97505982D01*
X194906900Y-97517527D01*
X194919600Y-97505982D01*
X194906900Y-97494436D01*
X194894200Y-97505982D01*
X194646630Y-97505982D01*
X194634663Y-97495263D01*
X194579292Y-97449670D01*
X194552264Y-97431782D01*
X194847494Y-97431782D01*
X194853674Y-97444687D01*
X194879249Y-97469476D01*
X194893952Y-97464391D01*
X194894200Y-97461163D01*
X194876158Y-97441632D01*
X194864875Y-97434504D01*
X194847494Y-97431782D01*
X194552264Y-97431782D01*
X194544086Y-97426370D01*
X194539449Y-97425163D01*
X191439413Y-97425163D01*
X191444667Y-97390527D01*
X194792600Y-97390527D01*
X194805300Y-97402073D01*
X194818000Y-97390527D01*
X194805300Y-97378982D01*
X194792600Y-97390527D01*
X191444667Y-97390527D01*
X191448171Y-97367436D01*
X192100200Y-97367436D01*
X192112900Y-97378982D01*
X192125600Y-97367436D01*
X192112900Y-97355891D01*
X192100200Y-97367436D01*
X191448171Y-97367436D01*
X191451675Y-97344345D01*
X191454767Y-97321254D01*
X192126482Y-97321254D01*
X192150064Y-97240436D01*
X192161879Y-97184893D01*
X195870559Y-97184893D01*
X195884800Y-97205800D01*
X195914855Y-97234476D01*
X195925212Y-97240436D01*
X195925465Y-97222956D01*
X195919385Y-97205800D01*
X195892737Y-97175208D01*
X195878972Y-97171163D01*
X195870559Y-97184893D01*
X192161879Y-97184893D01*
X192163264Y-97178383D01*
X192176673Y-97087960D01*
X192187727Y-96986912D01*
X192189256Y-96969118D01*
X192192708Y-96904267D01*
X195537239Y-96904267D01*
X195558032Y-96924753D01*
X195609014Y-96967182D01*
X195694225Y-97035484D01*
X195701497Y-97041273D01*
X195782252Y-97102917D01*
X195833424Y-97137043D01*
X195852543Y-97143598D01*
X195837136Y-97122526D01*
X195784733Y-97073771D01*
X195747854Y-97042309D01*
X195675037Y-96984336D01*
X195609413Y-96937090D01*
X195570054Y-96913400D01*
X195542593Y-96901793D01*
X195537239Y-96904267D01*
X192192708Y-96904267D01*
X192195008Y-96861074D01*
X192190835Y-96797785D01*
X192177933Y-96778618D01*
X192163467Y-96800643D01*
X192154095Y-96862773D01*
X192150720Y-96957573D01*
X192148984Y-97058885D01*
X192144687Y-97155319D01*
X192138744Y-97226665D01*
X192138461Y-97228891D01*
X192126482Y-97321254D01*
X191454767Y-97321254D01*
X191463886Y-97253167D01*
X191476087Y-97162789D01*
X191479659Y-97136527D01*
X191481503Y-97056250D01*
X191471299Y-96963032D01*
X191464259Y-96928709D01*
X191422938Y-96760174D01*
X191417857Y-96740133D01*
X192159466Y-96740133D01*
X192162953Y-96753861D01*
X192176400Y-96755527D01*
X192197307Y-96747078D01*
X192193333Y-96740133D01*
X192163189Y-96737370D01*
X192159466Y-96740133D01*
X191417857Y-96740133D01*
X191392485Y-96640073D01*
X192155010Y-96640073D01*
X192159002Y-96672853D01*
X192167821Y-96668936D01*
X192171176Y-96621661D01*
X192167821Y-96611209D01*
X192158551Y-96608308D01*
X192155010Y-96640073D01*
X191392485Y-96640073D01*
X191390442Y-96632019D01*
X191380171Y-96593891D01*
X193141600Y-96593891D01*
X193150893Y-96612897D01*
X193158533Y-96609285D01*
X193161573Y-96581881D01*
X193158533Y-96578497D01*
X193143433Y-96581666D01*
X193141600Y-96593891D01*
X191380171Y-96593891D01*
X191365482Y-96539365D01*
X191350582Y-96489982D01*
X192125600Y-96489982D01*
X192138300Y-96501527D01*
X192151000Y-96489982D01*
X192138300Y-96478436D01*
X192125600Y-96489982D01*
X191350582Y-96489982D01*
X191346766Y-96477335D01*
X191340571Y-96459814D01*
X193957112Y-96459814D01*
X193970016Y-96469414D01*
X193992500Y-96478436D01*
X194049882Y-96497372D01*
X194079613Y-96494582D01*
X194091603Y-96482108D01*
X194081611Y-96457818D01*
X194040538Y-96420978D01*
X194023252Y-96408917D01*
X193973325Y-96376671D01*
X193959711Y-96371375D01*
X193977875Y-96392528D01*
X193990086Y-96405245D01*
X194022314Y-96440926D01*
X194020692Y-96454208D01*
X193990086Y-96456968D01*
X193957112Y-96459814D01*
X191340571Y-96459814D01*
X191338990Y-96455345D01*
X191319501Y-96401328D01*
X191318228Y-96397618D01*
X193802000Y-96397618D01*
X193814700Y-96409163D01*
X193827400Y-96397618D01*
X193814700Y-96386073D01*
X193802000Y-96397618D01*
X191318228Y-96397618D01*
X191292706Y-96323245D01*
X191282927Y-96293884D01*
X193651263Y-96293884D01*
X193657571Y-96305842D01*
X193671760Y-96322573D01*
X193708834Y-96358471D01*
X193725382Y-96358315D01*
X193725800Y-96354263D01*
X193723255Y-96351436D01*
X193903600Y-96351436D01*
X193916300Y-96362982D01*
X193929000Y-96351436D01*
X193916300Y-96339891D01*
X193903600Y-96351436D01*
X193723255Y-96351436D01*
X193708442Y-96334989D01*
X193681350Y-96313854D01*
X193651263Y-96293884D01*
X191282927Y-96293884D01*
X191273255Y-96264845D01*
X191269474Y-96255224D01*
X193581866Y-96255224D01*
X193585353Y-96268952D01*
X193598800Y-96270618D01*
X193619707Y-96262169D01*
X193615733Y-96255224D01*
X193603977Y-96254146D01*
X193806094Y-96254146D01*
X193812274Y-96267050D01*
X193837849Y-96291839D01*
X193852552Y-96286754D01*
X193852800Y-96283526D01*
X193834758Y-96263995D01*
X193823475Y-96256868D01*
X193806094Y-96254146D01*
X193603977Y-96254146D01*
X193585589Y-96252460D01*
X193581866Y-96255224D01*
X191269474Y-96255224D01*
X191251324Y-96209042D01*
X193531066Y-96209042D01*
X193534553Y-96222770D01*
X193548000Y-96224436D01*
X193568907Y-96215988D01*
X193564933Y-96209042D01*
X193534789Y-96206279D01*
X193531066Y-96209042D01*
X191251324Y-96209042D01*
X191240952Y-96182652D01*
X191229193Y-96166709D01*
X193497200Y-96166709D01*
X193509900Y-96178254D01*
X193522600Y-96166709D01*
X193700400Y-96166709D01*
X193713100Y-96178254D01*
X193725800Y-96166709D01*
X193713100Y-96155163D01*
X193700400Y-96166709D01*
X193522600Y-96166709D01*
X193509900Y-96155163D01*
X193497200Y-96166709D01*
X191229193Y-96166709D01*
X191209975Y-96140654D01*
X191185789Y-96132073D01*
X191120416Y-96137163D01*
X191036417Y-96150100D01*
X190951111Y-96167383D01*
X190881816Y-96185509D01*
X190846088Y-96200756D01*
X190844380Y-96233525D01*
X190875496Y-96293143D01*
X190895473Y-96321640D01*
X190981105Y-96442987D01*
X191043353Y-96548702D01*
X191087134Y-96652109D01*
X191117365Y-96766535D01*
X191138964Y-96905306D01*
X191150501Y-97012773D01*
X191157182Y-97121037D01*
X191151317Y-97203691D01*
X191130927Y-97280298D01*
X191120659Y-97307619D01*
X191073818Y-97426038D01*
X189979300Y-97413618D01*
X189970583Y-97357502D01*
X189953468Y-97306850D01*
X189918500Y-97235240D01*
X189887133Y-97181002D01*
X189848247Y-97113722D01*
X189823668Y-97062090D01*
X189818695Y-97040846D01*
X189812370Y-97007460D01*
X189793859Y-96970064D01*
X189771650Y-96914351D01*
X189755305Y-96839585D01*
X189752890Y-96819973D01*
X189746264Y-96754812D01*
X189741444Y-96710212D01*
X189740526Y-96702760D01*
X189721389Y-96695117D01*
X189674364Y-96719119D01*
X189604763Y-96771452D01*
X189541150Y-96827111D01*
X189433200Y-96926277D01*
X189433200Y-96851085D01*
X189426691Y-96802353D01*
X189409765Y-96789241D01*
X189407800Y-96790163D01*
X189384358Y-96795307D01*
X189392726Y-96768037D01*
X189431890Y-96711188D01*
X189439510Y-96701364D01*
X189476688Y-96651908D01*
X189497477Y-96620332D01*
X189498854Y-96616982D01*
X189529500Y-96562264D01*
X189598334Y-96493837D01*
X189697392Y-96417291D01*
X189818712Y-96338217D01*
X189954329Y-96262204D01*
X190096280Y-96194842D01*
X190106300Y-96190574D01*
X190224465Y-96140925D01*
X190274703Y-96120527D01*
X193446400Y-96120527D01*
X193459100Y-96132073D01*
X193471800Y-96120527D01*
X193649600Y-96120527D01*
X193662300Y-96132073D01*
X193675000Y-96120527D01*
X193662300Y-96108982D01*
X193649600Y-96120527D01*
X193471800Y-96120527D01*
X193459100Y-96108982D01*
X193446400Y-96120527D01*
X190274703Y-96120527D01*
X190309475Y-96106409D01*
X190374101Y-96082425D01*
X190431113Y-96064371D01*
X190479866Y-96051254D01*
X194030600Y-96051254D01*
X194043300Y-96062800D01*
X194056000Y-96051254D01*
X194106800Y-96051254D01*
X194119500Y-96062800D01*
X194132200Y-96051254D01*
X194208400Y-96051254D01*
X194221100Y-96062800D01*
X194233800Y-96051254D01*
X194221100Y-96039709D01*
X194208400Y-96051254D01*
X194132200Y-96051254D01*
X194119500Y-96039709D01*
X194106800Y-96051254D01*
X194056000Y-96051254D01*
X194043300Y-96039709D01*
X194030600Y-96051254D01*
X190479866Y-96051254D01*
X190493284Y-96047644D01*
X190525400Y-96039560D01*
X190566913Y-96028163D01*
X193954400Y-96028163D01*
X193967100Y-96039709D01*
X193979800Y-96028163D01*
X193967100Y-96016618D01*
X193954400Y-96028163D01*
X190566913Y-96028163D01*
X190651019Y-96005073D01*
X193573400Y-96005073D01*
X193586100Y-96016618D01*
X193598800Y-96005073D01*
X193594567Y-96001224D01*
X193835866Y-96001224D01*
X193839353Y-96014952D01*
X193852800Y-96016618D01*
X193873707Y-96008169D01*
X193869733Y-96001224D01*
X193839589Y-95998460D01*
X193835866Y-96001224D01*
X193594567Y-96001224D01*
X193586100Y-95993527D01*
X193573400Y-96005073D01*
X190651019Y-96005073D01*
X190658946Y-96002897D01*
X190719356Y-95981982D01*
X193751200Y-95981982D01*
X193763900Y-95993527D01*
X193776600Y-95981982D01*
X193763900Y-95970436D01*
X193751200Y-95981982D01*
X190719356Y-95981982D01*
X190756036Y-95969283D01*
X190776886Y-95958891D01*
X193700400Y-95958891D01*
X193713100Y-95970436D01*
X193725800Y-95958891D01*
X193713100Y-95947345D01*
X193700400Y-95958891D01*
X190776886Y-95958891D01*
X190813958Y-95940414D01*
X190817258Y-95935800D01*
X193598800Y-95935800D01*
X193611500Y-95947345D01*
X193624200Y-95935800D01*
X193611500Y-95924254D01*
X193598800Y-95935800D01*
X190817258Y-95935800D01*
X190830002Y-95917983D01*
X190819473Y-95912709D01*
X193522600Y-95912709D01*
X193535300Y-95924254D01*
X193548000Y-95912709D01*
X193535300Y-95901163D01*
X193522600Y-95912709D01*
X190819473Y-95912709D01*
X190801457Y-95903685D01*
X190749766Y-95899331D01*
X190539928Y-95894286D01*
X190373096Y-95888918D01*
X190241477Y-95882688D01*
X190137279Y-95875056D01*
X190052708Y-95865482D01*
X189979972Y-95853426D01*
X189928500Y-95842430D01*
X189839663Y-95820324D01*
X189771930Y-95800635D01*
X189738831Y-95787331D01*
X189738000Y-95786566D01*
X189707775Y-95771670D01*
X189646681Y-95751450D01*
X189617350Y-95743249D01*
X189598030Y-95736659D01*
X190957824Y-95736659D01*
X190966455Y-95804044D01*
X190984034Y-95878629D01*
X191013653Y-95911107D01*
X191046913Y-95909230D01*
X191079871Y-95891586D01*
X191084200Y-95884708D01*
X191069401Y-95861336D01*
X191032679Y-95817730D01*
X191021012Y-95804926D01*
X190957824Y-95736659D01*
X189598030Y-95736659D01*
X189552132Y-95721004D01*
X189513728Y-95698384D01*
X189509400Y-95690494D01*
X189491241Y-95674609D01*
X189477650Y-95676670D01*
X189436491Y-95673481D01*
X189372683Y-95652964D01*
X189351661Y-95643958D01*
X189275243Y-95616052D01*
X189205816Y-95601557D01*
X189194255Y-95600982D01*
X189128318Y-95612826D01*
X189043393Y-95644364D01*
X188949587Y-95689604D01*
X188857003Y-95742557D01*
X188775745Y-95797230D01*
X188715918Y-95847633D01*
X188687625Y-95887774D01*
X188687990Y-95901163D01*
X188705900Y-95944270D01*
X188731393Y-96008779D01*
X188738874Y-96028163D01*
X188774635Y-96112349D01*
X188816733Y-96199868D01*
X188823556Y-96212891D01*
X188858527Y-96285885D01*
X188884494Y-96353010D01*
X188888587Y-96367055D01*
X188918814Y-96429791D01*
X188952884Y-96468770D01*
X188989699Y-96506370D01*
X189001400Y-96529544D01*
X189016914Y-96560811D01*
X189056479Y-96612972D01*
X189109631Y-96674507D01*
X189165902Y-96733901D01*
X189214826Y-96779637D01*
X189245939Y-96800196D01*
X189247550Y-96800420D01*
X189287468Y-96816035D01*
X189287524Y-96846540D01*
X189260051Y-96868718D01*
X189221375Y-96876163D01*
X189158830Y-96868684D01*
X189063779Y-96844795D01*
X188986290Y-96821572D01*
X188883410Y-96788062D01*
X188796879Y-96757048D01*
X188739507Y-96733249D01*
X188725838Y-96725591D01*
X188709161Y-96720265D01*
X188715367Y-96748918D01*
X188733513Y-96791214D01*
X188765094Y-96853226D01*
X188793032Y-96897184D01*
X188799524Y-96904463D01*
X188822675Y-96937446D01*
X188806896Y-96953594D01*
X188760584Y-96952856D01*
X188692140Y-96935175D01*
X188620400Y-96905621D01*
X188549582Y-96871758D01*
X188456312Y-96827389D01*
X188379100Y-96790792D01*
X188201110Y-96701471D01*
X188060779Y-96618791D01*
X187947095Y-96536157D01*
X187929573Y-96521593D01*
X187859639Y-96462659D01*
X187793366Y-96407310D01*
X187774237Y-96391485D01*
X187720441Y-96335811D01*
X187668641Y-96265085D01*
X187660048Y-96250799D01*
X187631573Y-96207964D01*
X188472094Y-96207964D01*
X188478274Y-96220868D01*
X188503849Y-96245658D01*
X188518552Y-96240572D01*
X188518800Y-96237344D01*
X188500758Y-96217814D01*
X188489475Y-96210686D01*
X188472094Y-96207964D01*
X187631573Y-96207964D01*
X187611487Y-96177751D01*
X187557034Y-96111470D01*
X187547803Y-96102026D01*
X187499248Y-96039506D01*
X187457848Y-95962128D01*
X187451743Y-95946638D01*
X187413604Y-95871899D01*
X187366027Y-95820268D01*
X187318063Y-95799392D01*
X187287779Y-95808136D01*
X187243668Y-95816306D01*
X187224517Y-95809428D01*
X187183473Y-95809006D01*
X187142093Y-95844093D01*
X187113928Y-95903789D01*
X187101234Y-95990186D01*
X187102545Y-96090426D01*
X187116391Y-96191647D01*
X187141305Y-96280990D01*
X187175819Y-96345594D01*
X187201877Y-96367826D01*
X187242151Y-96382485D01*
X187315851Y-96405053D01*
X187407537Y-96430817D01*
X187413900Y-96432530D01*
X187518941Y-96465229D01*
X187618582Y-96503734D01*
X187686405Y-96537074D01*
X187751965Y-96571921D01*
X187804171Y-96591977D01*
X187816437Y-96593891D01*
X187865128Y-96608860D01*
X187929652Y-96648209D01*
X188001038Y-96703596D01*
X188070316Y-96766683D01*
X188128515Y-96829129D01*
X188166665Y-96882594D01*
X188175795Y-96918738D01*
X188172051Y-96924511D01*
X188171629Y-96952204D01*
X188187984Y-97006511D01*
X188200625Y-97037433D01*
X188246222Y-97160974D01*
X188269180Y-97283279D01*
X188274879Y-97377339D01*
X188277500Y-97479605D01*
X188078523Y-97568803D01*
X187978521Y-97611452D01*
X187887360Y-97646519D01*
X187820735Y-97668081D01*
X187807520Y-97671096D01*
X187784113Y-97674543D01*
X187763454Y-97672572D01*
X187742736Y-97660741D01*
X187719152Y-97634607D01*
X187689893Y-97589728D01*
X187652153Y-97521663D01*
X187603123Y-97425968D01*
X187539997Y-97298202D01*
X187459968Y-97133922D01*
X187433188Y-97078800D01*
X187359586Y-96940060D01*
X187283229Y-96818718D01*
X187208837Y-96720779D01*
X187141130Y-96652245D01*
X187084827Y-96619122D01*
X187070133Y-96616982D01*
X187023539Y-96607262D01*
X187009374Y-96596648D01*
X186976174Y-96577251D01*
X186931043Y-96565104D01*
X186902112Y-96560354D01*
X186884433Y-96562468D01*
X186878962Y-96578141D01*
X185169073Y-96578141D01*
X185141808Y-96518492D01*
X185139528Y-96513073D01*
X185100318Y-96415162D01*
X185078700Y-96351436D01*
X186690000Y-96351436D01*
X186702700Y-96362982D01*
X186715400Y-96351436D01*
X186702700Y-96339891D01*
X186690000Y-96351436D01*
X185078700Y-96351436D01*
X185072322Y-96332637D01*
X185052853Y-96252481D01*
X185039226Y-96161677D01*
X185037574Y-96143618D01*
X185470800Y-96143618D01*
X185483500Y-96155163D01*
X185496200Y-96143618D01*
X185483500Y-96132073D01*
X185470800Y-96143618D01*
X185037574Y-96143618D01*
X185031237Y-96074345D01*
X185445400Y-96074345D01*
X185458100Y-96085891D01*
X185470800Y-96074345D01*
X185458100Y-96062800D01*
X185445400Y-96074345D01*
X185031237Y-96074345D01*
X185028754Y-96047208D01*
X185021575Y-95941483D01*
X185020523Y-95924254D01*
X185445400Y-95924254D01*
X185454693Y-95943261D01*
X185462333Y-95939648D01*
X185465373Y-95912245D01*
X185462333Y-95908860D01*
X185447233Y-95912030D01*
X185445400Y-95924254D01*
X185020523Y-95924254D01*
X185013065Y-95802189D01*
X185010822Y-95757504D01*
X186748243Y-95757504D01*
X186752631Y-95851406D01*
X186754827Y-95866527D01*
X186766266Y-95928284D01*
X186775577Y-95965505D01*
X186778320Y-95970436D01*
X186781224Y-95949136D01*
X186783431Y-95892396D01*
X186784584Y-95810959D01*
X186784672Y-95779182D01*
X186786738Y-95682235D01*
X186789192Y-95644032D01*
X187085136Y-95644032D01*
X187086396Y-95699830D01*
X187088879Y-95708835D01*
X187110112Y-95719786D01*
X187152484Y-95692954D01*
X187155831Y-95690095D01*
X187217814Y-95647017D01*
X187269840Y-95621739D01*
X187309111Y-95601022D01*
X187317844Y-95567509D01*
X187309403Y-95525820D01*
X187299504Y-95466240D01*
X187292968Y-95394725D01*
X187734147Y-95394725D01*
X187739148Y-95455281D01*
X187755078Y-95538284D01*
X187778744Y-95633173D01*
X187806956Y-95729388D01*
X187836520Y-95816368D01*
X187864245Y-95883552D01*
X187886938Y-95920379D01*
X187894205Y-95924254D01*
X187892906Y-95904443D01*
X187877940Y-95852803D01*
X187855667Y-95789114D01*
X187829490Y-95708929D01*
X188012681Y-95708929D01*
X188026637Y-95750180D01*
X188045463Y-95776773D01*
X188054366Y-95776891D01*
X188052959Y-95751066D01*
X188039300Y-95723941D01*
X188016841Y-95696814D01*
X188012681Y-95708929D01*
X187829490Y-95708929D01*
X187824433Y-95693441D01*
X187805457Y-95624073D01*
X187985400Y-95624073D01*
X187994693Y-95643079D01*
X188002333Y-95639466D01*
X188005373Y-95612063D01*
X188002333Y-95608679D01*
X187987233Y-95611848D01*
X187985400Y-95624073D01*
X187805457Y-95624073D01*
X187793086Y-95578856D01*
X187771181Y-95483159D01*
X187753673Y-95403047D01*
X187742012Y-95367319D01*
X187735601Y-95374553D01*
X187734147Y-95394725D01*
X187292968Y-95394725D01*
X187291455Y-95378181D01*
X187287281Y-95289254D01*
X187706000Y-95289254D01*
X187718700Y-95300800D01*
X187731400Y-95289254D01*
X187718700Y-95277709D01*
X187706000Y-95289254D01*
X187287281Y-95289254D01*
X187286815Y-95279343D01*
X187286536Y-95266163D01*
X187285325Y-95208436D01*
X187706000Y-95208436D01*
X187715293Y-95227443D01*
X187722933Y-95223830D01*
X187725973Y-95196427D01*
X187722933Y-95193042D01*
X187707833Y-95196212D01*
X187706000Y-95208436D01*
X187285325Y-95208436D01*
X187283351Y-95114396D01*
X187282633Y-95092399D01*
X188476628Y-95092399D01*
X188484893Y-95153624D01*
X188502347Y-95245763D01*
X188528199Y-95364134D01*
X188561657Y-95504051D01*
X188563435Y-95511207D01*
X188630182Y-95779342D01*
X188683389Y-95707480D01*
X188741095Y-95648537D01*
X188808289Y-95603820D01*
X188811848Y-95602187D01*
X188886460Y-95574464D01*
X188976147Y-95548046D01*
X188995685Y-95543223D01*
X189104270Y-95517691D01*
X189014735Y-95485754D01*
X188956796Y-95458375D01*
X188926489Y-95430954D01*
X188925200Y-95425749D01*
X188903751Y-95399295D01*
X188852024Y-95374495D01*
X188850692Y-95374069D01*
X188790243Y-95343797D01*
X188711424Y-95290020D01*
X188627972Y-95223907D01*
X188566916Y-95168656D01*
X190382892Y-95168656D01*
X190388501Y-95191920D01*
X190421683Y-95229603D01*
X190459496Y-95267246D01*
X190474600Y-95288520D01*
X190491116Y-95307459D01*
X190535193Y-95351462D01*
X190598625Y-95412801D01*
X190673205Y-95483745D01*
X190750726Y-95556565D01*
X190822981Y-95623531D01*
X190881763Y-95676914D01*
X190918867Y-95708985D01*
X190927161Y-95714765D01*
X190926865Y-95697512D01*
X190917190Y-95664785D01*
X190914190Y-95658709D01*
X196088000Y-95658709D01*
X196100700Y-95670254D01*
X196113400Y-95658709D01*
X196100700Y-95647163D01*
X196088000Y-95658709D01*
X190914190Y-95658709D01*
X190887779Y-95605234D01*
X190840367Y-95531695D01*
X190787028Y-95461048D01*
X190739835Y-95410171D01*
X190728709Y-95401306D01*
X190682681Y-95367266D01*
X190627000Y-95323643D01*
X190534884Y-95252817D01*
X190458383Y-95200542D01*
X190404873Y-95171500D01*
X190382892Y-95168656D01*
X188566916Y-95168656D01*
X188553625Y-95156629D01*
X188502118Y-95099357D01*
X188490829Y-95081436D01*
X188478343Y-95066775D01*
X188476628Y-95092399D01*
X187282633Y-95092399D01*
X187281180Y-95047903D01*
X190249077Y-95047903D01*
X190272293Y-95094500D01*
X190305334Y-95130950D01*
X190335151Y-95136650D01*
X190347600Y-95110081D01*
X190328163Y-95076210D01*
X190296800Y-95052159D01*
X190256361Y-95034251D01*
X190249077Y-95047903D01*
X187281180Y-95047903D01*
X187280012Y-95012163D01*
X188341000Y-95012163D01*
X188353700Y-95023709D01*
X188366400Y-95012163D01*
X188353700Y-95000618D01*
X188341000Y-95012163D01*
X187280012Y-95012163D01*
X187279739Y-95003828D01*
X187275315Y-94929478D01*
X187269695Y-94886362D01*
X187262495Y-94869498D01*
X187256035Y-94870888D01*
X187235130Y-94908806D01*
X187210226Y-94982894D01*
X187183257Y-95083457D01*
X187156157Y-95200798D01*
X187130861Y-95325222D01*
X187109303Y-95447032D01*
X187093416Y-95556535D01*
X187085136Y-95644032D01*
X186789192Y-95644032D01*
X186792215Y-95596992D01*
X186800023Y-95538899D01*
X186802049Y-95530954D01*
X186809729Y-95496792D01*
X186798723Y-95504660D01*
X186795972Y-95508618D01*
X186771906Y-95568778D01*
X186755332Y-95657517D01*
X186748243Y-95757504D01*
X185010822Y-95757504D01*
X185007835Y-95698041D01*
X185005906Y-95618097D01*
X185007303Y-95551415D01*
X185012047Y-95487053D01*
X185020162Y-95414071D01*
X185022725Y-95393163D01*
X185043603Y-95254618D01*
X186035492Y-95254618D01*
X186038141Y-95296628D01*
X186044734Y-95301579D01*
X186047108Y-95295027D01*
X186051059Y-95236463D01*
X186047108Y-95214209D01*
X186039746Y-95207022D01*
X186035738Y-95238951D01*
X186035492Y-95254618D01*
X185043603Y-95254618D01*
X185049011Y-95218739D01*
X185065019Y-95139163D01*
X186057174Y-95139163D01*
X186065052Y-95147891D01*
X186080925Y-95127168D01*
X186096568Y-95091307D01*
X186103625Y-95058345D01*
X186094313Y-95054193D01*
X186080400Y-95069891D01*
X186059339Y-95119184D01*
X186057174Y-95139163D01*
X185065019Y-95139163D01*
X185083352Y-95048037D01*
X185121717Y-94896709D01*
X186131200Y-94896709D01*
X186143900Y-94908254D01*
X186156600Y-94896709D01*
X186143900Y-94885163D01*
X186131200Y-94896709D01*
X185121717Y-94896709D01*
X185123137Y-94891108D01*
X185150917Y-94804345D01*
X186182000Y-94804345D01*
X186194700Y-94815891D01*
X186207400Y-94804345D01*
X186194700Y-94792800D01*
X186182000Y-94804345D01*
X185150917Y-94804345D01*
X185165756Y-94758003D01*
X185167348Y-94754315D01*
X187231866Y-94754315D01*
X187235353Y-94768042D01*
X187248800Y-94769709D01*
X187269707Y-94761260D01*
X187265733Y-94754315D01*
X187235589Y-94751551D01*
X187231866Y-94754315D01*
X185167348Y-94754315D01*
X185185624Y-94711982D01*
X189141100Y-94711982D01*
X189215702Y-94787027D01*
X189269875Y-94839489D01*
X189298024Y-94860670D01*
X189306198Y-94855105D01*
X189306200Y-94854847D01*
X189289195Y-94836497D01*
X189252719Y-94804345D01*
X195707000Y-94804345D01*
X195719700Y-94815891D01*
X195732400Y-94804345D01*
X195719700Y-94792800D01*
X195707000Y-94804345D01*
X189252719Y-94804345D01*
X189246346Y-94798728D01*
X189223650Y-94779802D01*
X189141100Y-94711982D01*
X195173600Y-94711982D01*
X195186300Y-94723527D01*
X195199000Y-94711982D01*
X195186300Y-94700436D01*
X195224400Y-94700436D01*
X195245945Y-94718688D01*
X195305166Y-94716957D01*
X195322917Y-94712863D01*
X195499873Y-94712863D01*
X195541559Y-94733159D01*
X195567300Y-94744599D01*
X195641635Y-94776583D01*
X195676610Y-94788609D01*
X195678125Y-94781690D01*
X195655292Y-94759683D01*
X195603536Y-94731112D01*
X195541900Y-94713195D01*
X195500861Y-94707290D01*
X195499873Y-94712863D01*
X195322917Y-94712863D01*
X195376800Y-94700436D01*
X195408988Y-94688967D01*
X195400353Y-94682862D01*
X195346297Y-94679971D01*
X195332350Y-94679647D01*
X195266461Y-94683074D01*
X195228253Y-94694414D01*
X195224400Y-94700436D01*
X195186300Y-94700436D01*
X195173600Y-94711982D01*
X189141100Y-94711982D01*
X185185624Y-94711982D01*
X185208598Y-94658772D01*
X185217659Y-94642709D01*
X194564000Y-94642709D01*
X194576700Y-94654254D01*
X194589400Y-94642709D01*
X194576700Y-94631163D01*
X194564000Y-94642709D01*
X185217659Y-94642709D01*
X185241016Y-94596527D01*
X194386200Y-94596527D01*
X194398900Y-94608073D01*
X194411600Y-94596527D01*
X194398900Y-94584982D01*
X194386200Y-94596527D01*
X185241016Y-94596527D01*
X185253225Y-94572390D01*
X185254003Y-94570293D01*
X194444690Y-94570293D01*
X194446016Y-94594687D01*
X194463135Y-94608974D01*
X194511030Y-94629479D01*
X194529445Y-94624056D01*
X194510460Y-94595780D01*
X194506547Y-94592129D01*
X194467008Y-94568443D01*
X194444690Y-94570293D01*
X185254003Y-94570293D01*
X185277121Y-94508018D01*
X185302229Y-94447020D01*
X185343143Y-94374306D01*
X185348898Y-94365618D01*
X186385200Y-94365618D01*
X186397900Y-94377163D01*
X186410600Y-94365618D01*
X186397900Y-94354073D01*
X186385200Y-94365618D01*
X185348898Y-94365618D01*
X185357513Y-94352613D01*
X185394875Y-94295576D01*
X185417206Y-94255247D01*
X185420000Y-94246450D01*
X185434150Y-94219059D01*
X185436563Y-94215527D01*
X194513200Y-94215527D01*
X194522493Y-94234533D01*
X194530133Y-94230921D01*
X194533173Y-94203517D01*
X194530133Y-94200133D01*
X194515033Y-94203303D01*
X194513200Y-94215527D01*
X185436563Y-94215527D01*
X185472180Y-94163411D01*
X185527202Y-94088527D01*
X192430400Y-94088527D01*
X192443100Y-94100073D01*
X192455800Y-94088527D01*
X192443100Y-94076982D01*
X192430400Y-94088527D01*
X185527202Y-94088527D01*
X185527462Y-94088174D01*
X185593365Y-94002017D01*
X185634503Y-93949982D01*
X191198500Y-93949982D01*
X191246886Y-94001936D01*
X191291921Y-94045567D01*
X191311536Y-94051866D01*
X191312800Y-94045924D01*
X191295670Y-94027066D01*
X191255650Y-93993969D01*
X191198500Y-93949982D01*
X185634503Y-93949982D01*
X185663261Y-93913608D01*
X185730519Y-93831615D01*
X185781318Y-93772983D01*
X190944500Y-93772983D01*
X191020700Y-93832504D01*
X191075096Y-93873969D01*
X191101408Y-93890013D01*
X191109346Y-93886076D01*
X191109600Y-93882281D01*
X191090573Y-93864484D01*
X191043267Y-93832597D01*
X191027050Y-93822646D01*
X190980507Y-93794645D01*
X192138300Y-93794645D01*
X192233176Y-93878086D01*
X192301149Y-93934992D01*
X192339983Y-93959753D01*
X192353977Y-93954991D01*
X192354200Y-93951922D01*
X192335685Y-93933896D01*
X192288121Y-93897876D01*
X192246250Y-93868481D01*
X192138300Y-93794645D01*
X190980507Y-93794645D01*
X190944500Y-93772983D01*
X185781318Y-93772983D01*
X185788015Y-93765254D01*
X185847731Y-93694991D01*
X185850686Y-93691055D01*
X190808894Y-93691055D01*
X190815074Y-93703959D01*
X190840649Y-93728748D01*
X190855352Y-93723663D01*
X190855600Y-93720435D01*
X190837558Y-93700905D01*
X190826275Y-93693777D01*
X190808894Y-93691055D01*
X185850686Y-93691055D01*
X185896496Y-93630044D01*
X185898533Y-93626709D01*
X190677800Y-93626709D01*
X190690500Y-93638254D01*
X190703200Y-93626709D01*
X190690500Y-93615163D01*
X190677800Y-93626709D01*
X185898533Y-93626709D01*
X185919692Y-93592073D01*
X185934298Y-93575600D01*
X190605694Y-93575600D01*
X190611874Y-93588505D01*
X190637449Y-93613294D01*
X190652152Y-93608209D01*
X190652400Y-93604981D01*
X190634358Y-93585450D01*
X190623075Y-93578322D01*
X190605694Y-93575600D01*
X185934298Y-93575600D01*
X185966313Y-93539496D01*
X185974397Y-93534345D01*
X190500000Y-93534345D01*
X190512700Y-93545891D01*
X190525400Y-93534345D01*
X190512700Y-93522800D01*
X190500000Y-93534345D01*
X185974397Y-93534345D01*
X186050575Y-93485811D01*
X186129168Y-93450660D01*
X188722772Y-93450660D01*
X188727339Y-93472941D01*
X188744314Y-93455399D01*
X188751253Y-93444799D01*
X188783044Y-93407279D01*
X188839765Y-93350579D01*
X188865997Y-93326527D01*
X189052200Y-93326527D01*
X189064900Y-93338073D01*
X189077600Y-93326527D01*
X189103000Y-93326527D01*
X189115700Y-93338073D01*
X189126973Y-93327824D01*
X189209868Y-93327824D01*
X189240398Y-93331650D01*
X189268100Y-93332249D01*
X189320375Y-93330391D01*
X189333867Y-93325158D01*
X189326877Y-93322679D01*
X189441666Y-93322679D01*
X189445153Y-93336406D01*
X189458600Y-93338073D01*
X189479507Y-93329624D01*
X189477735Y-93326527D01*
X189509400Y-93326527D01*
X189522100Y-93338073D01*
X189529812Y-93331061D01*
X190061487Y-93331061D01*
X190093700Y-93351354D01*
X190158551Y-93385469D01*
X190220600Y-93415924D01*
X190323896Y-93464069D01*
X190405092Y-93499185D01*
X190458850Y-93519345D01*
X190479832Y-93522625D01*
X190462702Y-93507099D01*
X190449200Y-93498403D01*
X190387846Y-93464968D01*
X190301581Y-93423438D01*
X190207794Y-93381582D01*
X190123874Y-93347168D01*
X190068200Y-93328208D01*
X190061487Y-93331061D01*
X189529812Y-93331061D01*
X189534800Y-93326527D01*
X189522100Y-93314982D01*
X189509400Y-93326527D01*
X189477735Y-93326527D01*
X189475533Y-93322679D01*
X189445389Y-93319915D01*
X189441666Y-93322679D01*
X189326877Y-93322679D01*
X189325546Y-93322207D01*
X189264549Y-93317906D01*
X189223946Y-93321741D01*
X189209868Y-93327824D01*
X189126973Y-93327824D01*
X189128400Y-93326527D01*
X189115700Y-93314982D01*
X189103000Y-93326527D01*
X189077600Y-93326527D01*
X189064900Y-93314982D01*
X189052200Y-93326527D01*
X188865997Y-93326527D01*
X188909145Y-93286967D01*
X188909231Y-93286891D01*
X188965675Y-93234908D01*
X188996888Y-93201234D01*
X188997449Y-93191882D01*
X188993500Y-93193417D01*
X188939376Y-93226904D01*
X188874081Y-93279146D01*
X188809072Y-93339256D01*
X188755805Y-93396349D01*
X188725736Y-93439539D01*
X188722772Y-93450660D01*
X186129168Y-93450660D01*
X186159910Y-93436911D01*
X186281746Y-93398687D01*
X186369608Y-93381164D01*
X186451838Y-93366889D01*
X186510570Y-93352334D01*
X186531408Y-93342113D01*
X186553203Y-93305252D01*
X186598020Y-93240773D01*
X186658617Y-93158152D01*
X186671001Y-93141800D01*
X189077600Y-93141800D01*
X189090300Y-93153345D01*
X189103000Y-93141800D01*
X189090300Y-93130254D01*
X189077600Y-93141800D01*
X186671001Y-93141800D01*
X186688489Y-93118709D01*
X189128400Y-93118709D01*
X189141100Y-93130254D01*
X189153800Y-93118709D01*
X189141100Y-93107163D01*
X189128400Y-93118709D01*
X186688489Y-93118709D01*
X186707282Y-93093895D01*
X189182867Y-93093895D01*
X189188856Y-93105944D01*
X189203100Y-93107163D01*
X189237543Y-93090393D01*
X189242520Y-93084337D01*
X189238431Y-93071215D01*
X189218619Y-93075262D01*
X189182867Y-93093895D01*
X186707282Y-93093895D01*
X186727756Y-93066864D01*
X186798195Y-92976387D01*
X186815460Y-92954921D01*
X190741153Y-92954921D01*
X190757762Y-92976268D01*
X190797717Y-93002402D01*
X190850370Y-93024692D01*
X190856784Y-93026627D01*
X190926824Y-93053625D01*
X190981479Y-93081628D01*
X191045693Y-93117318D01*
X191123997Y-93157747D01*
X191138490Y-93164891D01*
X191179287Y-93185252D01*
X191222729Y-93208191D01*
X191275024Y-93237314D01*
X191342384Y-93276225D01*
X191431016Y-93328530D01*
X191547130Y-93397834D01*
X191696937Y-93487743D01*
X191764710Y-93528495D01*
X191902528Y-93610638D01*
X191999570Y-93666689D01*
X192056665Y-93697052D01*
X192074642Y-93702133D01*
X192054332Y-93682337D01*
X192011300Y-93649030D01*
X191941393Y-93595259D01*
X191875826Y-93542677D01*
X191872693Y-93540078D01*
X191770261Y-93465073D01*
X192938400Y-93465073D01*
X192951100Y-93476618D01*
X192963800Y-93465073D01*
X192951100Y-93453527D01*
X192938400Y-93465073D01*
X191770261Y-93465073D01*
X191741811Y-93444241D01*
X191738125Y-93441982D01*
X192684400Y-93441982D01*
X192697100Y-93453527D01*
X192709800Y-93441982D01*
X192697100Y-93430436D01*
X192684400Y-93441982D01*
X191738125Y-93441982D01*
X191662765Y-93395800D01*
X192862200Y-93395800D01*
X192874900Y-93407345D01*
X192887600Y-93395800D01*
X192874900Y-93384254D01*
X192862200Y-93395800D01*
X191662765Y-93395800D01*
X191625085Y-93372709D01*
X192811400Y-93372709D01*
X192824100Y-93384254D01*
X192836800Y-93372709D01*
X192824100Y-93361163D01*
X192811400Y-93372709D01*
X191625085Y-93372709D01*
X191565505Y-93336198D01*
X191547655Y-93326527D01*
X192760600Y-93326527D01*
X192773300Y-93338073D01*
X192786000Y-93326527D01*
X192773300Y-93314982D01*
X192760600Y-93326527D01*
X191547655Y-93326527D01*
X191467216Y-93282946D01*
X192489931Y-93282946D01*
X192493900Y-93291891D01*
X192516724Y-93313919D01*
X192520799Y-93314982D01*
X192531708Y-93297116D01*
X192532000Y-93291891D01*
X192512473Y-93269687D01*
X192505100Y-93268800D01*
X192489931Y-93282946D01*
X191467216Y-93282946D01*
X191346777Y-93217694D01*
X191323573Y-93206146D01*
X192409094Y-93206146D01*
X192415274Y-93219050D01*
X192440849Y-93243839D01*
X192455552Y-93238754D01*
X192455800Y-93235526D01*
X192437758Y-93215995D01*
X192429966Y-93211073D01*
X192620900Y-93211073D01*
X192669286Y-93263027D01*
X192714321Y-93306658D01*
X192733936Y-93312957D01*
X192735200Y-93307015D01*
X192718070Y-93288157D01*
X192678050Y-93255060D01*
X192620900Y-93211073D01*
X192429966Y-93211073D01*
X192426475Y-93208868D01*
X192409094Y-93206146D01*
X191323573Y-93206146D01*
X191194278Y-93141800D01*
X192303400Y-93141800D01*
X192316100Y-93153345D01*
X192328800Y-93141800D01*
X192316100Y-93130254D01*
X192303400Y-93141800D01*
X191194278Y-93141800D01*
X191150618Y-93120072D01*
X191147778Y-93118709D01*
X192430400Y-93118709D01*
X192443100Y-93130254D01*
X192455800Y-93118709D01*
X192443100Y-93107163D01*
X192430400Y-93118709D01*
X191147778Y-93118709D01*
X191012900Y-93053993D01*
X190912980Y-93006857D01*
X190843976Y-92975626D01*
X190799008Y-92957263D01*
X190771195Y-92948729D01*
X190758535Y-92946991D01*
X190741153Y-92954921D01*
X186815460Y-92954921D01*
X186862694Y-92896194D01*
X186903787Y-92847805D01*
X188776029Y-92847805D01*
X188778744Y-92850197D01*
X188806224Y-92831356D01*
X188851952Y-92786671D01*
X188878509Y-92749254D01*
X189204600Y-92749254D01*
X189217300Y-92760800D01*
X189230000Y-92749254D01*
X189217300Y-92737709D01*
X189204600Y-92749254D01*
X188878509Y-92749254D01*
X188888696Y-92734902D01*
X188914071Y-92698460D01*
X189335526Y-92698460D01*
X189363743Y-92699201D01*
X189437145Y-92685032D01*
X189455883Y-92680633D01*
X189569816Y-92661419D01*
X189681624Y-92662734D01*
X189812130Y-92685291D01*
X189849110Y-92694083D01*
X189920034Y-92711391D01*
X189970596Y-92723358D01*
X189979300Y-92725288D01*
X190019040Y-92737351D01*
X190079570Y-92759040D01*
X190080900Y-92759545D01*
X190141605Y-92781458D01*
X190182057Y-92794080D01*
X190182500Y-92794181D01*
X190223764Y-92806597D01*
X190271400Y-92823209D01*
X190351560Y-92851990D01*
X190400621Y-92867209D01*
X190434226Y-92873391D01*
X190448501Y-92874431D01*
X190464368Y-92868190D01*
X190435801Y-92846220D01*
X190340165Y-92800725D01*
X190203676Y-92752793D01*
X190035892Y-92705724D01*
X190011050Y-92699538D01*
X189926261Y-92676414D01*
X189864966Y-92655273D01*
X189839697Y-92640479D01*
X189839600Y-92639861D01*
X189816769Y-92628187D01*
X189757495Y-92622650D01*
X189675604Y-92622730D01*
X189584920Y-92627903D01*
X189499269Y-92637648D01*
X189432477Y-92651443D01*
X189419684Y-92655712D01*
X189353754Y-92683675D01*
X189335526Y-92698460D01*
X188914071Y-92698460D01*
X188922334Y-92686595D01*
X188978213Y-92616999D01*
X189045313Y-92539730D01*
X189057927Y-92525844D01*
X189119665Y-92457358D01*
X189150114Y-92419947D01*
X189151329Y-92409843D01*
X189125365Y-92423279D01*
X189107779Y-92434433D01*
X189041241Y-92486382D01*
X188987742Y-92542742D01*
X188982911Y-92549446D01*
X188939215Y-92608579D01*
X188902698Y-92652226D01*
X188869423Y-92700240D01*
X188858581Y-92729297D01*
X188838523Y-92772773D01*
X188806470Y-92814382D01*
X188776029Y-92847805D01*
X186903787Y-92847805D01*
X186914014Y-92835763D01*
X186936540Y-92811890D01*
X186985456Y-92762592D01*
X186997105Y-92749254D01*
X188798200Y-92749254D01*
X188810900Y-92760800D01*
X188823600Y-92749254D01*
X188810900Y-92737709D01*
X188798200Y-92749254D01*
X186997105Y-92749254D01*
X187015583Y-92728097D01*
X187020200Y-92719955D01*
X187038004Y-92696897D01*
X187084797Y-92652380D01*
X187150650Y-92594624D01*
X187225636Y-92531853D01*
X187299824Y-92472288D01*
X187363288Y-92424151D01*
X187406097Y-92395664D01*
X187417014Y-92391345D01*
X187452054Y-92378501D01*
X187456233Y-92372683D01*
X187481932Y-92348635D01*
X187503431Y-92333618D01*
X189103000Y-92333618D01*
X189115700Y-92345163D01*
X189128400Y-92333618D01*
X189115700Y-92322073D01*
X189103000Y-92333618D01*
X187503431Y-92333618D01*
X187536055Y-92310831D01*
X187603217Y-92268723D01*
X187651389Y-92241254D01*
X189077600Y-92241254D01*
X189090300Y-92252800D01*
X189103000Y-92241254D01*
X189090300Y-92229709D01*
X189077600Y-92241254D01*
X187651389Y-92241254D01*
X187668036Y-92231762D01*
X187715128Y-92209400D01*
X187726516Y-92206618D01*
X187737948Y-92201460D01*
X189002997Y-92201460D01*
X189025874Y-92206186D01*
X189031650Y-92206264D01*
X189077577Y-92194498D01*
X189090300Y-92183527D01*
X189092349Y-92163129D01*
X189062062Y-92166519D01*
X189026800Y-92183527D01*
X189002997Y-92201460D01*
X187737948Y-92201460D01*
X187761595Y-92190791D01*
X187780258Y-92174109D01*
X187819075Y-92145530D01*
X187880182Y-92112443D01*
X187944302Y-92084007D01*
X187992152Y-92069384D01*
X188001148Y-92069160D01*
X188027531Y-92055335D01*
X188036693Y-92044256D01*
X188078160Y-92021704D01*
X188161540Y-92006227D01*
X188278557Y-91997751D01*
X188420936Y-91996205D01*
X188580402Y-92001517D01*
X188748678Y-92013614D01*
X188917490Y-92032425D01*
X189052200Y-92053105D01*
X189194495Y-92076301D01*
X189296380Y-92087736D01*
X189366544Y-92087509D01*
X189413674Y-92075713D01*
X189441305Y-92057405D01*
X189489275Y-92023120D01*
X189571635Y-91973474D01*
X189677568Y-91914177D01*
X189796260Y-91850939D01*
X189916897Y-91789470D01*
X190028663Y-91735481D01*
X190120743Y-91694681D01*
X190150153Y-91683143D01*
X190212054Y-91661243D01*
X190266714Y-91645919D01*
X190324540Y-91636278D01*
X190395939Y-91631431D01*
X190491317Y-91630486D01*
X190621081Y-91632550D01*
G37*
X190621081Y-91632550D02*
X190715183Y-91634751D01*
X190903302Y-91641350D01*
X191054894Y-91652406D01*
X191184178Y-91670270D01*
X191305373Y-91697295D01*
X191432700Y-91735834D01*
X191528700Y-91769332D01*
X191570574Y-91783757D01*
X191649752Y-91810434D01*
X191755784Y-91845863D01*
X191878221Y-91886543D01*
X191909700Y-91896968D01*
X192031769Y-91938156D01*
X192137095Y-91975174D01*
X192216191Y-92004578D01*
X192259570Y-92022925D01*
X192264029Y-92025616D01*
X192309338Y-92043090D01*
X192329430Y-92044982D01*
X192374011Y-92056162D01*
X192453637Y-92086914D01*
X192559790Y-92133054D01*
X192683950Y-92190398D01*
X192817598Y-92254763D01*
X192952216Y-92321964D01*
X193079285Y-92387818D01*
X193190286Y-92448141D01*
X193276700Y-92498750D01*
X193330008Y-92535460D01*
X193332533Y-92537624D01*
X193370132Y-92567673D01*
X193429715Y-92612453D01*
X193458957Y-92633800D01*
X193525881Y-92684935D01*
X193581358Y-92731977D01*
X193595844Y-92745990D01*
X193641475Y-92791607D01*
X193699134Y-92846784D01*
X193706723Y-92853871D01*
X193762082Y-92909726D01*
X193828841Y-92982998D01*
X193869466Y-93030317D01*
X193922055Y-93091591D01*
X193963720Y-93136857D01*
X193982192Y-93153809D01*
X194008003Y-93185832D01*
X194040149Y-93246617D01*
X194071848Y-93320309D01*
X194096314Y-93391054D01*
X194106766Y-93442998D01*
X194106800Y-93445043D01*
X194118626Y-93508522D01*
X194141972Y-93564356D01*
X194165924Y-93613808D01*
X194200186Y-93693245D01*
X194238900Y-93788868D01*
X194256036Y-93833040D01*
X194300988Y-93937915D01*
X194348933Y-94028990D01*
X194392577Y-94092831D01*
X194403162Y-94104117D01*
X194455433Y-94148740D01*
X194478649Y-94155700D01*
X194472893Y-94124871D01*
X194438252Y-94056127D01*
X194437031Y-94053946D01*
X194382718Y-93957162D01*
X194467009Y-93972334D01*
X194631645Y-94016486D01*
X194781391Y-94091044D01*
X194805300Y-94106182D01*
X194894469Y-94169383D01*
X194987855Y-94244185D01*
X195075367Y-94321496D01*
X195146914Y-94392225D01*
X195192405Y-94447279D01*
X195200947Y-94462638D01*
X195236196Y-94503958D01*
X195284264Y-94517930D01*
X195309396Y-94509936D01*
X195333377Y-94517426D01*
X195353846Y-94530769D01*
X195400233Y-94553409D01*
X195471795Y-94576992D01*
X195493965Y-94582761D01*
X195585631Y-94613675D01*
X195677382Y-94657261D01*
X195691943Y-94665837D01*
X195752798Y-94700889D01*
X195796142Y-94721356D01*
X195804951Y-94723527D01*
X195837561Y-94742521D01*
X195882936Y-94791529D01*
X195932661Y-94858586D01*
X195978321Y-94931730D01*
X196011503Y-94998996D01*
X196022057Y-95032201D01*
X196038386Y-95104196D01*
X196052302Y-95143489D01*
X196068614Y-95163090D01*
X196071067Y-95164807D01*
X196084824Y-95195994D01*
X196093389Y-95257581D01*
X196096324Y-95333992D01*
X196093191Y-95409646D01*
X196083550Y-95468967D01*
X196079938Y-95479754D01*
X196071624Y-95519190D01*
X196096157Y-95531562D01*
X196105338Y-95531851D01*
X196162524Y-95542260D01*
X196215000Y-95561463D01*
X196279627Y-95587264D01*
X196363549Y-95615744D01*
X196389601Y-95623690D01*
X196506697Y-95674941D01*
X196603940Y-95756907D01*
X196689100Y-95876550D01*
X196706383Y-95907499D01*
X196737385Y-95970376D01*
X196757562Y-96029397D01*
X196769414Y-96097776D01*
X196775442Y-96188730D01*
X196777720Y-96284554D01*
X196777610Y-96396209D01*
X196774281Y-96498184D01*
X196768344Y-96577001D01*
X196762908Y-96611401D01*
X196731388Y-96680342D01*
X196684629Y-96714595D01*
X196631326Y-96709644D01*
X196606590Y-96692584D01*
X196544292Y-96663079D01*
X196437114Y-96648392D01*
X196414326Y-96647321D01*
X196330498Y-96645963D01*
X196285624Y-96651805D01*
X196268069Y-96667815D01*
X196265800Y-96685202D01*
X196284626Y-96730101D01*
X196325499Y-96770919D01*
X196377461Y-96828545D01*
X196426332Y-96919005D01*
X196467148Y-97028982D01*
X196494943Y-97145160D01*
X196504768Y-97251741D01*
X196498128Y-97375248D01*
X196480627Y-97492692D01*
X196454893Y-97591917D01*
X196423553Y-97660767D01*
X196413560Y-97673565D01*
X196378951Y-97716993D01*
X196333433Y-97781902D01*
X196310062Y-97817709D01*
X196269723Y-97869179D01*
X196202519Y-97942383D01*
X196117093Y-98029108D01*
X196022086Y-98121144D01*
X195926139Y-98210279D01*
X195837894Y-98288300D01*
X195765993Y-98346997D01*
X195721546Y-98376953D01*
X195695587Y-98385946D01*
X195686244Y-98370992D01*
X195690527Y-98323020D01*
X195694828Y-98295919D01*
X195700503Y-98219485D01*
X195687339Y-98179360D01*
X195684033Y-98176985D01*
X195664305Y-98144857D01*
X195656200Y-98090327D01*
X195651539Y-98029217D01*
X195639467Y-97943877D01*
X195633306Y-97910073D01*
X195685610Y-97910073D01*
X195689602Y-97942853D01*
X195698421Y-97938936D01*
X195701776Y-97891661D01*
X195698421Y-97881209D01*
X195689151Y-97878308D01*
X195685610Y-97910073D01*
X195633306Y-97910073D01*
X195626565Y-97873097D01*
X195610205Y-97806163D01*
X195656200Y-97806163D01*
X195668900Y-97817709D01*
X195681600Y-97806163D01*
X195668900Y-97794618D01*
X195656200Y-97806163D01*
X195610205Y-97806163D01*
X195605543Y-97787090D01*
X195578728Y-97729830D01*
X195535963Y-97684055D01*
X195498029Y-97654633D01*
X195399127Y-97582379D01*
X195416465Y-97728907D01*
X195425730Y-97806410D01*
X195432759Y-97863729D01*
X195435821Y-97886982D01*
X195434802Y-97933731D01*
X195424271Y-98010747D01*
X195407060Y-98103498D01*
X195386004Y-98197454D01*
X195363935Y-98278083D01*
X195353743Y-98307970D01*
X195328248Y-98378253D01*
X195311333Y-98430458D01*
X195307254Y-98448236D01*
X195292934Y-98497141D01*
X195256401Y-98571756D01*
X195204958Y-98660206D01*
X195145911Y-98750615D01*
X195086563Y-98831108D01*
X195037721Y-98886446D01*
X194968890Y-98948332D01*
X194916101Y-98985848D01*
X194884717Y-98996606D01*
X194880102Y-98978220D01*
X194893306Y-98950681D01*
X194914698Y-98895633D01*
X194914013Y-98832598D01*
X194889144Y-98753047D01*
X194837988Y-98648450D01*
X194803560Y-98586986D01*
X194671605Y-98375292D01*
X194542853Y-98203801D01*
X194418493Y-98073631D01*
X194299715Y-97985897D01*
X194187709Y-97941715D01*
X194111219Y-97937572D01*
X194043300Y-97944709D01*
X194047157Y-98140982D01*
X194049402Y-98250506D01*
X194052302Y-98385457D01*
X194055405Y-98525093D01*
X194057186Y-98602800D01*
X194052128Y-98805437D01*
X194029524Y-99016513D01*
X193991782Y-99224299D01*
X193941312Y-99417063D01*
X193880524Y-99583075D01*
X193838363Y-99668034D01*
X193808982Y-99709861D01*
X193760170Y-99769802D01*
X193700069Y-99838949D01*
X193636819Y-99908397D01*
X193578563Y-99969239D01*
X193533443Y-100012568D01*
X193509599Y-100029477D01*
X193508291Y-100029126D01*
X193511004Y-100004824D01*
X193527679Y-99951892D01*
X193540795Y-99917047D01*
X193559052Y-99865952D01*
X193567962Y-99819968D01*
X193567339Y-99766624D01*
X193556993Y-99693446D01*
X193536736Y-99587964D01*
X193535751Y-99583066D01*
X193514199Y-99483983D01*
X193510320Y-99468709D01*
X193725800Y-99468709D01*
X193738500Y-99480254D01*
X193751200Y-99468709D01*
X193738500Y-99457163D01*
X193725800Y-99468709D01*
X193510320Y-99468709D01*
X193493289Y-99401657D01*
X193475944Y-99346945D01*
X193467951Y-99331318D01*
X193449202Y-99290839D01*
X193446400Y-99267300D01*
X193436191Y-99223051D01*
X193408983Y-99148555D01*
X193369903Y-99055133D01*
X193324077Y-98954109D01*
X193276631Y-98856807D01*
X193232691Y-98774550D01*
X193198977Y-98720805D01*
X193162361Y-98663583D01*
X193142679Y-98618656D01*
X193141600Y-98611123D01*
X193129153Y-98582492D01*
X193120492Y-98579709D01*
X193095424Y-98561280D01*
X193064498Y-98516890D01*
X193064118Y-98516209D01*
X193025805Y-98456979D01*
X192973714Y-98387492D01*
X192958226Y-98368568D01*
X192915734Y-98313343D01*
X192890560Y-98271736D01*
X192887600Y-98261713D01*
X192870165Y-98228913D01*
X192852712Y-98212678D01*
X192821439Y-98202623D01*
X192785758Y-98226108D01*
X192763896Y-98250260D01*
X192715936Y-98309673D01*
X192665291Y-98376322D01*
X192620612Y-98438293D01*
X192590550Y-98483674D01*
X192582800Y-98499652D01*
X192566821Y-98526188D01*
X192527804Y-98570555D01*
X192479124Y-98618382D01*
X192446098Y-98646508D01*
X192416709Y-98670559D01*
X192380454Y-98703188D01*
X192331046Y-98750444D01*
X192262196Y-98818376D01*
X192167617Y-98913036D01*
X192135416Y-98945407D01*
X192062141Y-99013311D01*
X191989684Y-99071012D01*
X191935899Y-99104819D01*
X191875209Y-99138232D01*
X191834404Y-99169261D01*
X191833500Y-99170274D01*
X191792697Y-99200677D01*
X191706943Y-99249446D01*
X191575796Y-99316815D01*
X191401700Y-99401641D01*
X191324020Y-99440591D01*
X191261049Y-99475274D01*
X191236600Y-99490915D01*
X191197353Y-99511796D01*
X191123443Y-99544339D01*
X191027420Y-99583166D01*
X190970194Y-99605076D01*
X190836758Y-99649040D01*
X190696670Y-99684869D01*
X190561196Y-99710714D01*
X190441602Y-99724727D01*
X190349157Y-99725058D01*
X190302995Y-99714559D01*
X190253009Y-99699379D01*
X190174404Y-99684040D01*
X190124690Y-99676936D01*
X190017763Y-99654476D01*
X189945803Y-99619546D01*
X189916163Y-99575902D01*
X189915800Y-99570244D01*
X189925340Y-99550670D01*
X189960539Y-99536217D01*
X190031265Y-99523823D01*
X190087621Y-99516917D01*
X190187790Y-99498758D01*
X190260439Y-99472144D01*
X190295229Y-99441210D01*
X190296800Y-99433260D01*
X190317386Y-99413491D01*
X190334900Y-99410982D01*
X190368678Y-99397188D01*
X190373000Y-99385381D01*
X190389996Y-99358136D01*
X190435105Y-99308656D01*
X190499507Y-99246415D01*
X190518095Y-99229517D01*
X190596265Y-99156308D01*
X190667354Y-99084500D01*
X190717204Y-99028455D01*
X190720768Y-99023889D01*
X190778346Y-98948524D01*
X190709023Y-98963490D01*
X190642799Y-98984825D01*
X190601600Y-99006606D01*
X190555618Y-99031343D01*
X190474059Y-99066887D01*
X190369231Y-99108628D01*
X190253445Y-99151960D01*
X190139010Y-99192274D01*
X190038235Y-99224962D01*
X189964008Y-99245287D01*
X189865549Y-99263488D01*
X189753438Y-99278983D01*
X189710008Y-99283449D01*
X189648624Y-99287152D01*
X189595178Y-99283915D01*
X189538043Y-99270506D01*
X189465592Y-99243689D01*
X189366197Y-99200231D01*
X189296830Y-99168523D01*
X189185429Y-99119099D01*
X189086737Y-99078659D01*
X189011533Y-99051403D01*
X188970799Y-99041527D01*
X188921220Y-99036280D01*
X188840446Y-99022563D01*
X188751569Y-99004532D01*
X188649280Y-98982254D01*
X188553250Y-98961472D01*
X188493400Y-98948632D01*
X188348102Y-98915812D01*
X188228322Y-98883086D01*
X188113810Y-98843923D01*
X187984317Y-98791792D01*
X187915370Y-98762191D01*
X187808111Y-98716870D01*
X187715663Y-98680189D01*
X187648743Y-98656250D01*
X187619637Y-98648982D01*
X187593326Y-98655526D01*
X187574195Y-98680080D01*
X187559969Y-98730024D01*
X187548368Y-98812740D01*
X187539285Y-98909402D01*
X187536717Y-99026397D01*
X187545024Y-99161795D01*
X187562216Y-99300890D01*
X187586303Y-99428977D01*
X187615295Y-99531351D01*
X187627473Y-99561073D01*
X187657525Y-99628650D01*
X187703493Y-99736931D01*
X187758278Y-99868783D01*
X187792693Y-99930137D01*
X187846983Y-100005084D01*
X187886458Y-100051742D01*
X187936215Y-100110249D01*
X187967400Y-100154340D01*
X187973407Y-100171940D01*
X187944056Y-100183169D01*
X187885757Y-100191371D01*
X187881069Y-100191717D01*
X187815239Y-100201293D01*
X187771646Y-100216406D01*
X187771188Y-100216724D01*
X187722205Y-100232646D01*
X187634727Y-100243438D01*
X187520812Y-100248525D01*
X187392517Y-100247334D01*
X187274200Y-100240376D01*
X187157394Y-100226954D01*
X187026300Y-100206347D01*
X186892428Y-100181018D01*
X186767293Y-100153431D01*
X186662406Y-100126050D01*
X186589281Y-100101338D01*
X186565241Y-100088666D01*
X186425560Y-99979321D01*
X186323092Y-99891469D01*
X186252963Y-99820740D01*
X186221422Y-99780436D01*
X186163866Y-99681144D01*
X186113164Y-99567627D01*
X186110998Y-99561073D01*
X186867800Y-99561073D01*
X186880500Y-99572618D01*
X186893200Y-99561073D01*
X186880500Y-99549527D01*
X186867800Y-99561073D01*
X186110998Y-99561073D01*
X186077528Y-99459842D01*
X186075334Y-99448697D01*
X186791600Y-99448697D01*
X186804123Y-99482555D01*
X186829217Y-99495742D01*
X186838590Y-99491415D01*
X186835084Y-99467692D01*
X186821656Y-99452160D01*
X186796084Y-99439143D01*
X186791600Y-99448697D01*
X186075334Y-99448697D01*
X186066507Y-99403865D01*
X186056076Y-99334202D01*
X186742681Y-99334202D01*
X186756637Y-99375453D01*
X186775463Y-99402046D01*
X186784366Y-99402164D01*
X186782959Y-99376339D01*
X186769300Y-99349213D01*
X186746841Y-99322086D01*
X186742681Y-99334202D01*
X186056076Y-99334202D01*
X186055987Y-99333614D01*
X186040268Y-99248911D01*
X186038303Y-99239486D01*
X186718971Y-99239486D01*
X186731540Y-99276298D01*
X186749863Y-99295512D01*
X186750324Y-99295527D01*
X186753802Y-99276836D01*
X186747896Y-99248429D01*
X186732316Y-99215707D01*
X186721736Y-99212797D01*
X186718971Y-99239486D01*
X186038303Y-99239486D01*
X186035278Y-99224987D01*
X186030210Y-99185380D01*
X187082116Y-99185380D01*
X187090536Y-99227263D01*
X187108058Y-99283982D01*
X187116981Y-99230044D01*
X187118386Y-99182873D01*
X187111152Y-99162696D01*
X187088542Y-99156428D01*
X187082116Y-99185380D01*
X186030210Y-99185380D01*
X186026576Y-99156982D01*
X186715400Y-99156982D01*
X186724693Y-99175988D01*
X186732333Y-99172376D01*
X186735373Y-99144972D01*
X186732333Y-99141588D01*
X186717233Y-99144757D01*
X186715400Y-99156982D01*
X186026576Y-99156982D01*
X186023478Y-99132775D01*
X186021234Y-99076163D01*
X187075951Y-99076163D01*
X187078697Y-99115599D01*
X187086648Y-99119071D01*
X187087660Y-99117012D01*
X187092685Y-99071172D01*
X187088601Y-99047739D01*
X187080516Y-99038323D01*
X187076119Y-99068993D01*
X187075951Y-99076163D01*
X186021234Y-99076163D01*
X186018945Y-99018436D01*
X186715400Y-99018436D01*
X186724693Y-99037443D01*
X186732333Y-99033830D01*
X186735373Y-99006427D01*
X186732333Y-99003042D01*
X186717233Y-99006212D01*
X186715400Y-99018436D01*
X186018945Y-99018436D01*
X186018409Y-99004923D01*
X186019638Y-98851512D01*
X186026732Y-98682623D01*
X186035097Y-98566239D01*
X186539605Y-98566239D01*
X186544275Y-98596188D01*
X186552945Y-98596546D01*
X186559009Y-98565641D01*
X186554951Y-98552288D01*
X186543672Y-98543542D01*
X186539605Y-98566239D01*
X186035097Y-98566239D01*
X186039260Y-98508338D01*
X186056788Y-98338736D01*
X186078885Y-98183899D01*
X186080292Y-98175618D01*
X186099232Y-98060545D01*
X186114234Y-97963951D01*
X187460466Y-97963951D01*
X187463953Y-97977679D01*
X187477400Y-97979345D01*
X187498307Y-97970897D01*
X187494333Y-97963951D01*
X187464189Y-97961188D01*
X187460466Y-97963951D01*
X186114234Y-97963951D01*
X186119025Y-97933103D01*
X186130988Y-97851599D01*
X186144428Y-97765667D01*
X186157752Y-97695362D01*
X186168115Y-97655665D01*
X186168264Y-97655306D01*
X186158143Y-97620461D01*
X186109013Y-97591794D01*
X186078795Y-97575254D01*
X186994800Y-97575254D01*
X187007500Y-97586800D01*
X187020200Y-97575254D01*
X187007500Y-97563709D01*
X186994800Y-97575254D01*
X186078795Y-97575254D01*
X186031045Y-97549118D01*
X185929706Y-97476750D01*
X185812937Y-97381365D01*
X185688680Y-97269636D01*
X185564878Y-97148236D01*
X185500615Y-97080582D01*
X185438508Y-97013663D01*
X185387244Y-96958952D01*
X185357383Y-96927714D01*
X185356500Y-96926829D01*
X185335721Y-96896061D01*
X185300732Y-96834726D01*
X185257690Y-96754561D01*
X185212752Y-96667307D01*
X185172072Y-96584704D01*
X185169073Y-96578141D01*
X186878962Y-96578141D01*
X186886650Y-96614066D01*
X186908451Y-96676938D01*
X186945319Y-96773452D01*
X186969674Y-96836345D01*
X187027884Y-96985648D01*
X187073548Y-97099137D01*
X187110402Y-97184744D01*
X187142182Y-97250403D01*
X187172623Y-97304045D01*
X187205461Y-97353601D01*
X187228006Y-97384861D01*
X187281948Y-97458662D01*
X187352123Y-97555314D01*
X187427040Y-97658968D01*
X187462709Y-97708504D01*
X187539772Y-97809296D01*
X187624011Y-97909345D01*
X187701969Y-97993022D01*
X187733362Y-98022919D01*
X187795757Y-98080719D01*
X187840570Y-98125980D01*
X187858381Y-98149171D01*
X187858400Y-98149442D01*
X187839406Y-98162296D01*
X187780384Y-98159874D01*
X187678273Y-98141898D01*
X187610683Y-98127124D01*
X187526251Y-98109987D01*
X187463012Y-98101098D01*
X187435391Y-98102202D01*
X187432908Y-98129564D01*
X187440354Y-98187583D01*
X187451166Y-98241239D01*
X187493194Y-98357195D01*
X187568615Y-98459409D01*
X187578515Y-98469819D01*
X187650267Y-98531898D01*
X187740549Y-98593472D01*
X187835199Y-98646529D01*
X187920054Y-98683052D01*
X187976713Y-98695163D01*
X188027470Y-98705828D01*
X188069619Y-98722917D01*
X188122294Y-98746130D01*
X188150500Y-98754987D01*
X188186989Y-98763057D01*
X188256204Y-98779679D01*
X188328300Y-98797543D01*
X188418032Y-98819420D01*
X188494022Y-98836835D01*
X188531500Y-98844469D01*
X188597289Y-98857192D01*
X188645800Y-98867713D01*
X188707163Y-98879491D01*
X188794550Y-98893670D01*
X188849602Y-98901679D01*
X188966543Y-98920985D01*
X189077985Y-98944798D01*
X189170518Y-98969781D01*
X189230731Y-98992592D01*
X189241430Y-98999238D01*
X189287065Y-99016894D01*
X189304930Y-99018578D01*
X189353579Y-99029222D01*
X189417392Y-99054794D01*
X189420500Y-99056311D01*
X189493137Y-99088741D01*
X189582016Y-99124081D01*
X189609314Y-99134090D01*
X189664827Y-99152728D01*
X189709553Y-99161013D01*
X189757845Y-99157833D01*
X189824060Y-99142074D01*
X189922553Y-99112626D01*
X189934810Y-99108861D01*
X190043283Y-99073071D01*
X190143363Y-99035789D01*
X190217519Y-99003662D01*
X190231594Y-98996303D01*
X190294357Y-98965600D01*
X190342608Y-98949753D01*
X190348928Y-98949163D01*
X190390284Y-98940034D01*
X190457985Y-98916806D01*
X190498330Y-98900759D01*
X190623230Y-98849037D01*
X190714781Y-98812270D01*
X190785499Y-98785554D01*
X190844787Y-98765017D01*
X190915748Y-98722136D01*
X190975211Y-98641102D01*
X190978137Y-98635697D01*
X191010483Y-98569233D01*
X191024058Y-98533527D01*
X191974502Y-98533527D01*
X191977657Y-98556493D01*
X191995156Y-98539815D01*
X191999918Y-98533527D01*
X192029696Y-98488827D01*
X192064974Y-98429842D01*
X192065101Y-98429618D01*
X192104345Y-98360345D01*
X192039685Y-98429618D01*
X191997658Y-98482819D01*
X191975493Y-98526790D01*
X191974502Y-98533527D01*
X191024058Y-98533527D01*
X191030377Y-98516907D01*
X191033400Y-98501100D01*
X191051312Y-98461748D01*
X191073970Y-98439300D01*
X191128226Y-98378462D01*
X191185732Y-98278902D01*
X191244015Y-98147787D01*
X191300604Y-97992282D01*
X191318449Y-97933480D01*
X193446686Y-97933480D01*
X193461811Y-97970561D01*
X193495655Y-98032684D01*
X193505825Y-98049858D01*
X193581135Y-98207754D01*
X193637225Y-98391593D01*
X193669290Y-98583038D01*
X193675000Y-98695553D01*
X193678720Y-98775558D01*
X193689246Y-98817777D01*
X193700400Y-98822163D01*
X193714744Y-98792719D01*
X193723746Y-98732924D01*
X193725358Y-98688028D01*
X193715164Y-98565171D01*
X193687961Y-98428666D01*
X193647582Y-98289210D01*
X193597855Y-98157498D01*
X193542611Y-98044227D01*
X193485682Y-97960094D01*
X193453533Y-97928964D01*
X193446686Y-97933480D01*
X191318449Y-97933480D01*
X191322049Y-97921618D01*
X192735200Y-97921618D01*
X192747900Y-97933163D01*
X192760600Y-97921618D01*
X192747900Y-97910073D01*
X192735200Y-97921618D01*
X191322049Y-97921618D01*
X191336064Y-97875436D01*
X192763582Y-97875436D01*
X192771151Y-97878762D01*
X192773205Y-97875436D01*
X193395600Y-97875436D01*
X193408300Y-97886982D01*
X193421000Y-97875436D01*
X193408300Y-97863891D01*
X193395600Y-97875436D01*
X192773205Y-97875436D01*
X192789478Y-97849087D01*
X192813843Y-97797397D01*
X192839524Y-97734678D01*
X192861801Y-97671914D01*
X192875952Y-97620090D01*
X192877701Y-97609891D01*
X192877854Y-97582751D01*
X192864686Y-97599411D01*
X192838016Y-97660154D01*
X192825914Y-97690709D01*
X192795387Y-97772242D01*
X192773205Y-97837468D01*
X192763672Y-97873634D01*
X192763582Y-97875436D01*
X191336064Y-97875436D01*
X191353025Y-97819553D01*
X191398808Y-97636768D01*
X191435480Y-97451091D01*
X191439413Y-97425163D01*
X194539449Y-97425163D01*
X194548970Y-97440324D01*
X194584969Y-97479988D01*
X194638647Y-97535430D01*
X194701203Y-97597925D01*
X194763838Y-97658746D01*
X194817751Y-97709168D01*
X194854142Y-97740466D01*
X194863343Y-97746323D01*
X194859183Y-97731144D01*
X194845556Y-97705918D01*
X194815644Y-97668477D01*
X194763450Y-97614399D01*
X194699585Y-97553417D01*
X194646630Y-97505982D01*
X194894200Y-97505982D01*
X194906900Y-97517527D01*
X194919600Y-97505982D01*
X194906900Y-97494436D01*
X194894200Y-97505982D01*
X194646630Y-97505982D01*
X194634663Y-97495263D01*
X194579292Y-97449670D01*
X194552264Y-97431782D01*
X194847494Y-97431782D01*
X194853674Y-97444687D01*
X194879249Y-97469476D01*
X194893952Y-97464391D01*
X194894200Y-97461163D01*
X194876158Y-97441632D01*
X194864875Y-97434504D01*
X194847494Y-97431782D01*
X194552264Y-97431782D01*
X194544086Y-97426370D01*
X194539449Y-97425163D01*
X191439413Y-97425163D01*
X191444667Y-97390527D01*
X194792600Y-97390527D01*
X194805300Y-97402073D01*
X194818000Y-97390527D01*
X194805300Y-97378982D01*
X194792600Y-97390527D01*
X191444667Y-97390527D01*
X191448171Y-97367436D01*
X192100200Y-97367436D01*
X192112900Y-97378982D01*
X192125600Y-97367436D01*
X192112900Y-97355891D01*
X192100200Y-97367436D01*
X191448171Y-97367436D01*
X191451675Y-97344345D01*
X191454767Y-97321254D01*
X192126482Y-97321254D01*
X192150064Y-97240436D01*
X192161879Y-97184893D01*
X195870559Y-97184893D01*
X195884800Y-97205800D01*
X195914855Y-97234476D01*
X195925212Y-97240436D01*
X195925465Y-97222956D01*
X195919385Y-97205800D01*
X195892737Y-97175208D01*
X195878972Y-97171163D01*
X195870559Y-97184893D01*
X192161879Y-97184893D01*
X192163264Y-97178383D01*
X192176673Y-97087960D01*
X192187727Y-96986912D01*
X192189256Y-96969118D01*
X192192708Y-96904267D01*
X195537239Y-96904267D01*
X195558032Y-96924753D01*
X195609014Y-96967182D01*
X195694225Y-97035484D01*
X195701497Y-97041273D01*
X195782252Y-97102917D01*
X195833424Y-97137043D01*
X195852543Y-97143598D01*
X195837136Y-97122526D01*
X195784733Y-97073771D01*
X195747854Y-97042309D01*
X195675037Y-96984336D01*
X195609413Y-96937090D01*
X195570054Y-96913400D01*
X195542593Y-96901793D01*
X195537239Y-96904267D01*
X192192708Y-96904267D01*
X192195008Y-96861074D01*
X192190835Y-96797785D01*
X192177933Y-96778618D01*
X192163467Y-96800643D01*
X192154095Y-96862773D01*
X192150720Y-96957573D01*
X192148984Y-97058885D01*
X192144687Y-97155319D01*
X192138744Y-97226665D01*
X192138461Y-97228891D01*
X192126482Y-97321254D01*
X191454767Y-97321254D01*
X191463886Y-97253167D01*
X191476087Y-97162789D01*
X191479659Y-97136527D01*
X191481503Y-97056250D01*
X191471299Y-96963032D01*
X191464259Y-96928709D01*
X191422938Y-96760174D01*
X191417857Y-96740133D01*
X192159466Y-96740133D01*
X192162953Y-96753861D01*
X192176400Y-96755527D01*
X192197307Y-96747078D01*
X192193333Y-96740133D01*
X192163189Y-96737370D01*
X192159466Y-96740133D01*
X191417857Y-96740133D01*
X191392485Y-96640073D01*
X192155010Y-96640073D01*
X192159002Y-96672853D01*
X192167821Y-96668936D01*
X192171176Y-96621661D01*
X192167821Y-96611209D01*
X192158551Y-96608308D01*
X192155010Y-96640073D01*
X191392485Y-96640073D01*
X191390442Y-96632019D01*
X191380171Y-96593891D01*
X193141600Y-96593891D01*
X193150893Y-96612897D01*
X193158533Y-96609285D01*
X193161573Y-96581881D01*
X193158533Y-96578497D01*
X193143433Y-96581666D01*
X193141600Y-96593891D01*
X191380171Y-96593891D01*
X191365482Y-96539365D01*
X191350582Y-96489982D01*
X192125600Y-96489982D01*
X192138300Y-96501527D01*
X192151000Y-96489982D01*
X192138300Y-96478436D01*
X192125600Y-96489982D01*
X191350582Y-96489982D01*
X191346766Y-96477335D01*
X191340571Y-96459814D01*
X193957112Y-96459814D01*
X193970016Y-96469414D01*
X193992500Y-96478436D01*
X194049882Y-96497372D01*
X194079613Y-96494582D01*
X194091603Y-96482108D01*
X194081611Y-96457818D01*
X194040538Y-96420978D01*
X194023252Y-96408917D01*
X193973325Y-96376671D01*
X193959711Y-96371375D01*
X193977875Y-96392528D01*
X193990086Y-96405245D01*
X194022314Y-96440926D01*
X194020692Y-96454208D01*
X193990086Y-96456968D01*
X193957112Y-96459814D01*
X191340571Y-96459814D01*
X191338990Y-96455345D01*
X191319501Y-96401328D01*
X191318228Y-96397618D01*
X193802000Y-96397618D01*
X193814700Y-96409163D01*
X193827400Y-96397618D01*
X193814700Y-96386073D01*
X193802000Y-96397618D01*
X191318228Y-96397618D01*
X191292706Y-96323245D01*
X191282927Y-96293884D01*
X193651263Y-96293884D01*
X193657571Y-96305842D01*
X193671760Y-96322573D01*
X193708834Y-96358471D01*
X193725382Y-96358315D01*
X193725800Y-96354263D01*
X193723255Y-96351436D01*
X193903600Y-96351436D01*
X193916300Y-96362982D01*
X193929000Y-96351436D01*
X193916300Y-96339891D01*
X193903600Y-96351436D01*
X193723255Y-96351436D01*
X193708442Y-96334989D01*
X193681350Y-96313854D01*
X193651263Y-96293884D01*
X191282927Y-96293884D01*
X191273255Y-96264845D01*
X191269474Y-96255224D01*
X193581866Y-96255224D01*
X193585353Y-96268952D01*
X193598800Y-96270618D01*
X193619707Y-96262169D01*
X193615733Y-96255224D01*
X193603977Y-96254146D01*
X193806094Y-96254146D01*
X193812274Y-96267050D01*
X193837849Y-96291839D01*
X193852552Y-96286754D01*
X193852800Y-96283526D01*
X193834758Y-96263995D01*
X193823475Y-96256868D01*
X193806094Y-96254146D01*
X193603977Y-96254146D01*
X193585589Y-96252460D01*
X193581866Y-96255224D01*
X191269474Y-96255224D01*
X191251324Y-96209042D01*
X193531066Y-96209042D01*
X193534553Y-96222770D01*
X193548000Y-96224436D01*
X193568907Y-96215988D01*
X193564933Y-96209042D01*
X193534789Y-96206279D01*
X193531066Y-96209042D01*
X191251324Y-96209042D01*
X191240952Y-96182652D01*
X191229193Y-96166709D01*
X193497200Y-96166709D01*
X193509900Y-96178254D01*
X193522600Y-96166709D01*
X193700400Y-96166709D01*
X193713100Y-96178254D01*
X193725800Y-96166709D01*
X193713100Y-96155163D01*
X193700400Y-96166709D01*
X193522600Y-96166709D01*
X193509900Y-96155163D01*
X193497200Y-96166709D01*
X191229193Y-96166709D01*
X191209975Y-96140654D01*
X191185789Y-96132073D01*
X191120416Y-96137163D01*
X191036417Y-96150100D01*
X190951111Y-96167383D01*
X190881816Y-96185509D01*
X190846088Y-96200756D01*
X190844380Y-96233525D01*
X190875496Y-96293143D01*
X190895473Y-96321640D01*
X190981105Y-96442987D01*
X191043353Y-96548702D01*
X191087134Y-96652109D01*
X191117365Y-96766535D01*
X191138964Y-96905306D01*
X191150501Y-97012773D01*
X191157182Y-97121037D01*
X191151317Y-97203691D01*
X191130927Y-97280298D01*
X191120659Y-97307619D01*
X191073818Y-97426038D01*
X189979300Y-97413618D01*
X189970583Y-97357502D01*
X189953468Y-97306850D01*
X189918500Y-97235240D01*
X189887133Y-97181002D01*
X189848247Y-97113722D01*
X189823668Y-97062090D01*
X189818695Y-97040846D01*
X189812370Y-97007460D01*
X189793859Y-96970064D01*
X189771650Y-96914351D01*
X189755305Y-96839585D01*
X189752890Y-96819973D01*
X189746264Y-96754812D01*
X189741444Y-96710212D01*
X189740526Y-96702760D01*
X189721389Y-96695117D01*
X189674364Y-96719119D01*
X189604763Y-96771452D01*
X189541150Y-96827111D01*
X189433200Y-96926277D01*
X189433200Y-96851085D01*
X189426691Y-96802353D01*
X189409765Y-96789241D01*
X189407800Y-96790163D01*
X189384358Y-96795307D01*
X189392726Y-96768037D01*
X189431890Y-96711188D01*
X189439510Y-96701364D01*
X189476688Y-96651908D01*
X189497477Y-96620332D01*
X189498854Y-96616982D01*
X189529500Y-96562264D01*
X189598334Y-96493837D01*
X189697392Y-96417291D01*
X189818712Y-96338217D01*
X189954329Y-96262204D01*
X190096280Y-96194842D01*
X190106300Y-96190574D01*
X190224465Y-96140925D01*
X190274703Y-96120527D01*
X193446400Y-96120527D01*
X193459100Y-96132073D01*
X193471800Y-96120527D01*
X193649600Y-96120527D01*
X193662300Y-96132073D01*
X193675000Y-96120527D01*
X193662300Y-96108982D01*
X193649600Y-96120527D01*
X193471800Y-96120527D01*
X193459100Y-96108982D01*
X193446400Y-96120527D01*
X190274703Y-96120527D01*
X190309475Y-96106409D01*
X190374101Y-96082425D01*
X190431113Y-96064371D01*
X190479866Y-96051254D01*
X194030600Y-96051254D01*
X194043300Y-96062800D01*
X194056000Y-96051254D01*
X194106800Y-96051254D01*
X194119500Y-96062800D01*
X194132200Y-96051254D01*
X194208400Y-96051254D01*
X194221100Y-96062800D01*
X194233800Y-96051254D01*
X194221100Y-96039709D01*
X194208400Y-96051254D01*
X194132200Y-96051254D01*
X194119500Y-96039709D01*
X194106800Y-96051254D01*
X194056000Y-96051254D01*
X194043300Y-96039709D01*
X194030600Y-96051254D01*
X190479866Y-96051254D01*
X190493284Y-96047644D01*
X190525400Y-96039560D01*
X190566913Y-96028163D01*
X193954400Y-96028163D01*
X193967100Y-96039709D01*
X193979800Y-96028163D01*
X193967100Y-96016618D01*
X193954400Y-96028163D01*
X190566913Y-96028163D01*
X190651019Y-96005073D01*
X193573400Y-96005073D01*
X193586100Y-96016618D01*
X193598800Y-96005073D01*
X193594567Y-96001224D01*
X193835866Y-96001224D01*
X193839353Y-96014952D01*
X193852800Y-96016618D01*
X193873707Y-96008169D01*
X193869733Y-96001224D01*
X193839589Y-95998460D01*
X193835866Y-96001224D01*
X193594567Y-96001224D01*
X193586100Y-95993527D01*
X193573400Y-96005073D01*
X190651019Y-96005073D01*
X190658946Y-96002897D01*
X190719356Y-95981982D01*
X193751200Y-95981982D01*
X193763900Y-95993527D01*
X193776600Y-95981982D01*
X193763900Y-95970436D01*
X193751200Y-95981982D01*
X190719356Y-95981982D01*
X190756036Y-95969283D01*
X190776886Y-95958891D01*
X193700400Y-95958891D01*
X193713100Y-95970436D01*
X193725800Y-95958891D01*
X193713100Y-95947345D01*
X193700400Y-95958891D01*
X190776886Y-95958891D01*
X190813958Y-95940414D01*
X190817258Y-95935800D01*
X193598800Y-95935800D01*
X193611500Y-95947345D01*
X193624200Y-95935800D01*
X193611500Y-95924254D01*
X193598800Y-95935800D01*
X190817258Y-95935800D01*
X190830002Y-95917983D01*
X190819473Y-95912709D01*
X193522600Y-95912709D01*
X193535300Y-95924254D01*
X193548000Y-95912709D01*
X193535300Y-95901163D01*
X193522600Y-95912709D01*
X190819473Y-95912709D01*
X190801457Y-95903685D01*
X190749766Y-95899331D01*
X190539928Y-95894286D01*
X190373096Y-95888918D01*
X190241477Y-95882688D01*
X190137279Y-95875056D01*
X190052708Y-95865482D01*
X189979972Y-95853426D01*
X189928500Y-95842430D01*
X189839663Y-95820324D01*
X189771930Y-95800635D01*
X189738831Y-95787331D01*
X189738000Y-95786566D01*
X189707775Y-95771670D01*
X189646681Y-95751450D01*
X189617350Y-95743249D01*
X189598030Y-95736659D01*
X190957824Y-95736659D01*
X190966455Y-95804044D01*
X190984034Y-95878629D01*
X191013653Y-95911107D01*
X191046913Y-95909230D01*
X191079871Y-95891586D01*
X191084200Y-95884708D01*
X191069401Y-95861336D01*
X191032679Y-95817730D01*
X191021012Y-95804926D01*
X190957824Y-95736659D01*
X189598030Y-95736659D01*
X189552132Y-95721004D01*
X189513728Y-95698384D01*
X189509400Y-95690494D01*
X189491241Y-95674609D01*
X189477650Y-95676670D01*
X189436491Y-95673481D01*
X189372683Y-95652964D01*
X189351661Y-95643958D01*
X189275243Y-95616052D01*
X189205816Y-95601557D01*
X189194255Y-95600982D01*
X189128318Y-95612826D01*
X189043393Y-95644364D01*
X188949587Y-95689604D01*
X188857003Y-95742557D01*
X188775745Y-95797230D01*
X188715918Y-95847633D01*
X188687625Y-95887774D01*
X188687990Y-95901163D01*
X188705900Y-95944270D01*
X188731393Y-96008779D01*
X188738874Y-96028163D01*
X188774635Y-96112349D01*
X188816733Y-96199868D01*
X188823556Y-96212891D01*
X188858527Y-96285885D01*
X188884494Y-96353010D01*
X188888587Y-96367055D01*
X188918814Y-96429791D01*
X188952884Y-96468770D01*
X188989699Y-96506370D01*
X189001400Y-96529544D01*
X189016914Y-96560811D01*
X189056479Y-96612972D01*
X189109631Y-96674507D01*
X189165902Y-96733901D01*
X189214826Y-96779637D01*
X189245939Y-96800196D01*
X189247550Y-96800420D01*
X189287468Y-96816035D01*
X189287524Y-96846540D01*
X189260051Y-96868718D01*
X189221375Y-96876163D01*
X189158830Y-96868684D01*
X189063779Y-96844795D01*
X188986290Y-96821572D01*
X188883410Y-96788062D01*
X188796879Y-96757048D01*
X188739507Y-96733249D01*
X188725838Y-96725591D01*
X188709161Y-96720265D01*
X188715367Y-96748918D01*
X188733513Y-96791214D01*
X188765094Y-96853226D01*
X188793032Y-96897184D01*
X188799524Y-96904463D01*
X188822675Y-96937446D01*
X188806896Y-96953594D01*
X188760584Y-96952856D01*
X188692140Y-96935175D01*
X188620400Y-96905621D01*
X188549582Y-96871758D01*
X188456312Y-96827389D01*
X188379100Y-96790792D01*
X188201110Y-96701471D01*
X188060779Y-96618791D01*
X187947095Y-96536157D01*
X187929573Y-96521593D01*
X187859639Y-96462659D01*
X187793366Y-96407310D01*
X187774237Y-96391485D01*
X187720441Y-96335811D01*
X187668641Y-96265085D01*
X187660048Y-96250799D01*
X187631573Y-96207964D01*
X188472094Y-96207964D01*
X188478274Y-96220868D01*
X188503849Y-96245658D01*
X188518552Y-96240572D01*
X188518800Y-96237344D01*
X188500758Y-96217814D01*
X188489475Y-96210686D01*
X188472094Y-96207964D01*
X187631573Y-96207964D01*
X187611487Y-96177751D01*
X187557034Y-96111470D01*
X187547803Y-96102026D01*
X187499248Y-96039506D01*
X187457848Y-95962128D01*
X187451743Y-95946638D01*
X187413604Y-95871899D01*
X187366027Y-95820268D01*
X187318063Y-95799392D01*
X187287779Y-95808136D01*
X187243668Y-95816306D01*
X187224517Y-95809428D01*
X187183473Y-95809006D01*
X187142093Y-95844093D01*
X187113928Y-95903789D01*
X187101234Y-95990186D01*
X187102545Y-96090426D01*
X187116391Y-96191647D01*
X187141305Y-96280990D01*
X187175819Y-96345594D01*
X187201877Y-96367826D01*
X187242151Y-96382485D01*
X187315851Y-96405053D01*
X187407537Y-96430817D01*
X187413900Y-96432530D01*
X187518941Y-96465229D01*
X187618582Y-96503734D01*
X187686405Y-96537074D01*
X187751965Y-96571921D01*
X187804171Y-96591977D01*
X187816437Y-96593891D01*
X187865128Y-96608860D01*
X187929652Y-96648209D01*
X188001038Y-96703596D01*
X188070316Y-96766683D01*
X188128515Y-96829129D01*
X188166665Y-96882594D01*
X188175795Y-96918738D01*
X188172051Y-96924511D01*
X188171629Y-96952204D01*
X188187984Y-97006511D01*
X188200625Y-97037433D01*
X188246222Y-97160974D01*
X188269180Y-97283279D01*
X188274879Y-97377339D01*
X188277500Y-97479605D01*
X188078523Y-97568803D01*
X187978521Y-97611452D01*
X187887360Y-97646519D01*
X187820735Y-97668081D01*
X187807520Y-97671096D01*
X187784113Y-97674543D01*
X187763454Y-97672572D01*
X187742736Y-97660741D01*
X187719152Y-97634607D01*
X187689893Y-97589728D01*
X187652153Y-97521663D01*
X187603123Y-97425968D01*
X187539997Y-97298202D01*
X187459968Y-97133922D01*
X187433188Y-97078800D01*
X187359586Y-96940060D01*
X187283229Y-96818718D01*
X187208837Y-96720779D01*
X187141130Y-96652245D01*
X187084827Y-96619122D01*
X187070133Y-96616982D01*
X187023539Y-96607262D01*
X187009374Y-96596648D01*
X186976174Y-96577251D01*
X186931043Y-96565104D01*
X186902112Y-96560354D01*
X186884433Y-96562468D01*
X186878962Y-96578141D01*
X185169073Y-96578141D01*
X185141808Y-96518492D01*
X185139528Y-96513073D01*
X185100318Y-96415162D01*
X185078700Y-96351436D01*
X186690000Y-96351436D01*
X186702700Y-96362982D01*
X186715400Y-96351436D01*
X186702700Y-96339891D01*
X186690000Y-96351436D01*
X185078700Y-96351436D01*
X185072322Y-96332637D01*
X185052853Y-96252481D01*
X185039226Y-96161677D01*
X185037574Y-96143618D01*
X185470800Y-96143618D01*
X185483500Y-96155163D01*
X185496200Y-96143618D01*
X185483500Y-96132073D01*
X185470800Y-96143618D01*
X185037574Y-96143618D01*
X185031237Y-96074345D01*
X185445400Y-96074345D01*
X185458100Y-96085891D01*
X185470800Y-96074345D01*
X185458100Y-96062800D01*
X185445400Y-96074345D01*
X185031237Y-96074345D01*
X185028754Y-96047208D01*
X185021575Y-95941483D01*
X185020523Y-95924254D01*
X185445400Y-95924254D01*
X185454693Y-95943261D01*
X185462333Y-95939648D01*
X185465373Y-95912245D01*
X185462333Y-95908860D01*
X185447233Y-95912030D01*
X185445400Y-95924254D01*
X185020523Y-95924254D01*
X185013065Y-95802189D01*
X185010822Y-95757504D01*
X186748243Y-95757504D01*
X186752631Y-95851406D01*
X186754827Y-95866527D01*
X186766266Y-95928284D01*
X186775577Y-95965505D01*
X186778320Y-95970436D01*
X186781224Y-95949136D01*
X186783431Y-95892396D01*
X186784584Y-95810959D01*
X186784672Y-95779182D01*
X186786738Y-95682235D01*
X186789192Y-95644032D01*
X187085136Y-95644032D01*
X187086396Y-95699830D01*
X187088879Y-95708835D01*
X187110112Y-95719786D01*
X187152484Y-95692954D01*
X187155831Y-95690095D01*
X187217814Y-95647017D01*
X187269840Y-95621739D01*
X187309111Y-95601022D01*
X187317844Y-95567509D01*
X187309403Y-95525820D01*
X187299504Y-95466240D01*
X187292968Y-95394725D01*
X187734147Y-95394725D01*
X187739148Y-95455281D01*
X187755078Y-95538284D01*
X187778744Y-95633173D01*
X187806956Y-95729388D01*
X187836520Y-95816368D01*
X187864245Y-95883552D01*
X187886938Y-95920379D01*
X187894205Y-95924254D01*
X187892906Y-95904443D01*
X187877940Y-95852803D01*
X187855667Y-95789114D01*
X187829490Y-95708929D01*
X188012681Y-95708929D01*
X188026637Y-95750180D01*
X188045463Y-95776773D01*
X188054366Y-95776891D01*
X188052959Y-95751066D01*
X188039300Y-95723941D01*
X188016841Y-95696814D01*
X188012681Y-95708929D01*
X187829490Y-95708929D01*
X187824433Y-95693441D01*
X187805457Y-95624073D01*
X187985400Y-95624073D01*
X187994693Y-95643079D01*
X188002333Y-95639466D01*
X188005373Y-95612063D01*
X188002333Y-95608679D01*
X187987233Y-95611848D01*
X187985400Y-95624073D01*
X187805457Y-95624073D01*
X187793086Y-95578856D01*
X187771181Y-95483159D01*
X187753673Y-95403047D01*
X187742012Y-95367319D01*
X187735601Y-95374553D01*
X187734147Y-95394725D01*
X187292968Y-95394725D01*
X187291455Y-95378181D01*
X187287281Y-95289254D01*
X187706000Y-95289254D01*
X187718700Y-95300800D01*
X187731400Y-95289254D01*
X187718700Y-95277709D01*
X187706000Y-95289254D01*
X187287281Y-95289254D01*
X187286815Y-95279343D01*
X187286536Y-95266163D01*
X187285325Y-95208436D01*
X187706000Y-95208436D01*
X187715293Y-95227443D01*
X187722933Y-95223830D01*
X187725973Y-95196427D01*
X187722933Y-95193042D01*
X187707833Y-95196212D01*
X187706000Y-95208436D01*
X187285325Y-95208436D01*
X187283351Y-95114396D01*
X187282633Y-95092399D01*
X188476628Y-95092399D01*
X188484893Y-95153624D01*
X188502347Y-95245763D01*
X188528199Y-95364134D01*
X188561657Y-95504051D01*
X188563435Y-95511207D01*
X188630182Y-95779342D01*
X188683389Y-95707480D01*
X188741095Y-95648537D01*
X188808289Y-95603820D01*
X188811848Y-95602187D01*
X188886460Y-95574464D01*
X188976147Y-95548046D01*
X188995685Y-95543223D01*
X189104270Y-95517691D01*
X189014735Y-95485754D01*
X188956796Y-95458375D01*
X188926489Y-95430954D01*
X188925200Y-95425749D01*
X188903751Y-95399295D01*
X188852024Y-95374495D01*
X188850692Y-95374069D01*
X188790243Y-95343797D01*
X188711424Y-95290020D01*
X188627972Y-95223907D01*
X188566916Y-95168656D01*
X190382892Y-95168656D01*
X190388501Y-95191920D01*
X190421683Y-95229603D01*
X190459496Y-95267246D01*
X190474600Y-95288520D01*
X190491116Y-95307459D01*
X190535193Y-95351462D01*
X190598625Y-95412801D01*
X190673205Y-95483745D01*
X190750726Y-95556565D01*
X190822981Y-95623531D01*
X190881763Y-95676914D01*
X190918867Y-95708985D01*
X190927161Y-95714765D01*
X190926865Y-95697512D01*
X190917190Y-95664785D01*
X190914190Y-95658709D01*
X196088000Y-95658709D01*
X196100700Y-95670254D01*
X196113400Y-95658709D01*
X196100700Y-95647163D01*
X196088000Y-95658709D01*
X190914190Y-95658709D01*
X190887779Y-95605234D01*
X190840367Y-95531695D01*
X190787028Y-95461048D01*
X190739835Y-95410171D01*
X190728709Y-95401306D01*
X190682681Y-95367266D01*
X190627000Y-95323643D01*
X190534884Y-95252817D01*
X190458383Y-95200542D01*
X190404873Y-95171500D01*
X190382892Y-95168656D01*
X188566916Y-95168656D01*
X188553625Y-95156629D01*
X188502118Y-95099357D01*
X188490829Y-95081436D01*
X188478343Y-95066775D01*
X188476628Y-95092399D01*
X187282633Y-95092399D01*
X187281180Y-95047903D01*
X190249077Y-95047903D01*
X190272293Y-95094500D01*
X190305334Y-95130950D01*
X190335151Y-95136650D01*
X190347600Y-95110081D01*
X190328163Y-95076210D01*
X190296800Y-95052159D01*
X190256361Y-95034251D01*
X190249077Y-95047903D01*
X187281180Y-95047903D01*
X187280012Y-95012163D01*
X188341000Y-95012163D01*
X188353700Y-95023709D01*
X188366400Y-95012163D01*
X188353700Y-95000618D01*
X188341000Y-95012163D01*
X187280012Y-95012163D01*
X187279739Y-95003828D01*
X187275315Y-94929478D01*
X187269695Y-94886362D01*
X187262495Y-94869498D01*
X187256035Y-94870888D01*
X187235130Y-94908806D01*
X187210226Y-94982894D01*
X187183257Y-95083457D01*
X187156157Y-95200798D01*
X187130861Y-95325222D01*
X187109303Y-95447032D01*
X187093416Y-95556535D01*
X187085136Y-95644032D01*
X186789192Y-95644032D01*
X186792215Y-95596992D01*
X186800023Y-95538899D01*
X186802049Y-95530954D01*
X186809729Y-95496792D01*
X186798723Y-95504660D01*
X186795972Y-95508618D01*
X186771906Y-95568778D01*
X186755332Y-95657517D01*
X186748243Y-95757504D01*
X185010822Y-95757504D01*
X185007835Y-95698041D01*
X185005906Y-95618097D01*
X185007303Y-95551415D01*
X185012047Y-95487053D01*
X185020162Y-95414071D01*
X185022725Y-95393163D01*
X185043603Y-95254618D01*
X186035492Y-95254618D01*
X186038141Y-95296628D01*
X186044734Y-95301579D01*
X186047108Y-95295027D01*
X186051059Y-95236463D01*
X186047108Y-95214209D01*
X186039746Y-95207022D01*
X186035738Y-95238951D01*
X186035492Y-95254618D01*
X185043603Y-95254618D01*
X185049011Y-95218739D01*
X185065019Y-95139163D01*
X186057174Y-95139163D01*
X186065052Y-95147891D01*
X186080925Y-95127168D01*
X186096568Y-95091307D01*
X186103625Y-95058345D01*
X186094313Y-95054193D01*
X186080400Y-95069891D01*
X186059339Y-95119184D01*
X186057174Y-95139163D01*
X185065019Y-95139163D01*
X185083352Y-95048037D01*
X185121717Y-94896709D01*
X186131200Y-94896709D01*
X186143900Y-94908254D01*
X186156600Y-94896709D01*
X186143900Y-94885163D01*
X186131200Y-94896709D01*
X185121717Y-94896709D01*
X185123137Y-94891108D01*
X185150917Y-94804345D01*
X186182000Y-94804345D01*
X186194700Y-94815891D01*
X186207400Y-94804345D01*
X186194700Y-94792800D01*
X186182000Y-94804345D01*
X185150917Y-94804345D01*
X185165756Y-94758003D01*
X185167348Y-94754315D01*
X187231866Y-94754315D01*
X187235353Y-94768042D01*
X187248800Y-94769709D01*
X187269707Y-94761260D01*
X187265733Y-94754315D01*
X187235589Y-94751551D01*
X187231866Y-94754315D01*
X185167348Y-94754315D01*
X185185624Y-94711982D01*
X189141100Y-94711982D01*
X189215702Y-94787027D01*
X189269875Y-94839489D01*
X189298024Y-94860670D01*
X189306198Y-94855105D01*
X189306200Y-94854847D01*
X189289195Y-94836497D01*
X189252719Y-94804345D01*
X195707000Y-94804345D01*
X195719700Y-94815891D01*
X195732400Y-94804345D01*
X195719700Y-94792800D01*
X195707000Y-94804345D01*
X189252719Y-94804345D01*
X189246346Y-94798728D01*
X189223650Y-94779802D01*
X189141100Y-94711982D01*
X195173600Y-94711982D01*
X195186300Y-94723527D01*
X195199000Y-94711982D01*
X195186300Y-94700436D01*
X195224400Y-94700436D01*
X195245945Y-94718688D01*
X195305166Y-94716957D01*
X195322917Y-94712863D01*
X195499873Y-94712863D01*
X195541559Y-94733159D01*
X195567300Y-94744599D01*
X195641635Y-94776583D01*
X195676610Y-94788609D01*
X195678125Y-94781690D01*
X195655292Y-94759683D01*
X195603536Y-94731112D01*
X195541900Y-94713195D01*
X195500861Y-94707290D01*
X195499873Y-94712863D01*
X195322917Y-94712863D01*
X195376800Y-94700436D01*
X195408988Y-94688967D01*
X195400353Y-94682862D01*
X195346297Y-94679971D01*
X195332350Y-94679647D01*
X195266461Y-94683074D01*
X195228253Y-94694414D01*
X195224400Y-94700436D01*
X195186300Y-94700436D01*
X195173600Y-94711982D01*
X189141100Y-94711982D01*
X185185624Y-94711982D01*
X185208598Y-94658772D01*
X185217659Y-94642709D01*
X194564000Y-94642709D01*
X194576700Y-94654254D01*
X194589400Y-94642709D01*
X194576700Y-94631163D01*
X194564000Y-94642709D01*
X185217659Y-94642709D01*
X185241016Y-94596527D01*
X194386200Y-94596527D01*
X194398900Y-94608073D01*
X194411600Y-94596527D01*
X194398900Y-94584982D01*
X194386200Y-94596527D01*
X185241016Y-94596527D01*
X185253225Y-94572390D01*
X185254003Y-94570293D01*
X194444690Y-94570293D01*
X194446016Y-94594687D01*
X194463135Y-94608974D01*
X194511030Y-94629479D01*
X194529445Y-94624056D01*
X194510460Y-94595780D01*
X194506547Y-94592129D01*
X194467008Y-94568443D01*
X194444690Y-94570293D01*
X185254003Y-94570293D01*
X185277121Y-94508018D01*
X185302229Y-94447020D01*
X185343143Y-94374306D01*
X185348898Y-94365618D01*
X186385200Y-94365618D01*
X186397900Y-94377163D01*
X186410600Y-94365618D01*
X186397900Y-94354073D01*
X186385200Y-94365618D01*
X185348898Y-94365618D01*
X185357513Y-94352613D01*
X185394875Y-94295576D01*
X185417206Y-94255247D01*
X185420000Y-94246450D01*
X185434150Y-94219059D01*
X185436563Y-94215527D01*
X194513200Y-94215527D01*
X194522493Y-94234533D01*
X194530133Y-94230921D01*
X194533173Y-94203517D01*
X194530133Y-94200133D01*
X194515033Y-94203303D01*
X194513200Y-94215527D01*
X185436563Y-94215527D01*
X185472180Y-94163411D01*
X185527202Y-94088527D01*
X192430400Y-94088527D01*
X192443100Y-94100073D01*
X192455800Y-94088527D01*
X192443100Y-94076982D01*
X192430400Y-94088527D01*
X185527202Y-94088527D01*
X185527462Y-94088174D01*
X185593365Y-94002017D01*
X185634503Y-93949982D01*
X191198500Y-93949982D01*
X191246886Y-94001936D01*
X191291921Y-94045567D01*
X191311536Y-94051866D01*
X191312800Y-94045924D01*
X191295670Y-94027066D01*
X191255650Y-93993969D01*
X191198500Y-93949982D01*
X185634503Y-93949982D01*
X185663261Y-93913608D01*
X185730519Y-93831615D01*
X185781318Y-93772983D01*
X190944500Y-93772983D01*
X191020700Y-93832504D01*
X191075096Y-93873969D01*
X191101408Y-93890013D01*
X191109346Y-93886076D01*
X191109600Y-93882281D01*
X191090573Y-93864484D01*
X191043267Y-93832597D01*
X191027050Y-93822646D01*
X190980507Y-93794645D01*
X192138300Y-93794645D01*
X192233176Y-93878086D01*
X192301149Y-93934992D01*
X192339983Y-93959753D01*
X192353977Y-93954991D01*
X192354200Y-93951922D01*
X192335685Y-93933896D01*
X192288121Y-93897876D01*
X192246250Y-93868481D01*
X192138300Y-93794645D01*
X190980507Y-93794645D01*
X190944500Y-93772983D01*
X185781318Y-93772983D01*
X185788015Y-93765254D01*
X185847731Y-93694991D01*
X185850686Y-93691055D01*
X190808894Y-93691055D01*
X190815074Y-93703959D01*
X190840649Y-93728748D01*
X190855352Y-93723663D01*
X190855600Y-93720435D01*
X190837558Y-93700905D01*
X190826275Y-93693777D01*
X190808894Y-93691055D01*
X185850686Y-93691055D01*
X185896496Y-93630044D01*
X185898533Y-93626709D01*
X190677800Y-93626709D01*
X190690500Y-93638254D01*
X190703200Y-93626709D01*
X190690500Y-93615163D01*
X190677800Y-93626709D01*
X185898533Y-93626709D01*
X185919692Y-93592073D01*
X185934298Y-93575600D01*
X190605694Y-93575600D01*
X190611874Y-93588505D01*
X190637449Y-93613294D01*
X190652152Y-93608209D01*
X190652400Y-93604981D01*
X190634358Y-93585450D01*
X190623075Y-93578322D01*
X190605694Y-93575600D01*
X185934298Y-93575600D01*
X185966313Y-93539496D01*
X185974397Y-93534345D01*
X190500000Y-93534345D01*
X190512700Y-93545891D01*
X190525400Y-93534345D01*
X190512700Y-93522800D01*
X190500000Y-93534345D01*
X185974397Y-93534345D01*
X186050575Y-93485811D01*
X186129168Y-93450660D01*
X188722772Y-93450660D01*
X188727339Y-93472941D01*
X188744314Y-93455399D01*
X188751253Y-93444799D01*
X188783044Y-93407279D01*
X188839765Y-93350579D01*
X188865997Y-93326527D01*
X189052200Y-93326527D01*
X189064900Y-93338073D01*
X189077600Y-93326527D01*
X189103000Y-93326527D01*
X189115700Y-93338073D01*
X189126973Y-93327824D01*
X189209868Y-93327824D01*
X189240398Y-93331650D01*
X189268100Y-93332249D01*
X189320375Y-93330391D01*
X189333867Y-93325158D01*
X189326877Y-93322679D01*
X189441666Y-93322679D01*
X189445153Y-93336406D01*
X189458600Y-93338073D01*
X189479507Y-93329624D01*
X189477735Y-93326527D01*
X189509400Y-93326527D01*
X189522100Y-93338073D01*
X189529812Y-93331061D01*
X190061487Y-93331061D01*
X190093700Y-93351354D01*
X190158551Y-93385469D01*
X190220600Y-93415924D01*
X190323896Y-93464069D01*
X190405092Y-93499185D01*
X190458850Y-93519345D01*
X190479832Y-93522625D01*
X190462702Y-93507099D01*
X190449200Y-93498403D01*
X190387846Y-93464968D01*
X190301581Y-93423438D01*
X190207794Y-93381582D01*
X190123874Y-93347168D01*
X190068200Y-93328208D01*
X190061487Y-93331061D01*
X189529812Y-93331061D01*
X189534800Y-93326527D01*
X189522100Y-93314982D01*
X189509400Y-93326527D01*
X189477735Y-93326527D01*
X189475533Y-93322679D01*
X189445389Y-93319915D01*
X189441666Y-93322679D01*
X189326877Y-93322679D01*
X189325546Y-93322207D01*
X189264549Y-93317906D01*
X189223946Y-93321741D01*
X189209868Y-93327824D01*
X189126973Y-93327824D01*
X189128400Y-93326527D01*
X189115700Y-93314982D01*
X189103000Y-93326527D01*
X189077600Y-93326527D01*
X189064900Y-93314982D01*
X189052200Y-93326527D01*
X188865997Y-93326527D01*
X188909145Y-93286967D01*
X188909231Y-93286891D01*
X188965675Y-93234908D01*
X188996888Y-93201234D01*
X188997449Y-93191882D01*
X188993500Y-93193417D01*
X188939376Y-93226904D01*
X188874081Y-93279146D01*
X188809072Y-93339256D01*
X188755805Y-93396349D01*
X188725736Y-93439539D01*
X188722772Y-93450660D01*
X186129168Y-93450660D01*
X186159910Y-93436911D01*
X186281746Y-93398687D01*
X186369608Y-93381164D01*
X186451838Y-93366889D01*
X186510570Y-93352334D01*
X186531408Y-93342113D01*
X186553203Y-93305252D01*
X186598020Y-93240773D01*
X186658617Y-93158152D01*
X186671001Y-93141800D01*
X189077600Y-93141800D01*
X189090300Y-93153345D01*
X189103000Y-93141800D01*
X189090300Y-93130254D01*
X189077600Y-93141800D01*
X186671001Y-93141800D01*
X186688489Y-93118709D01*
X189128400Y-93118709D01*
X189141100Y-93130254D01*
X189153800Y-93118709D01*
X189141100Y-93107163D01*
X189128400Y-93118709D01*
X186688489Y-93118709D01*
X186707282Y-93093895D01*
X189182867Y-93093895D01*
X189188856Y-93105944D01*
X189203100Y-93107163D01*
X189237543Y-93090393D01*
X189242520Y-93084337D01*
X189238431Y-93071215D01*
X189218619Y-93075262D01*
X189182867Y-93093895D01*
X186707282Y-93093895D01*
X186727756Y-93066864D01*
X186798195Y-92976387D01*
X186815460Y-92954921D01*
X190741153Y-92954921D01*
X190757762Y-92976268D01*
X190797717Y-93002402D01*
X190850370Y-93024692D01*
X190856784Y-93026627D01*
X190926824Y-93053625D01*
X190981479Y-93081628D01*
X191045693Y-93117318D01*
X191123997Y-93157747D01*
X191138490Y-93164891D01*
X191179287Y-93185252D01*
X191222729Y-93208191D01*
X191275024Y-93237314D01*
X191342384Y-93276225D01*
X191431016Y-93328530D01*
X191547130Y-93397834D01*
X191696937Y-93487743D01*
X191764710Y-93528495D01*
X191902528Y-93610638D01*
X191999570Y-93666689D01*
X192056665Y-93697052D01*
X192074642Y-93702133D01*
X192054332Y-93682337D01*
X192011300Y-93649030D01*
X191941393Y-93595259D01*
X191875826Y-93542677D01*
X191872693Y-93540078D01*
X191770261Y-93465073D01*
X192938400Y-93465073D01*
X192951100Y-93476618D01*
X192963800Y-93465073D01*
X192951100Y-93453527D01*
X192938400Y-93465073D01*
X191770261Y-93465073D01*
X191741811Y-93444241D01*
X191738125Y-93441982D01*
X192684400Y-93441982D01*
X192697100Y-93453527D01*
X192709800Y-93441982D01*
X192697100Y-93430436D01*
X192684400Y-93441982D01*
X191738125Y-93441982D01*
X191662765Y-93395800D01*
X192862200Y-93395800D01*
X192874900Y-93407345D01*
X192887600Y-93395800D01*
X192874900Y-93384254D01*
X192862200Y-93395800D01*
X191662765Y-93395800D01*
X191625085Y-93372709D01*
X192811400Y-93372709D01*
X192824100Y-93384254D01*
X192836800Y-93372709D01*
X192824100Y-93361163D01*
X192811400Y-93372709D01*
X191625085Y-93372709D01*
X191565505Y-93336198D01*
X191547655Y-93326527D01*
X192760600Y-93326527D01*
X192773300Y-93338073D01*
X192786000Y-93326527D01*
X192773300Y-93314982D01*
X192760600Y-93326527D01*
X191547655Y-93326527D01*
X191467216Y-93282946D01*
X192489931Y-93282946D01*
X192493900Y-93291891D01*
X192516724Y-93313919D01*
X192520799Y-93314982D01*
X192531708Y-93297116D01*
X192532000Y-93291891D01*
X192512473Y-93269687D01*
X192505100Y-93268800D01*
X192489931Y-93282946D01*
X191467216Y-93282946D01*
X191346777Y-93217694D01*
X191323573Y-93206146D01*
X192409094Y-93206146D01*
X192415274Y-93219050D01*
X192440849Y-93243839D01*
X192455552Y-93238754D01*
X192455800Y-93235526D01*
X192437758Y-93215995D01*
X192429966Y-93211073D01*
X192620900Y-93211073D01*
X192669286Y-93263027D01*
X192714321Y-93306658D01*
X192733936Y-93312957D01*
X192735200Y-93307015D01*
X192718070Y-93288157D01*
X192678050Y-93255060D01*
X192620900Y-93211073D01*
X192429966Y-93211073D01*
X192426475Y-93208868D01*
X192409094Y-93206146D01*
X191323573Y-93206146D01*
X191194278Y-93141800D01*
X192303400Y-93141800D01*
X192316100Y-93153345D01*
X192328800Y-93141800D01*
X192316100Y-93130254D01*
X192303400Y-93141800D01*
X191194278Y-93141800D01*
X191150618Y-93120072D01*
X191147778Y-93118709D01*
X192430400Y-93118709D01*
X192443100Y-93130254D01*
X192455800Y-93118709D01*
X192443100Y-93107163D01*
X192430400Y-93118709D01*
X191147778Y-93118709D01*
X191012900Y-93053993D01*
X190912980Y-93006857D01*
X190843976Y-92975626D01*
X190799008Y-92957263D01*
X190771195Y-92948729D01*
X190758535Y-92946991D01*
X190741153Y-92954921D01*
X186815460Y-92954921D01*
X186862694Y-92896194D01*
X186903787Y-92847805D01*
X188776029Y-92847805D01*
X188778744Y-92850197D01*
X188806224Y-92831356D01*
X188851952Y-92786671D01*
X188878509Y-92749254D01*
X189204600Y-92749254D01*
X189217300Y-92760800D01*
X189230000Y-92749254D01*
X189217300Y-92737709D01*
X189204600Y-92749254D01*
X188878509Y-92749254D01*
X188888696Y-92734902D01*
X188914071Y-92698460D01*
X189335526Y-92698460D01*
X189363743Y-92699201D01*
X189437145Y-92685032D01*
X189455883Y-92680633D01*
X189569816Y-92661419D01*
X189681624Y-92662734D01*
X189812130Y-92685291D01*
X189849110Y-92694083D01*
X189920034Y-92711391D01*
X189970596Y-92723358D01*
X189979300Y-92725288D01*
X190019040Y-92737351D01*
X190079570Y-92759040D01*
X190080900Y-92759545D01*
X190141605Y-92781458D01*
X190182057Y-92794080D01*
X190182500Y-92794181D01*
X190223764Y-92806597D01*
X190271400Y-92823209D01*
X190351560Y-92851990D01*
X190400621Y-92867209D01*
X190434226Y-92873391D01*
X190448501Y-92874431D01*
X190464368Y-92868190D01*
X190435801Y-92846220D01*
X190340165Y-92800725D01*
X190203676Y-92752793D01*
X190035892Y-92705724D01*
X190011050Y-92699538D01*
X189926261Y-92676414D01*
X189864966Y-92655273D01*
X189839697Y-92640479D01*
X189839600Y-92639861D01*
X189816769Y-92628187D01*
X189757495Y-92622650D01*
X189675604Y-92622730D01*
X189584920Y-92627903D01*
X189499269Y-92637648D01*
X189432477Y-92651443D01*
X189419684Y-92655712D01*
X189353754Y-92683675D01*
X189335526Y-92698460D01*
X188914071Y-92698460D01*
X188922334Y-92686595D01*
X188978213Y-92616999D01*
X189045313Y-92539730D01*
X189057927Y-92525844D01*
X189119665Y-92457358D01*
X189150114Y-92419947D01*
X189151329Y-92409843D01*
X189125365Y-92423279D01*
X189107779Y-92434433D01*
X189041241Y-92486382D01*
X188987742Y-92542742D01*
X188982911Y-92549446D01*
X188939215Y-92608579D01*
X188902698Y-92652226D01*
X188869423Y-92700240D01*
X188858581Y-92729297D01*
X188838523Y-92772773D01*
X188806470Y-92814382D01*
X188776029Y-92847805D01*
X186903787Y-92847805D01*
X186914014Y-92835763D01*
X186936540Y-92811890D01*
X186985456Y-92762592D01*
X186997105Y-92749254D01*
X188798200Y-92749254D01*
X188810900Y-92760800D01*
X188823600Y-92749254D01*
X188810900Y-92737709D01*
X188798200Y-92749254D01*
X186997105Y-92749254D01*
X187015583Y-92728097D01*
X187020200Y-92719955D01*
X187038004Y-92696897D01*
X187084797Y-92652380D01*
X187150650Y-92594624D01*
X187225636Y-92531853D01*
X187299824Y-92472288D01*
X187363288Y-92424151D01*
X187406097Y-92395664D01*
X187417014Y-92391345D01*
X187452054Y-92378501D01*
X187456233Y-92372683D01*
X187481932Y-92348635D01*
X187503431Y-92333618D01*
X189103000Y-92333618D01*
X189115700Y-92345163D01*
X189128400Y-92333618D01*
X189115700Y-92322073D01*
X189103000Y-92333618D01*
X187503431Y-92333618D01*
X187536055Y-92310831D01*
X187603217Y-92268723D01*
X187651389Y-92241254D01*
X189077600Y-92241254D01*
X189090300Y-92252800D01*
X189103000Y-92241254D01*
X189090300Y-92229709D01*
X189077600Y-92241254D01*
X187651389Y-92241254D01*
X187668036Y-92231762D01*
X187715128Y-92209400D01*
X187726516Y-92206618D01*
X187737948Y-92201460D01*
X189002997Y-92201460D01*
X189025874Y-92206186D01*
X189031650Y-92206264D01*
X189077577Y-92194498D01*
X189090300Y-92183527D01*
X189092349Y-92163129D01*
X189062062Y-92166519D01*
X189026800Y-92183527D01*
X189002997Y-92201460D01*
X187737948Y-92201460D01*
X187761595Y-92190791D01*
X187780258Y-92174109D01*
X187819075Y-92145530D01*
X187880182Y-92112443D01*
X187944302Y-92084007D01*
X187992152Y-92069384D01*
X188001148Y-92069160D01*
X188027531Y-92055335D01*
X188036693Y-92044256D01*
X188078160Y-92021704D01*
X188161540Y-92006227D01*
X188278557Y-91997751D01*
X188420936Y-91996205D01*
X188580402Y-92001517D01*
X188748678Y-92013614D01*
X188917490Y-92032425D01*
X189052200Y-92053105D01*
X189194495Y-92076301D01*
X189296380Y-92087736D01*
X189366544Y-92087509D01*
X189413674Y-92075713D01*
X189441305Y-92057405D01*
X189489275Y-92023120D01*
X189571635Y-91973474D01*
X189677568Y-91914177D01*
X189796260Y-91850939D01*
X189916897Y-91789470D01*
X190028663Y-91735481D01*
X190120743Y-91694681D01*
X190150153Y-91683143D01*
X190212054Y-91661243D01*
X190266714Y-91645919D01*
X190324540Y-91636278D01*
X190395939Y-91631431D01*
X190491317Y-91630486D01*
X190621081Y-91632550D01*
D11*
%TO.C,C1*%
X236942300Y-74679352D02*
X236942300Y-74156848D01*
X235472300Y-74679352D02*
X235472300Y-74156848D01*
%TO.C,C2*%
X227979300Y-74120552D02*
X227979300Y-73598048D01*
X229449300Y-74120552D02*
X229449300Y-73598048D01*
%TO.C,C3*%
X240209400Y-84347952D02*
X240209400Y-83825448D01*
X241679400Y-84347952D02*
X241679400Y-83825448D01*
%TO.C,C8*%
X240145900Y-74679352D02*
X240145900Y-74156848D01*
X241615900Y-74679352D02*
X241615900Y-74156848D01*
%TO.C,C9*%
X241971500Y-79124352D02*
X241971500Y-78601848D01*
X240501500Y-79124352D02*
X240501500Y-78601848D01*
%TO.C,C10*%
X221905500Y-86501248D02*
X221905500Y-87023752D01*
X220435500Y-86501248D02*
X220435500Y-87023752D01*
%TO.C,C11*%
X221956300Y-78794152D02*
X221956300Y-78271648D01*
X220486300Y-78794152D02*
X220486300Y-78271648D01*
%TO.C,C12*%
X240171300Y-88674752D02*
X240171300Y-88152248D01*
X241641300Y-88674752D02*
X241641300Y-88152248D01*
%TO.C,J1*%
X195015600Y-78620600D02*
X185825600Y-78620600D01*
X194895600Y-88030600D02*
X185945600Y-88030600D01*
X185825600Y-81350600D02*
X185825600Y-78620600D01*
X195015600Y-81350600D02*
X195015600Y-78620600D01*
X185825600Y-84950600D02*
X185825600Y-84050600D01*
X195015600Y-84950600D02*
X195015600Y-84050600D01*
%TO.C,R1*%
X197546900Y-85183736D02*
X197546900Y-85637864D01*
X196076900Y-85183736D02*
X196076900Y-85637864D01*
%TO.C,R2*%
X184745300Y-85415364D02*
X184745300Y-84961236D01*
X183275300Y-85415364D02*
X183275300Y-84961236D01*
%TO.C,R3*%
X239069636Y-93587900D02*
X239523764Y-93587900D01*
X239069636Y-95057900D02*
X239523764Y-95057900D01*
%TO.C,R4*%
X238948736Y-99871200D02*
X239402864Y-99871200D01*
X238948736Y-98401200D02*
X239402864Y-98401200D01*
%TO.C,R5*%
X224055000Y-95600764D02*
X224055000Y-95146636D01*
X225525000Y-95600764D02*
X225525000Y-95146636D01*
%TO.C,R6*%
X221886536Y-73953700D02*
X222340664Y-73953700D01*
X221886536Y-75423700D02*
X222340664Y-75423700D01*
%TO.C,R7*%
X221930900Y-82777064D02*
X221930900Y-82322936D01*
X220460900Y-82777064D02*
X220460900Y-82322936D01*
%TO.C,SW1*%
X230304000Y-98815000D02*
X230754000Y-99265000D01*
X233704000Y-98815000D02*
X233254000Y-99265000D01*
X233704000Y-94215000D02*
X233254000Y-93765000D01*
X230304000Y-94215000D02*
X230754000Y-93765000D01*
X234754000Y-95515000D02*
X234754000Y-97515000D01*
X230754000Y-99265000D02*
X233254000Y-99265000D01*
X229254000Y-95515000D02*
X229254000Y-97515000D01*
X230754000Y-93765000D02*
X233254000Y-93765000D01*
D12*
%TO.C,U4*%
X237445300Y-88766400D02*
X237445300Y-88191400D01*
X227095300Y-88766400D02*
X227095300Y-88091400D01*
X227095300Y-78416400D02*
X227095300Y-79091400D01*
X237445300Y-78416400D02*
X237445300Y-79091400D01*
X237445300Y-88766400D02*
X236770300Y-88766400D01*
X237445300Y-78416400D02*
X236770300Y-78416400D01*
X227095300Y-78416400D02*
X227770300Y-78416400D01*
X227095300Y-88766400D02*
X227770300Y-88766400D01*
X237445300Y-88191400D02*
X238720300Y-88191400D01*
D11*
%TO.C,Y1*%
X232694564Y-76705398D02*
X235028017Y-74371945D01*
X235028017Y-74371945D02*
X232199590Y-71543518D01*
%TO.C,C1*%
D12*
X234884442Y-74584766D02*
X234932061Y-74632385D01*
X234979680Y-74775242D01*
X234979680Y-74870480D01*
X234932061Y-75013338D01*
X234836823Y-75108576D01*
X234741585Y-75156195D01*
X234551109Y-75203814D01*
X234408252Y-75203814D01*
X234217776Y-75156195D01*
X234122538Y-75108576D01*
X234027300Y-75013338D01*
X233979680Y-74870480D01*
X233979680Y-74775242D01*
X234027300Y-74632385D01*
X234074919Y-74584766D01*
X234979680Y-73632385D02*
X234979680Y-74203814D01*
X234979680Y-73918100D02*
X233979680Y-73918100D01*
X234122538Y-74013338D01*
X234217776Y-74108576D01*
X234265395Y-74203814D01*
%TO.C,C2*%
X227391442Y-74025966D02*
X227439061Y-74073585D01*
X227486680Y-74216442D01*
X227486680Y-74311680D01*
X227439061Y-74454538D01*
X227343823Y-74549776D01*
X227248585Y-74597395D01*
X227058109Y-74645014D01*
X226915252Y-74645014D01*
X226724776Y-74597395D01*
X226629538Y-74549776D01*
X226534300Y-74454538D01*
X226486680Y-74311680D01*
X226486680Y-74216442D01*
X226534300Y-74073585D01*
X226581919Y-74025966D01*
X226581919Y-73645014D02*
X226534300Y-73597395D01*
X226486680Y-73502157D01*
X226486680Y-73264061D01*
X226534300Y-73168823D01*
X226581919Y-73121204D01*
X226677157Y-73073585D01*
X226772395Y-73073585D01*
X226915252Y-73121204D01*
X227486680Y-73692633D01*
X227486680Y-73073585D01*
%TO.C,C3*%
X239621542Y-84253366D02*
X239669161Y-84300985D01*
X239716780Y-84443842D01*
X239716780Y-84539080D01*
X239669161Y-84681938D01*
X239573923Y-84777176D01*
X239478685Y-84824795D01*
X239288209Y-84872414D01*
X239145352Y-84872414D01*
X238954876Y-84824795D01*
X238859638Y-84777176D01*
X238764400Y-84681938D01*
X238716780Y-84539080D01*
X238716780Y-84443842D01*
X238764400Y-84300985D01*
X238812019Y-84253366D01*
X238716780Y-83920033D02*
X238716780Y-83300985D01*
X239097733Y-83634319D01*
X239097733Y-83491461D01*
X239145352Y-83396223D01*
X239192971Y-83348604D01*
X239288209Y-83300985D01*
X239526304Y-83300985D01*
X239621542Y-83348604D01*
X239669161Y-83396223D01*
X239716780Y-83491461D01*
X239716780Y-83777176D01*
X239669161Y-83872414D01*
X239621542Y-83920033D01*
%TO.C,C8*%
X239558042Y-74584766D02*
X239605661Y-74632385D01*
X239653280Y-74775242D01*
X239653280Y-74870480D01*
X239605661Y-75013338D01*
X239510423Y-75108576D01*
X239415185Y-75156195D01*
X239224709Y-75203814D01*
X239081852Y-75203814D01*
X238891376Y-75156195D01*
X238796138Y-75108576D01*
X238700900Y-75013338D01*
X238653280Y-74870480D01*
X238653280Y-74775242D01*
X238700900Y-74632385D01*
X238748519Y-74584766D01*
X239081852Y-74013338D02*
X239034233Y-74108576D01*
X238986614Y-74156195D01*
X238891376Y-74203814D01*
X238843757Y-74203814D01*
X238748519Y-74156195D01*
X238700900Y-74108576D01*
X238653280Y-74013338D01*
X238653280Y-73822861D01*
X238700900Y-73727623D01*
X238748519Y-73680004D01*
X238843757Y-73632385D01*
X238891376Y-73632385D01*
X238986614Y-73680004D01*
X239034233Y-73727623D01*
X239081852Y-73822861D01*
X239081852Y-74013338D01*
X239129471Y-74108576D01*
X239177090Y-74156195D01*
X239272328Y-74203814D01*
X239462804Y-74203814D01*
X239558042Y-74156195D01*
X239605661Y-74108576D01*
X239653280Y-74013338D01*
X239653280Y-73822861D01*
X239605661Y-73727623D01*
X239558042Y-73680004D01*
X239462804Y-73632385D01*
X239272328Y-73632385D01*
X239177090Y-73680004D01*
X239129471Y-73727623D01*
X239081852Y-73822861D01*
%TO.C,C9*%
X239913642Y-79029766D02*
X239961261Y-79077385D01*
X240008880Y-79220242D01*
X240008880Y-79315480D01*
X239961261Y-79458338D01*
X239866023Y-79553576D01*
X239770785Y-79601195D01*
X239580309Y-79648814D01*
X239437452Y-79648814D01*
X239246976Y-79601195D01*
X239151738Y-79553576D01*
X239056500Y-79458338D01*
X239008880Y-79315480D01*
X239008880Y-79220242D01*
X239056500Y-79077385D01*
X239104119Y-79029766D01*
X240008880Y-78553576D02*
X240008880Y-78363100D01*
X239961261Y-78267861D01*
X239913642Y-78220242D01*
X239770785Y-78125004D01*
X239580309Y-78077385D01*
X239199357Y-78077385D01*
X239104119Y-78125004D01*
X239056500Y-78172623D01*
X239008880Y-78267861D01*
X239008880Y-78458338D01*
X239056500Y-78553576D01*
X239104119Y-78601195D01*
X239199357Y-78648814D01*
X239437452Y-78648814D01*
X239532690Y-78601195D01*
X239580309Y-78553576D01*
X239627928Y-78458338D01*
X239627928Y-78267861D01*
X239580309Y-78172623D01*
X239532690Y-78125004D01*
X239437452Y-78077385D01*
%TO.C,C10*%
X223207642Y-87405357D02*
X223255261Y-87452976D01*
X223302880Y-87595833D01*
X223302880Y-87691071D01*
X223255261Y-87833928D01*
X223160023Y-87929166D01*
X223064785Y-87976785D01*
X222874309Y-88024404D01*
X222731452Y-88024404D01*
X222540976Y-87976785D01*
X222445738Y-87929166D01*
X222350500Y-87833928D01*
X222302880Y-87691071D01*
X222302880Y-87595833D01*
X222350500Y-87452976D01*
X222398119Y-87405357D01*
X223302880Y-86452976D02*
X223302880Y-87024404D01*
X223302880Y-86738690D02*
X222302880Y-86738690D01*
X222445738Y-86833928D01*
X222540976Y-86929166D01*
X222588595Y-87024404D01*
X222302880Y-85833928D02*
X222302880Y-85738690D01*
X222350500Y-85643452D01*
X222398119Y-85595833D01*
X222493357Y-85548214D01*
X222683833Y-85500595D01*
X222921928Y-85500595D01*
X223112404Y-85548214D01*
X223207642Y-85595833D01*
X223255261Y-85643452D01*
X223302880Y-85738690D01*
X223302880Y-85833928D01*
X223255261Y-85929166D01*
X223207642Y-85976785D01*
X223112404Y-86024404D01*
X222921928Y-86072023D01*
X222683833Y-86072023D01*
X222493357Y-86024404D01*
X222398119Y-85976785D01*
X222350500Y-85929166D01*
X222302880Y-85833928D01*
%TO.C,C11*%
X219898442Y-79175757D02*
X219946061Y-79223376D01*
X219993680Y-79366233D01*
X219993680Y-79461471D01*
X219946061Y-79604328D01*
X219850823Y-79699566D01*
X219755585Y-79747185D01*
X219565109Y-79794804D01*
X219422252Y-79794804D01*
X219231776Y-79747185D01*
X219136538Y-79699566D01*
X219041300Y-79604328D01*
X218993680Y-79461471D01*
X218993680Y-79366233D01*
X219041300Y-79223376D01*
X219088919Y-79175757D01*
X219993680Y-78223376D02*
X219993680Y-78794804D01*
X219993680Y-78509090D02*
X218993680Y-78509090D01*
X219136538Y-78604328D01*
X219231776Y-78699566D01*
X219279395Y-78794804D01*
X219993680Y-77270995D02*
X219993680Y-77842423D01*
X219993680Y-77556709D02*
X218993680Y-77556709D01*
X219136538Y-77651947D01*
X219231776Y-77747185D01*
X219279395Y-77842423D01*
%TO.C,C12*%
X239583442Y-89056357D02*
X239631061Y-89103976D01*
X239678680Y-89246833D01*
X239678680Y-89342071D01*
X239631061Y-89484928D01*
X239535823Y-89580166D01*
X239440585Y-89627785D01*
X239250109Y-89675404D01*
X239107252Y-89675404D01*
X238916776Y-89627785D01*
X238821538Y-89580166D01*
X238726300Y-89484928D01*
X238678680Y-89342071D01*
X238678680Y-89246833D01*
X238726300Y-89103976D01*
X238773919Y-89056357D01*
X239678680Y-88103976D02*
X239678680Y-88675404D01*
X239678680Y-88389690D02*
X238678680Y-88389690D01*
X238821538Y-88484928D01*
X238916776Y-88580166D01*
X238964395Y-88675404D01*
X238773919Y-87723023D02*
X238726300Y-87675404D01*
X238678680Y-87580166D01*
X238678680Y-87342071D01*
X238726300Y-87246833D01*
X238773919Y-87199214D01*
X238869157Y-87151595D01*
X238964395Y-87151595D01*
X239107252Y-87199214D01*
X239678680Y-87770642D01*
X239678680Y-87151595D01*
%TO.C,J1*%
X190087266Y-88602980D02*
X190087266Y-89317266D01*
X190039647Y-89460123D01*
X189944409Y-89555361D01*
X189801552Y-89602980D01*
X189706314Y-89602980D01*
X191087266Y-89602980D02*
X190515838Y-89602980D01*
X190801552Y-89602980D02*
X190801552Y-88602980D01*
X190706314Y-88745838D01*
X190611076Y-88841076D01*
X190515838Y-88888695D01*
%TO.C,R1*%
X198914280Y-85577466D02*
X198438090Y-85910800D01*
X198914280Y-86148895D02*
X197914280Y-86148895D01*
X197914280Y-85767942D01*
X197961900Y-85672704D01*
X198009519Y-85625085D01*
X198104757Y-85577466D01*
X198247614Y-85577466D01*
X198342852Y-85625085D01*
X198390471Y-85672704D01*
X198438090Y-85767942D01*
X198438090Y-86148895D01*
X198914280Y-84625085D02*
X198914280Y-85196514D01*
X198914280Y-84910800D02*
X197914280Y-84910800D01*
X198057138Y-85006038D01*
X198152376Y-85101276D01*
X198199995Y-85196514D01*
%TO.C,R2*%
X182812680Y-85354966D02*
X182336490Y-85688300D01*
X182812680Y-85926395D02*
X181812680Y-85926395D01*
X181812680Y-85545442D01*
X181860300Y-85450204D01*
X181907919Y-85402585D01*
X182003157Y-85354966D01*
X182146014Y-85354966D01*
X182241252Y-85402585D01*
X182288871Y-85450204D01*
X182336490Y-85545442D01*
X182336490Y-85926395D01*
X181907919Y-84974014D02*
X181860300Y-84926395D01*
X181812680Y-84831157D01*
X181812680Y-84593061D01*
X181860300Y-84497823D01*
X181907919Y-84450204D01*
X182003157Y-84402585D01*
X182098395Y-84402585D01*
X182241252Y-84450204D01*
X182812680Y-85021633D01*
X182812680Y-84402585D01*
%TO.C,R3*%
X239130033Y-93125280D02*
X238796700Y-92649090D01*
X238558604Y-93125280D02*
X238558604Y-92125280D01*
X238939557Y-92125280D01*
X239034795Y-92172900D01*
X239082414Y-92220519D01*
X239130033Y-92315757D01*
X239130033Y-92458614D01*
X239082414Y-92553852D01*
X239034795Y-92601471D01*
X238939557Y-92649090D01*
X238558604Y-92649090D01*
X239463366Y-92125280D02*
X240082414Y-92125280D01*
X239749080Y-92506233D01*
X239891938Y-92506233D01*
X239987176Y-92553852D01*
X240034795Y-92601471D01*
X240082414Y-92696709D01*
X240082414Y-92934804D01*
X240034795Y-93030042D01*
X239987176Y-93077661D01*
X239891938Y-93125280D01*
X239606223Y-93125280D01*
X239510985Y-93077661D01*
X239463366Y-93030042D01*
%TO.C,R4*%
X239009133Y-97938580D02*
X238675800Y-97462390D01*
X238437704Y-97938580D02*
X238437704Y-96938580D01*
X238818657Y-96938580D01*
X238913895Y-96986200D01*
X238961514Y-97033819D01*
X239009133Y-97129057D01*
X239009133Y-97271914D01*
X238961514Y-97367152D01*
X238913895Y-97414771D01*
X238818657Y-97462390D01*
X238437704Y-97462390D01*
X239866276Y-97271914D02*
X239866276Y-97938580D01*
X239628180Y-96890961D02*
X239390085Y-97605247D01*
X240009133Y-97605247D01*
%TO.C,R5*%
X223592380Y-95540366D02*
X223116190Y-95873700D01*
X223592380Y-96111795D02*
X222592380Y-96111795D01*
X222592380Y-95730842D01*
X222640000Y-95635604D01*
X222687619Y-95587985D01*
X222782857Y-95540366D01*
X222925714Y-95540366D01*
X223020952Y-95587985D01*
X223068571Y-95635604D01*
X223116190Y-95730842D01*
X223116190Y-96111795D01*
X222592380Y-94635604D02*
X222592380Y-95111795D01*
X223068571Y-95159414D01*
X223020952Y-95111795D01*
X222973333Y-95016557D01*
X222973333Y-94778461D01*
X223020952Y-94683223D01*
X223068571Y-94635604D01*
X223163809Y-94587985D01*
X223401904Y-94587985D01*
X223497142Y-94635604D01*
X223544761Y-94683223D01*
X223592380Y-94778461D01*
X223592380Y-95016557D01*
X223544761Y-95111795D01*
X223497142Y-95159414D01*
%TO.C,R6*%
X221946933Y-73491080D02*
X221613600Y-73014890D01*
X221375504Y-73491080D02*
X221375504Y-72491080D01*
X221756457Y-72491080D01*
X221851695Y-72538700D01*
X221899314Y-72586319D01*
X221946933Y-72681557D01*
X221946933Y-72824414D01*
X221899314Y-72919652D01*
X221851695Y-72967271D01*
X221756457Y-73014890D01*
X221375504Y-73014890D01*
X222804076Y-72491080D02*
X222613600Y-72491080D01*
X222518361Y-72538700D01*
X222470742Y-72586319D01*
X222375504Y-72729176D01*
X222327885Y-72919652D01*
X222327885Y-73300604D01*
X222375504Y-73395842D01*
X222423123Y-73443461D01*
X222518361Y-73491080D01*
X222708838Y-73491080D01*
X222804076Y-73443461D01*
X222851695Y-73395842D01*
X222899314Y-73300604D01*
X222899314Y-73062509D01*
X222851695Y-72967271D01*
X222804076Y-72919652D01*
X222708838Y-72872033D01*
X222518361Y-72872033D01*
X222423123Y-72919652D01*
X222375504Y-72967271D01*
X222327885Y-73062509D01*
%TO.C,R7*%
X219998280Y-82716666D02*
X219522090Y-83050000D01*
X219998280Y-83288095D02*
X218998280Y-83288095D01*
X218998280Y-82907142D01*
X219045900Y-82811904D01*
X219093519Y-82764285D01*
X219188757Y-82716666D01*
X219331614Y-82716666D01*
X219426852Y-82764285D01*
X219474471Y-82811904D01*
X219522090Y-82907142D01*
X219522090Y-83288095D01*
X218998280Y-82383333D02*
X218998280Y-81716666D01*
X219998280Y-82145238D01*
%TO.C,SW1*%
X230670666Y-93169761D02*
X230813523Y-93217380D01*
X231051619Y-93217380D01*
X231146857Y-93169761D01*
X231194476Y-93122142D01*
X231242095Y-93026904D01*
X231242095Y-92931666D01*
X231194476Y-92836428D01*
X231146857Y-92788809D01*
X231051619Y-92741190D01*
X230861142Y-92693571D01*
X230765904Y-92645952D01*
X230718285Y-92598333D01*
X230670666Y-92503095D01*
X230670666Y-92407857D01*
X230718285Y-92312619D01*
X230765904Y-92265000D01*
X230861142Y-92217380D01*
X231099238Y-92217380D01*
X231242095Y-92265000D01*
X231575428Y-92217380D02*
X231813523Y-93217380D01*
X232004000Y-92503095D01*
X232194476Y-93217380D01*
X232432571Y-92217380D01*
X233337333Y-93217380D02*
X232765904Y-93217380D01*
X233051619Y-93217380D02*
X233051619Y-92217380D01*
X232956380Y-92360238D01*
X232861142Y-92455476D01*
X232765904Y-92503095D01*
%TO.C,U4*%
X231508395Y-90493780D02*
X231508395Y-91303304D01*
X231556014Y-91398542D01*
X231603633Y-91446161D01*
X231698871Y-91493780D01*
X231889347Y-91493780D01*
X231984585Y-91446161D01*
X232032204Y-91398542D01*
X232079823Y-91303304D01*
X232079823Y-90493780D01*
X232984585Y-90827114D02*
X232984585Y-91493780D01*
X232746490Y-90446161D02*
X232508395Y-91160447D01*
X233127442Y-91160447D01*
%TO.C,Y1*%
X230394783Y-75503316D02*
X230058065Y-75840034D01*
X230529470Y-74897225D02*
X230394783Y-75503316D01*
X231000874Y-75368629D01*
X230899859Y-76681827D02*
X230495798Y-76277766D01*
X230697829Y-76479797D02*
X231404935Y-75772690D01*
X231236577Y-75806362D01*
X231101890Y-75806362D01*
X231000874Y-75772690D01*
%TO.C,H3*%
X239293495Y-116048180D02*
X239293495Y-115048180D01*
X239293495Y-115524371D02*
X239864923Y-115524371D01*
X239864923Y-116048180D02*
X239864923Y-115048180D01*
X240245876Y-115048180D02*
X240864923Y-115048180D01*
X240531590Y-115429133D01*
X240674447Y-115429133D01*
X240769685Y-115476752D01*
X240817304Y-115524371D01*
X240864923Y-115619609D01*
X240864923Y-115857704D01*
X240817304Y-115952942D01*
X240769685Y-116000561D01*
X240674447Y-116048180D01*
X240388733Y-116048180D01*
X240293495Y-116000561D01*
X240245876Y-115952942D01*
%TO.C,H4*%
X180263895Y-87346180D02*
X180263895Y-86346180D01*
X180263895Y-86822371D02*
X180835323Y-86822371D01*
X180835323Y-87346180D02*
X180835323Y-86346180D01*
X181740085Y-86679514D02*
X181740085Y-87346180D01*
X181501990Y-86298561D02*
X181263895Y-87012847D01*
X181882942Y-87012847D01*
%TD*%
M02*
